<?xml version="1.0" encoding="UTF-8"?>
<svg width="96px" height="96px" viewBox="0 0 96 96" version="1.1" xmlns="http://www.w3.org/2000/svg" xmlns:xlink="http://www.w3.org/1999/xlink">
    <!-- Generator: Sketch 46.2 (44496) - http://www.bohemiancoding.com/sketch -->
    <title>Artboard</title>
    <desc>Created with Sketch.</desc>
    <defs>
        <path d="M5.52605,0.439573333 C4.27921,0.46304 3.21552,0.898346667 2.45471,1.74346667 C1.2969,3.02965333 1.1099,4.97216 1.8173,6.92426667 L0.25434,6.92426667 L0.25434,9.30858667 L3.01353,9.30858667 C3.23097,9.94922667 3.23507,10.73248 2.96553,11.3645867 C2.60991,12.1985067 1.90606,12.8827733 0.25,12.8827733 L0.25,15.2669867 L9.75,15.2669867 L9.75,12.8827733 L4.54813,12.8827733 C4.65976,12.82624 4.90341,12.60448 4.99781,12.3517867 C5.41383,11.3761067 5.48504,10.3150933 5.30342,9.30858667 L7.80813,9.30858667 L7.80813,6.92426667 L4.33419,6.92426667 C3.38392,5.26549333 3.51408,4.00682667 4.06351,3.39669333 C4.66168,2.73205333 6.14252,2.35701333 8.61486,3.79488 L8.61486,1.14976 C7.51574,0.66112 6.46863,0.427093333 5.52605,0.439573333 L5.52605,0.439573333 Z" id="path-1"></path>
        <path d="M6.11956522,0.13610586 L4.06521739,0.13610586 L4.06521739,1.94177694 C1.99275362,2.37731569 0.807971014,3.28166352 0.510869565,4.65482042 C0.307971014,6.02192817 0.836956522,7.11379962 2.09782609,7.93043478 C2.51811594,8.20869565 3.61231884,8.63818526 5.38043478,9.21890359 C6.6557971,9.6241966 7.25,10.1716446 7.16304348,10.8612476 C7.0615942,11.6778828 6.3115942,12.0801512 4.91304348,12.0680529 C3.98550725,12.0499055 2.87318841,11.6325142 1.57608696,10.815879 L0.163043478,12.2767486 C0.438405797,12.7122873 0.945652174,13.0903592 1.68478261,13.4109641 C2.40217391,13.731569 3.19565217,13.9463138 4.06521739,14.0551985 L4.08695652,15.8336484 L6.2173913,15.8336484 L6.22826087,14.0461248 C7.88043478,13.731569 8.97463768,13.0177694 9.51086957,11.9047259 C10.0398551,10.6767486 9.95652174,9.68771267 9.26086957,8.93761815 C8.55072464,8.18147448 7.64855072,7.64310019 6.55434783,7.32249527 L4.89130435,6.8415879 C4.24637681,6.56937618 3.82608696,6.33950851 3.63043478,6.15198488 C2.84782609,5.34744802 2.98550725,4.66389414 4.04347826,4.10132325 C5.38405797,3.58109641 6.83333333,3.82608696 8.39130435,4.8362949 L9.5,3.28468809 C8.8115942,2.50434783 7.68478261,2.06275992 6.11956522,1.95992439 L6.11956522,0.13610586 Z" id="path-2"></path>
        <path d="M9.64426877,12.3355034 L9.99011858,13.99907 C10.0098814,14.0827714 10,14.1612416 9.96047431,14.2344804 C9.92094862,14.3077191 9.86495389,14.3582888 9.79249012,14.3861893 L9.743083,14.3966519 C9.71673254,14.4106022 9.68214756,14.4228086 9.63932806,14.4332713 C9.59650856,14.443734 9.54380764,14.459428 9.4812253,14.4803534 C9.41864295,14.5012788 9.34782609,14.5204604 9.2687747,14.5378982 C9.18972332,14.555336 9.10573123,14.5727738 9.01679842,14.5902116 C8.92786561,14.6076494 8.82905138,14.6250872 8.72035573,14.642525 C8.61166008,14.6599628 8.50131752,14.6756568 8.38932806,14.6896071 C8.2773386,14.7035573 8.15711462,14.71402 8.02865613,14.7209951 C7.90019763,14.7279702 7.77338603,14.7314578 7.64822134,14.7314578 C6.10671937,14.7314578 4.75955204,14.2763311 3.60671937,13.3660777 C2.45388669,12.4558242 1.66996047,11.2299465 1.25494071,9.68844455 L0.316205534,9.68844455 C0.230566535,9.68844455 0.156455863,9.65531272 0.0938735178,9.58904906 C0.0312911726,9.5227854 0,9.44431528 0,9.35363869 L0,8.1713555 C0,8.08067891 0.0312911726,8.00220879 0.0938735178,7.93594513 C0.156455863,7.86968147 0.230566535,7.83654964 0.316205534,7.83654964 L0.968379447,7.83654964 C0.955204216,7.43896768 0.958498024,7.07277377 0.97826087,6.73796791 L0.316205534,6.73796791 C0.22397892,6.73796791 0.148221344,6.70657987 0.0889328063,6.64380377 C0.0296442688,6.58102767 0,6.50081376 0,6.40316206 L0,5.21041618 C0,5.11276447 0.0296442688,5.03255057 0.0889328063,4.96977447 C0.148221344,4.90699837 0.22397892,4.87561032 0.316205534,4.87561032 L1.28458498,4.87561032 C1.7259552,3.41083469 2.52799736,2.23203906 3.69071146,1.33922344 C4.85342556,0.446407812 6.17259552,0 7.64822134,0 C8.3201581,0 8.95915679,0.0802139037 9.56521739,0.240641711 C9.63768116,0.261567077 9.70355731,0.313880493 9.76284585,0.397581958 C9.80237154,0.4743083 9.81225296,0.558009765 9.79249012,0.648686352 L9.36758893,2.31225296 C9.34782609,2.40292955 9.30171278,2.47093699 9.22924901,2.51627528 C9.15678524,2.56161358 9.07773386,2.57033248 8.99209486,2.54243199 L8.95256917,2.53196931 C8.92621871,2.52499419 8.88833992,2.51627528 8.83893281,2.5058126 L8.66600791,2.46919321 L8.44367589,2.43257382 L8.18675889,2.40118577 L7.90019763,2.37502906 L7.60869565,2.36456638 C6.77865613,2.36456638 6.0342556,2.58777029 5.37549407,3.0341781 C4.71673254,3.48058591 4.2226614,4.09439665 3.89328063,4.87561032 L8.51778656,4.87561032 C8.62318841,4.87561032 8.7055336,4.91746106 8.76482213,5.00116252 C8.83069829,5.08486399 8.85375494,5.17554057 8.83399209,5.27319228 L8.59683794,6.46593815 C8.56389987,6.64729133 8.45849802,6.73796791 8.28063241,6.73796791 L3.45849802,6.73796791 C3.43873518,6.99604743 3.43873518,7.36224134 3.45849802,7.83654964 L7.99407115,7.83654964 C8.09288538,7.83654964 8.17523057,7.87840037 8.24110672,7.96210184 C8.30039526,8.0458033 8.3201581,8.13996745 8.30039526,8.24459428 L8.06324111,9.41641479 C8.05006588,9.49314113 8.01383399,9.55766101 7.95454545,9.60997442 C7.89525692,9.66228784 7.82938076,9.68844455 7.756917,9.68844455 L3.93280632,9.68844455 C4.24901186,10.5045338 4.7414361,11.1514764 5.41007905,11.6292723 C6.078722,12.1070681 6.83135705,12.3459661 7.66798419,12.3459661 C7.78656126,12.3459661 7.90513834,12.3407347 8.02371542,12.330272 C8.14229249,12.3198093 8.25263505,12.3076029 8.35474308,12.2936526 C8.45685112,12.2797024 8.55401845,12.2640084 8.64624506,12.2465706 C8.73847167,12.2291328 8.81916996,12.211695 8.88833992,12.1942571 C8.95750988,12.1768193 9.01844532,12.1611253 9.07114625,12.1471751 L9.18972332,12.115787 L9.23913043,12.0948617 C9.32476943,12.059986 9.41040843,12.0669612 9.49604743,12.115787 C9.57509881,12.1646129 9.62450593,12.2378517 9.64426877,12.3355034 Z" id="path-3"></path>
        <path d="M9.92471939,0.170522388 C9.8599915,0.0568656716 9.77254252,0 9.66257653,0 L7.8077466,0 C7.67179422,0 7.57784864,0.0676119403 7.52607993,0.20238806 L5.67125,4.67679104 C5.62584184,4.79757463 5.53679422,5.0141791 5.40434524,5.32675373 C5.27162415,5.63925373 5.17291667,5.88067164 5.10818878,6.05115672 C4.86866497,5.43317164 4.68737245,4.98929104 4.56434524,4.71940299 L2.47635204,0.191791045 C2.41142007,0.0639179104 2.31767857,0 2.19465136,0 L0.310637755,0 C0.194243197,0 0.103528912,0.0568656716 0.0388010204,0.170522388 C-0.0129336735,0.284104478 -0.0129336735,0.397761194 0.0388010204,0.51141791 L3.15604592,6.66899254 L1.07778061,6.66899254 C0.993630952,6.66899254 0.920807823,6.70257463 0.859311224,6.77003731 C0.797848639,6.83764925 0.767066327,6.91738806 0.767066327,7.00970149 L0.767066327,8.11772388 C0.767066327,8.21720149 0.797848639,8.29891791 0.859311224,8.36276119 C0.920841837,8.42660448 0.993630952,8.45850746 1.07778061,8.45850746 L3.87458333,8.45850746 L3.87458333,9.36414179 L1.07778061,9.36414179 C0.993630952,9.36414179 0.920807823,9.39783582 0.859311224,9.46526119 C0.797848639,9.53272388 0.767066327,9.61261194 0.767066327,9.70507463 L0.767066327,10.8022015 C0.767066327,10.901791 0.797848639,10.9835075 0.859311224,11.0473507 C0.920841837,11.1112313 0.993630952,11.1431343 1.07778061,11.1431343 L3.87468537,11.1431343 L3.87468537,14.6587687 C3.87468537,14.758097 3.90539966,14.8398507 3.96693027,14.9036567 C4.02846088,14.9674627 4.10125,14.9995522 4.18539966,14.9995522 L5.85580782,14.9995522 C5.93985544,14.9995522 6.01257653,14.9658582 6.07451531,14.8982836 C6.1357398,14.830709 6.1664881,14.7509328 6.1664881,14.6587313 L6.1664881,11.143097 L8.98278061,11.143097 C9.06682823,11.143097 9.13968537,11.111194 9.20114796,11.0473134 C9.2627466,10.9834701 9.29332483,10.9017537 9.29332483,10.8021642 L9.29332483,9.70503731 C9.29332483,9.61257463 9.26284864,9.53268657 9.20114796,9.46522388 C9.13968537,9.39768657 9.06682823,9.36410448 8.98278061,9.36410448 L6.1664881,9.36410448 L6.1664881,8.45858209 L8.98278061,8.45858209 C9.06682823,8.45858209 9.13968537,8.4266791 9.20114796,8.36283582 C9.2627466,8.29899254 9.29332483,8.21727612 9.29332483,8.11779851 L9.29332483,7.00977612 C9.29332483,6.91746269 9.26284864,6.83772388 9.20114796,6.77011194 C9.13968537,6.70276119 9.06682823,6.66906716 8.98278061,6.66906716 L6.89488946,6.66906716 L9.93454932,0.500746269 C9.98618197,0.380074627 9.98301871,0.27 9.92471939,0.170522388 Z" id="path-4"></path>
    </defs>
    <g id="Page-1" stroke="none" stroke-width="1" fill="none" fill-rule="evenodd">
        <g id="Artboard">
            <g id="ic-bank-transfer">
                <g id="96" fill="#D8D8D8" opacity="0">
                    <rect id="Rectangle-4" x="0" y="0" width="96" height="96"></rect>
                </g>
                <g id="Group-6" transform="translate(10.000000, 30.000000)">
                    <text id="BANK-TRANSFER" font-family="Roboto-Bold, Roboto" font-size="7" font-weight="bold" fill="#000000">
                        <tspan x="20" y="34">BANK TRANSFER</tspan>
                    </text>
                    <g id="Group-5">
                        <path d="M61.6549575,0.244334253 L74.9131559,11.7356001 L74.9131559,11.7356001 C75.3304985,12.0973231 75.3755872,12.7288806 75.0138642,13.1462233 C74.9805004,13.1847172 74.9442441,13.2206055 74.9054118,13.2535748 L61.6472133,24.5100124 L61.6472133,24.5100124 C61.2262017,24.8674585 60.5951371,24.8159285 60.2376911,24.3949169 C60.0842409,24.2141782 60,23.9847972 60,23.7477035 L60,1 L60,1 C60,0.44771525 60.4477153,-1.39888101e-14 61,-1.40998324e-14 C61.2406039,-1.41553436e-14 61.4731414,0.0867489618 61.6549575,0.244334253 Z" id="Path-4" fill="#ADE60E"></path>
                        <g id="Group-4">
                            <g id="Group-2" fill="#238836">
                                <g id="Group-Copy-3">
                                    <path d="M51.6966664,8.53169569 L51.6966664,1.75881751 L51.6966664,1.75881751 C51.6966664,1.20653276 52.1443817,0.758817513 52.6966664,0.758817513 C52.9283845,0.758817513 53.1529109,0.839288162 53.331876,0.986477671 L66.5241294,11.8364234 L66.5241294,11.8364234 C66.950681,12.1872399 67.0120763,12.8174212 66.6612597,13.2439727 C66.6179547,13.2966266 66.5693788,13.3447139 66.5162899,13.3874845 L53.3240364,24.0157076 L53.3240364,24.0157076 C52.8939605,24.3621945 52.264432,24.2944322 51.9179451,23.8643563 C51.774749,23.6866145 51.6966664,23.4652346 51.6966664,23.2369863 L51.6966664,17.2857543 L0,19.1302916 L0,5.75105575 L51.6966664,8.53169569 Z" id="Path-4"></path>
                                </g>
                            </g>
                            <g id="Group-3" transform="translate(2.000000, 5.000000)" fill-rule="nonzero">
                                <g id="noun_1132150_cc" transform="translate(12.000000, 0.000000)">
                                    <g id="Group">
                                        <g id="Shape">
                                            <use fill="#FFFFFF" fill-rule="evenodd" xlink:href="#path-1"></use>
                                            <path stroke="#2E8836" stroke-width="1" d="M4.63106451,6.42426667 L7.80813,6.42426667 L8.30813,6.42426667 L8.30813,9.80858667 L5.8742467,9.80858667 C5.95211518,10.7029407 5.83768652,11.5841661 5.525092,12.3827733 L10.25,12.3827733 L10.25,15.7669867 L-0.25,15.7669867 L-0.25,12.3827733 L0.25,12.3827733 C1.52871712,12.3827733 2.16160402,11.9751252 2.50559921,11.1684651 C2.67470631,10.7718868 2.71488386,10.273915 2.62826247,9.80858667 L-0.24566,9.80858667 L-0.24566,6.42426667 L1.1369501,6.42426667 C0.629075335,4.50764909 0.944560136,2.67372299 2.08310709,1.40893523 C2.93169081,0.466314771 4.12139918,-0.0340784053 5.51664121,-0.0603381335 L5.51943045,-0.0603828463 C6.54868965,-0.074010501 7.66752667,0.181415338 8.8179786,0.692876169 L9.11486,0.824861874 L9.11486,4.66408156 L8.36348971,4.22709867 C6.40373515,3.0873421 5.01938228,3.08203007 4.43506319,3.73127998 C4.00020131,4.21418723 4.00072968,5.20344893 4.63106451,6.42426667 Z"></path>
                                        </g>
                                    </g>
                                </g>
                                <g id="noun_952618_cc">
                                    <g id="Group">
                                        <g id="a-link">
                                            <g id="a">
                                                <g id="Shape">
                                                    <use fill="#FFFFFF" fill-rule="evenodd" xlink:href="#path-2"></use>
                                                    <path stroke="#2E8836" stroke-width="1" d="M6.61956522,1.50268477 C8.07069707,1.66811674 9.16214381,2.14591323 9.87494985,2.95391232 L10.1379001,3.25197872 L8.5202723,5.51583015 L8.11927852,5.25582076 C6.68738428,4.32736258 5.40269139,4.11019363 4.27822631,4.54279052 C3.5051846,4.95385165 3.44639851,5.24571049 3.97641019,5.79101255 C4.11503203,5.92387522 4.49429418,6.13130376 5.03020015,6.36126722 L6.69493873,6.84266802 C7.87266747,7.18774627 8.85257143,7.77250613 9.62747684,8.59761946 C10.4706761,9.50680827 10.5717096,10.7059164 9.96131944,12.1217395 C9.39627867,13.2945809 8.30369161,14.0691195 6.72581242,14.4502981 L6.71436015,16.3336484 L3.59303099,16.3336484 L3.57046846,14.4878377 C2.81984058,14.3610863 2.12367027,14.1547587 1.48581429,13.8696705 C0.662376872,13.5124967 0.0768661307,13.0760911 -0.259575978,12.5439429 L-0.469644901,12.2116783 L1.49893868,10.1764657 L1.84247996,10.392754 C3.0693616,11.1651799 4.10036218,11.552057 4.91736861,11.5680716 C6.09340438,11.578245 6.60416079,11.3042968 6.66697178,10.7986947 C6.71511442,10.4169026 6.30218301,10.0364627 5.22441489,9.69393811 C3.40966274,9.09790262 2.29407866,8.66002061 1.82601786,8.35010166 C0.404896384,7.42967516 -0.216176222,6.14772803 0.0221773854,4.54908512 C0.346511366,3.05006367 1.556385,2.05099539 3.56521739,1.54409698 L3.56521739,-0.36389414 L6.61956522,-0.36389414 L6.61956522,1.50268477 Z"></path>
                                                </g>
                                            </g>
                                        </g>
                                    </g>
                                </g>
                                <g id="if_euro_1608680" transform="translate(24.000000, 1.000000)">
                                    <g id="Shape">
                                        <use fill="#FFFFFF" fill-rule="evenodd" xlink:href="#path-3"></use>
                                        <path stroke="#238836" stroke-width="1" d="M10.1340263,12.2348126 L10.4767384,13.8841736 C10.5243943,14.0860104 10.4987152,14.2899326 10.4004854,14.4719467 C10.3065493,14.6460046 10.161897,14.7777813 9.90605714,14.8717163 C9.85957134,14.8907909 9.81046619,14.9061644 9.75800852,14.9189821 C9.73019619,14.9257779 9.69021874,14.9376829 9.63977954,14.954548 C9.55957643,14.9813652 9.47193901,15.0051028 9.37647953,15.02616 C9.29349158,15.0444662 9.20567838,15.0626973 9.11300565,15.0808685 C9.01812383,15.0994727 8.91369219,15.1179018 8.79955691,15.1362123 C8.68504147,15.1545838 8.56890036,15.1711025 8.45113412,15.1857724 C8.32721825,15.2012083 8.19546905,15.2126739 8.05576551,15.2202597 C7.91833998,15.2277217 7.7824904,15.2314578 7.64822134,15.2314578 C5.99571751,15.2314578 4.53913799,14.7393673 3.29687156,13.7584988 C2.15214566,12.8546463 1.34532551,11.6605112 0.880258835,10.1884445 L0.316205534,10.1884445 C0.0905002668,10.1884445 -0.114209018,10.0969275 -0.269633058,9.93236082 C-0.41974853,9.77341503 -0.5,9.57216521 -0.5,9.35363869 L-0.5,8.1713555 C-0.5,7.95282897 -0.41974853,7.75157916 -0.269633058,7.59263336 C-0.114209018,7.42806673 0.0905002668,7.33654964 0.316205534,7.33654964 L0.460529359,7.33654964 C0.460625768,7.30346273 0.460848542,7.27060222 0.461197798,7.23796791 L0.316205534,7.23796791 C0.0888930202,7.23796791 -0.119011623,7.15182839 -0.27457377,6.98711553 C-0.424695519,6.82816309 -0.5,6.62439803 -0.5,6.40316206 L-0.5,5.21041618 C-0.5,4.98918021 -0.424695519,4.78541515 -0.27457377,4.6264627 C-0.119011623,4.46174984 0.0888930202,4.37561032 0.316205534,4.37561032 L0.921573268,4.37561032 C1.41207934,2.97421478 2.23537577,1.82633286 3.38619472,0.94265118 C4.63641069,-0.0173546863 6.0626653,-0.5 7.64822134,-0.5 C8.3626164,-0.5 9.04459532,-0.414390759 9.70393453,-0.239730598 C9.89549292,-0.184414272 10.0505382,-0.0612900656 10.2073331,0.168603663 C10.301168,0.350753756 10.3250577,0.553113564 10.2769377,0.772421928 L9.85612052,2.4187278 C9.80832158,2.63804057 9.68380664,2.82167394 9.4944522,2.94014705 C9.29454781,3.06522091 9.06153454,3.09092091 8.86414858,3.02578461 L8.82462289,3.01532192 C8.80782765,3.01087612 8.77728778,3.00384649 8.73534759,2.99496503 L8.58474978,2.96254614 L8.38304076,2.92888358 L8.14130889,2.89911578 L7.88226302,2.87470731 L7.60869565,2.86456638 C6.87755471,2.86456638 6.23100821,3.05842936 5.65598274,3.44809367 C5.28834737,3.6972207 4.97954098,4.00546542 4.72820775,4.37561032 L8.51778656,4.37561032 C8.78406846,4.37561032 9.01903864,4.49503046 9.15772869,4.69193051 C9.31265645,4.88877989 9.37350005,5.12806399 9.32439242,5.37069878 L9.08878971,6.55528837 C9.01321229,6.97140877 8.70336576,7.23796791 8.28063241,7.23796791 L3.94372599,7.23796791 C3.94382952,7.26992008 3.94408545,7.30278201 3.94449455,7.33654964 L7.99407115,7.33654964 C8.24965116,7.33654964 8.47532852,7.45124683 8.64911896,7.67309317 C8.78766281,7.86868448 8.83638871,8.10084907 8.79045992,8.34377403 L8.55602853,9.50103485 C8.52346851,9.69064911 8.42980687,9.85743695 8.28535627,9.98489335 C8.1368145,10.1159596 7.95425988,10.1884445 7.756917,10.1884445 L4.73500854,10.1884445 C4.98942096,10.6002396 5.31084696,10.9438274 5.7007762,11.2224613 C6.28419276,11.6393565 6.93510514,11.8459661 7.66798419,11.8459661 C7.77187673,11.8459661 7.87579076,11.8413816 7.97976851,11.8322071 C8.09067699,11.8224211 8.19314512,11.8110857 8.28706064,11.7982547 C8.38091937,11.7854315 8.46969752,11.7710925 8.55335309,11.7552753 C8.63630448,11.7395912 8.70739696,11.724229 8.76611371,11.7094265 C8.86339811,11.684738 8.86339811,11.684738 8.94319996,11.6638225 L8.99472664,11.6553782 L9.05054855,11.6317884 C9.28103679,11.5379244 9.52716065,11.5579707 9.75879387,11.690388 C9.95742683,11.8130731 10.0871057,12.0049276 10.1340263,12.2348126 Z"></path>
                                    </g>
                                </g>
                                <g id="yen-symbol" transform="translate(37.000000, 1.000000)">
                                    <g id="Shape">
                                        <use fill="#FFFFFF" fill-rule="evenodd" xlink:href="#path-4"></use>
                                        <path stroke="#238836" stroke-width="1" d="M5.11375947,4.72560104 C5.15482673,4.62537732 5.18646327,4.54585667 5.20936396,4.48531968 L7.05932797,0.0231044744 C7.18386687,-0.301123629 7.46053502,-0.5 7.8077466,-0.5 L9.66257653,-0.5 C9.96259428,-0.5 10.2098395,-0.339182144 10.3592008,-0.0769162775 L10.356097,-0.0822884898 C10.4978899,0.159656274 10.5060483,0.436120616 10.3830497,0.721760801 L7.69869542,6.16906716 L8.98278061,6.16906716 C9.21074077,6.16906716 9.4163747,6.26420638 9.57047763,6.43307248 C9.71650865,6.59309406 9.79332483,6.79313244 9.79332483,7.00977612 L9.79332483,8.11779851 C9.79332483,8.34285885 9.71560416,8.54973838 9.56135354,8.70960943 C9.47266437,8.8017339 9.3681815,8.87018603 9.25322436,8.91175665 C9.37279696,8.95577895 9.48044464,9.02925316 9.5701065,9.12777819 C9.71644888,9.28778697 9.79332483,9.48816806 9.79332483,9.70503731 L9.79332483,10.8021642 C9.79332483,11.027305 9.7156284,11.2341909 9.56145476,11.3939819 C9.4070885,11.5544211 9.20483855,11.643097 8.98278061,11.643097 L6.6664881,11.643097 L6.6664881,14.6587313 C6.6664881,14.8747036 6.58981108,15.0742223 6.44310496,15.2361322 C6.28869946,15.4045871 6.08363874,15.4995522 5.85580782,15.4995522 L4.18539966,15.4995522 C3.96333995,15.4995522 3.76138314,15.4108082 3.60701778,15.2507345 C3.452568,15.0905733 3.37468537,14.8836776 3.37468537,14.6587687 L3.37468537,11.6431343 L1.07778061,11.6431343 C0.855710775,11.6431343 0.653617608,11.5545375 0.499105643,11.3941244 C0.344888516,11.2339338 0.267066327,11.0271714 0.267066327,10.8022015 L0.267066327,9.70507463 C0.267066327,9.48846642 0.344060395,9.28838776 0.489889291,9.12832287 C0.58008071,9.02943626 0.687901984,8.9558261 0.807536459,8.91176715 C0.692529542,8.87021645 0.587979787,8.80174941 0.499105643,8.70953481 C0.3449127,8.54936934 0.267066327,8.34261351 0.267066327,8.11772388 L0.267066327,7.00970149 C0.267066327,6.79331692 0.34399889,6.59358477 0.489796496,6.43320076 C0.643969857,6.26407028 0.849689827,6.16899254 1.07778061,6.16899254 L2.34255926,6.16899254 L-0.416272725,0.718560098 C-0.527917646,0.473285716 -0.527917646,0.208493498 -0.395680402,-0.0769162775 C-0.245020197,-0.341462888 0.00775381291,-0.5 0.310637755,-0.5 L2.19465136,-0.5 C2.51574473,-0.5 2.77576755,-0.322901716 2.93039558,-0.0175996527 L5.01930543,4.51201151 C5.04792524,4.57479554 5.07935603,4.64609309 5.11361832,4.72594549 L5.11375947,4.72560104 Z"></path>
                                    </g>
                                </g>
                            </g>
                        </g>
                    </g>
                </g>
            </g>
        </g>
    </g>
</svg>