<?xml version="1.0" encoding="UTF-8"?>
<svg width="96px" height="96px" viewBox="0 0 96 96" version="1.1" xmlns="http://www.w3.org/2000/svg" xmlns:xlink="http://www.w3.org/1999/xlink">
    <!-- Generator: Sketch 46.2 (44496) - http://www.bohemiancoding.com/sketch -->
    <title>Artboard</title>
    <desc>Created with Sketch.</desc>
    <defs></defs>
    <g id="Page-1" stroke="none" stroke-width="1" fill="none" fill-rule="evenodd">
        <g id="Artboard">
            <g id="ic-bitcoin">
                <g id="96" fill="#D8D8D8" opacity="0">
                    <rect id="Rectangle-4" x="0" y="0" width="96" height="96"></rect>
                </g>
                <g id="Bitcoin_Logo_Horizontal_Dark" transform="translate(10.000000, 40.000000)" fill-rule="nonzero">
                    <g id="g3082" transform="translate(0.291855, 0.444690)">
                        <g id="g3084">
                            <path d="M15.6523226,10.1464627 C14.6045032,14.4961791 10.3477677,17.1433582 6.14447742,16.0586567 C1.94290323,14.974209 -0.614864516,10.5684179 0.433445161,6.21895522 C1.48077419,1.86873134 5.73750968,-0.778701493 9.93957419,0.305746269 C14.1426194,1.39019403 16.7001419,5.79649254 15.6523226,10.1464627 Z" id="path3086" fill="#F7931A"></path>
                            <g id="g3088" transform="translate(3.922581, 2.791045)" fill="#FFFFFF">
                                <g id="g3090">
                                    <path d="M7.57793548,4.23452239 C7.73410323,3.15413433 6.93929032,2.57334328 5.85249032,2.18589552 L6.20503226,0.722373134 L5.34427097,0.500358209 L5.00104516,1.92531343 C4.77476129,1.86695522 4.54234839,1.81189552 4.31140645,1.75734328 L4.65708387,0.323 L3.7968129,0.100985075 L3.44402581,1.564 C3.25672258,1.51985075 3.07285161,1.47620896 2.89437419,1.43028358 L2.89535484,1.42571642 L1.70828387,1.11895522 L1.47930323,2.07044776 C1.47930323,2.07044776 2.11794839,2.22192537 2.10446452,2.23131343 C2.45308387,2.32138806 2.51609032,2.56014925 2.50554839,2.74943284 L2.10397419,4.41670149 C2.128,4.42304478 2.15913548,4.4321791 2.19345806,4.44638806 C2.16477419,4.43902985 2.13412903,4.43091045 2.10250323,4.42304478 L1.5396129,6.75864179 C1.49695484,6.86825373 1.38883871,7.03267164 1.14514839,6.97025373 C1.15372903,6.98319403 0.519496774,6.80862687 0.519496774,6.80862687 L0.0921806452,7.82837313 L1.21232258,8.11737313 C1.42070968,8.17141791 1.62492903,8.228 1.82596129,8.28128358 L1.46974194,9.76155224 L2.32952258,9.98356716 L2.68230968,8.51902985 C2.91717419,8.585 3.14517419,8.64589552 3.36827097,8.70323881 L3.01670968,10.1609254 L3.87747097,10.3829403 L4.23369032,8.90546269 C5.70147097,9.1929403 6.8051871,9.07698507 7.26976774,7.70302985 C7.64412903,6.59676119 7.25113548,5.95862687 6.47887742,5.54250746 C7.04127742,5.40828358 7.46491613,5.02540299 7.57793548,4.23452239 L7.57793548,4.23452239 Z M5.61125161,7.08874627 C5.34525161,8.19501493 3.54552258,7.59697015 2.96203871,7.44701493 L3.43470968,5.48592537 C4.01819355,5.63664179 5.88926452,5.93502985 5.61125161,7.08874627 L5.61125161,7.08874627 Z M5.87749677,4.21853731 C5.6347871,5.22483582 4.13685161,4.71356716 3.65094194,4.58822388 L4.07948387,2.80956716 C4.56539355,2.93491045 6.13025806,3.16885075 5.87749677,4.21853731 L5.87749677,4.21853731 Z" id="path3092"></path>
                                </g>
                            </g>
                        </g>
                    </g>
                    <g id="g3094" transform="translate(16.472500, 0.444690)" fill="#4D4D4D">
                        <path d="M7.00695484,4.97643284 C7.64314839,4.97643284 8.1928,5.09441791 8.65468387,5.32607463 C9.11877419,5.56001493 9.50171613,5.87514925 9.80890323,6.27147761 C10.1119226,6.66983582 10.337471,7.13543284 10.4830968,7.66902985 C10.6277419,8.20414925 10.7003097,8.77935821 10.7003097,9.39516418 C10.7003097,10.3410746 10.5328645,11.2347164 10.1947871,12.0771045 C9.85670968,12.9207612 9.3980129,13.6525224 8.81452903,14.2767015 C8.23153548,14.9001194 7.54312258,15.391597 6.74929032,15.7546866 C5.95668387,16.1180299 5.09494194,16.2997015 4.16970323,16.2997015 C4.05006452,16.2997015 3.83971613,16.2961493 3.54258065,16.289806 C3.24544516,16.2834627 2.90393548,16.2517463 2.52148387,16.198209 C2.13658065,16.1426418 1.7296129,16.0604328 1.29984516,15.9503134 C0.870322581,15.8422239 0.462374194,15.6907463 0.0782064516,15.4984179 L3.51340645,0.559731343 L6.59018065,0.0662238806 L5.36020645,5.36743284 C5.62350968,5.24462687 5.88877419,5.14947761 6.15354839,5.08020896 C6.41856774,5.01195522 6.70295484,4.97643284 7.00695484,4.97643284 L7.00695484,4.97643284 Z M4.42614194,13.7735522 C4.88949677,13.7735522 5.32612903,13.6555672 5.73628387,13.4239104 C6.14766452,13.192 6.50265806,12.8788955 6.80003871,12.4889104 C7.09741935,12.0971493 7.33277419,11.6559104 7.5043871,11.1629104 C7.676,10.6699104 7.7627871,10.155597 7.7627871,9.62047761 C7.7627871,8.9630597 7.65663226,8.45026866 7.44505806,8.07956716 C7.23348387,7.71038806 6.84196129,7.52465672 6.27343226,7.52465672 C6.08710968,7.52465672 5.84709677,7.56144776 5.54947097,7.62716418 C5.25086452,7.6969403 4.98363871,7.8418209 4.74411613,8.05977612 L3.43446452,13.6895672 C3.51340645,13.7040299 3.58327742,13.7177313 3.64285161,13.7306716 C3.7012,13.7446269 3.76567742,13.7545224 3.82990968,13.7613731 C3.89781935,13.7692388 3.97553548,13.7732985 4.06943226,13.7732985 C4.16332903,13.7732985 4.28076129,13.7735522 4.42614194,13.7735522 L4.42614194,13.7735522 Z" id="path3096"></path>
                        <path d="M13.8918194,16.0124776 L10.953071,16.0124776 L13.4348387,5.20428358 L16.3936903,5.20428358 L13.8918194,16.0124776 L13.8918194,16.0124776 Z M15.3218452,3.88741791 C14.9116903,3.88741791 14.5397806,3.7610597 14.2097935,3.50783582 C13.8771097,3.25613433 13.7123613,2.86868657 13.7123613,2.34650746 C13.7123613,2.05928358 13.7687484,1.7898209 13.8805419,1.53558209 C13.9940516,1.28185075 14.1423742,1.06338806 14.3282065,0.877656716 C14.5137935,0.693447761 14.7288,0.546283582 14.9729806,0.435402985 C15.2186323,0.326298507 15.4799742,0.271746269 15.7584774,0.271746269 C16.1683871,0.271746269 16.5383355,0.398104478 16.8695484,0.651328358 C17.1995355,0.905820896 17.3655097,1.29326866 17.3655097,1.81265672 C17.3655097,2.10089552 17.3093677,2.37137313 17.1965935,2.62510448 C17.0845548,2.87883582 16.9362323,3.09729851 16.7504,3.28302985 C16.5662839,3.46749254 16.3493161,3.61414925 16.1056258,3.72401493 C15.859729,3.83489552 15.5993677,3.88741791 15.3218452,3.88741791 L15.3218452,3.88741791 Z" id="path3098"></path>
                        <path d="M18.9686194,2.5119403 L22.0466194,2.01843284 L21.2907871,5.20428358 L24.5872258,5.20428358 L23.9919742,7.71064179 L20.7153935,7.71064179 L19.8426194,11.4912388 C19.7622065,11.8063731 19.7166065,12.1007015 19.7038581,12.3742239 C19.6893935,12.6490149 19.7229806,12.8849851 19.8024129,13.0836567 C19.8813548,13.2828358 20.0233032,13.4363433 20.2292387,13.5449403 C20.4341935,13.6553134 20.7276516,13.7108806 21.1125548,13.7108806 C21.4295484,13.7108806 21.7384516,13.6796716 22.0370581,13.6177612 C22.3339484,13.5568657 22.6347613,13.4721194 22.9392516,13.3612388 L23.1584258,15.7047015 C22.7612645,15.8554179 22.3312516,15.9850746 21.8678968,16.0941791 C21.4038065,16.204806 20.8544,16.2580896 20.2194323,16.2580896 C19.3064516,16.2580896 18.598671,16.1177761 18.0943742,15.8384179 C17.5908129,15.5570299 17.2348387,15.1726269 17.0217935,14.6859701 C16.8116903,14.2010896 16.7177935,13.6421194 16.7440258,13.0123582 C16.7712387,12.3810746 16.8631742,11.7175672 17.0217935,11.018791 L18.9686194,2.5119403 Z" id="path3100"></path>
                        <path d="M24.4575355,11.6977761 C24.4575355,10.7668358 24.6031613,9.88892537 24.8941677,9.06708955 C25.1846839,8.24449254 25.6031742,7.52516418 26.1462065,6.90783582 C26.6872774,6.29355224 27.3465161,5.80689552 28.1224516,5.44964179 C28.8947097,5.09441791 29.7593935,4.91528358 30.7123355,4.91528358 C31.3088129,4.91528358 31.8415484,4.97364179 32.3102968,5.09061194 C32.7810065,5.20859701 33.2068516,5.36108955 33.592,5.55240299 L32.5785032,7.93747761 C32.313729,7.82634328 32.0389032,7.72840299 31.7547613,7.63959701 C31.4703742,7.54901493 31.1232258,7.50537313 30.7125806,7.50537313 C29.7316903,7.50537313 28.9562452,7.85526866 28.3791355,8.55277612 C27.8042323,9.25079104 27.5146968,10.1903582 27.5146968,11.3689403 C27.5146968,12.0674627 27.6603226,12.6322687 27.9525548,13.0643731 C28.2433161,13.4964776 28.7804645,13.7113881 29.5603226,13.7113881 C29.9452258,13.7113881 30.3166452,13.6697761 30.6723742,13.5885821 C31.0308,13.5063731 31.3473032,13.4028507 31.6260516,13.2805522 L31.845471,15.7255075 C31.4738065,15.8747015 31.0638968,16.0094328 30.614271,16.1274179 C30.1636645,16.2413433 29.6272516,16.3004627 29.0052774,16.3004627 C28.1842323,16.3004627 27.4892,16.1761343 26.920671,15.9312836 C26.3518968,15.6826269 25.8819226,15.3525224 25.511729,14.9343731 C25.1395742,14.515209 24.8723484,14.0257612 24.7071097,13.464 C24.541871,12.9027463 24.4575355,12.3130746 24.4575355,11.6977761 L24.4575355,11.6977761 Z" id="path3102"></path>
                        <path d="M37.5118839,16.2999552 C36.8104774,16.2999552 36.2012516,16.1893284 35.6844516,15.9703582 C35.1691226,15.7513881 34.7422968,15.4441194 34.4047097,15.0457612 C34.0666323,14.6494328 33.8136258,14.1797761 33.6402968,13.6385672 C33.4669677,13.0976119 33.3836129,12.4985522 33.3836129,11.8421493 C33.3836129,11.018791 33.5113419,10.1956866 33.7694968,9.37486567 C34.0264258,8.55226866 34.4076516,7.81314925 34.9121935,7.15623881 C35.4128129,6.49831343 36.0303742,5.96040299 36.7575226,5.54098507 C37.4839355,5.12435821 38.3194452,4.91477612 39.2579226,4.91477612 C39.9465806,4.91477612 40.5526194,5.02565672 41.076529,5.24462687 C41.5979871,5.46308955 42.0275097,5.77289552 42.3670581,6.16922388 C42.702929,6.56758209 42.9581419,7.03520896 43.1297548,7.5771791 C43.3025935,8.1171194 43.3879097,8.71770149 43.3879097,9.37461194 C43.3879097,10.1954328 43.2618968,11.0185373 43.0118323,11.8418955 C42.7615226,12.661194 42.3901032,13.4020896 41.8997806,14.0605224 C41.4104387,14.7174328 40.7985161,15.2550896 40.0635226,15.6727313 C39.3295097,16.0903731 38.4783097,16.2999552 37.5118839,16.2999552 L37.5118839,16.2999552 Z M38.9806452,7.5051194 C38.5449935,7.5051194 38.1598452,7.63604478 37.8301032,7.89459701 C37.4991355,8.15619403 37.2211226,8.48502985 36.9970452,8.88161194 C36.7705161,9.27997015 36.6025806,9.71435821 36.489071,10.1865522 C36.3765419,10.6597612 36.3213806,11.1070896 36.3213806,11.5320896 C36.3213806,12.2179254 36.428271,12.7520299 36.6383742,13.1364328 C36.8514194,13.518806 37.2341161,13.7111343 37.7903871,13.7111343 C38.2275097,13.7111343 38.6106968,13.5812239 38.9424,13.3198806 C39.2714065,13.0603134 39.5496645,12.7312239 39.7754581,12.3338806 C40.0005161,11.9375522 40.1699226,11.5018955 40.2834323,11.0289403 C40.3944903,10.5572537 40.4511226,10.1073881 40.4511226,9.68314925 C40.4511226,8.99908955 40.3447226,8.46371642 40.1326581,8.0798209 C39.9208387,7.69744776 39.5364258,7.5051194 38.9806452,7.5051194 L38.9806452,7.5051194 Z" id="path3104"></path>
                        <path d="M46.5911871,16.0124776 L43.6499871,16.0124776 L46.1317548,5.20428358 L49.0920774,5.20428358 L46.5911871,16.0124776 L46.5911871,16.0124776 Z M48.0190065,3.88741791 C47.6090968,3.88741791 47.2374323,3.7610597 46.9079355,3.50783582 C46.5769677,3.25613433 46.4107484,2.86868657 46.4107484,2.34650746 C46.4107484,2.05928358 46.467871,1.7898209 46.5799097,1.53558209 C46.6919484,1.28185075 46.8412516,1.06338806 47.0270839,0.877656716 C47.2116903,0.693447761 47.4286581,0.546283582 47.6723484,0.435402985 C47.916529,0.326298507 48.177871,0.271746269 48.4553935,0.271746269 C48.8662839,0.271746269 49.2374581,0.398104478 49.5679355,0.651328358 C49.8986581,0.905820896 50.0656129,1.29326866 50.0656129,1.81265672 C50.0656129,2.10089552 50.0062839,2.37137313 49.8952258,2.62510448 C49.7841677,2.87883582 49.6348645,3.09729851 49.4497677,3.28302985 C49.2634452,3.46749254 49.0491742,3.61414925 48.8049935,3.72401493 C48.5588516,3.83489552 48.298,3.88741791 48.0190065,3.88741791 L48.0190065,3.88741791 Z" id="path3106"></path>
                        <path d="M51.2088,5.69677612 C51.4318968,5.62928358 51.6809806,5.54808955 51.9518839,5.45979104 C52.2237677,5.37149254 52.5275226,5.28928358 52.8668258,5.21519403 C53.2024516,5.1388209 53.5812258,5.07691045 53.9977548,5.02895522 C54.4142839,4.97998507 54.8889161,4.95613433 55.4162581,4.95613433 C56.9661677,4.95613433 58.0345806,5.42325373 58.6244387,6.35470149 C59.2138065,7.28614925 59.3157935,8.56089552 58.9333419,10.1766567 L57.5815226,16.0124776 L54.6234065,16.0124776 L55.9335484,10.2994627 C56.013471,9.94271642 56.0762323,9.59789552 56.1225677,9.2609403 C56.1693935,8.92702985 56.1666968,8.63270149 56.1120258,8.37795522 C56.0598065,8.12625373 55.9367355,7.92022388 55.7457548,7.76062687 C55.5518323,7.60356716 55.2588645,7.52465672 54.8614581,7.52465672 C54.478271,7.52465672 54.0884645,7.56728358 53.6905677,7.64949254 L51.7643355,16.0122239 L48.8049935,16.0122239 L51.2088,5.69677612 L51.2088,5.69677612 Z" id="path3108"></path>
                    </g>
                </g>
            </g>
        </g>
    </g>
</svg>