<?xml version="1.0" encoding="UTF-8"?>
<svg width="96px" height="96px" viewBox="0 0 96 96" version="1.1" xmlns="http://www.w3.org/2000/svg" xmlns:xlink="http://www.w3.org/1999/xlink">
    <!-- Generator: Sketch 46.2 (44496) - http://www.bohemiancoding.com/sketch -->
    <title>Artboard</title>
    <desc>Created with Sketch.</desc>
    <defs></defs>
    <g id="Page-1" stroke="none" stroke-width="1" fill="none" fill-rule="evenodd">
        <g id="Artboard">
            <g id="ic-bitcoin-cash">
                <g id="96" fill="#D8D8D8" opacity="0">
                    <rect id="Rectangle-4" x="0" y="0" width="96" height="96"></rect>
                </g>
                <path d="M12.4758621,79.9172414 C11.9241352,79.9172414 11.3586236,79.8942531 10.7793103,79.8482759 C10.1999971,79.8022986 9.67586441,79.7287361 9.20689655,79.6275862 L11.4137931,70.3862069 C11.9379337,70.285057 12.4873534,70.2160921 13.062069,70.1793103 C13.6367845,70.1425286 14.163216,70.1241379 14.6413793,70.1241379 C15.1931062,70.1241379 15.6689635,70.1816086 16.0689655,70.2965517 C16.4689675,70.4114948 16.795401,70.5655163 17.0482759,70.7586207 C17.3011507,70.9517251 17.4896546,71.179309 17.6137931,71.4413793 C17.7379317,71.7034496 17.8,71.9816077 17.8,72.2758621 C17.8,72.4781619 17.7793106,72.6896541 17.737931,72.9103448 C17.6965515,73.1310356 17.6137937,73.3494242 17.4896552,73.5655172 C17.3655166,73.7816103 17.1954034,73.9862059 16.9793103,74.1793103 C16.7632173,74.3724148 16.4804615,74.5471257 16.1310345,74.7034483 C16.5448297,74.8873572 16.8482749,75.1379294 17.0413793,75.4551724 C17.2344837,75.7724154 17.3310345,76.124136 17.3310345,76.5103448 C17.3310345,76.9517263 17.243679,77.3770094 17.0689655,77.7862069 C16.894252,78.1954043 16.613795,78.5586191 16.2275862,78.8758621 C15.8413774,79.193105 15.340233,79.4459761 14.7241379,79.6344828 C14.1080429,79.8229894 13.3586251,79.9172414 12.4758621,79.9172414 Z M12.2827586,75.6137931 L11.6896552,78.0965517 C11.8367823,78.1241381 12.0229874,78.1448275 12.2482759,78.1586207 C12.4735643,78.1724139 12.6827577,78.1793103 12.8758621,78.1793103 C13.1517255,78.1793103 13.425286,78.1586209 13.6965517,78.1172414 C13.9678174,78.0758619 14.2114932,78.0000006 14.4275862,77.8896552 C14.6436792,77.7793098 14.820689,77.6275872 14.9586207,77.4344828 C15.0965524,77.2413783 15.1655172,76.993105 15.1655172,76.6896552 C15.1655172,76.5609189 15.1402301,76.4321846 15.0896552,76.3034483 C15.0390802,76.174712 14.9586212,76.0597706 14.8482759,75.9586207 C14.7379305,75.8574708 14.5931043,75.774713 14.4137931,75.7103448 C14.2344819,75.6459767 14.0206909,75.6137931 13.7724138,75.6137931 L12.2827586,75.6137931 Z M12.6827586,74 L14.0344828,74 C14.5862097,74 14.9976998,73.880461 15.2689655,73.6413793 C15.5402312,73.4022977 15.6758621,73.117243 15.6758621,72.7862069 C15.6758621,72.6114934 15.636782,72.4620696 15.5586207,72.337931 C15.4804594,72.2137925 15.3770121,72.1149429 15.2482759,72.0413793 C15.1195396,71.9678157 14.9724146,71.9149427 14.8068966,71.8827586 C14.6413785,71.8505746 14.4712652,71.8344828 14.2965517,71.8344828 C14.1034473,71.8344828 13.8965528,71.8413792 13.6758621,71.8551724 C13.4551713,71.8689656 13.2896557,71.8850574 13.1793103,71.9034483 L12.6827586,74 Z M20.2551724,79.7931034 L18.2137931,79.7931034 L19.937931,72.537931 L21.9931034,72.537931 L20.2551724,79.7931034 Z M21.2482759,71.6551724 C20.963217,71.6551724 20.7057483,71.5701158 20.4758621,71.4 C20.2459759,71.2298842 20.1310345,70.9701167 20.1310345,70.6206897 C20.1310345,70.4275852 20.1701146,70.2459779 20.2482759,70.0758621 C20.3264372,69.9057463 20.4298844,69.7586213 20.5586207,69.6344828 C20.687357,69.5103442 20.8367808,69.4114946 21.0068966,69.337931 C21.1770123,69.2643674 21.3586197,69.2275862 21.5517241,69.2275862 C21.836783,69.2275862 22.0942517,69.3126428 22.3241379,69.4827586 C22.5540241,69.6528744 22.6689655,69.9126419 22.6689655,70.262069 C22.6689655,70.4551734 22.6298854,70.6367808 22.5517241,70.8068966 C22.4735628,70.9770123 22.3701156,71.1241373 22.2413793,71.2482759 C22.112643,71.3724144 21.9632192,71.471264 21.7931034,71.5448276 C21.6229877,71.6183912 21.4413803,71.6551724 21.2482759,71.6551724 Z M24.0896552,70.7310345 L26.2275862,70.4 L25.7034483,72.537931 L27.9931034,72.537931 L27.5793103,74.2206897 L25.3034483,74.2206897 L24.6965517,76.7586207 C24.641379,76.970116 24.6068966,77.1678152 24.5931034,77.3517241 C24.5793103,77.5356331 24.6022986,77.6942522 24.662069,77.8275862 C24.7218394,77.9609202 24.8252866,78.0643674 24.9724138,78.137931 C25.119541,78.2114946 25.3218378,78.2482759 25.5793103,78.2482759 C25.8000011,78.2482759 26.0137921,78.2275864 26.2206897,78.1862069 C26.4275872,78.1448274 26.6367806,78.0873567 26.8482759,78.0137931 L27,79.5862069 C26.7241366,79.6873568 26.425289,79.7747123 26.1034483,79.8482759 C25.7816076,79.9218394 25.4000022,79.9586207 24.9586207,79.9586207 C24.3241348,79.9586207 23.8321857,79.8643688 23.4827586,79.6758621 C23.1333316,79.4873554 22.8850582,79.2298867 22.737931,78.9034483 C22.5908039,78.5770099 22.5264367,78.202301 22.5448276,77.7793103 C22.5632185,77.3563197 22.6275857,76.9103472 22.737931,76.4413793 L24.0896552,70.7310345 Z M28.2689655,76.8965517 C28.2689655,76.2712612 28.3701139,75.6827614 28.5724138,75.1310345 C28.7747137,74.5793076 29.0643659,74.0965538 29.4413793,73.6827586 C29.8183927,73.2689634 30.2758594,72.9425299 30.8137931,72.7034483 C31.3517268,72.4643666 31.9517208,72.3448276 32.6137931,72.3448276 C33.0275883,72.3448276 33.3976995,72.3839077 33.7241379,72.462069 C34.0505763,72.5402303 34.3471251,72.6436775 34.6137931,72.7724138 L33.9103448,74.3724138 C33.7264359,74.2988502 33.5356332,74.2321842 33.337931,74.1724138 C33.1402289,74.1126434 32.898852,74.0827586 32.6137931,74.0827586 C31.9241345,74.0827586 31.3816112,74.3149402 30.9862069,74.7793103 C30.5908026,75.2436805 30.3931034,75.8758581 30.3931034,76.6758621 C30.3931034,77.1448299 30.4942519,77.5241365 30.6965517,77.8137931 C30.8988516,78.1034497 31.2712617,78.2482759 31.8137931,78.2482759 C32.0804611,78.2482759 32.3379298,78.2206899 32.5862069,78.1655172 C32.834484,78.1103446 33.0551714,78.0413797 33.2482759,77.9586207 L33.4,79.6 C33.1425274,79.7011499 32.8597717,79.7908042 32.5517241,79.8689655 C32.2436766,79.9471268 31.8689677,79.9862069 31.4275862,79.9862069 C30.8574684,79.9862069 30.3747146,79.9034491 29.9793103,79.737931 C29.5839061,79.572413 29.2574726,79.3494267 29,79.0689655 C28.7425274,78.7885043 28.5563224,78.459772 28.4413793,78.0827586 C28.3264362,77.7057452 28.2689655,77.3103469 28.2689655,76.8965517 Z M37.7586207,79.9862069 C37.2712619,79.9862069 36.8482777,79.9126444 36.4896552,79.7655172 C36.1310327,79.6183901 35.8344839,79.4114956 35.6,79.1448276 C35.3655161,78.8781596 35.1885063,78.5632202 35.0689655,78.2 C34.9494247,77.8367798 34.8896552,77.434485 34.8896552,76.9931034 C34.8896552,76.4413766 34.9793094,75.8896579 35.1586207,75.337931 C35.3379319,74.7862041 35.6022971,74.2896574 35.9517241,73.8482759 C36.3011512,73.4068943 36.7287331,73.0459784 37.2344828,72.7655172 C37.7402324,72.4850561 38.319537,72.3448276 38.9724138,72.3448276 C39.4505771,72.3448276 39.8712626,72.4183901 40.2344828,72.5655172 C40.597703,72.7126444 40.8965506,72.9195389 41.1310345,73.1862069 C41.3655184,73.4528749 41.5425281,73.7678143 41.662069,74.1310345 C41.7816098,74.4942547 41.8413793,74.8965495 41.8413793,75.337931 C41.8413793,75.8896579 41.7540239,76.4413766 41.5793103,76.9931034 C41.4045968,77.5448303 41.1471281,78.0413771 40.8068966,78.4827586 C40.466665,78.9241401 40.0413819,79.2850561 39.5310345,79.5655172 C39.0206871,79.8459784 38.4298884,79.9862069 37.7586207,79.9862069 Z M38.7793103,74.0827586 C38.4758606,74.0827586 38.2091966,74.1701141 37.9793103,74.3448276 C37.7494241,74.5195411 37.5563226,74.7402286 37.4,75.0068966 C37.2436774,75.2735646 37.1264372,75.5655157 37.0482759,75.8827586 C36.9701146,76.2000016 36.9310345,76.501148 36.9310345,76.7862069 C36.9310345,77.2551748 37.004597,77.6160907 37.1517241,77.8689655 C37.2988513,78.1218403 37.5655153,78.2482759 37.9517241,78.2482759 C38.2551739,78.2482759 38.5218379,78.1609204 38.7517241,77.9862069 C38.9816103,77.8114934 39.1747119,77.5908059 39.3310345,77.3241379 C39.4873571,77.0574699 39.6045973,76.7655188 39.6827586,76.4482759 C39.7609199,76.1310329 39.8,75.8298865 39.8,75.5448276 C39.8,75.0758597 39.7264375,74.7149438 39.5793103,74.462069 C39.4321832,74.2091941 39.1655192,74.0827586 38.7793103,74.0827586 Z M44.4344828,79.7931034 L42.3931034,79.7931034 L44.1172414,72.537931 L46.1724138,72.537931 L44.4344828,79.7931034 Z M45.4275862,71.6551724 C45.1425273,71.6551724 44.8850586,71.5701158 44.6551724,71.4 C44.4252862,71.2298842 44.3103448,70.9701167 44.3103448,70.6206897 C44.3103448,70.4275852 44.3494249,70.2459779 44.4275862,70.0758621 C44.5057475,69.9057463 44.6091948,69.7586213 44.737931,69.6344828 C44.8666673,69.5103442 45.0160911,69.4114946 45.1862069,69.337931 C45.3563227,69.2643674 45.5379301,69.2275862 45.7310345,69.2275862 C46.0160934,69.2275862 46.2735621,69.3126428 46.5034483,69.4827586 C46.7333345,69.6528744 46.8482759,69.9126419 46.8482759,70.262069 C46.8482759,70.4551734 46.8091958,70.6367808 46.7310345,70.8068966 C46.6528732,70.9770123 46.5494259,71.1241373 46.4206897,71.2482759 C46.2919534,71.3724144 46.1425296,71.471264 45.9724138,71.5448276 C45.802298,71.6183912 45.6206906,71.6551724 45.4275862,71.6551724 Z M47.9655172,72.8689655 C48.1218399,72.8229883 48.2942519,72.7701152 48.4827586,72.7103448 C48.6712653,72.6505744 48.8827574,72.5954026 49.1172414,72.5448276 C49.3517253,72.4942526 49.6137917,72.4528737 49.9034483,72.4206897 C50.1931049,72.3885056 50.5218372,72.3724138 50.8896552,72.3724138 C51.9747181,72.3724138 52.7195382,72.6850543 53.1241379,73.3103448 C53.5287377,73.9356353 53.5977025,74.7907992 53.3310345,75.8758621 L52.3931034,79.7931034 L50.337931,79.7931034 L51.2482759,75.9586207 C51.3034486,75.719539 51.3471263,75.4873574 51.3793103,75.262069 C51.4114944,75.0367805 51.4091956,74.8390813 51.3724138,74.6689655 C51.335632,74.4988497 51.2505754,74.3609201 51.1172414,74.2551724 C50.9839074,74.1494248 50.7793117,74.0965517 50.5034483,74.0965517 C50.2367803,74.0965517 49.9655186,74.1241377 49.6896552,74.1793103 L48.3517241,79.7931034 L46.2965517,79.7931034 L47.9655172,72.8689655 Z M64.9310345,79.3793103 C64.5540211,79.5632193 64.1356345,79.7103443 63.6758621,79.8206897 C63.2160897,79.931035 62.6551757,79.9862069 61.9931034,79.9862069 C61.4229857,79.9862069 60.9011518,79.891955 60.4275862,79.7034483 C59.9540206,79.5149416 59.549427,79.2459788 59.2137931,78.8965517 C58.8781592,78.5471247 58.6183917,78.1218416 58.4344828,77.6206897 C58.2505738,77.1195377 58.1586207,76.556325 58.1586207,75.9310345 C58.1586207,75.2137895 58.2850562,74.501153 58.537931,73.7931034 C58.7908059,73.0850539 59.1632159,72.4528763 59.6551724,71.8965517 C60.1471289,71.3402271 60.7494217,70.8873581 61.462069,70.537931 C62.1747162,70.188504 62.9953977,70.0137931 63.9241379,70.0137931 C64.3655194,70.0137931 64.7999979,70.0643673 65.2275862,70.1655172 C65.6551746,70.2666672 66.1034459,70.4459757 66.5724138,70.7034483 L65.8,72.3724138 C65.4137912,72.1701139 65.068967,72.0321843 64.7655172,71.9586207 C64.4620674,71.8850571 64.1356339,71.8482759 63.7862069,71.8482759 C63.2620663,71.8482759 62.7908067,71.9540219 62.3724138,72.1655172 C61.9540209,72.3770126 61.5954038,72.664366 61.2965517,73.0275862 C60.9976997,73.3908064 60.7701157,73.8114919 60.6137931,74.2896552 C60.4574705,74.7678185 60.3793103,75.2735606 60.3793103,75.8068966 C60.3793103,76.616096 60.5563201,77.2045959 60.9103448,77.5724138 C61.2643696,77.9402317 61.7724105,78.1241379 62.4344828,78.1241379 C62.8758643,78.1241379 63.2827568,78.0781614 63.6551724,77.9862069 C64.0275881,77.8942524 64.374711,77.7747134 64.6965517,77.6275862 L64.9310345,79.3793103 Z M73.0275862,76.662069 C72.8988499,77.1862095 72.8620687,77.712641 72.9172414,78.2413793 C72.9724141,78.7701176 73.0781601,79.2413772 73.2344828,79.6551724 L71.4,79.9172414 C71.3448273,79.806896 71.2942531,79.7011499 71.2482759,79.6 C71.2022986,79.4988501 71.1563221,79.3839087 71.1103448,79.2551724 C70.8528723,79.4666677 70.5678177,79.6413786 70.2551724,79.7793103 C69.9425272,79.9172421 69.5931054,79.9862069 69.2068966,79.9862069 C68.7471241,79.9862069 68.3540246,79.9057479 68.0275862,79.7448276 C67.7011478,79.5839072 67.4344838,79.3678174 67.2275862,79.0965517 C67.0206886,78.825286 66.8712648,78.5080478 66.7793103,78.1448276 C66.6873559,77.7816074 66.6413793,77.3931055 66.6413793,76.9793103 C66.6413793,76.3448244 66.7540219,75.7471292 66.9793103,75.1862069 C67.2045988,74.6252846 67.5172394,74.1356343 67.9172414,73.7172414 C68.3172434,73.2988485 68.788503,72.9701161 69.3310345,72.7310345 C69.8735659,72.4919528 70.4620658,72.3724138 71.0965517,72.3724138 C71.1793108,72.3724138 71.3241369,72.3770114 71.5310345,72.3862069 C71.7379321,72.3954023 71.9747113,72.4160918 72.2413793,72.4482759 C72.5080473,72.4804599 72.7885043,72.533333 73.0827586,72.6068966 C73.377013,72.6804601 73.6574699,72.7816086 73.9241379,72.9103448 L73.0275862,76.662069 Z M71.5931034,74.1241379 C71.4735626,74.105747 71.3655177,74.0919541 71.2689655,74.0827586 C71.1724133,74.0735632 71.0551731,74.0689655 70.9172414,74.0689655 C70.6045961,74.0689655 70.312645,74.1471257 70.0413793,74.3034483 C69.7701136,74.4597709 69.5333343,74.6643666 69.3310345,74.9172414 C69.1287346,75.1701162 68.9701155,75.4620673 68.8551724,75.7931034 C68.7402293,76.1241396 68.6827586,76.4689637 68.6827586,76.8275862 C68.6827586,77.2689677 68.7563211,77.6183895 68.9034483,77.8758621 C69.0505754,78.1333346 69.3218371,78.262069 69.7172414,78.262069 C69.9287367,78.262069 70.1195394,78.2206901 70.2896552,78.137931 C70.459771,78.055172 70.6413783,77.9172423 70.8344828,77.7241379 C70.8528737,77.4942517 70.8827584,77.2528748 70.9241379,77 C70.9655174,76.7471252 71.0091952,76.5149436 71.0551724,76.3034483 L71.5931034,74.1241379 Z M76.6965517,78.3310345 C77.1655196,78.3310345 77.4873554,78.2643685 77.662069,78.1310345 C77.8367825,77.9977005 77.9241379,77.8528743 77.9241379,77.6965517 C77.9241379,77.5954018 77.9080461,77.5080463 77.8758621,77.4344828 C77.843678,77.3609192 77.790805,77.2919543 77.7172414,77.2275862 C77.6436778,77.1632181 77.5425294,77.0965521 77.4137931,77.0275862 C77.2850568,76.9586203 77.1195412,76.8781614 76.9172414,76.7862069 C76.6873552,76.685057 76.4712654,76.5770121 76.2689655,76.462069 C76.0666657,76.3471259 75.8896559,76.2091962 75.737931,76.0482759 C75.5862061,75.8873555 75.4666671,75.7034493 75.3793103,75.4965517 C75.2919536,75.2896541 75.2482759,75.0436796 75.2482759,74.7586207 C75.2482759,74.0137894 75.5218363,73.4252895 76.0689655,72.9931034 C76.6160947,72.5609174 77.4137879,72.3448276 78.462069,72.3448276 C78.9586232,72.3448276 79.3999981,72.3999994 79.7862069,72.5103448 C80.1724157,72.6206902 80.4850563,72.7402292 80.7241379,72.8689655 L80.0206897,74.4 C79.8275852,74.2988501 79.5793119,74.2022993 79.2758621,74.1103448 C78.9724123,74.0183903 78.6735647,73.9724138 78.3793103,73.9724138 C78.2505741,73.9724138 78.1241386,73.9793103 78,73.9931034 C77.8758614,74.0068966 77.7609201,74.0367814 77.6551724,74.0827586 C77.5494248,74.1287359 77.4643681,74.193103 77.4,74.2758621 C77.3356319,74.3586211 77.3034483,74.4689648 77.3034483,74.6068966 C77.3034483,74.7908055 77.3747119,74.9287352 77.5172414,75.0206897 C77.6597708,75.1126441 77.8597688,75.2229879 78.1172414,75.3517241 C78.4758639,75.5264377 78.7747114,75.6873556 79.0137931,75.8344828 C79.2528748,75.9816099 79.4436774,76.1379302 79.5862069,76.3034483 C79.7287363,76.4689663 79.8321836,76.6574702 79.8965517,76.8689655 C79.9609199,77.0804608 79.9931034,77.3287342 79.9931034,77.6137931 C79.9931034,77.9080474 79.9310351,78.1976997 79.8068966,78.4827586 C79.682758,78.7678175 79.4873577,79.0206886 79.2206897,79.2413793 C78.9540217,79.4620701 78.6137952,79.6413786 78.2,79.7793103 C77.7862048,79.9172421 77.2896581,79.9862069 76.7103448,79.9862069 C76.3517223,79.9862069 76.0275877,79.9632186 75.737931,79.9172414 C75.4482744,79.8712641 75.1931046,79.8137934 74.9724138,79.7448276 C74.751723,79.6758617 74.565518,79.6045981 74.4137931,79.5310345 C74.2620682,79.4574709 74.144828,79.3977014 74.062069,79.3517241 L74.7655172,77.7793103 C74.9218399,77.8712648 75.1655156,77.9862062 75.4965517,78.1241379 C75.8275879,78.2620697 76.2275839,78.3310345 76.6965517,78.3310345 Z M85.8965517,72.4137931 C86.291956,72.4137931 86.6321825,72.4712638 86.9172414,72.5862069 C87.2023003,72.70115 87.4367807,72.8620679 87.6206897,73.0689655 C87.8045986,73.2758631 87.9425283,73.5218377 88.0344828,73.8068966 C88.1264372,74.0919554 88.1724138,74.3999983 88.1724138,74.7310345 C88.1724138,75.1172433 88.1264372,75.4988487 88.0344828,75.8758621 L87.0965517,79.7931034 L85.0413793,79.7931034 L85.9517241,75.9586207 C85.9885059,75.8022981 86.0229883,75.6367825 86.0551724,75.462069 C86.0873565,75.2873554 86.1034483,75.1218399 86.1034483,74.9655172 C86.1034483,74.7264356 86.0413799,74.5218399 85.9172414,74.3517241 C85.7931028,74.1816083 85.5563236,74.0965517 85.2068966,74.0965517 C85.0597694,74.0965517 84.9195409,74.105747 84.7862069,74.1241379 C84.6528729,74.1425288 84.5218397,74.1655171 84.3931034,74.1931034 L83.0551724,79.7931034 L81,79.7931034 L83.4827586,69.4206897 L85.6206897,69.0896552 L84.7793103,72.5517241 C84.9632193,72.5149423 85.1494243,72.4827588 85.337931,72.4551724 C85.5264377,72.4275861 85.7126428,72.4137931 85.8965517,72.4137931 Z" id="Bitcoin-Cash" fill="#000000"></path>
                <g id="icons/currencies/bch" transform="translate(24.000000, 15.000000)">
                    <g id="Group-2">
                        <g id="Group">
                            <path d="M32.010596,1.74834437 C19.6768212,-2.73377483 5.94437086,3.62384106 1.46225166,15.989404 C-3.01986755,28.3549669 3.36953642,42.0556291 15.7033113,46.5377483 C28.0370861,51.0198675 41.7695364,44.6622517 46.2516556,32.2966887 C50.7337748,19.9311258 44.3443709,6.23046358 32.010596,1.74834437 Z" id="Shape" fill="#F5A623" fill-rule="nonzero"></path>
                            <g id="Group-6" transform="translate(22.800000, 24.000000) rotate(-40.000000) translate(-22.800000, -24.000000) translate(9.600000, 7.200000)">
                                <path d="M20.5350993,26.9721854 C19.7721854,27.5125828 18.8821192,27.8622517 17.9602649,28.0211921 C17.0384106,28.2119205 16.0847682,28.2119205 15.0675497,28.0847682 C14.3682119,27.989404 13.6370861,27.8622517 12.9059603,27.6397351 L11.4754967,31.613245 L9.18675497,30.786755 L10.6172185,26.813245 L8.29668874,25.9549669 L6.86622517,29.9284768 L4.57748344,29.1019868 L6.00794702,25.1284768 L1.04900662,23.3165563 L1.90728477,20.9324503 L2.6384106,21.1231788 C2.89271523,21.218543 3.24238411,21.2821192 3.7192053,21.4092715 C4.32317881,21.5682119 4.54569536,21.5364238 4.60927152,21.5682119 C4.86357616,21.5682119 4.9589404,21.5046358 4.9589404,21.5046358 C5.02251656,21.4410596 5.08609272,21.3456954 5.14966887,21.1549669 L9.91788079,8.02649007 C9.98145695,7.83576159 9.98145695,7.70860927 9.98145695,7.58145695 C9.98145695,7.54966887 9.91788079,7.45430464 9.7589404,7.29536424 C9.53642384,7.07284768 9.25033113,6.91390728 8.99602649,6.72317881 C8.64635762,6.53245033 8.3602649,6.40529801 8.16953642,6.2781457 L7.47019868,5.9602649 L8.32847682,3.57615894 L13.1602649,5.32450331 L14.5907285,1.41456954 L16.8794702,2.2410596 L15.5125828,6.21456954 L17.8331126,7.07284768 L19.2635762,3.09933775 L21.5523179,3.92582781 L20.0900662,7.93112583 C20.5668874,8.1218543 21.0119205,8.37615894 21.4251656,8.5986755 C22.1562914,9.04370861 22.792053,9.55231788 23.3960265,10.1562914 C23.9682119,10.7602649 24.381457,11.4596026 24.6357616,12.2543046 C24.8900662,13.0807947 24.8582781,13.9708609 24.5403974,14.8609272 C24.2543046,15.6238411 23.8410596,16.2596026 23.2688742,16.7682119 C22.7284768,17.2450331 22.0609272,17.594702 21.3298013,17.8172185 C20.8847682,17.9443709 20.3761589,18.0397351 19.8357616,18.1033113 C20.3761589,18.5483444 20.8529801,18.9933775 21.2662252,19.5019868 C21.8384106,20.1695364 22.2516556,20.9324503 22.5059603,21.8225166 C22.7602649,22.7125828 22.6966887,23.6980132 22.3470199,24.6834437 C21.9337748,25.605298 21.3615894,26.4 20.5350993,26.9721854 Z" id="Path" fill="#FFFFFF"></path>
                                <path d="M17.0384106,22.5854305 C16.3708609,24.397351 14.3682119,25.3509934 12.5562914,24.6834437 L9.21854305,23.4754967 L11.602649,16.8953642 L14.9403974,18.1033113 C16.7523179,18.7708609 17.6741722,20.7735099 17.0384106,22.5854305 Z" id="Shape" fill="#F5A623" fill-rule="nonzero"></path>
                                <path d="M19.0728477,13.5258278 C18.5324503,15.0516556 16.8476821,15.8145695 15.3218543,15.2741722 L12.5880795,14.2887417 L14.5907285,8.75761589 L17.3245033,9.74304636 C18.818543,10.3152318 19.613245,12.0317881 19.0728477,13.5258278 Z" id="Shape" fill="#F5A623" fill-rule="nonzero"></path>
                            </g>
                        </g>
                        <rect id="Rectangle" fill="#FFFFFF" opacity="0" x="0" y="0" width="48" height="48"></rect>
                    </g>
                </g>
            </g>
        </g>
    </g>
</svg>