<?xml version="1.0" encoding="UTF-8"?>
<svg width="96px" height="96px" viewBox="0 0 96 96" version="1.1" xmlns="http://www.w3.org/2000/svg" xmlns:xlink="http://www.w3.org/1999/xlink">
    <!-- Generator: Sketch 46.2 (44496) - http://www.bohemiancoding.com/sketch -->
    <title>Artboard</title>
    <desc>Created with Sketch.</desc>
    <defs>
        <linearGradient x1="-0.0196736171%" y1="50.0000015%" x2="100.01967%" y2="50.0000015%" id="linearGradient-1">
            <stop stop-color="#FF8000" offset="0%"></stop>
            <stop stop-color="#FF8101" offset="27.427691%"></stop>
            <stop stop-color="#FF8507" offset="48.345464%"></stop>
            <stop stop-color="#FD9D2E" offset="74.652994%"></stop>
            <stop stop-color="#FCA73F" offset="85.22535%"></stop>
            <stop stop-color="#FBAF4C" offset="92.312515%"></stop>
            <stop stop-color="#FAB85A" offset="98.127031%"></stop>
            <stop stop-color="#FABE64" offset="100%"></stop>
        </linearGradient>
        <linearGradient x1="-0.0481719713%" y1="49.9999962%" x2="100.048178%" y2="49.9999962%" id="linearGradient-2">
            <stop stop-color="#FF8000" offset="0%"></stop>
            <stop stop-color="#FF8101" offset="27.427691%"></stop>
            <stop stop-color="#FF8507" offset="48.345464%"></stop>
            <stop stop-color="#FD9D2E" offset="74.652994%"></stop>
            <stop stop-color="#FCA73F" offset="85.22535%"></stop>
            <stop stop-color="#FBAF4C" offset="92.312515%"></stop>
            <stop stop-color="#FAB85A" offset="98.127031%"></stop>
            <stop stop-color="#FABE64" offset="100%"></stop>
        </linearGradient>
    </defs>
    <g id="Page-1" stroke="none" stroke-width="1" fill="none" fill-rule="evenodd">
        <g id="Artboard">
            <g id="ic-clickandbuy">
                <g id="96" fill="#D8D8D8" opacity="0">
                    <rect id="Rectangle-4" x="0" y="0" width="96" height="96"></rect>
                </g>
                <g id="ClickandBuy_2010_logo" transform="translate(11.000000, 24.000000)" fill-rule="nonzero">
                    <path d="M56.5575222,11.2448103 L46.5923333,1.29094504 C46.5923333,1.29094504 45.3013883,0 43.4782119,0 C43.4782119,0 41.6550355,0 40.3640904,1.29094504 C40.3640904,1.29094504 39.0731454,2.58189007 39.0731454,4.40506649 C39.0731454,4.40506649 39.0731454,6.22824379 40.3640904,7.51918794 L42.7874433,9.9312172 L33.490375,9.9312172 C33.490375,9.9312172 31.6445505,9.9312172 30.3536055,11.2334858 C30.3536055,11.2334858 29.0513369,12.5244309 29.0513369,14.3589317 C29.0513369,14.3589317 29.0513369,16.1934317 30.3536055,17.4957012 C30.3536055,17.4957012 31.6445505,18.7866463 33.490375,18.7866463 L42.7874433,18.7866463 L40.3640904,21.2099982 C40.3640904,21.2099982 39.0731454,22.5009433 39.0731454,24.3241197 C39.0731454,24.3241197 39.0731454,26.147297 40.3640904,27.4382411 C40.3640904,27.4382411 41.6550355,28.7178626 43.4782119,28.7178626 C43.4782119,28.7178626 45.3013883,28.7178626 46.5923333,27.4382411 L56.5461977,17.4730532 C56.5461977,17.4730532 57.8371427,16.1821082 57.8371427,14.3589317 C57.8371427,14.3589317 57.8371427,12.5357544 56.5575222,11.2448103" id="path7283" fill="url(#linearGradient-1)"></path>
                    <path d="M20.6941667,8.22128103 C20.6941667,8.22128103 23.128844,8.22128103 24.8501037,9.94254078 C24.8501037,9.94254078 26.5713635,11.6638005 26.5713635,14.0984778 C26.5713635,14.0984778 26.5713635,16.5331543 24.8501037,18.254414 C24.8501037,18.254414 23.128844,19.9756738 20.6941667,19.9756738 C20.6941667,19.9756738 18.2594902,19.9756738 16.5382305,18.254414 C16.5382305,18.254414 14.8169707,16.5331543 14.8169707,14.0984778 C14.8169707,14.0984778 14.8169707,11.6638005 16.5382305,9.94254078 C16.5382305,9.94254078 18.2594902,8.22128103 20.6941667,8.22128103" id="path7285" fill="url(#linearGradient-2)"></path>
                    <path d="M4.90688316,45.5393768 C4.90688316,45.5393768 4.08870727,45.6994752 3.36019885,45.6994752 C1.20880284,45.6994752 0,44.5260426 0,42.3215913 L0,39.8326241 C0,37.628172 1.19111755,36.4547394 3.36019885,36.4547394 C4.16006888,36.4547394 4.90688316,36.6148378 4.90688316,36.6148378 C5.13772225,36.6505186 5.24445434,36.7749362 5.24445434,36.9704043 L5.24445434,38.0547899 C5.24445434,38.2505691 5.12003706,38.3573014 4.90688316,38.3393059 C4.90688316,38.3393059 4.14207332,38.2325736 3.48461613,38.2325736 C2.32886906,38.2325736 1.95561711,38.9080266 1.95561711,39.8679947 L1.95561711,42.2679149 C1.95561711,43.2638741 2.36454991,43.9216418 3.50230142,43.9216418 C4.19574965,43.9216418 4.92456844,43.8149096 4.92456844,43.8149096 C5.12003706,43.7972243 5.24445434,43.8862713 5.24445434,44.0817394 L5.24445434,45.166125 C5.24445434,45.361594 5.15571782,45.4860106 4.90688316,45.5393768" id="path4056" fill="#FF8000"></path>
                    <path d="M8.10729415,45.5216915 L6.82712979,45.5216915 C6.63135089,45.5216915 6.48924823,45.3792793 6.48924823,45.1838103 L6.48924823,33.2372642 C6.48924823,33.0411746 6.63135089,32.8990718 6.82712979,32.8990718 L8.10729415,32.8990718 C8.30276277,32.8990718 8.44486534,33.0411746 8.44486534,33.2372642 L8.44486534,45.1838103 C8.44486534,45.3792793 8.30276277,45.5216915 8.10729415,45.5216915" id="path4058" fill="#FF8000"></path>
                    <path d="M11.5736046,45.5216915 L10.2937509,45.5216915 C10.0982819,45.5216915 9.95586879,45.3792793 9.95586879,45.1838103 L9.95586879,36.9704043 C9.95586879,36.7749362 10.0982819,36.632523 10.2937509,36.632523 L11.5736046,36.632523 C11.7693839,36.632523 11.9117961,36.7749362 11.9117961,36.9704043 L11.9117961,45.1838103 C11.9117961,45.3792793 11.7693839,45.5216915 11.5736046,45.5216915 M11.5736046,34.855 L10.2937509,34.855 C10.0982819,34.855 9.95586879,34.7128972 9.95586879,34.5174282 L9.95586879,33.2372642 C9.95586879,33.0411746 10.0982819,32.8990718 10.2937509,32.8990718 L11.5736046,32.8990718 C11.7693839,32.8990718 11.9117961,33.0411746 11.9117961,33.2372642 L11.9117961,34.5174282 C11.9117961,34.7128972 11.7693839,34.855 11.5736046,34.855" id="path4060" fill="#FF8000"></path>
                    <path d="M18.3293732,45.5393768 C18.3293732,45.5393768 17.5115071,45.6994752 16.7829991,45.6994752 C14.6316028,45.6994752 13.4227996,44.5260426 13.4227996,42.3215913 L13.4227996,39.8326241 C13.4227996,37.628172 14.6139176,36.4547394 16.7829991,36.4547394 C17.5828688,36.4547394 18.3293732,36.6148378 18.3293732,36.6148378 C18.5605222,36.6505186 18.6672544,36.7749362 18.6672544,36.9704043 L18.6672544,38.0547899 C18.6672544,38.2505691 18.5428369,38.3573014 18.3293732,38.3393059 C18.3293732,38.3393059 17.5648732,38.2325736 16.9071055,38.2325736 C15.7516693,38.2325736 15.3781064,38.9080266 15.3781064,39.8679947 L15.3781064,42.2679149 C15.3781064,43.2638741 15.7873502,43.9216418 16.9251011,43.9216418 C17.6182394,43.9216418 18.3473688,43.8149096 18.3473688,43.8149096 C18.5428369,43.7972243 18.6672544,43.8862713 18.6672544,44.0817394 L18.6672544,45.166125 C18.6672544,45.361594 18.5782074,45.4860106 18.3293732,45.5393768" id="path4062" fill="#FF8000"></path>
                    <path d="M26.2765691,45.5216915 L24.8363067,45.5216915 C24.6408378,45.5216915 24.4810496,45.361594 24.3920027,45.1838103 L21.9740869,40.5437571 L24.178539,36.9704043 C24.2852713,36.8103067 24.4450585,36.632523 24.6408378,36.632523 L26.0811002,36.632523 C26.2765691,36.632523 26.3829911,36.8103067 26.2765691,36.9704043 L24.0718067,40.5080762 L26.5074078,45.1838103 C26.5964548,45.3439087 26.4720372,45.5216915 26.2765691,45.5216915 M21.5297837,45.5216915 L20.2496197,45.5216915 C20.0541507,45.5216915 19.9117376,45.3792793 19.9117376,45.1838103 L19.9117376,33.2372642 C19.9117376,33.0411746 20.0541507,32.8990718 20.2496197,32.8990718 L21.5297837,32.8990718 C21.7252527,32.8990718 21.8676649,33.0411746 21.8676649,33.2372642 L21.8676649,45.1838103 C21.8676649,45.3792793 21.7252527,45.5216915 21.5297837,45.5216915" id="path4064" fill="#FF8000"></path>
                    <path d="M31.5567039,41.8059264 L30.0633856,41.8059264 C29.1034176,41.8059264 28.7121702,42.214859 28.7121702,42.9793582 C28.7121702,43.6548112 29.1034176,44.0460585 29.8856028,44.0460585 C30.4366374,44.0460585 31.0413493,43.8325949 31.5567039,43.5660745 L31.5567039,41.8059264 Z M33.1744397,45.5216915 L31.9833218,45.5216915 C31.7878537,45.5216915 31.6457509,45.3792793 31.6457509,45.1838103 L31.6457509,45.0240222 C31.0767199,45.3792793 30.3302163,45.6994752 29.4943546,45.6994752 C27.7701977,45.6994752 26.7565532,44.8282438 26.7565532,43.0327243 C26.7565532,41.2015248 27.8766197,40.2949229 29.849922,40.2949229 C30.454633,40.2949229 31.3258652,40.365664 31.5567039,40.4016551 L31.5567039,39.6905213 C31.5567039,38.7659238 31.1477713,38.2682544 30.0990665,38.2682544 C29.0500514,38.2682544 27.7165213,38.5704548 27.7165213,38.5704548 C27.503367,38.6235106 27.3789504,38.4817181 27.3789504,38.2856294 L27.3789504,37.2015541 C27.3789504,37.0057748 27.503367,36.8816684 27.7165213,36.827992 C27.7165213,36.827992 28.8722686,36.4547394 30.3655869,36.4547394 C32.7301365,36.4547394 33.5123209,37.5571206 33.5123209,39.6905213 L33.5123209,45.1838103 C33.5123209,45.3792793 33.3699087,45.5216915 33.1744397,45.5216915 L33.1744397,45.5216915 Z" id="path4066" fill="#808080"></path>
                    <path d="M41.4415222,45.5216915 L40.1616676,45.5216915 C39.9661986,45.5216915 39.8237863,45.3792793 39.8237863,45.1838103 L39.8237863,39.6548404 C39.8237863,38.8196002 39.574641,38.2856294 38.6326684,38.2856294 C38.081633,38.2856294 37.4769211,38.5347739 36.9792518,38.8016046 L36.9792518,45.1838103 C36.9792518,45.3792793 36.8371498,45.5216915 36.6413706,45.5216915 L35.3615168,45.5216915 C35.1657376,45.5216915 35.0236348,45.3792793 35.0236348,45.1838103 L35.0236348,36.9704043 C35.0236348,36.7749362 35.1657376,36.632523 35.3615168,36.632523 L36.5526339,36.632523 C36.7481028,36.632523 36.890516,36.7749362 36.890516,36.9704043 L36.890516,37.2372349 C37.4058706,36.8459876 38.1703697,36.4547394 39.1833936,36.4547394 C41.1213254,36.4547394 41.7790931,37.628172 41.7790931,39.4770567 L41.7790931,45.1838103 C41.7790931,45.3792793 41.6369902,45.5216915 41.4415222,45.5216915" id="path4068" fill="#808080"></path>
                    <path d="M47.7353014,38.5170887 C47.2553174,38.3216206 46.7219672,38.1792074 46.2419832,38.1792074 C45.2640195,38.1792074 44.8907677,38.8016046 44.8907677,39.6905213 L44.8907677,42.446008 C44.8907677,43.3349255 45.2640195,43.9570115 46.2419832,43.9570115 C46.7219672,43.9570115 47.2553174,43.7792287 47.7353014,43.5480789 L47.7353014,38.5170887 Z M49.3530372,45.5216915 L48.161609,45.5216915 C47.966141,45.5216915 47.8240381,45.3792793 47.8240381,45.1838103 L47.8240381,45.0773883 C47.2730027,45.4149601 46.5975496,45.6994752 45.8330505,45.6994752 C43.8594379,45.6994752 42.9351507,44.4903617 42.9351507,42.5881108 L42.9351507,39.5657934 C42.9351507,37.6635426 43.8594379,36.4547394 45.8330505,36.4547394 C46.5618688,36.4547394 47.2019512,36.6682039 47.7353014,36.9350337 L47.7353014,33.2372642 C47.7353014,33.0411746 47.8777145,32.8990718 48.0731826,32.8990718 L49.3530372,32.8990718 C49.5485053,32.8990718 49.6909184,33.0411746 49.6909184,33.2372642 L49.6909184,45.1838103 C49.6909184,45.3792793 49.5485053,45.5216915 49.3530372,45.5216915 L49.3530372,45.5216915 Z" id="path4070" fill="#808080"></path>
                    <path d="M56.002383,39.6905213 C56.002383,38.8016046 55.6465062,38.1792074 54.6688528,38.1792074 C54.1888688,38.1792074 53.6378333,38.3573014 53.1578493,38.5881401 L53.1578493,43.8325949 L54.5264397,43.8325949 C55.5934504,43.8325949 56.002383,43.2461888 56.002383,42.3572722 L56.002383,39.6905213 Z M54.7045337,45.5216915 L51.5401135,45.5216915 C51.3443351,45.5216915 51.2022323,45.3792793 51.2022323,45.1838103 L51.2022323,33.2372642 C51.2022323,33.0411746 51.3443351,32.8990718 51.5401135,32.8990718 L52.8199681,32.8990718 C53.0157465,32.8990718 53.1578493,33.0411746 53.1578493,33.2372642 L53.1578493,37.0057748 C53.6911995,36.6858892 54.3489672,36.4547394 55.0777855,36.4547394 C57.0510878,36.4547394 57.9580009,37.6635426 57.9580009,39.5657934 L57.9580009,42.410328 C57.9580009,44.3479495 56.9086755,45.5216915 54.7045337,45.5216915 L54.7045337,45.5216915 Z" id="path4072" fill="#FF8000"></path>
                    <path d="M65.8872012,45.5216915 L64.6960833,45.5216915 C64.5006152,45.5216915 64.3582021,45.3792793 64.3582021,45.1838103 L64.3582021,44.9169805 C63.8428475,45.3085381 63.0783475,45.6994752 62.0650133,45.6994752 C60.1270816,45.6994752 59.4693147,44.5260426 59.4693147,42.6771578 L59.4693147,36.9704043 C59.4693147,36.7749362 59.6114167,36.632523 59.8071959,36.632523 L61.0873599,36.632523 C61.2828289,36.632523 61.425242,36.7749362 61.425242,36.9704043 L61.425242,42.4993741 C61.425242,43.3349255 61.6740762,43.8679654 62.6160488,43.8679654 C63.1670842,43.8679654 63.7717961,43.6194406 64.2697757,43.3526108 L64.2697757,36.9704043 C64.2697757,36.7749362 64.4118785,36.632523 64.6073466,36.632523 L65.8872012,36.632523 C66.0826693,36.632523 66.2250824,36.7749362 66.2250824,36.9704043 L66.2250824,45.1838103 C66.2250824,45.3792793 66.0826693,45.5216915 65.8872012,45.5216915" id="path4074" fill="#FF8000"></path>
                    <path d="M70.9898635,48.5793794 C70.9188121,48.7571631 70.8120798,48.899266 70.6166108,48.899266 L69.1763484,48.899266 C68.9808803,48.899266 68.8387775,48.7394778 68.9098289,48.5616941 L69.9231631,45.5927429 L67.0963138,36.9704043 C67.043258,36.7929317 67.1499902,36.632523 67.3631445,36.632523 L68.7677261,36.632523 C68.963195,36.632523 69.105297,36.7572509 69.1586631,36.9524087 L70.9721782,42.5881108 L72.8744291,36.9524087 C72.9454805,36.7749362 73.0698972,36.632523 73.2653661,36.632523 L74.6699477,36.632523 C74.883102,36.632523 75.0075195,36.8103067 74.9364681,36.9883998 L70.9898635,48.5793794 Z" id="path4076" fill="#FF8000"></path>
                </g>
            </g>
        </g>
    </g>
</svg>