<?xml version="1.0" encoding="UTF-8"?>
<svg width="96px" height="96px" viewBox="0 0 96 96" version="1.1" xmlns="http://www.w3.org/2000/svg" xmlns:xlink="http://www.w3.org/1999/xlink">
    <!-- Generator: Sketch 46.2 (44496) - http://www.bohemiancoding.com/sketch -->
    <title>Artboard</title>
    <desc>Created with Sketch.</desc>
    <defs></defs>
    <g id="Page-1" stroke="none" stroke-width="1" fill="none" fill-rule="evenodd">
        <g id="Artboard">
            <g id="ic-cashu">
                <g id="96" fill="#D8D8D8" opacity="0">
                    <rect id="Rectangle-4" x="0" y="0" width="96" height="96"></rect>
                </g>
                <g id="Group-2" transform="translate(10.000000, 32.000000)">
                    <g id="Group" font-weight="bold">
                        <text id="cash" font-family="Roboto-Bold, Roboto" font-size="26" fill="#F6AC18">
                            <tspan x="0" y="26">cash</tspan>
                        </text>
                        <text id="U" font-family="ArialNarrow-Bold, Arial Narrow" font-size="28" fill="#000000">
                            <tspan x="55" y="26">U</tspan>
                        </text>
                    </g>
                    <g id="registered" transform="translate(72.000000, 7.000000)" stroke="#000000" stroke-width="0.1" fill="#000000" fill-rule="nonzero">
                        <path d="M1.59588975,0 C0.714530948,0 0,0.714530948 0,1.59574468 C0,2.47695841 0.714530948,3.19148936 1.59588975,3.19148936 C2.47717602,3.19148936 3.19148936,2.47695841 3.19148936,1.59574468 C3.19148936,0.714530948 2.47717602,0 1.59588975,0 Z M1.59588975,3.0462766 C0.794535783,3.0462766 0.144850097,2.39702611 0.144850097,1.59574468 C0.144850097,0.79446325 0.794535783,0.145212766 1.59588975,0.145212766 C2.39688104,0.145212766 3.04656673,0.79446325 3.04656673,1.59574468 C3.04656673,2.39702611 2.39688104,3.0462766 1.59588975,3.0462766 Z M2.21039652,2.23737911 L2.21039652,2.06264507 C2.21039652,1.95050774 2.18500967,1.85722921 2.13452611,1.78295455 C2.08375242,1.70860735 2.00113636,1.65696325 1.88631528,1.62794971 C1.99018375,1.59226306 2.07047872,1.53561412 2.12741779,1.45764023 C2.18435687,1.38002901 2.2127176,1.29182785 2.2127176,1.19318182 C2.2127176,1.02584623 2.15955029,0.898331721 2.05336074,0.811291103 C1.94709865,0.724250484 1.79455996,0.680512573 1.59552708,0.680512573 L0.967166344,0.680512573 L0.967166344,2.5356383 L1.11890716,2.5356383 L1.11890716,1.6967118 L1.63897485,1.6967118 C1.77084139,1.6967118 1.87362186,1.72978723 1.94709865,1.79557544 C2.02064797,1.86165377 2.0571325,1.95137814 2.0571325,2.06532882 L2.0571325,2.23505803 C2.0571325,2.29431818 2.06366054,2.35183752 2.07635397,2.40710832 C2.08904739,2.46230658 2.11117021,2.50510155 2.14279497,2.53571083 L2.29838008,2.53571083 L2.29838008,2.50502901 C2.26675532,2.47616054 2.24434236,2.43895068 2.230706,2.39289168 C2.21714217,2.34712282 2.21039652,2.29526112 2.21039652,2.23737911 Z M1.57666828,1.56687621 L1.11883462,1.56687621 L1.11883462,0.810710832 L1.59545455,0.810710832 C1.75132979,0.810710832 1.86731141,0.843786267 1.94441489,0.909574468 C2.02137331,0.975362669 2.05981625,1.06951161 2.05981625,1.19202128 C2.05981625,1.30684236 2.02115571,1.39772727 1.94376209,1.46532882 C1.86651354,1.53293037 1.74400387,1.56687621 1.57666828,1.56687621 Z" id="Shape"></path>
                    </g>
                </g>
            </g>
        </g>
    </g>
</svg>