<?xml version="1.0" encoding="UTF-8"?>
<svg width="96px" height="96px" viewBox="0 0 96 96" version="1.1" xmlns="http://www.w3.org/2000/svg" xmlns:xlink="http://www.w3.org/1999/xlink">
    <!-- Generator: Sketch 46.2 (44496) - http://www.bohemiancoding.com/sketch -->
    <title>Artboard</title>
    <desc>Created with Sketch.</desc>
    <defs></defs>
    <g id="Page-1" stroke="none" stroke-width="1" fill="none" fill-rule="evenodd">
        <g id="Artboard">
            <g id="ic-ethereum">
                <g id="96" fill="#D8D8D8" opacity="0">
                    <rect id="Rectangle-4" x="0" y="0" width="96" height="96"></rect>
                </g>
                <g id="Group-2" transform="translate(8.000000, 23.000000)">
                    <path d="M8.68695652,43.3826087 L2.40869565,43.3826087 C2.40869565,44.3449323 2.47246313,45.037679 2.6,45.4608696 C2.72753687,45.8840601 2.99709939,46.1797093 3.40869565,46.3478261 C3.82029191,46.5159429 4.50144452,46.6 5.45217391,46.6 C5.89275583,46.6 6.38550452,46.5797103 6.93043478,46.5391304 C7.47536504,46.4985505 7.94492557,46.4492757 8.33913043,46.3913043 L8.33913043,47.3304348 C7.99130261,47.4115946 7.53043765,47.4724636 6.95652174,47.5130435 C6.38260583,47.5536234 5.81159704,47.573913 5.24347826,47.573913 C4.08405217,47.573913 3.23188678,47.440581 2.68695652,47.173913 C2.14202626,46.907245 1.78260957,46.4666697 1.60869565,45.8521739 C1.43478174,45.2376781 1.34782609,44.29276 1.34782609,43.0173913 C1.34782609,41.7420226 1.42318765,40.8029016 1.57391304,40.2 C1.72463843,39.5970984 2.06956252,39.1507261 2.60869565,38.8608696 C3.14782878,38.571013 4.02028383,38.426087 5.22608696,38.426087 C6.30435322,38.426087 7.08695409,38.565216 7.57391304,38.8434783 C8.060872,39.1217405 8.3681153,39.5623158 8.49565217,40.1652174 C8.62318904,40.768119 8.68695652,41.713037 8.68695652,43 L8.68695652,43.3826087 Z M3.33043478,39.626087 C2.95941843,39.7768123 2.71594261,40.0608675 2.6,40.4782609 C2.48405739,40.8956543 2.42028991,41.5797054 2.40869565,42.5304348 L7.66086957,42.5304348 L7.66086957,42.2869565 C7.66086957,41.417387 7.58840652,40.7826107 7.44347826,40.3826087 C7.29855,39.9826067 7.0579727,39.7188412 6.72173913,39.5913043 C6.38550557,39.4637675 5.8695687,39.4 5.17391304,39.4 C4.31593774,39.4 3.70145113,39.4753616 3.33043478,39.626087 Z M12.2,47.4347826 L12.2,39.5391304 L10.373913,39.5391304 L10.373913,38.5652174 L12.2,38.5652174 L12.2,35.9913043 L13.2608696,35.9913043 L13.2608696,38.5652174 L15.4,38.5652174 L15.4,39.5391304 L13.2608696,39.5391304 L13.2608696,47.4347826 L12.2,47.4347826 Z M23.6608696,42.2347826 C23.6608696,41.3768073 23.6028991,40.7594222 23.4869565,40.3826087 C23.3710139,40.0057952 23.1478277,39.7536238 22.8173913,39.626087 C22.4869549,39.4985501 21.9565254,39.4347826 21.226087,39.4347826 C20.4028944,39.4347826 19.7971034,39.5710131 19.4086957,39.8434783 C19.0202879,40.1159434 18.7797106,40.4782586 18.6869565,40.9304348 C18.5942024,41.382611 18.5478261,42.0202857 18.5478261,42.8434783 L18.5478261,47.4347826 L17.4869565,47.4347826 L17.4869565,34.5130435 L18.5478261,34.5130435 L18.5478261,39.7826087 L18.6347826,39.7826087 C18.8086965,39.3768096 19.1188383,39.0492766 19.5652174,38.8 C20.0115964,38.5507234 20.686952,38.426087 21.5913043,38.426087 C22.4840624,38.426087 23.153621,38.5420278 23.6,38.773913 C24.046379,39.0057983 24.3449268,39.3623164 24.4956522,39.8434783 C24.6463776,40.3246401 24.7217391,40.9999957 24.7217391,41.8695652 L24.7217391,47.4347826 L23.6608696,47.4347826 L23.6608696,42.2347826 Z M34.8782609,43.3826087 L28.6,43.3826087 C28.6,44.3449323 28.6637675,45.037679 28.7913043,45.4608696 C28.9188412,45.8840601 29.1884037,46.1797093 29.6,46.3478261 C30.0115963,46.5159429 30.6927489,46.6 31.6434783,46.6 C32.0840602,46.6 32.5768089,46.5797103 33.1217391,46.5391304 C33.6666694,46.4985505 34.1362299,46.4492757 34.5304348,46.3913043 L34.5304348,47.3304348 C34.182607,47.4115946 33.721742,47.4724636 33.1478261,47.5130435 C32.5739102,47.5536234 32.0029014,47.573913 31.4347826,47.573913 C30.2753565,47.573913 29.4231911,47.440581 28.8782609,47.173913 C28.3333306,46.907245 27.9739139,46.4666697 27.8,45.8521739 C27.6260861,45.2376781 27.5391304,44.29276 27.5391304,43.0173913 C27.5391304,41.7420226 27.614492,40.8029016 27.7652174,40.2 C27.9159428,39.5970984 28.2608669,39.1507261 28.8,38.8608696 C29.3391331,38.571013 30.2115882,38.426087 31.4173913,38.426087 C32.4956576,38.426087 33.2782584,38.565216 33.7652174,38.8434783 C34.2521763,39.1217405 34.5594197,39.5623158 34.6869565,40.1652174 C34.8144934,40.768119 34.8782609,41.713037 34.8782609,43 L34.8782609,43.3826087 Z M29.5217391,39.626087 C29.1507228,39.7768123 28.907247,40.0608675 28.7913043,40.4782609 C28.6753617,40.8956543 28.6115943,41.5797054 28.6,42.5304348 L33.8521739,42.5304348 L33.8521739,42.2869565 C33.8521739,41.417387 33.7797109,40.7826107 33.6347826,40.3826087 C33.4898543,39.9826067 33.249277,39.7188412 32.9130435,39.5913043 C32.5768099,39.4637675 32.060873,39.4 31.3652174,39.4 C30.5072421,39.4 29.8927555,39.4753616 29.5217391,39.626087 Z M37.6782609,38.5652174 L38.6,38.5652174 L38.6695652,40.3391304 L38.7565217,40.3391304 C38.9536242,39.6202863 39.3014468,39.1217405 39.8,38.8434783 C40.2985532,38.565216 40.9536191,38.426087 41.7652174,38.426087 L41.7652174,39.5565217 C40.9536191,39.5565217 40.330437,39.6898537 39.8956522,39.9565217 C39.4608674,40.2231897 39.1594211,40.6202872 38.9913043,41.1478261 C38.8231876,41.675365 38.7391304,42.3739087 38.7391304,43.2434783 L38.7391304,47.4347826 L37.6782609,47.4347826 L37.6782609,38.5652174 Z M50.7913043,43.3826087 L44.5130435,43.3826087 C44.5130435,44.3449323 44.576811,45.037679 44.7043478,45.4608696 C44.8318847,45.8840601 45.1014472,46.1797093 45.5130435,46.3478261 C45.9246397,46.5159429 46.6057923,46.6 47.5565217,46.6 C47.9971037,46.6 48.4898523,46.5797103 49.0347826,46.5391304 C49.5797129,46.4985505 50.0492734,46.4492757 50.4434783,46.3913043 L50.4434783,47.3304348 C50.0956504,47.4115946 49.6347855,47.4724636 49.0608696,47.5130435 C48.4869537,47.5536234 47.9159449,47.573913 47.3478261,47.573913 C46.1884,47.573913 45.3362346,47.440581 44.7913043,47.173913 C44.2463741,46.907245 43.8869574,46.4666697 43.7130435,45.8521739 C43.5391296,45.2376781 43.4521739,44.29276 43.4521739,43.0173913 C43.4521739,41.7420226 43.5275355,40.8029016 43.6782609,40.2 C43.8289863,39.5970984 44.1739103,39.1507261 44.7130435,38.8608696 C45.2521766,38.571013 46.1246317,38.426087 47.3304348,38.426087 C48.408701,38.426087 49.1913019,38.565216 49.6782609,38.8434783 C50.1652198,39.1217405 50.4724631,39.5623158 50.6,40.1652174 C50.7275369,40.768119 50.7913043,41.713037 50.7913043,43 L50.7913043,43.3826087 Z M45.4347826,39.626087 C45.0637663,39.7768123 44.8202904,40.0608675 44.7043478,40.4782609 C44.5884052,40.8956543 44.5246377,41.5797054 44.5130435,42.5304348 L49.7652174,42.5304348 L49.7652174,42.2869565 C49.7652174,41.417387 49.6927543,40.7826107 49.5478261,40.3826087 C49.4028978,39.9826067 49.1623205,39.7188412 48.826087,39.5913043 C48.4898534,39.4637675 47.9739165,39.4 47.2782609,39.4 C46.4202856,39.4 45.805799,39.4753616 45.4347826,39.626087 Z M59.8521739,46.0956522 L59.7478261,46.0956522 C59.5739122,46.5594226 59.2579733,46.9217378 58.8,47.1826087 C58.3420267,47.4434796 57.64928,47.573913 56.7217391,47.573913 C55.8405753,47.573913 55.1768138,47.4579722 54.7304348,47.226087 C54.2840557,46.9942017 53.9826095,46.6376836 53.826087,46.1565217 C53.6695644,45.6753599 53.5913043,45.0000043 53.5913043,44.1304348 L53.5913043,38.5652174 L54.6521739,38.5652174 L54.6521739,43.7652174 C54.6521739,44.6231927 54.7130429,45.2405778 54.8347826,45.6173913 C54.9565223,45.9942048 55.1797085,46.2463762 55.5043478,46.373913 C55.8289871,46.5014499 56.3623151,46.5652174 57.1043478,46.5652174 C57.9275403,46.5652174 58.5304329,46.4289869 58.9130435,46.1565217 C59.2956541,45.8840566 59.5333329,45.5246399 59.626087,45.0782609 C59.718841,44.6318818 59.7652174,43.9913085 59.7652174,43.1565217 L59.7652174,38.5652174 L60.826087,38.5652174 L60.826087,47.4347826 L59.9043478,47.4347826 L59.8521739,46.0956522 Z M75.1913043,42.2347826 C75.1913043,41.3768073 75.139131,40.7594222 75.0347826,40.3826087 C74.9304343,40.0057952 74.7362333,39.7536238 74.4521739,39.626087 C74.1681145,39.4985501 73.7014525,39.4347826 73.0521739,39.4347826 C72.3101412,39.4347826 71.7710162,39.5623176 71.4347826,39.8173913 C71.098549,40.072465 70.8898555,40.4231862 70.8086957,40.8695652 C70.7275358,41.3159443 70.6869565,41.9739087 70.6869565,42.8434783 L70.6869565,47.4347826 L69.626087,47.4347826 L69.626087,42.2347826 C69.626087,41.3768073 69.5739136,40.7594222 69.4695652,40.3826087 C69.3652169,40.0057952 69.1710159,39.7536238 68.8869565,39.626087 C68.6028971,39.4985501 68.1362351,39.4347826 67.4869565,39.4347826 C66.7565181,39.4347826 66.2202916,39.5710131 65.8782609,39.8434783 C65.5362302,40.1159434 65.3217396,40.4782586 65.2347826,40.9304348 C65.1478257,41.382611 65.1043478,42.0202857 65.1043478,42.8434783 L65.1043478,47.4347826 L64.0434783,47.4347826 L64.0434783,38.5652174 L64.9826087,38.5652174 L65.0347826,39.9043478 L65.1217391,39.9043478 C65.2840588,39.4405774 65.573911,39.0782622 65.9913043,38.8173913 C66.4086977,38.5565204 67.0347784,38.426087 67.8695652,38.426087 C68.6811635,38.426087 69.2869545,38.5420278 69.6869565,38.773913 C70.0869585,39.0057983 70.3623181,39.3826061 70.5130435,39.9043478 L70.6173913,39.9043478 C70.779711,39.4405774 71.0782587,39.0782622 71.5130435,38.8173913 C71.9478283,38.5565204 72.5826045,38.426087 73.4173913,38.426087 C74.2173953,38.426087 74.8202878,38.5420278 75.226087,38.773913 C75.6318861,39.0057983 75.9043471,39.3623164 76.0434783,39.8434783 C76.1826094,40.3246401 76.2521739,40.9999957 76.2521739,41.8695652 L76.2521739,47.4347826 L75.1913043,47.4347826 L75.1913043,42.2347826 Z" id="ethereum" fill="#000000"></path>
                    <g id="icons/currencies/eth" transform="translate(24.347826, 0.000000)">
                        <g id="Group">
                            <g id="eth" transform="translate(5.764706, 0.000000)" fill-rule="nonzero" fill="#231F20">
                                <polygon id="Shape" points="7.95146645 19.3187773 7.95146645 10.7570131 0.0183264292 14.4202445"></polygon>
                                <polygon id="Shape" points="7.95146645 10.1684017 7.95146645 0.115423581 0.273968517 13.7133974"></polygon>
                                <polygon id="Shape" points="8.46286661 0.111266376 8.46286661 10.1684017 16.2482353 13.7635284"></polygon>
                                <polygon id="Shape" points="8.46286661 10.7570131 8.46286661 19.3190218 16.4015742 14.42269"></polygon>
                                <polygon id="Shape" points="7.95146645 27.9273712 7.95146645 21.0409607 0.0716818558 16.1776419"></polygon>
                                <polygon id="Shape" points="8.46286661 27.9273712 16.3426512 16.1776419 8.46286661 21.0409607"></polygon>
                            </g>
                            <rect id="Rectangle" fill="#FFFFFF" opacity="0" x="0" y="0" width="28" height="28"></rect>
                        </g>
                    </g>
                </g>
            </g>
        </g>
    </g>
</svg>