<?xml version="1.0" encoding="UTF-8"?>
<svg width="96px" height="96px" viewBox="0 0 96 96" version="1.1" xmlns="http://www.w3.org/2000/svg" xmlns:xlink="http://www.w3.org/1999/xlink">
    <!-- Generator: Sketch 46.2 (44496) - http://www.bohemiancoding.com/sketch -->
    <title>Artboard</title>
    <desc>Created with Sketch.</desc>
    <defs></defs>
    <g id="Page-1" stroke="none" stroke-width="1" fill="none" fill-rule="evenodd">
        <g id="Artboard">
            <g id="ic-fasapay">
                <g id="96" fill="#D8D8D8" opacity="0">
                    <rect id="Rectangle-4" x="0" y="0" width="96" height="96"></rect>
                </g>
                <g id="fasapay" transform="translate(10.000000, 40.000000)" fill-rule="nonzero">
                    <path d="M70.5021277,10.2680851 C70.8255319,8.97446809 71.2297872,7.76170213 71.5531915,6.54893617 C71.7148936,5.98297872 71.8765957,5.33617021 72.0382979,4.77021277 C72.1191489,4.52765957 72.2,4.44680851 72.4425532,4.44680851 C73.412766,4.44680851 74.3021277,4.44680851 75.2723404,4.44680851 C75.5148936,4.44680851 75.5148936,4.52765957 75.4340426,4.77021277 C74.2212766,8.00425532 73.0085106,11.2382979 71.7957447,14.4723404 C71.1489362,16.1702128 69.9361702,16.8978723 68.1574468,16.8978723 C61.6893617,16.8978723 55.3021277,16.8978723 48.8340426,16.8978723 C48.5106383,16.8978723 48.4297872,16.8170213 48.5106383,16.493617 C48.6723404,16.0085106 48.7531915,15.4425532 48.8340426,14.9574468 C48.9148936,14.6340426 48.9957447,14.5531915 49.3191489,14.5531915 C52.4723404,14.5531915 55.6255319,14.5531915 58.7787234,14.5531915 C61.5276596,14.5531915 64.2765957,14.5531915 67.106383,14.5531915 C67.5106383,14.5531915 67.8340426,14.4723404 68.1574468,14.3106383 C68.6425532,13.987234 68.8042553,13.4212766 68.5617021,12.8553191 C67.4297872,10.187234 66.2978723,7.51914894 65.1659574,4.85106383 C65.0042553,4.36595745 65.0042553,4.36595745 65.4893617,4.36595745 C66.4595745,4.36595745 67.3489362,4.36595745 68.3191489,4.36595745 C68.5617021,4.36595745 68.7234043,4.44680851 68.8042553,4.6893617 C69.2893617,6.30638298 69.7744681,7.92340426 70.3404255,9.54042553 C70.3404255,9.86382979 70.2595745,10.106383 70.5021277,10.2680851 Z" id="Shape" fill="#547BB0"></path>
                    <path d="M18.2723404,6.79148936 C18.1106383,7.03404255 17.787234,7.03404255 17.5446809,6.95319149 C16.7361702,6.79148936 16.3319149,7.11489362 15.9276596,7.92340426 C15.1191489,9.70212766 14.2297872,11.4 13.3404255,13.0978723 C13.2595745,13.3404255 13.0978723,13.3404255 12.8553191,13.3404255 C11.5617021,13.1787234 10.2680851,13.0978723 8.89361702,13.0170213 C7.35744681,12.8553191 5.8212766,12.7744681 4.28510638,12.612766 C4.20425532,12.612766 4.12340426,12.612766 4.04255319,12.4510638 C4.36595745,12.4510638 4.60851064,12.3702128 4.93191489,12.3702128 C6.54893617,12.3702128 8.24680851,12.3702128 9.86382979,12.3702128 C10.106383,12.3702128 10.2680851,12.2893617 10.3489362,12.0468085 C10.8340426,11.1574468 11.2382979,10.187234 11.7234043,9.29787234 C11.8851064,8.97446809 11.8042553,8.97446809 11.4808511,8.89361702 C9.3787234,8.65106383 7.27659574,8.40851064 5.17446809,8.08510638 C3.71914894,7.92340426 2.18297872,7.76170213 0.727659574,7.51914894 C0.565957447,7.51914894 0.485106383,7.43829787 0.323404255,7.35744681 C0.485106383,7.35744681 0.646808511,7.35744681 0.808510638,7.35744681 C4.52765957,7.35744681 8.32765957,7.35744681 12.0468085,7.35744681 C12.2085106,7.35744681 12.3702128,7.35744681 12.4510638,7.35744681 C12.693617,7.27659574 12.693617,7.11489362 12.7744681,6.95319149 C12.7744681,6.7106383 12.612766,6.79148936 12.4510638,6.79148936 C11.1574468,6.54893617 9.86382979,6.30638298 8.57021277,6.06382979 C7.6,5.90212766 6.54893617,5.65957447 5.5787234,5.49787234 C5.49787234,5.49787234 5.41702128,5.49787234 5.25531915,5.33617021 C5.90212766,5.33617021 6.46808511,5.33617021 7.03404255,5.33617021 C8.65106383,5.33617021 10.187234,5.33617021 11.8042553,5.33617021 C12.1276596,5.33617021 12.3702128,5.25531915 12.4510638,4.93191489 C12.612766,4.36595745 13.0170213,4.12340426 13.5829787,4.28510638 C13.6638298,4.28510638 13.6638298,4.28510638 13.7446809,4.28510638 C13.906383,4.28510638 14.1489362,4.28510638 14.1489362,4.04255319 C14.1489362,3.8 13.906383,3.88085106 13.7446809,3.88085106 C11.5617021,3.63829787 9.3787234,3.31489362 7.11489362,3.07234043 C5.65957447,2.9106383 4.12340426,2.74893617 2.66808511,2.42553191 C2.82978723,2.42553191 3.07234043,2.42553191 3.23404255,2.42553191 C7.03404255,2.42553191 10.8340426,2.42553191 14.6340426,2.42553191 C14.7957447,2.42553191 14.8765957,2.42553191 15.0382979,2.42553191 C15.2,2.34468085 15.4425532,2.26382979 15.4425532,2.0212766 C15.4425532,1.7787234 15.2,1.94042553 15.0382979,1.85957447 C12.1276596,1.45531915 9.21702128,1.13191489 6.30638298,0.808510638 C6.22553191,0.808510638 6.22553191,0.808510638 6.14468085,0.727659574 C11.2382979,0.727659574 16.3319149,0.404255319 21.506383,0.808510638 C21.1829787,1.45531915 20.6978723,2.0212766 20.3744681,2.58723404 C20.212766,2.82978723 20.0510638,2.99148936 19.7276596,2.9106383 C18.6765957,2.74893617 18.1106383,3.07234043 17.6255319,3.96170213 C17.5446809,4.04255319 17.4638298,4.20425532 17.5446809,4.28510638 C17.6255319,4.36595745 17.787234,4.36595745 17.8680851,4.36595745 C18.2723404,4.28510638 18.5957447,4.28510638 19,4.28510638 C18.7574468,5.09361702 18.2723404,5.74042553 18.0297872,6.46808511 L18.0297872,6.46808511 C18.2723404,6.62978723 18.2723404,6.7106383 18.2723404,6.79148936 L18.2723404,6.79148936 Z" id="Shape" fill="#E8953A"></path>
                    <path d="M47.2170213,4.52765957 C47.7021277,4.44680851 48.187234,4.52765957 48.6723404,4.44680851 C48.8340426,4.44680851 48.8340426,4.60851064 48.8340426,4.6893617 C48.8340426,5.01276596 48.8340426,5.33617021 48.8340426,5.65957447 C48.9957447,5.65957447 48.9957447,5.5787234 49.0765957,5.49787234 C50.0468085,4.44680851 51.1787234,4.12340426 52.5531915,4.44680851 C53.7659574,4.6893617 54.412766,5.49787234 54.8978723,6.54893617 C55.5446809,7.92340426 55.5446809,9.3787234 55.2212766,10.8340426 C54.5744681,13.5021277 51.5021277,14.5531915 49.3191489,12.8553191 C49.1574468,12.693617 48.9957447,12.612766 48.9957447,12.9361702 C48.7531915,14.1489362 48.4297872,15.4425532 48.187234,16.6553191 C48.106383,16.8978723 48.0255319,16.9787234 47.7829787,16.9787234 C46.6510638,16.9787234 45.5191489,16.9787234 44.387234,16.9787234 C44.1446809,16.9787234 44.0638298,16.8978723 44.1446809,16.6553191 C44.387234,15.6042553 44.6297872,14.5531915 44.8723404,13.5021277 C45.1148936,13.2595745 45.1957447,12.9361702 45.3574468,12.612766 C46.2468085,10.7531915 47.1361702,8.89361702 47.8638298,7.03404255 C48.3489362,5.90212766 48.2680851,5.09361702 47.2170213,4.52765957 Z M49.0765957,8.97446809 C49.0765957,9.45957447 49.0765957,9.86382979 49.3191489,10.2680851 C49.6425532,10.8340426 50.1276596,11.0765957 50.7744681,11.0765957 C51.3404255,11.0765957 51.7446809,10.6723404 51.906383,10.106383 C52.1489362,9.3787234 52.0680851,8.65106383 51.906383,8.00425532 C51.7446809,7.35744681 51.2595745,6.95319149 50.612766,6.95319149 C49.9659574,6.95319149 49.4808511,7.27659574 49.2382979,8.00425532 C49.0765957,8.16595745 49.0765957,8.57021277 49.0765957,8.97446809 Z" id="Shape" fill="#547BB0"></path>
                    <path d="M18.3531915,6.62978723 C18.5148936,6.7106383 18.5148936,6.54893617 18.5957447,6.46808511 C19.5659574,5.25531915 20.8595745,4.60851064 22.3957447,4.36595745 C23.7702128,4.12340426 25.2255319,4.12340426 26.6,4.36595745 C27.7319149,4.60851064 28.2170213,5.33617021 27.9744681,6.38723404 C27.893617,6.79148936 27.7319149,7.11489362 27.5702128,7.51914894 C26.9234043,8.81276596 26.2765957,10.187234 25.5489362,11.4808511 C25.306383,11.9659574 25.0638298,12.4510638 25.0638298,13.0170213 C25.0638298,13.2595745 24.9829787,13.3404255 24.7404255,13.3404255 C23.9319149,13.3404255 23.0425532,13.3404255 22.2340426,13.3404255 C21.9106383,13.3404255 21.7489362,13.2595745 21.8297872,12.9361702 C21.8297872,12.7744681 21.9106383,12.612766 21.9106383,12.3702128 C21.506383,12.612766 21.1021277,12.8553191 20.6978723,13.0170213 C19.5659574,13.5021277 18.3531915,13.7446809 17.0595745,13.5021277 C15.6851064,13.2595745 15.2808511,12.2893617 15.9276596,11.0765957 C16.8170213,9.29787234 18.3531915,8.65106383 20.1319149,8.32765957 C21.4255319,8.08510638 22.7191489,7.92340426 23.9319149,7.51914894 C24.2553191,7.43829787 24.5787234,7.03404255 24.4978723,6.7106383 C24.4170213,6.30638298 24.093617,6.30638298 23.8510638,6.30638298 C22.9617021,6.22553191 22.1531915,6.46808511 21.587234,7.19574468 C21.4255319,7.27659574 21.2638298,7.27659574 21.1021277,7.27659574 C20.212766,7.19574468 19.3234043,7.11489362 18.4340426,7.03404255 C18.2723404,7.03404255 18.1914894,6.95319149 18.1914894,6.79148936 C18.1914894,6.79148936 18.1914894,6.79148936 18.1914894,6.79148936 C18.3531915,6.7106383 18.4340426,6.7106383 18.3531915,6.62978723 L18.3531915,6.62978723 Z M23.3659574,9.13617021 C22.3957447,9.3787234 21.506383,9.6212766 20.6170213,9.86382979 C20.3744681,9.94468085 20.1319149,10.0255319 19.9702128,10.187234 C19.6468085,10.5106383 19.3234043,10.8340426 19.4042553,11.3191489 C19.4851064,11.6425532 19.9702128,11.7234043 20.5361702,11.6425532 C21.9106383,11.3191489 22.8,10.5106383 23.3659574,9.13617021 Z" id="Shape" fill="#E8953A"></path>
                    <path d="M62.3361702,12.3702128 C60.9617021,13.6638298 59.3446809,13.8255319 57.6468085,13.5021277 C56.0297872,13.1787234 55.2212766,11.7234043 55.787234,10.187234 C56.0297872,9.45957447 56.5957447,8.97446809 57.3234043,8.73191489 C58.212766,8.40851064 59.1829787,8.24680851 60.1531915,8.08510638 C60.6382979,8.00425532 61.2042553,7.84255319 61.6893617,7.68085106 C61.8510638,7.6 62.1744681,7.6 62.1744681,7.35744681 C62.1744681,7.03404255 62.093617,6.79148936 61.8510638,6.54893617 C61.1234043,6.06382979 59.7489362,6.46808511 59.3446809,7.19574468 C59.2638298,7.35744681 59.1829787,7.43829787 59.0212766,7.43829787 C58.1319149,7.35744681 57.1617021,7.27659574 56.1914894,7.19574468 C55.9489362,7.19574468 55.9489362,7.03404255 56.0297872,6.87234043 C56.2723404,5.8212766 57,5.09361702 58.0510638,4.77021277 C59.4255319,4.36595745 60.8,4.36595745 62.2553191,4.44680851 C62.4978723,4.44680851 62.8212766,4.52765957 63.0638298,4.52765957 C64.7617021,4.85106383 65.6510638,5.90212766 65.7319149,7.68085106 C65.7319149,8.97446809 65.7319149,10.2680851 65.7319149,11.5617021 C65.7319149,12.1276596 65.812766,12.693617 66.0553191,13.2595745 C66.1361702,13.4212766 66.1361702,13.5021277 65.893617,13.5021277 C65.0042553,13.5021277 64.0340426,13.5021277 63.1446809,13.5021277 C62.9829787,13.5021277 62.9021277,13.4212766 62.8212766,13.2595745 C62.4978723,12.9361702 62.4170213,12.693617 62.3361702,12.3702128 Z M62.1744681,9.78297872 C62.1744681,9.70212766 62.1744681,9.54042553 62.1744681,9.45957447 C62.1744681,9.29787234 62.1744681,9.21702128 62.012766,9.29787234 C61.2851064,9.6212766 60.3957447,9.70212766 59.6680851,10.0255319 C59.2638298,10.2680851 59.1021277,10.5914894 59.1829787,10.9957447 C59.2638298,11.4 59.587234,11.6425532 59.9914894,11.7234043 C60.8808511,11.8042553 62.2553191,11.3191489 62.1744681,9.78297872 Z" id="Shape" fill="#547BB0"></path>
                    <path d="M47.2170213,4.52765957 C48.2680851,5.09361702 48.3489362,5.90212766 47.8638298,7.03404255 C47.1361702,8.97446809 46.2468085,10.7531915 45.3574468,12.612766 C45.1957447,12.9361702 45.1148936,13.2595745 44.8723404,13.5021277 C42.6893617,13.6638298 40.587234,13.7446809 38.4042553,13.5829787 C37.8382979,13.5021277 37.1914894,13.5021277 36.6255319,13.3404255 C35.8170213,13.0170213 35.493617,12.2085106 35.8978723,11.4 C36.2212766,10.8340426 36.3829787,10.2680851 36.8680851,9.78297872 C37.5957447,8.97446809 38.5659574,8.65106383 39.6170213,8.40851064 C41.2340426,8.00425532 42.8510638,8.08510638 44.4680851,8.00425532 C44.6297872,8.00425532 44.7106383,8.00425532 44.8723404,8.00425532 C45.6,8.08510638 45.9234043,7.6 46.1659574,7.03404255 C46.3276596,6.62978723 46.2468085,6.30638298 45.7617021,6.14468085 C45.2765957,5.98297872 44.7914894,5.98297872 44.306383,5.98297872 C43.5787234,6.06382979 42.7702128,6.14468085 42.0425532,6.30638298 C41.4765957,6.46808511 41.1531915,6.79148936 40.9914894,7.27659574 C40.7489362,7.92340426 39.3744681,8.08510638 38.8893617,7.6 C38.8085106,7.51914894 38.8085106,7.35744681 38.8893617,7.27659574 C39.3744681,5.74042553 40.506383,4.85106383 42.1234043,4.60851064 C43.2553191,4.44680851 44.387234,4.36595745 45.4382979,4.36595745 C46.0042553,4.20425532 46.5702128,4.44680851 47.2170213,4.52765957 Z M40.8297872,12.9361702 C40.8297872,12.9361702 40.8297872,12.9361702 40.8297872,12.9361702 C41.0723404,12.9361702 41.3148936,12.9361702 41.5574468,12.9361702 C41.8,12.9361702 41.9617021,12.8553191 41.9617021,12.612766 C41.9617021,12.4510638 41.9617021,12.3702128 42.0425532,12.2085106 C42.2042553,11.4 42.0425532,10.5106383 42.7702128,9.94468085 C42.8510638,9.86382979 42.8510638,9.78297872 42.8510638,9.70212766 C43.012766,9.21702128 42.7702128,8.81276596 42.2042553,8.81276596 C41.3957447,8.81276596 40.8297872,9.54042553 40.9106383,10.3489362 C40.9106383,10.5106383 40.9106383,10.6723404 40.8297872,10.7531915 C40.506383,11.4 40.1829787,12.0468085 39.8595745,12.612766 C39.7787234,12.8553191 39.7787234,12.9361702 40.0212766,12.9361702 C40.2638298,12.9361702 40.506383,12.9361702 40.8297872,12.9361702 Z" id="Shape" fill="#E8953A"></path>
                    <path d="M29.5914894,13.5829787 C28.8638298,13.5829787 28.0553191,13.5021277 27.2468085,13.2595745 C26.3574468,12.9361702 25.8723404,11.9659574 26.1957447,11.0765957 C26.2765957,10.9148936 26.3574468,10.9148936 26.5191489,10.8340426 C27.5702128,10.7531915 28.5404255,10.6723404 29.5914894,10.5106383 C29.7531915,10.5106383 29.8340426,10.5106383 29.8340426,10.7531915 C29.8340426,11.4 30.0765957,11.5617021 30.7234043,11.6425532 C31.4510638,11.6425532 32.0978723,11.5617021 32.5829787,10.9957447 C32.906383,10.5914894 32.8255319,10.2680851 32.3404255,10.187234 C31.612766,10.0255319 30.8851064,9.86382979 30.1574468,9.70212766 C29.8340426,9.6212766 29.5106383,9.54042553 29.187234,9.3787234 C28.4595745,9.05531915 28.2170213,8.4893617 28.3787234,7.68085106 C28.6212766,6.46808511 29.5106383,5.65957447 30.4808511,5.09361702 C31.3702128,4.60851064 32.3404255,4.36595745 33.3106383,4.28510638 C34.2808511,4.20425532 35.2510638,4.20425532 36.2212766,4.36595745 C37.2723404,4.52765957 37.7574468,5.17446809 37.6765957,6.22553191 C37.6765957,6.46808511 37.5957447,6.62978723 37.2723404,6.62978723 C36.3021277,6.7106383 35.412766,6.79148936 34.4425532,6.87234043 C34.2,6.87234043 34.1191489,6.87234043 34.1191489,6.62978723 C34.1191489,6.30638298 33.9574468,6.14468085 33.7148936,6.06382979 C33.0680851,5.90212766 32.5021277,5.90212766 31.9361702,6.38723404 C31.7744681,6.54893617 31.612766,6.7106383 31.693617,6.95319149 C31.7744681,7.19574468 31.9361702,7.27659574 32.1787234,7.27659574 C33.0680851,7.43829787 33.9574468,7.51914894 34.7659574,7.76170213 C36.0595745,8.16595745 36.5446809,9.05531915 35.8978723,10.2680851 C35.0893617,11.8042553 33.7957447,12.693617 32.1787234,13.1787234 C31.4510638,13.5021277 30.5617021,13.5829787 29.5914894,13.5829787 Z" id="Shape" fill="#E8953A"></path>
                    <path d="M18.3531915,6.62978723 C18.4340426,6.7106383 18.3531915,6.79148936 18.2723404,6.79148936 C18.2723404,6.7106383 18.2723404,6.62978723 18.3531915,6.62978723 Z" id="Shape" fill="#E8953A"></path>
                </g>
            </g>
        </g>
    </g>
</svg>