<?xml version="1.0" encoding="UTF-8"?>
<svg width="96px" height="96px" viewBox="0 0 96 96" version="1.1" xmlns="http://www.w3.org/2000/svg" xmlns:xlink="http://www.w3.org/1999/xlink">
    <!-- Generator: Sketch 46.2 (44496) - http://www.bohemiancoding.com/sketch -->
    <title>Artboard</title>
    <desc>Created with Sketch.</desc>
    <defs></defs>
    <g id="Page-1" stroke="none" stroke-width="1" fill="none" fill-rule="evenodd">
        <g id="Artboard">
            <g id="ic-instadebit">
                <g id="96" fill="#D8D8D8" opacity="0">
                    <rect id="Rectangle-4" x="0" y="0" width="96" height="96"></rect>
                </g>
                <g id="Group-3" transform="translate(9.000000, 43.000000)">
                    <g id="Group" transform="translate(10.000000, 0.000000)" fill="#2E5D93">
                        <path d="M2.15039062,9 L0.146484375,9 L1.62890625,0.46875 L3.62695312,0.46875 L2.15039062,9 Z M10.5,9 L8.56054688,9 L6.52148438,3.61523438 L5.58398438,9 L3.58007812,9 L5.05664062,0.46875 L7.01367188,0.46875 L9.046875,5.85351563 L9.97851562,0.46875 L11.9824219,0.46875 L10.5,9 Z M16.5,6.69140625 C16.5859379,6.24999779 16.3476591,5.90820434 15.7851562,5.66601563 L14.8242187,5.26757813 C13.4765558,4.66210635 12.8359372,3.83789584 12.9023437,2.79492188 C12.9296876,2.31835699 13.0937485,1.89355655 13.3945312,1.52050781 C13.695314,1.14745907 14.1113255,0.85742291 14.6425781,0.650390625 C15.1738308,0.44335834 15.7539031,0.343749961 16.3828125,0.3515625 C17.2265667,0.367187578 17.9052709,0.613278867 18.4189453,1.08984375 C18.9326198,1.56640863 19.1855469,2.20507412 19.1777344,3.00585938 L17.1855469,3.00585938 C17.1972657,2.67773273 17.1279304,2.41504005 16.9775391,2.21777344 C16.8271477,2.02050683 16.5800798,1.91796879 16.2363281,1.91015625 C15.9003889,1.90234371 15.6035169,1.98046793 15.3457031,2.14453125 C15.0878893,2.30859457 14.9355471,2.52929549 14.8886719,2.80664063 C14.8144528,3.19726758 15.1044889,3.51757688 15.7587891,3.76757813 C16.4130892,4.01757938 16.8886704,4.23242098 17.1855469,4.41210938 C18.1191453,4.97070592 18.5566409,5.72460463 18.4980469,6.67382813 C18.4667967,7.16601809 18.3085952,7.59765439 18.0234375,7.96875 C17.7382798,8.33984561 17.342776,8.62695211 16.8369141,8.83007813 C16.3310522,9.03320414 15.763675,9.13085941 15.1347656,9.12304688 C14.6738258,9.11523434 14.2460957,9.04296943 13.8515625,8.90625 C13.4570293,8.76953057 13.119142,8.57031381 12.8378906,8.30859375 C12.2675753,7.78124736 11.9941405,7.08789492 12.0175781,6.22851563 L14.0273437,6.234375 C14.0039061,6.67187719 14.0878897,7.00292856 14.2792969,7.22753906 C14.4707041,7.45214956 14.7929665,7.56445313 15.2460937,7.56445313 C15.5820329,7.56445313 15.8623036,7.48730546 16.0869141,7.33300781 C16.3115246,7.17871017 16.4492185,6.96484512 16.5,6.69140625 Z M26.8710938,2.05664063 L24.3867188,2.05664063 L23.1855469,9 L21.1757812,9 L22.3828125,2.05664063 L19.9394531,2.05664063 L20.2207031,0.46875 L27.1464844,0.46875 L26.8710938,2.05664063 Z M30.8613281,7.40625 L28.1367188,7.40625 L27.3808594,9 L25.171875,9 L29.6894531,0.46875 L31.5761719,0.46875 L33.1523438,9 L31.0664062,9 L30.8613281,7.40625 Z M28.8867188,5.81835938 L30.65625,5.81835938 L30.28125,2.87695313 L28.8867188,5.81835938 Z" id="INSTA"></path>
                        <path d="M34.6445312,9 L34.6445312,0.46875 L37.3925781,0.46875 C38.1464881,0.46875 38.8242157,0.639646729 39.4257812,0.981445312 C40.0273468,1.3232439 40.4970686,1.80566095 40.8349609,2.42871094 C41.1728533,3.05176093 41.34375,3.74999613 41.3476562,4.5234375 L41.3476562,4.91601562 C41.3476562,5.69726953 41.1826188,6.39745784 40.8525391,7.01660156 C40.5224593,7.63574528 40.0576202,8.12011544 39.4580078,8.46972656 C38.8583954,8.81933769 38.1894568,8.99609373 37.4511719,9 L34.6445312,9 Z M36.7011719,2.05664062 L36.7011719,7.41796875 L37.4160156,7.41796875 C38.0058623,7.41796875 38.4589828,7.20800991 38.7753906,6.78808594 C39.0917985,6.36816196 39.25,5.74414477 39.25,4.91601562 L39.25,4.546875 C39.25,3.72265213 39.0917985,3.10156459 38.7753906,2.68359375 C38.4589828,2.26562291 37.9980499,2.05664062 37.3925781,2.05664062 L36.7011719,2.05664062 Z M47.6933594,5.38476562 L44.4589844,5.38476562 L44.4589844,7.41796875 L48.2792969,7.41796875 L48.2792969,9 L42.4023438,9 L42.4023438,0.46875 L48.2910156,0.46875 L48.2910156,2.05664062 L44.4589844,2.05664062 L44.4589844,3.85546875 L47.6933594,3.85546875 L47.6933594,5.38476562 Z M49.1171875,9 L49.1171875,0.46875 L52.1816406,0.46875 C53.2793024,0.46875 54.114255,0.669919863 54.6865234,1.07226562 C55.2587919,1.47461139 55.5449219,2.05858992 55.5449219,2.82421875 C55.5449219,3.26562721 55.4433604,3.64257656 55.2402344,3.95507812 C55.0371084,4.26757969 54.7382832,4.49804613 54.34375,4.64648438 C54.7890647,4.76367246 55.1308582,4.98242027 55.3691406,5.30273438 C55.6074231,5.62304848 55.7265625,6.01366957 55.7265625,6.47460938 C55.7265625,7.31055105 55.4619167,7.93847446 54.9326172,8.35839844 C54.4033177,8.77832241 53.6191458,8.99218746 52.5800781,9 L49.1171875,9 Z M51.1738281,5.37304688 L51.1738281,7.41796875 L52.5214844,7.41796875 C52.89258,7.41796875 53.1777334,7.33300866 53.3769531,7.16308594 C53.5761729,6.99316321 53.6757812,6.75390779 53.6757812,6.4453125 C53.6757812,5.73437145 53.3222692,5.37695314 52.6152344,5.37304688 L51.1738281,5.37304688 Z M51.1738281,4.02539062 L52.2460938,4.02539062 C52.6953147,4.02148436 53.015624,3.93945393 53.2070312,3.77929688 C53.3984385,3.61913982 53.4941406,3.38281406 53.4941406,3.0703125 C53.4941406,2.7109357 53.390626,2.45214923 53.1835938,2.29394531 C52.9765615,2.1357414 52.6425804,2.05664062 52.1816406,2.05664062 L51.1738281,2.05664062 L51.1738281,4.02539062 Z M59.0488281,9 L56.9980469,9 L56.9980469,0.46875 L59.0488281,0.46875 L59.0488281,9 Z M67.0058594,2.05664062 L64.4453125,2.05664062 L64.4453125,9 L62.3886719,9 L62.3886719,2.05664062 L59.875,2.05664062 L59.875,0.46875 L67.0058594,0.46875 L67.0058594,2.05664062 Z" id="DEBIT"></path>
                    </g>
                    <g id="Group-2" transform="translate(0.000000, 1.000000)" fill="#FB9B15">
                        <polygon id="Path-6" points="6.53290563 0 6 3.44308775 9.40231788 3.44308775 10 0"></polygon>
                        <polygon id="Path-6-Copy" points="5.53290563 5 5 8.44308775 8.40231788 8.44308775 9 5"></polygon>
                        <polygon id="Path-6-Copy-2" points="0.532905629 5 0 8.44308775 3.40231788 8.44308775 4 5"></polygon>
                    </g>
                </g>
            </g>
        </g>
    </g>
</svg>