<?xml version="1.0" encoding="UTF-8"?>
<svg width="96px" height="96px" viewBox="0 0 96 96" version="1.1" xmlns="http://www.w3.org/2000/svg" xmlns:xlink="http://www.w3.org/1999/xlink">
    <!-- Generator: Sketch 46.2 (44496) - http://www.bohemiancoding.com/sketch -->
    <title>Artboard</title>
    <desc>Created with Sketch.</desc>
    <defs></defs>
    <g id="Page-1" stroke="none" stroke-width="1" fill="none" fill-rule="evenodd">
        <g id="Artboard">
            <g id="ic-icbc">
                <g id="96" fill="#D8D8D8" opacity="0">
                    <rect id="Rectangle-4" x="0" y="0" width="96" height="96"></rect>
                </g>
                <g id="Group-12" transform="translate(11.000000, 34.000000)">
                    <g id="layer1-0" transform="translate(50.135083, 0.483023)" fill="#CB0202">
                        <g id="g3518" transform="translate(12.522818, 13.235716) scale(-1, 1) rotate(-180.000000) translate(-12.522818, -13.235716) translate(0.022818, 0.735716)">
                            <path d="M12.752353,7.65273969 L12.752353,5.77101603 L18.8577545,5.77101603 L18.8577545,11.4170373 L15.1026116,11.4170373 L15.1026116,13.2991861 L18.8577545,13.2991861 L18.8577545,18.9515847 L12.752353,18.9515847 L12.752353,17.0681604 L16.9733818,17.0681604 L16.9733818,15.1817601 L13.2105875,15.1817601 L13.2105875,9.53446336 L16.9733818,9.53446336 L16.9733818,7.65273969 L12.752353,7.65273969 Z M1.89882536,12.3557734 C1.89882536,18.0706693 6.53388058,22.7107805 12.2507604,22.7107805 C17.966365,22.7107805 22.6022704,18.0706693 22.6022704,12.3557734 C22.6022704,6.63875169 17.966365,2.00204173 12.2507604,2.00204173 C6.53388058,2.00204173 1.89882536,6.63875169 1.89882536,12.3557734 L1.89882536,12.3557734 Z M0.00255047059,12.3557734 C0.00255047059,19.122921 5.48266162,24.6039833 12.2507604,24.6039833 C19.0171589,24.6039833 24.5010957,19.122921 24.5010957,12.3557734 C24.5010957,5.58862574 19.0171589,0.105437747 12.2507604,0.105437747 C5.48266162,0.105437747 0.00255047059,5.58862574 0.00255047059,12.3557734 L0.00255047059,12.3557734 Z M11.8027277,17.0732623 L11.8027277,18.9558362 L5.68967481,18.9558362 L5.68967481,13.3068389 L9.43546596,13.3068389 L9.43546596,11.4225643 L5.68967481,11.4225643 L5.68967481,5.77441725 L11.8027277,5.77441725 L11.8027277,7.65699122 L7.57107195,7.65699122 L7.57107195,9.53871488 L11.3334412,9.53871488 L11.3334412,15.1911134 L7.57107195,15.1911134 L7.57107195,17.0732623 L11.8027277,17.0732623 Z" id="path3520"></path>
                        </g>
                    </g>
                    <g id="g2931" transform="translate(0.422569, 6.987295)" fill="#201E1D">
                        <path d="M20.7692942,7.92249541 L20.7692942,7.89175059 L25.3130286,7.89175059 C25.7281342,7.89175059 26.3256155,7.95836386 26.804193,8.27305983 C27.250188,8.56811568 27.4782633,9.00407905 27.4782633,9.56856957 C27.4782633,10.018198 27.3559745,10.3700411 27.1164742,10.6130031 C26.670902,11.0609226 25.9016239,11.0600682 25.3388406,11.0600682 L20.7527916,11.0600682 L20.7527916,11.0323438 L20.7692762,7.92252528 L20.7692942,7.92249541 Z M20.7692942,5.46256339 L20.7692942,2.70032178 L24.9288127,2.70032178 C25.6604311,2.70032178 26.8867063,2.70032178 26.8867063,4.15638215 C26.8867063,4.69012784 26.6569383,5.06759211 26.2041728,5.28023655 C25.7958374,5.47238644 25.2859475,5.49245377 24.9389681,5.49245377 L20.7692942,5.49245377 L20.7692942,5.46256339 L20.7692942,5.46256339 Z M25.4818637,13.5007843 C27.0585034,13.5007843 28.2479647,13.1164875 29.0163967,12.357714 C29.8055628,11.5780158 29.9718588,10.575856 29.9718588,9.87002772 C29.9718588,8.32771396 29.3295243,7.25509893 28.0617809,6.68420311 L28.0059257,6.66075089 L28.0588188,6.63257835 C28.6304881,6.33068999 29.3874951,5.71752341 29.3874951,3.88954963 C29.3874951,2.88525077 29.0092033,1.98044311 28.3207456,1.3408039 C27.5662777,0.6383934 26.4652534,0.268185875 25.1403854,0.268185875 L18.2735828,0.263913687 L18.2735828,13.4969812 L25.4818637,13.5007843 Z" id="path2933"></path>
                        <polygon id="path2935" points="0.192160379 13.5007843 2.80804442 13.5007843 2.80804442 0.26814405 0.192160379 0.26814405"></polygon>
                        <path d="M4.93180948,6.77173816 C4.93180948,8.05102255 5.1467694,9.10741223 5.58895499,10.0002637 C5.95836027,10.7440906 6.47882991,11.3709222 7.2303355,11.9742717 C8.39948631,12.91153 10.0459442,13.3876311 12.1244359,13.3876311 L15.7046686,13.3876311 L15.7046686,10.8901247 L12.3228905,10.8901247 C10.4415863,10.8901247 9.07736487,10.420429 8.26915796,9.49299067 C7.69452719,8.83541425 7.39959272,7.94726215 7.39197807,6.85500102 C7.38140874,5.683322 7.70891272,4.75161449 8.36225091,4.08806 C9.17976593,3.25755256 10.5122498,2.8369601 12.3228905,2.8369601 L15.7046686,2.8369601 L15.7046686,0.359948298 L12.2492635,0.359948298 C11.0856134,0.359948298 10.1102632,0.477800945 9.2648179,0.716066564 C8.42106609,0.955610852 7.72753191,1.31258057 7.14655363,1.80618861 C6.3201509,2.50945355 4.93180948,4.08806 4.93180948,6.77173816" id="path2937"></path>
                        <path d="M31.5501911,6.77173816 C31.5501911,8.04845924 31.7702267,9.17573139 32.2073357,10.1176862 C32.5856275,10.9341044 33.1369859,11.6377965 33.8478701,12.2074107 C34.9467784,13.0908664 36.5022608,13.5012115 38.741969,13.5012115 L42.5164253,13.5012115 L42.5164253,11.0041324 L38.9412706,11.0041324 C37.0633516,11.0041324 35.699131,10.5139391 34.8858455,9.54764481 C34.3120606,8.86744072 34.0171282,7.96177863 34.0099348,6.85500102 C33.9989333,5.6508713 34.3378725,4.69055506 35.0140585,4.0039427 C35.83623,3.1674542 37.1568667,2.74344698 38.9412706,2.74344698 L42.5164253,2.74344698 L42.5164253,0.268571268 L38.8659507,0.268571268 C37.7031471,0.268571268 36.7286436,0.385142259 35.8823528,0.623835097 C35.038601,0.862952166 34.3450659,1.21821301 33.7657799,1.71224827 C33.0980565,2.27844766 31.5501911,3.90530594 31.5501911,6.77173816" id="path2939"></path>
                    </g>
                </g>
            </g>
        </g>
    </g>
</svg>