<?xml version="1.0" encoding="UTF-8"?>
<svg width="96px" height="96px" viewBox="0 0 96 96" version="1.1" xmlns="http://www.w3.org/2000/svg" xmlns:xlink="http://www.w3.org/1999/xlink">
    <!-- Generator: Sketch 46.2 (44496) - http://www.bohemiancoding.com/sketch -->
    <title>Artboard</title>
    <desc>Created with Sketch.</desc>
    <defs></defs>
    <g id="Page-1" stroke="none" stroke-width="1" fill="none" fill-rule="evenodd">
        <g id="Artboard">
            <g id="ic-mastercard">
                <g id="96" fill="#D8D8D8" opacity="0">
                    <rect id="Rectangle-4" x="0" y="0" width="96" height="96"></rect>
                </g>
                <g id="MasterCard_Logo" transform="translate(10.000000, 25.000000)" fill-rule="nonzero">
                    <g id="g10305">
                        <path d="M75.7531275,22.8255034 C75.756698,35.3058255 65.6420671,45.425047 53.161745,45.4283624 C40.6811678,45.4314228 30.5622013,35.317302 30.5588859,22.8369799 C30.5588859,22.8328993 30.5588859,22.8295839 30.5588859,22.8255034 C30.5555705,10.3454362 40.6702013,0.225704698 53.1500134,0.222389262 C65.6305906,0.219073826 75.7498121,10.3337047 75.7531275,22.8140268 C75.7531275,22.8178523 75.7531275,22.8214228 75.7531275,22.8255034 Z" id="path2268" fill="#FF9900"></path>
                        <path d="M22.6982416,0.228255034 C10.2918792,0.307060403 0.24661745,10.4005235 0.24661745,22.8255034 C0.24661745,35.2989396 10.3701745,45.4224966 22.8438658,45.4224966 C28.6981611,45.4224966 34.0344832,43.1914631 38.0499866,39.5347919 C38.0497315,39.5347919 38.0492215,39.5342819 38.0482013,39.5337718 L38.053047,39.5337718 C38.8752752,38.7844832 39.6421611,37.9760268 40.3470738,37.1140134 L35.7174497,37.1140134 C35.0992483,36.3672752 34.5374094,35.5891678 34.032698,34.7863221 L42.0172886,34.7863221 C42.5028725,34.0092349 42.9425503,33.2023087 43.3327517,32.3665638 L32.7144295,32.3665638 C32.3525369,31.5907517 32.0383356,30.7973423 31.7700403,29.9924564 L44.2781611,29.9924564 C45.0320403,27.74 45.4411141,25.3301879 45.4411141,22.8252483 C45.4411141,21.1644698 45.2610604,19.5452617 44.9203356,17.9862416 L31.106698,17.9862416 C31.2778255,17.183906 31.4938389,16.3912617 31.7514228,15.6123893 L44.2641342,15.6123893 C43.9843624,14.7835302 43.6594497,13.9758389 43.289906,13.1928859 L32.7131544,13.1928859 C33.0946846,12.3777987 33.5269664,11.5848993 34.009745,10.8192886 L41.9884698,10.8192886 C41.4574899,9.97334228 40.8698926,9.16514094 40.234604,8.3995302 L35.7860537,8.3995302 C36.4738792,7.59005369 37.2310738,6.82775839 38.053047,6.11697987 C34.0372886,2.45979866 28.6994362,0.228255034 22.8438658,0.228255034 C22.7951544,0.228255034 22.746953,0.228 22.6982416,0.228255034 Z" id="path1350" fill="#CC0000"></path>
                        <path d="M73.4861342,34.6386577 C73.6090604,34.6386577 73.7286711,34.6705369 73.8454765,34.7332752 C73.9627919,34.7960134 74.0530738,34.8865503 74.1183624,35.0041208 C74.183651,35.1204161 74.2162953,35.2430872 74.2162953,35.370094 C74.2162953,35.4955705 74.183906,35.6169664 74.1196376,35.7332617 C74.0556242,35.849302 73.9653423,35.9398389 73.849047,36.0043624 C73.7340268,36.0678658 73.6123758,36.1 73.4858792,36.1 C73.3593826,36.1 73.2379866,36.0678658 73.1222013,36.0043624 C73.0061611,35.9395839 72.9163893,35.849557 72.8511007,35.7332617 C72.7868322,35.6169664 72.754953,35.4955705 72.754953,35.370094 C72.754953,35.2430872 72.7873423,35.1204161 72.8528859,35.0041208 C72.9186846,34.8865503 73.0094765,34.7967785 73.1260268,34.7332752 C73.2438523,34.6705369 73.3634631,34.6386577 73.4861342,34.6386577 M73.4861342,34.7597987 C73.3838658,34.7597987 73.2838926,34.7863221 73.1862148,34.8391141 C73.089302,34.891906 73.013557,34.9666309 72.9589799,35.0655839 C72.9036376,35.1630067 72.876094,35.264 72.876094,35.370094 C72.876094,35.4751678 72.9031275,35.5766711 72.9564295,35.6730738 C73.0110067,35.7692215 73.0864966,35.8447114 73.1828993,35.8987785 C73.2800671,35.9525906 73.3808054,35.9791141 73.4858792,35.9791141 C73.5914631,35.9791141 73.6924564,35.9525906 73.7891141,35.8987785 C73.8855168,35.8447114 73.9607517,35.7692215 74.0145638,35.6730738 C74.0678658,35.5766711 74.0943893,35.4754228 74.0943893,35.370094 C74.0943893,35.264 74.0673557,35.1627517 74.0125235,35.0655839 C73.9582013,34.9666309 73.8822013,34.891906 73.7845235,34.8391141 C73.6878658,34.7860671 73.5884027,34.7597987 73.4861342,34.7597987 M73.1658121,35.773557 L73.1658121,34.9875436 L73.4366577,34.9875436 C73.5284698,34.9875436 73.5952886,34.9946846 73.636604,35.0099866 C73.6779195,35.0245235 73.7108188,35.0492617 73.735557,35.0857315 C73.7597852,35.1216913 73.7722819,35.1599463 73.7722819,35.2007517 C73.7722819,35.2583893 73.7518792,35.3083758 73.7105638,35.3507114 C73.6702685,35.393047 73.6154362,35.4172752 73.5475973,35.4223758 C73.575396,35.4338523 73.5975839,35.4483893 73.6149262,35.4642013 C73.6468054,35.4948054 73.6850604,35.5465772 73.7309664,35.6197718 L73.826604,35.773557 L73.6720537,35.773557 L73.6026846,35.6498658 C73.5478523,35.552443 73.5037315,35.491745 73.4698121,35.4667517 C73.446604,35.4491544 73.4126846,35.4399732 73.3685638,35.4399732 L73.2938389,35.4399732 L73.2938389,35.7743221 L73.1663221,35.7743221 M73.2928188,35.3310738 L73.4468591,35.3310738 C73.5203087,35.3310738 73.5700403,35.3198523 73.5968188,35.2981745 C73.6238523,35.2757315 73.6373691,35.2471678 73.6373691,35.210953 C73.6373691,35.1874899 73.6312483,35.1665772 73.6182416,35.1487248 C73.6049799,35.1301074 73.5871275,35.1168456 73.5639195,35.1074094 C73.5412215,35.0984832 73.4988859,35.0933826 73.4371678,35.0933826 L73.2933289,35.0933826 L73.2933289,35.3310738" id="use9412" fill="#FCB340"></path>
                    </g>
                    <g id="g16480" transform="translate(1.530201, 16.832215)">
                        <g id="g13802" transform="translate(0.065276, 0.508511)" fill="#000066">
                            <path d="M28.7471275,11.9677047 L29.0480671,9.92233557 C28.8835705,9.92233557 28.6417987,9.99348993 28.4280805,9.99348993 C27.5905503,9.99348993 27.4859866,9.54590604 27.5517852,9.21895302 L28.3770738,5.10526174 L29.6502013,5.10526174 L29.9126309,2.78369128 L28.712698,2.78369128 L28.9570201,1.37692617 L26.4469799,1.37692617 C26.3939329,1.42997315 25.026953,9.28857718 25.026953,10.2459732 C25.026953,11.6626846 25.8221477,12.2931275 26.9437852,12.2831812 C27.8216107,12.2757852 28.5058658,12.0327383 28.7471275,11.9677047 Z" id="path13804"></path>
                            <path d="M29.5089128,8.06875168 C29.5089128,11.4688591 31.752953,12.2765503 33.6651946,12.2765503 C35.4302819,12.2765503 36.3557987,11.8674765 36.3557987,11.8674765 L36.7796644,9.54667114 C36.7796644,9.54667114 35.2882282,10.1531409 34.0760537,10.1531409 C31.4923087,10.1531409 31.9452483,8.22661745 31.9452483,8.22661745 L36.9089664,8.24166443 C36.9089664,8.24166443 37.224953,6.68315436 37.224953,6.04786577 C37.224953,4.46232215 36.3611544,2.51590604 33.7195168,2.51590604 C31.3002685,2.51641611 29.5089128,5.12311409 29.5089128,8.06875168 Z M33.728698,4.67042953 C35.0864966,4.67042953 34.8360537,6.19655034 34.8360537,6.32024161 L32.1648322,6.32024161 C32.1648322,6.16212081 32.4170604,4.67042953 33.728698,4.67042953 Z" id="path13806"></path>
                            <path d="M48.9638926,11.9669396 L49.3946443,9.3441745 C49.3946443,9.3441745 48.2133289,9.93610738 47.4035973,9.93610738 C45.6966577,9.93610738 45.0118926,8.63288591 45.0118926,7.23249664 C45.0118926,4.39218792 46.4803758,2.82934228 48.1151409,2.82934228 C49.3413423,2.82934228 50.3250067,3.51767785 50.3250067,3.51767785 L50.7177584,0.969127517 C50.7177584,0.969127517 49.5563356,0.130322148 48.3061611,0.12547651 C44.5456913,0.110684564 42.3939732,2.72885906 42.3939732,7.2549396 C42.3939732,10.2548993 43.9874228,12.296443 46.8585906,12.296443 C47.6703624,12.296443 48.9638926,11.9669396 48.9638926,11.9669396 Z" id="path13808"></path>
                            <path d="M15.5136913,2.55339597 C13.8638792,2.55339597 12.5994228,3.08361074 12.5994228,3.08361074 L12.2500268,5.15626846 C12.2500268,5.15626846 13.2938792,4.73214765 14.8720268,4.73214765 C15.7679597,4.73214765 16.423396,4.83288591 16.423396,5.56100671 C16.423396,6.0032349 16.3433154,6.16645638 16.3433154,6.16645638 C16.3433154,6.16645638 15.6363624,6.10754362 15.3088993,6.10754362 C12.9600403,6.10754362 11.042443,6.99557047 11.042443,9.67291275 C11.042443,11.7828054 12.4764966,12.266604 13.3652886,12.266604 C15.063047,12.266604 15.7350604,11.194698 15.7738255,11.1916376 L15.7541879,12.0811946 C15.7541879,12.0811946 17.8724966,12.0811946 17.8727517,12.0811946 L18.817906,5.45542282 C18.817906,2.64367785 16.3655034,2.55339597 15.5136913,2.55339597 Z M15.8804295,7.93358389 C15.9265906,8.33806711 15.7758658,10.2508188 14.3267651,10.2508188 C13.5795168,10.2508188 13.3854362,9.67954362 13.3854362,9.34238926 C13.3854362,8.68338255 13.7432483,7.89303356 15.5060403,7.89303356 C15.9166443,7.89303356 15.8113154,7.92261745 15.8804295,7.93358389 Z" id="path13810"></path>
                            <path d="M21.0695973,12.2176376 C21.6115436,12.2176376 24.7094362,12.3556107 24.7094362,9.1587651 C24.7094362,6.16951678 21.8418389,6.76042953 21.8418389,5.55922148 C21.8418389,4.96193289 22.3093154,4.77371812 23.1639329,4.77371812 C23.5028725,4.77371812 24.8081342,4.88159732 24.8081342,4.88159732 L25.1113691,2.75716779 C25.1113691,2.75742282 24.266698,2.56818792 22.891557,2.56818792 C21.1116779,2.56818792 19.3050201,3.27871141 19.3050201,5.70969128 C19.3050201,8.46456376 22.3174765,8.18785235 22.3174765,9.34825503 C22.3174765,10.1227919 21.4758658,10.1865503 20.8270604,10.1865503 C19.7046577,10.1865503 18.6942148,9.80119463 18.6906443,9.81981208 L18.369557,11.9225638 C18.4279597,11.9404161 19.0515168,12.2176376 21.0695973,12.2176376 Z" id="path13812"></path>
                            <path d="M68.8098389,0.626107383 L68.3750067,3.86732886 C68.3750067,3.86732886 67.4688725,2.61638926 66.0511409,2.61638926 C63.383745,2.61638926 62.0091141,5.27460403 62.0091141,8.32812081 C62.0091141,10.2995302 62.9894631,12.2319195 64.9927517,12.2319195 C66.4339463,12.2319195 67.2329664,11.2268322 67.2329664,11.2268322 L67.1271275,12.0850201 L69.4678255,12.0850201 L71.3058523,0.643704698 L68.8098389,0.626107383 Z M67.776443,6.92569128 C67.776443,8.19652349 67.1470201,9.89428188 65.8430336,9.89428188 C64.9769396,9.89428188 64.5709262,9.16718121 64.5709262,8.02641611 C64.5709262,6.16084564 65.4087114,4.93030872 66.4663356,4.93030872 C67.3319195,4.93030872 67.776443,5.52453691 67.776443,6.92569128 Z" id="path13814"></path>
                            <polygon id="path13816" points="2.48632215 12.0944564 3.95097987 3.4564698 4.16622819 12.0944564 5.82369128 12.0944564 8.91597315 3.4564698 7.54618792 12.0944564 10.009302 12.0944564 11.9059866 0.637838926 7.99326174 0.608 5.6658255 7.62244295 5.60206711 0.637838926 2.0162953 0.637838926 0.0923221477 12.0944564"></polygon>
                            <path d="M39.5559597,12.1107785 C40.2562819,8.12842953 40.5057047,4.9833557 42.5480134,5.63471141 C42.841302,4.09328859 43.540349,2.75283221 43.859651,2.10045638 C43.859651,2.10045638 43.7586577,1.95024161 43.1274497,1.95024161 C42.0499329,1.95024161 40.6112886,4.13689933 40.6112886,4.13689933 L40.8262819,2.78496644 L38.585557,2.78496644 L37.0849396,12.1105235 L39.5559597,12.1105235 L39.5559597,12.1107785 Z" id="path13818"></path>
                            <g id="use14699" transform="translate(49.298012, 2.550336)">
                                <path d="M4.70536913,0.00306040268 C3.05479195,0.00306040268 1.79033557,0.533275168 1.79033557,0.533275168 L1.44119463,2.60593289 C1.44119463,2.60593289 2.48555705,2.18181208 4.0629396,2.18181208 C4.95912752,2.18181208 5.61430872,2.28255034 5.61430872,3.01067114 C5.61430872,3.45289933 5.53448322,3.61612081 5.53448322,3.61612081 C5.53448322,3.61612081 4.82778523,3.55720805 4.50032215,3.55720805 C2.15120805,3.55720805 0.233865772,4.4452349 0.233865772,7.12257718 C0.233865772,9.2324698 1.66766443,9.71626846 2.55645638,9.71626846 C4.2537047,9.71626846 4.92622819,8.64436242 4.96473826,8.64130201 L4.94484564,9.53085906 L7.06391946,9.53085906 L8.00881879,2.90508725 C8.00907383,0.0933422819 5.55667114,0.00306040268 4.70536913,0.00306040268 Z M5.07159732,5.38324832 C5.11750336,5.78773154 4.96677852,7.70048322 3.51793289,7.70048322 C2.7701745,7.70048322 2.57634899,7.12920805 2.57634899,6.79205369 C2.57634899,6.13304698 2.93390604,5.34269799 4.69695302,5.34269799 C5.10781208,5.34269799 5.00273826,5.37228188 5.07159732,5.38324832 Z" id="path13810_1_"></path>
                            </g>
                            <path d="M59.7456913,12.1107785 C60.1302819,9.18095302 60.8420805,5.06777181 62.7374899,5.63471141 C63.0305235,4.09328859 62.7479463,4.09736913 62.1169933,4.09736913 C61.0387114,4.09736913 60.8,4.1366443 60.8,4.1366443 L61.0152483,2.78471141 L58.7747785,2.78471141 L57.2741611,12.1105235 L59.7456913,12.1105235 L59.7456913,12.1107785 Z" id="use14701"></path>
                        </g>
                        <g id="g10289" transform="translate(0.765101, 0.000000)" fill="#FFFFFF">
                            <path d="M28.674443,11.7465906 L28.9756376,9.70147651 C28.8111409,9.70147651 28.5691141,9.77186577 28.355651,9.77186577 C27.5181208,9.77186577 27.4257987,9.32657718 27.4791007,8.99732886 L28.1557047,4.8244698 L29.4285772,4.8244698 L29.7358926,2.56232215 L28.5357047,2.56232215 L28.7800268,1.15555705 L26.3740403,1.15555705 C26.3209933,1.20860403 24.9537584,9.06746309 24.9537584,10.024349 C24.9537584,11.4410604 25.7492081,12.0720134 26.8708456,12.0618121 C27.7491812,12.0544161 28.4331812,11.8113691 28.674443,11.7465906 Z" id="path4157"></path>
                            <path d="M29.4367383,7.84738255 C29.4367383,11.2474899 31.6810336,12.0554362 33.5930201,12.0554362 C35.3578523,12.0554362 36.1344295,11.6608993 36.1344295,11.6608993 L36.5582953,9.34034899 C36.5582953,9.34034899 35.2157987,9.93177181 34.0033691,9.93177181 C31.4198792,9.93177181 31.8723087,8.00550336 31.8723087,8.00550336 L36.7618121,8.00550336 C36.7618121,8.00550336 37.0775436,6.44648322 37.0775436,5.81119463 C37.0775436,4.22590604 36.2884698,2.29428188 33.6468322,2.29428188 C31.2275839,2.29479195 29.4367383,4.90148993 29.4367383,7.84738255 Z M33.6560134,4.4490604 C35.0138121,4.4490604 34.7633691,5.97492617 34.7633691,6.09836242 L32.0921477,6.09836242 C32.0921477,5.94075168 32.3446309,4.4490604 33.6560134,4.4490604 Z" id="path4155"></path>
                            <path d="M48.8917181,11.7455705 L49.3222148,9.12255034 C49.3222148,9.12255034 48.1416644,9.71448322 47.3314228,9.71448322 C45.6247383,9.71448322 44.9402282,8.41126174 44.9402282,7.01112752 C44.9402282,4.17081879 46.4087114,2.60822819 48.0434765,2.60822819 C49.2694228,2.60822819 50.2533423,3.29656376 50.2533423,3.29656376 L50.646094,0.748013423 C50.646094,0.748013423 49.187047,0.157610738 47.9363624,0.157610738 C45.1587919,0.157610738 42.4567114,2.56716779 42.4567114,7.09248322 C42.4567114,10.0932081 43.9157584,12.0750738 46.7869262,12.0750738 C47.598698,12.0753289 48.8917181,11.7455705 48.8917181,11.7455705 Z" id="path4151"></path>
                            <path d="M15.4415168,2.33177181 C13.7917047,2.33177181 12.5269933,2.86198658 12.5269933,2.86198658 L12.1778523,4.9346443 C12.1778523,4.9346443 13.2217047,4.51052349 14.7995973,4.51052349 C15.6955302,4.51052349 16.3509664,4.61126174 16.3509664,5.33938255 C16.3509664,5.78161074 16.2706309,5.94483221 16.2706309,5.94483221 C16.2706309,5.94483221 15.5639329,5.88566443 15.2367248,5.88566443 C13.155906,5.88566443 10.9700134,6.77369128 10.9700134,9.45103356 C10.9700134,11.5606711 12.4040671,12.0447248 13.2928591,12.0447248 C14.9903624,12.0447248 15.7220537,10.9432349 15.7610738,10.9399195 L15.6817584,11.8593154 L17.8003221,11.8593154 L18.7454765,5.23328859 C18.7454765,2.42230872 16.2933289,2.33177181 15.4415168,2.33177181 Z M15.9569396,7.72675168 C16.0028456,8.13148993 15.7031812,10.0286846 14.2545906,10.0286846 C13.5073423,10.0286846 13.3130067,9.45791946 13.3130067,9.12025503 C13.3130067,8.46175839 13.6708188,7.67115436 15.4338658,7.67115436 C15.8439597,7.67166443 15.8878255,7.7155302 15.9569396,7.72675168 Z" id="path4149"></path>
                            <path d="M20.9971678,11.9962685 C21.5391141,11.9962685 24.6372617,12.1339866 24.6372617,8.93714094 C24.6372617,5.94840268 21.7694094,6.53880537 21.7694094,5.33810738 C21.7694094,4.74030872 22.2368859,4.55209396 23.0912483,4.55209396 C23.430443,4.55209396 24.7354497,4.65997315 24.7354497,4.65997315 L25.0389396,2.53554362 C25.0389396,2.53579866 24.1942685,2.34656376 22.8191275,2.34656376 C21.0392483,2.34656376 19.2325906,3.05708725 19.2325906,5.48806711 C19.2325906,8.24268456 22.245047,7.96622819 22.245047,9.12663087 C22.245047,9.90116779 21.4034362,9.96416107 20.7548859,9.96416107 C19.6324832,9.96416107 18.6217852,9.5790604 18.6182148,9.59742282 L18.2973826,11.7004295 C18.3555302,11.7182819 18.9788322,11.9962685 20.9971678,11.9962685 Z" id="path4145"></path>
                            <path d="M68.8213154,0.425395973 L68.3023221,3.6457047 C68.3023221,3.6457047 67.396698,2.3947651 65.9789664,2.3947651 C63.7744564,2.3947651 61.9369396,5.05272483 61.9369396,8.10675168 C61.9369396,10.0781611 62.9170336,12.0097852 64.9205772,12.0097852 C66.3617718,12.0097852 67.1607919,11.004953 67.1607919,11.004953 L67.054953,11.8631409 L69.3951409,11.8631409 L71.2331678,0.42157047 L68.8213154,0.425395973 Z M67.7040134,6.70432215 C67.7040134,7.97515436 67.0748456,9.67265772 65.770349,9.67265772 C64.9045101,9.67265772 64.4987517,8.94581208 64.4987517,7.80504698 C64.4987517,5.93973154 65.3365369,4.7089396 66.393651,4.7089396 C67.259745,4.70868456 67.7040134,5.30367785 67.7040134,6.70432215 Z" id="path4139"></path>
                            <polygon id="path4133" points="2.41414765 11.8730872 3.87880537 3.23510067 4.09379866 11.8730872 5.75151678 11.8730872 8.84379866 3.23510067 7.47401342 11.8730872 9.93712752 11.8730872 11.8340671 0.416214765 8.02514094 0.416214765 5.65307383 7.4457047 5.52963758 0.416214765 2.0185906 0.416214765 0.0943624161 11.8730872"></polygon>
                            <path d="M39.4837852,11.8888993 C40.1841074,7.9062953 40.3139195,4.6724698 41.9851544,5.26440268 C42.2776779,3.72297987 42.56,3.12671141 42.879302,2.47433557 C42.879302,2.47433557 42.7295973,2.44296644 42.415396,2.44296644 C41.3378792,2.44296644 40.5396242,3.91502013 40.5396242,3.91502013 L40.7541074,2.56308725 L38.5138926,2.56308725 L37.0130201,11.8888993 L39.4837852,11.8888993 L39.4837852,11.8888993 Z" id="path4131"></path>
                            <g id="use8523" transform="translate(49.733125, 2.295302)">
                                <path d="M4.71021477,0.0364697987 C3.06040268,0.0364697987 1.79569128,0.566684564 1.79569128,0.566684564 L1.44680537,2.63934228 C1.44680537,2.63934228 2.49065772,2.21522148 4.06855034,2.21522148 C4.96448322,2.21522148 5.6194094,2.31595973 5.6194094,3.04408054 C5.6194094,3.48630872 5.53958389,3.6495302 5.53958389,3.6495302 C5.53958389,3.6495302 4.83288591,3.59036242 4.50542282,3.59036242 C2.42485906,3.59036242 0.238966443,4.47838926 0.238966443,7.15573154 C0.238966443,9.26536913 1.6727651,9.74942282 2.56155705,9.74942282 C4.2590604,9.74942282 4.99075168,8.64793289 5.02951678,8.64461745 L4.95071141,9.56401342 C4.95071141,9.56401342 7.06851007,9.56401342 7.06927517,9.56401342 L8.0141745,2.93798658 C8.01442953,0.127006711 5.56202685,0.0364697987 4.71021477,0.0364697987 Z M5.22640268,5.43144966 C5.27230872,5.83618792 4.97238926,7.73338255 3.52328859,7.73338255 C2.77604027,7.73338255 2.58221477,7.16261745 2.58221477,6.82495302 C2.58221477,6.16645638 2.94002685,5.37585235 4.70281879,5.37585235 C5.11291275,5.37636242 5.15652349,5.42022819 5.22640268,5.43144966 Z" id="path4149_1_"></path>
                            </g>
                            <g id="use8525" transform="translate(57.200380, 2.295302)">
                                <path d="M2.48326174,9.59359732 C3.18383893,5.61099329 3.31365101,2.37716779 4.98437584,2.96910067 C5.2774094,1.42767785 5.55998658,0.831409396 5.87903356,0.179033557 C5.87903356,0.179033557 5.72932886,0.14766443 5.41512752,0.14766443 C4.33761074,0.14766443 3.5393557,1.61971812 3.5393557,1.61971812 L3.75383893,0.267785235 L1.51362416,0.267785235 L0.0127516779,9.59359732 L2.48326174,9.59359732 L2.48326174,9.59359732 Z" id="path4131_1_"></path>
                            </g>
                            <path d="M71.1811409,10.45 C71.303302,10.45 71.4236779,10.4813691 71.5397181,10.5451275 C71.6567785,10.6068456 71.7478255,10.6976376 71.8131141,10.8152081 C71.8786577,10.9320134 71.9107919,11.0536644 71.9107919,11.1809262 C71.9107919,11.3066577 71.8786577,11.4280537 71.8141342,11.544094 C71.7501208,11.6601342 71.660094,11.7511812 71.5440537,11.8151946 C71.4282685,11.878953 71.3068725,11.9110872 71.1808859,11.9110872 C71.0538792,11.9110872 70.9324832,11.878953 70.816443,11.8151946 C70.7006577,11.7506711 70.6108859,11.6601342 70.5466174,11.544094 C70.4813289,11.4280537 70.4494497,11.3066577 70.4494497,11.1809262 C70.4494497,11.0536644 70.4818389,10.9320134 70.5473826,10.8152081 C70.6131812,10.6976376 70.7044832,10.6073557 70.8210336,10.5451275 C70.938604,10.4813691 71.0589799,10.45 71.1811409,10.45 M71.1811409,10.5703758 C71.0788725,10.5703758 70.9788993,10.5968993 70.8812215,10.6502013 C70.7837987,10.7022282 70.7080537,10.7774631 70.6532215,10.875906 C70.5986443,10.9730738 70.5711007,11.0748322 70.5711007,11.1804161 C70.5711007,11.286 70.5976242,11.3869933 70.6509262,11.483396 C70.7052483,11.5795436 70.7807383,11.6550336 70.8781611,11.7093557 C70.9745638,11.7624027 71.075302,11.7891812 71.1811409,11.7891812 C71.2862148,11.7891812 71.3877181,11.7624027 71.4841208,11.7093557 C71.5805235,11.6550336 71.6560134,11.5795436 71.7095705,11.483396 C71.7633826,11.3862282 71.789651,11.286 71.789651,11.1804161 C71.789651,11.0748322 71.7623624,10.9730738 71.7077852,10.875906 C71.6534631,10.7774631 71.5777181,10.7022282 71.4797852,10.6502013 C71.3828725,10.5971544 71.2836644,10.5703758 71.1811409,10.5703758 M70.8610738,11.5843893 L70.8610738,10.7981208 L71.1316644,10.7981208 C71.2237315,10.7981208 71.2910604,10.8055168 71.3318658,10.8205638 C71.3731812,10.8345906 71.4055705,10.8598389 71.4308188,10.8963087 C71.455557,10.9325235 71.4680537,10.9705235 71.4680537,11.0113289 C71.4680537,11.0687114 71.4471409,11.118953 71.4058255,11.1612886 C71.3655302,11.2036242 71.3112081,11.2281074 71.2433691,11.232698 C71.2704027,11.2444295 71.2928456,11.2584564 71.3101879,11.2742685 C71.341557,11.3053826 71.3803221,11.3574094 71.4262282,11.430094 L71.5223758,11.5841342 L71.3670604,11.5841342 L71.2979463,11.460443 C71.2428591,11.3627651 71.1987383,11.3020671 71.1650738,11.2773289 C71.1418658,11.2592215 71.1079463,11.2502953 71.0633154,11.2502953 L70.9891007,11.2502953 L70.9891007,11.5846443 L70.8610738,11.5843893 M70.9880805,11.141906 L71.1421208,11.141906 C71.2158255,11.141906 71.265557,11.1309396 71.2920805,11.1090067 C71.3188591,11.0875839 71.3328859,11.058255 71.3328859,11.0217852 C71.3328859,10.9985772 71.3265101,10.9776644 71.3137584,10.9600671 C71.3007517,10.9411946 71.2826443,10.9276779 71.2594362,10.9182416 C71.2362282,10.9093154 71.1946577,10.9047248 71.1324295,10.9047248 L70.9883356,10.9047248 L70.9883356,11.141906" id="text9407"></path>
                        </g>
                    </g>
                </g>
            </g>
        </g>
    </g>
</svg>