<?xml version="1.0" encoding="UTF-8"?>
<svg width="96px" height="96px" viewBox="0 0 96 96" version="1.1" xmlns="http://www.w3.org/2000/svg" xmlns:xlink="http://www.w3.org/1999/xlink">
    <!-- Generator: Sketch 46.2 (44496) - http://www.bohemiancoding.com/sketch -->
    <title>Artboard</title>
    <desc>Created with Sketch.</desc>
    <defs></defs>
    <g id="Page-1" stroke="none" stroke-width="1" fill="none" fill-rule="evenodd">
        <g id="Artboard">
            <g id="ic-mastercard-securecode">
                <g id="96" fill="#D8D8D8" opacity="0">
                    <rect id="Rectangle-4" x="0" y="0" width="96" height="96"></rect>
                </g>
                <g id="MasterCard_SecureCode" transform="translate(11.000000, 35.000000)">
                    <g id="Group" transform="translate(0.427350, 0.000000)" fill="#EC2127">
                        <path d="M70.4673077,10.6605 C70.4673077,9.83828571 71.1029915,9.17292857 71.8790598,9.17292857 C72.6594017,9.17292857 73.2884615,9.83828571 73.2884615,10.6605 C73.2884615,11.484 72.6596154,12.1493571 71.8790598,12.1493571 C71.1029915,12.1493571 70.4673077,11.484 70.4673077,10.6605 L70.4673077,10.6605 Z M71.8792735,11.7968571 C72.4724359,11.7968571 72.9566239,11.2864286 72.9566239,10.6605 C72.9566239,10.0377857 72.4724359,9.53185714 71.8792735,9.53185714 C71.2884615,9.53185714 70.8019231,10.0377857 70.8019231,10.6605 C70.8019231,11.2864286 71.2884615,11.7968571 71.8792735,11.7968571 L71.8792735,11.7968571 Z M71.6871795,11.3125714 L71.3980769,11.3125714 L71.3980769,10.002 L71.9222222,10.002 C72.0288462,10.002 72.1485043,10.0084286 72.2401709,10.0742143 C72.3403846,10.1481429 72.3980769,10.2722143 72.3980769,10.4035714 C72.3980769,10.5488571 72.315812,10.6847143 72.1848291,10.734 L72.4111111,11.3125714 L72.0897436,11.3125714 L71.8985043,10.7989286 L71.6869658,10.7989286 L71.6869658,11.3125714 L71.6871795,11.3125714 Z M71.6871795,10.5760714 L71.8482906,10.5760714 C71.9074786,10.5760714 71.9760684,10.578 72.025641,10.5488571 C72.0745726,10.5169286 72.0963675,10.4532857 72.0963675,10.3971429 C72.0963675,10.3478571 72.0679487,10.2885 72.025641,10.2653571 C71.9824786,10.236 71.8955128,10.2426429 71.8448718,10.2426429 L71.6871795,10.2426429 L71.6871795,10.5760714 L71.6871795,10.5760714 Z" id="Shape"></path>
                        <path d="M50.2824786,0.767785714 L49.8957265,3.29057143 C49.0568376,2.84271429 48.4399573,2.66721429 47.7809829,2.66721429 C46.0226496,2.66721429 44.7790598,4.45971429 44.7790598,7.01892857 C44.7790598,8.78657143 45.6138889,9.85157143 46.9867521,9.85157143 C47.5694444,9.85157143 48.2098291,9.66385714 48.9933761,9.25221429 L48.5807692,11.907 C47.7141026,12.1570714 47.1487179,12.246 46.4933761,12.246 C43.9463675,12.246 42.3621795,10.3193571 42.3621795,7.22678571 C42.3621795,3.06685714 44.5510684,0.162 47.682265,0.162 C48.0867521,0.162 48.4480769,0.201642857 48.7416667,0.286928571 L49.7151709,0.542785714 C50.0049145,0.657857143 50.0700855,0.675428571 50.2824786,0.767785714 L50.2824786,0.767785714 Z" id="Shape"></path>
                        <path d="M42.4429487,2.49685714 C42.3688034,2.48271429 42.2867521,2.47242857 42.2012821,2.47242857 C41.4230769,2.47242857 40.9831197,2.88535714 40.2604701,4.01207143 L40.4702991,2.57485714 L38.3307692,2.57485714 L36.8803419,12.0319286 L39.2538462,12.0319286 C40.1025641,6.25178571 40.3196581,5.25364286 41.4574786,5.25364286 C41.5267094,5.25364286 41.5331197,5.25364286 41.6301282,5.26328571 C41.8399573,4.12371429 42.1273504,3.28585714 42.5237179,2.52171429 L42.4429487,2.49685714 L42.4429487,2.49685714 Z" id="Shape"></path>
                        <path d="M28.3019231,11.9164286 C27.6598291,12.1307143 27.1523504,12.2282143 26.607265,12.2282143 C25.4017094,12.2282143 24.7433761,11.4917143 24.7433761,10.1479286 C24.7433761,9.88435714 24.7630342,9.6 24.8106838,9.3 L24.9568376,8.37792857 L25.0651709,7.62471429 L26.0899573,1.17171429 L28.4380342,1.17171429 L28.1688034,2.57485714 L29.3773504,2.57485714 L29.0455128,4.87371429 L27.8399573,4.87371429 L27.2160256,8.82064286 C27.1946581,8.99485714 27.1764957,9.12342857 27.1764957,9.21235714 C27.1764957,9.69664286 27.4228632,9.91307143 27.9811966,9.91307143 C28.2536325,9.91307143 28.4589744,9.88457143 28.6168803,9.82478571 L28.3019231,11.9164286 L28.3019231,11.9164286 Z" id="Shape"></path>
                        <path d="M18.9910256,5.56542857 C18.9910256,6.759 19.5393162,7.58442857 20.7809829,8.20135714 C21.7318376,8.67557143 21.882906,8.81378571 21.882906,9.24428571 C21.882906,9.83185714 21.4608974,10.104 20.5314103,10.104 C19.8303419,10.104 19.175,9.98657143 18.4196581,9.72535714 L18.0929487,11.9067857 L18.1997863,11.9295 L18.6333333,12.0216429 C18.7728632,12.0514286 18.9782051,12.078 19.2491453,12.1073571 C19.8123932,12.1600714 20.2442308,12.1853571 20.5497863,12.1853571 C23.0275641,12.1853571 24.1739316,11.1820714 24.1739316,9.02807143 C24.1739316,7.73378571 23.6961538,6.96835714 22.5153846,6.39535714 C21.5301282,5.92457143 21.4183761,5.81357143 21.4183761,5.3745 C21.4183761,4.8615 21.809188,4.59792857 22.5679487,4.59792857 C23.0307692,4.59792857 23.6583333,4.653 24.2574786,4.73871429 L24.5940171,2.55492857 C23.9782051,2.44971429 23.0636752,2.3685 22.5217949,2.3685 C19.892735,2.3685 18.9811966,3.81985714 18.9910256,5.56542857 L18.9910256,5.56542857 Z" id="Shape"></path>
                        <path d="M69.0961538,12.0319286 L66.8606838,12.0319286 L66.9779915,11.1053571 C66.3269231,11.8373571 65.6587607,12.1568571 64.7955128,12.1568571 C63.0679487,12.1568571 61.9358974,10.5957857 61.9358974,8.23114286 C61.9358974,5.08564286 63.6950855,2.42978571 65.784188,2.42978571 C66.7021368,2.42978571 67.3961538,2.82835714 68.0497863,3.7245 L68.5638889,0.402214286 L70.892094,0.402214286 L69.0961538,12.0319286 L69.0961538,12.0319286 Z M65.6100427,9.80528571 C66.7136752,9.80528571 67.4850427,8.49107143 67.4850427,6.61928571 C67.4850427,5.41735714 67.0446581,4.76271429 66.2284188,4.76271429 C65.1583333,4.76271429 64.3976496,6.08228571 64.3976496,7.94335714 C64.3976496,9.18171429 64.8070513,9.80528571 65.6100427,9.80528571 L65.6100427,9.80528571 Z" id="Shape"></path>
                        <path d="M35.783547,11.8332857 C34.9754274,12.0878571 34.1942308,12.2164286 33.3566239,12.213 C30.7226496,12.213 29.3463675,10.7592857 29.3463675,7.97978571 C29.3463675,4.72971429 31.0967949,2.33742857 33.4764957,2.33742857 C35.4173077,2.33742857 36.6638889,3.67821429 36.6638889,5.7795 C36.6638889,6.47528571 36.5799145,7.15371429 36.3696581,8.11221429 L31.6730769,8.11221429 C31.6534188,8.25621429 31.6504274,8.322 31.6504274,8.40557143 C31.6504274,9.51085714 32.3529915,10.0675714 33.7275641,10.0675714 C34.5700855,10.0675714 35.3286325,9.88435714 36.1777778,9.46607143 L35.783547,11.8332857 L35.783547,11.8332857 Z M34.4583333,6.20185714 C34.4717949,6.00428571 34.475,5.84314286 34.475,5.72335714 C34.475,4.95042857 34.059188,4.49914286 33.3566239,4.49914286 C32.6074786,4.49914286 32.0707265,5.10192857 31.850641,6.19542857 L34.4583333,6.20185714 L34.4583333,6.20185714 Z" id="Shape"></path>
                        <polygon id="Shape" points="9.50790598 12.0319286 7.14807692 12.0319286 8.49957265 3.09514286 5.47970085 12.0319286 3.86239316 12.0319286 3.66688034 3.14764286 2.24316239 12.0319286 0.0329059829 12.0319286 1.87692308 0.402 5.27777778 0.402 5.37136752 7.59857143 7.66688034 0.402 11.3371795 0.402"></polygon>
                        <path d="M15.5886752,7.81928571 C15.3388889,7.7895 15.2290598,7.77857143 15.0598291,7.77857143 C13.7215812,7.77857143 13.0433761,8.26692857 13.0433761,9.22221429 C13.0433761,9.81107143 13.3767094,10.1862857 13.8923077,10.1862857 C14.8529915,10.1862857 15.549359,9.22221429 15.5886752,7.81928571 L15.5886752,7.81928571 Z M17.3064103,12.0319286 L15.3504274,12.0319286 L15.3931624,11.0500714 C14.7970085,11.8330714 14.000641,12.1962857 12.9183761,12.1962857 C11.634188,12.1962857 10.7574786,11.1424286 10.7574786,9.61971429 C10.7574786,7.311 12.2895299,5.97064286 14.9087607,5.97064286 C15.1762821,5.97064286 15.5179487,5.99142857 15.8694444,6.04071429 C15.9431624,5.72785714 15.9630342,5.59285714 15.9630342,5.427 C15.9630342,4.80235714 15.5525641,4.56535714 14.4455128,4.56535714 C13.7773504,4.56535714 13.0102564,4.66735714 12.4816239,4.83557143 L12.1532051,4.93092857 L11.9463675,4.99221429 L12.2713675,2.87121429 C13.450641,2.50371429 14.2271368,2.36207143 15.1023504,2.36207143 C17.1320513,2.36207143 18.2076923,3.3225 18.2076923,5.13492857 C18.2076923,5.60571429 18.1732906,5.955 18.0123932,7.011 L17.5181624,10.3617857 L17.4376068,10.9669286 L17.3769231,11.4488571 L17.3358974,11.7782143 L17.3064103,12.0319286 L17.3064103,12.0319286 Z" id="Shape"></path>
                        <path d="M54.3510684,7.81928571 C54.1053419,7.7895 53.9912393,7.77857143 53.8262821,7.77857143 C52.4826923,7.77857143 51.8023504,8.26692857 51.8023504,9.22221429 C51.8023504,9.81107143 52.1393162,10.1862857 52.6551282,10.1862857 C53.6202991,10.1862857 54.3087607,9.22221429 54.3510684,7.81928571 L54.3510684,7.81928571 Z M56.0705128,12.0319286 L54.1119658,12.0319286 L54.1574786,11.0500714 C53.5617521,11.8330714 52.7636752,12.1962857 51.682906,12.1962857 C50.3987179,12.1962857 49.5183761,11.1424286 49.5183761,9.61971429 C49.5183761,7.311 51.0489316,5.97064286 53.6732906,5.97064286 C53.9393162,5.97064286 54.284188,5.99142857 54.6333333,6.04071429 C54.7057692,5.72785714 54.7269231,5.59285714 54.7269231,5.427 C54.7269231,4.80235714 54.3166667,4.56535714 53.2100427,4.56535714 C52.5378205,4.56535714 51.7728632,4.66735714 51.2487179,4.83557143 L50.9128205,4.93092857 L50.708547,4.99221429 L51.0371795,2.87121429 C52.2179487,2.50371429 52.992735,2.36207143 53.8617521,2.36207143 C55.8946581,2.36207143 56.9702991,3.3225 56.9702991,5.13492857 C56.9702991,5.60571429 56.9297009,5.955 56.7767094,7.011 L56.2786325,10.3617857 L56.2055556,10.9669286 L56.1395299,11.4488571 L56.0963675,11.7782143 L56.0705128,12.0319286 L56.0705128,12.0319286 Z" id="Shape"></path>
                        <path d="M62.6683761,2.49685714 C62.5985043,2.48271429 62.5211538,2.47242857 62.4307692,2.47242857 C61.6553419,2.47242857 61.2119658,2.88535714 60.4858974,4.01207143 L60.6965812,2.57485714 L58.5598291,2.57485714 L57.1153846,12.0319286 L59.4807692,12.0319286 C60.3303419,6.25178571 60.5534188,5.25364286 61.683547,5.25364286 C61.7568376,5.25364286 61.7519231,5.247 61.8487179,5.26328571 C62.0628205,4.12371429 62.3517094,3.28585714 62.7487179,2.52171429 L62.6683761,2.49685714 L62.6683761,2.49685714 Z" id="Shape"></path>
                    </g>
                    <g id="Group" transform="translate(0.000000, 14.571429)" fill="#F89620">
                        <path d="M53.1844017,6.63235714 C53.1844017,8.77628571 52.5226496,10.0386429 51.4794872,10.0386429 C50.7179487,10.0622143 50.2561966,9.21107143 50.2561966,7.938 C50.2561966,6.43242857 50.9307692,4.72585714 52.0132479,4.72585714 C52.8833333,4.72607143 53.1844017,5.65071429 53.1844017,6.63235714 L53.1844017,6.63235714 Z M55.5074786,6.67178571 C55.5074786,4.28871429 54.3333333,2.43385714 52.1264957,2.43385714 C49.5858974,2.43385714 47.9405983,4.68942857 47.9405983,8.01 C47.9405983,10.3872857 48.9130342,12.3310714 51.3183761,12.3310714 C53.7457265,12.3310714 55.5074786,10.6075714 55.5074786,6.67178571 L55.5074786,6.67178571 Z" id="Shape"></path>
                        <path d="M48.6997863,0.760928571 L48.3386752,3.28092857 C47.5534188,2.83628571 46.9820513,2.65178571 46.3645299,2.65178571 C44.7141026,2.65178571 43.5613248,4.452 43.5613248,7.01121429 C43.5613248,8.778 44.3333333,9.84685714 45.6192308,9.84685714 C46.1675214,9.84685714 46.7675214,9.65914286 47.4957265,9.24707143 L47.1132479,11.9001429 C46.2970085,12.1523571 45.7641026,12.2387143 45.157906,12.2387143 C42.7801282,12.2387143 41.2989316,10.3112143 41.2989316,7.21821429 C41.2989316,3.05635714 43.3431624,0.151928571 46.2711538,0.151928571 C46.6502137,0.151928571 46.9856838,0.200142857 47.2630342,0.276857143 L48.166453,0.534 C48.4452991,0.645 48.5029915,0.6645 48.6997863,0.760928571 L48.6997863,0.760928571 Z" id="Shape"></path>
                        <path d="M34.0942308,2.49257143 C34.0269231,2.47392857 33.949359,2.46642857 33.8675214,2.46642857 C33.1512821,2.46642857 32.7311966,2.88107143 32.0598291,4.00392857 L32.2551282,2.56928571 L30.257906,2.56928571 L28.9096154,12.0274286 L31.1149573,12.0274286 C31.9083333,6.2415 32.1181624,5.24592857 33.1760684,5.24592857 C33.2384615,5.24592857 33.2448718,5.24592857 33.3369658,5.25664286 C33.5358974,4.11257143 33.8036325,3.2745 34.1745726,2.50885714 L34.0942308,2.49257143 L34.0942308,2.49257143 Z" id="Shape"></path>
                        <path d="M62.9038462,11.9262857 L60.8198718,11.9262857 L60.9271368,11.0031429 C60.3209402,11.7310714 59.6903846,12.0533571 58.8837607,12.0533571 C57.2767094,12.0533571 56.2155983,10.4897143 56.2155983,8.12571429 C56.2155983,4.98535714 57.8626068,2.32178571 59.8098291,2.32178571 C60.6690171,2.32178571 61.3209402,2.72892857 61.9232906,3.62507143 L62.4098291,0.299571429 L64.5807692,0.299571429 L62.9038462,11.9262857 L62.9038462,11.9262857 Z M59.6431624,9.70157143 C60.6820513,9.70157143 61.3982906,8.38842857 61.3982906,6.51492857 C61.3982906,5.30957143 60.9891026,4.66242857 60.2305556,4.66242857 C59.2273504,4.66242857 58.5145299,5.97707143 58.5145299,7.84414286 C58.5145299,9.0765 58.8970085,9.70157143 59.6431624,9.70157143 L59.6431624,9.70157143 Z" id="Shape"></path>
                        <path d="M13.4115385,11.8872857 C12.6613248,12.1467857 11.9303419,12.2723571 11.1521368,12.2723571 C8.68888889,12.2723571 7.40320513,10.8156429 7.40320513,8.037 C7.40320513,4.79142857 9.03867521,2.39721429 11.2587607,2.39721429 C13.0767094,2.39721429 14.2358974,3.73564286 14.2358974,5.83692857 C14.2358974,6.53142857 14.1570513,7.212 13.9683761,8.17092857 L9.57222222,8.17092857 C9.55897436,8.31214286 9.55405983,8.38221429 9.55405983,8.46471429 C9.55405983,9.56742857 10.2126068,10.1237143 11.4918803,10.1237143 C12.2801282,10.1237143 12.992735,9.93942857 13.7826923,9.52478571 L13.4115385,11.8872857 L13.4115385,11.8872857 Z M12.1782051,6.26035714 C12.1882479,6.06042857 12.1946581,5.90121429 12.1946581,5.77971429 C12.1946581,5.0085 11.807265,4.55721429 11.1519231,4.55721429 C10.4474359,4.55721429 9.94636752,5.16428571 9.74465812,6.2505 L12.1782051,6.26035714 L12.1782051,6.26035714 Z" id="Shape"></path>
                        <path d="M39.6487179,11.8872857 C38.8961538,12.1467857 38.1636752,12.2723571 37.3882479,12.2723571 C34.9200855,12.2723571 33.6361111,10.8156429 33.6361111,8.037 C33.6361111,4.79142857 35.2732906,2.39721429 37.4916667,2.39721429 C39.3100427,2.39721429 40.4728632,3.73564286 40.4728632,5.83692857 C40.4728632,6.53142857 40.3905983,7.212 40.1952991,8.17092857 L35.8087607,8.17092857 C35.7952991,8.31214286 35.7871795,8.38221429 35.7871795,8.46471429 C35.7871795,9.56742857 36.4442308,10.1237143 37.7232906,10.1237143 C38.5117521,10.1237143 39.2262821,9.93942857 40.016453,9.52478571 L39.6487179,11.8872857 L39.6487179,11.8872857 Z M38.408547,6.26035714 C38.4230769,6.06042857 38.4311966,5.90121429 38.4311966,5.77971429 C38.4311966,5.0085 38.0405983,4.55721429 37.3880342,4.55721429 C36.6833333,4.55721429 36.182906,5.16428571 35.9790598,6.2505 L38.408547,6.26035714 L38.408547,6.26035714 Z" id="Shape"></path>
                        <path d="M70.4299145,11.8872857 C69.6675214,12.1467857 68.9448718,12.2723571 68.1636752,12.2723571 C65.700641,12.2723571 64.4115385,10.8156429 64.4115385,8.037 C64.4115385,4.79142857 66.0521368,2.39721429 68.2702991,2.39721429 C70.0882479,2.39721429 71.2463675,3.73564286 71.2463675,5.83692857 C71.2463675,6.53142857 71.1707265,7.212 70.9752137,8.17092857 L66.584188,8.17092857 C66.5688034,8.31214286 66.5655983,8.38221429 66.5655983,8.46471429 C66.5655983,9.56742857 67.2245726,10.1237143 68.5038462,10.1237143 C69.2929487,10.1237143 70.0042735,9.93942857 70.7961538,9.52478571 L70.4299145,11.8872857 L70.4299145,11.8872857 Z M69.1899573,6.26035714 C69.1997863,6.06042857 69.2061966,5.90121429 69.2061966,5.77971429 C69.2061966,5.0085 68.8205128,4.55721429 68.1636752,4.55721429 C67.4589744,4.55721429 66.9602564,5.16428571 66.7559829,6.2505 L69.1899573,6.26035714 L69.1899573,6.26035714 Z" id="Shape"></path>
                        <path d="M6.88247863,2.92007143 C6.45064103,2.63035714 5.86602564,2.37728571 5.03995726,2.37728571 C4.1482906,2.37728571 3.43076923,2.56264286 3.43076923,3.51407143 C3.43076923,5.19428571 6.68205128,4.56685714 6.68205128,8.16492857 C6.68205128,11.4422143 4.53611111,12.2918571 2.59487179,12.2918571 C1.73119658,12.2918571 0.737606838,12.0053571 0.00534188034,11.679 L0.532478632,9.27085714 C0.974358974,9.67328571 1.86581197,9.94907143 2.59487179,9.94907143 C3.28952991,9.94907143 4.37820513,9.75878571 4.37820513,8.54292857 C4.37820513,6.639 1.12863248,7.34721429 1.12863248,4.00542857 C1.12863248,0.948428571 3.02692308,0.0327857143 4.85811966,0.0327857143 C5.88931624,0.0327857143 6.85811966,0.1845 7.42628205,0.563142857 L6.88247863,2.92007143 L6.88247863,2.92007143 Z" id="Shape"></path>
                        <path d="M19.8698718,11.8838571 C19.4149573,12.1032857 18.8074786,12.2477143 17.9108974,12.2477143 C15.9831197,12.2477143 14.7876068,10.3152857 14.7876068,7.96264286 C14.7876068,4.88357143 16.5168803,2.42721429 19.0619658,2.42721429 C19.617094,2.42721429 20.4643162,2.66807143 21.1326923,3.05657143 L20.6448718,5.31535714 C20.1717949,5.00357143 19.6792735,4.80535714 19.1720085,4.80535714 C17.992735,4.80535714 17.1504274,5.88921429 17.1504274,7.83128571 C17.1504274,8.94942857 17.7613248,9.86657143 18.7267094,9.86657143 C19.3012821,9.86657143 19.7055556,9.74507143 20.2,9.45514286 L19.8698718,11.8838571 L19.8698718,11.8838571 Z" id="Shape"></path>
                        <path d="M28.1202991,9.51557143 C28.0070513,10.3292143 27.9019231,11.1190714 27.8393162,11.9678571 L25.7160256,11.9678571 L25.8950855,10.4391429 L25.8735043,10.4391429 C25.208547,11.4782143 24.5205128,12.1855714 23.3183761,12.1855714 C21.9852564,12.1855714 21.2628205,10.7787857 21.2628205,8.9415 C21.2628205,8.30828571 21.3021368,7.95085714 21.4431624,6.96192857 L22.0442308,2.5845 L24.407265,2.5845 L23.7732906,6.97478571 C23.709188,7.44642857 23.6190171,7.91421429 23.6190171,8.40214286 C23.6190171,8.95542857 23.8702991,9.51514286 24.5074786,9.48085714 C25.4760684,9.48085714 26.0476496,8.29264286 26.2102564,6.90621429 L26.8623932,2.58428571 L29.1497863,2.58428571 L28.1202991,9.51557143 L28.1202991,9.51557143 Z" id="Shape"></path>
                        <g transform="translate(71.581197, 9.857143)" id="Shape">
                            <polygon points="1.05 1.9965 0.692735043 1.9965 0.692735043 0.427928571 0.176068376 0.427928571 0.176068376 0.0919285714 1.56666667 0.0919285714 1.56666667 0.427928571 1.05 0.427928571"></polygon>
                            <polygon points="3.41880342 1.9965 3.08504274 1.9965 3.08504274 0.404357143 3.08034188 0.404357143 2.76132479 1.9965 2.41132479 1.9965 2.09978632 0.404357143 2.09487179 0.404357143 2.09487179 1.9965 1.76196581 1.9965 1.76196581 0.0919285714 2.28290598 0.0919285714 2.59294872 1.59342857 2.59764957 1.59342857 2.90213675 0.0919285714 3.41880342 0.0919285714"></polygon>
                        </g>
                    </g>
                </g>
            </g>
        </g>
    </g>
</svg>