<?xml version="1.0" encoding="UTF-8"?>
<svg width="96px" height="96px" viewBox="0 0 96 96" version="1.1" xmlns="http://www.w3.org/2000/svg" xmlns:xlink="http://www.w3.org/1999/xlink">
    <!-- Generator: Sketch 46.2 (44496) - http://www.bohemiancoding.com/sketch -->
    <title>Artboard</title>
    <desc>Created with Sketch.</desc>
    <defs></defs>
    <g id="Page-1" stroke="none" stroke-width="1" fill="none" fill-rule="evenodd">
        <g id="Artboard">
            <g id="ic-neteller">
                <g id="96" fill="#D8D8D8" opacity="0">
                    <rect id="Rectangle-4" x="0" y="0" width="96" height="96"></rect>
                </g>
                <g id="neteller-logo" transform="translate(11.000000, 42.000000)" fill-rule="nonzero" fill="#86C33A">
                    <path d="M69.782473,1.5285 C69.3894175,1.053 68.8963619,0.7455 68.3533064,0.5175 C67.7810841,0.2805 67.1866397,0.153 66.5796952,0.0825 C66.4005286,0.0615 66.2213619,0.0435 66.0421952,0.021 C65.9630286,0.0135 65.8852508,0.048 65.8060841,0.0015 C64.0408064,0.0015 62.2741397,0.0015 60.507473,0.0015 C60.4213619,0.504 60.3338619,1.005 60.2463619,1.509 C60.0352508,2.7615 59.819973,4.011 59.6060841,5.2635 C59.4171952,6.378 59.2269175,7.488 59.0338619,8.6025 C58.9533064,9.0765 58.8741397,9.555 58.794973,10.026 C58.7685841,10.173 58.7671952,10.176 58.6408064,10.176 C56.7005286,10.176 54.7560841,10.176 52.8158064,10.176 C52.7741397,10.176 52.7296952,10.179 52.6755286,10.152 C52.7046952,9.9915 52.7296952,9.8295 52.7602508,9.669 C52.8519175,9.1215 52.9491397,8.574 53.0435841,8.019 C53.0658064,7.884 53.0685841,7.884 53.1880286,7.884 C53.9060841,7.884 54.619973,7.884 55.3366397,7.884 C55.7491397,7.884 56.1630286,7.884 56.5769175,7.884 C56.7616397,7.884 56.744973,7.905 56.7769175,7.7115 C56.9046952,6.9315 57.0380286,6.1545 57.1671952,5.3805 C57.1838619,5.2785 57.1838619,5.2755 57.0838619,5.2755 C56.8588619,5.2725 56.6296952,5.2755 56.4019175,5.2755 C55.4880286,5.2755 54.5741397,5.2755 53.657473,5.2755 C53.5033064,5.2755 53.5046952,5.2755 53.532473,5.109 C53.6435841,4.4685 53.7505286,3.825 53.8630286,3.183 C53.8991397,2.973 53.8602508,3 54.0658064,3 C55.207473,2.997 56.3519175,2.997 57.4935841,2.997 C57.5269175,2.997 57.5658064,2.994 57.5977508,3 C57.6741397,3.0075 57.694973,2.967 57.7088619,2.895 C57.7685841,2.52 57.8310841,2.1495 57.8935841,1.7775 C57.9880286,1.2345 58.082473,0.6885 58.1727508,0.1425 C58.1810841,0.099 58.1921952,0.051 58.1894175,0.003 C55.6144175,0.003 53.0380286,0.003 50.4630286,0.003 C50.4602508,0.2085 50.4088619,0.4065 50.3741397,0.6015 C50.2727508,1.2465 50.1588619,1.887 50.0477508,2.532 C49.9185841,3.282 49.7880286,4.038 49.6630286,4.7925 C49.5102508,5.6955 49.3546952,6.5955 49.2019175,7.497 C49.0852508,8.1795 48.9713619,8.859 48.8546952,9.537 C48.8352508,9.645 48.832473,9.648 48.7255286,9.648 C47.8671952,9.648 47.0046952,9.648 46.144973,9.648 C46.0283064,9.648 46.0227508,9.639 46.0463619,9.519 C46.2046952,8.5845 46.3671952,7.647 46.5310841,6.714 C46.6852508,5.8155 46.8394175,4.917 46.9921952,4.02 C47.1546952,3.0675 47.319973,2.121 47.4838619,1.173 C47.5463619,0.8175 47.607473,0.4545 47.6685841,0.0975 C47.6741397,0.066 47.6727508,0.0315 47.6741397,0 C46.3296952,0 44.982473,0 43.6408064,0 C43.4491397,1.122 43.2588619,2.2395 43.0658064,3.363 C42.8866397,4.41 42.7102508,5.457 42.532473,6.5055 C42.3588619,7.5135 42.1852508,8.5245 42.0116397,9.5325 C41.9921952,9.6465 41.9894175,9.6495 41.8880286,9.6495 C41.0491397,9.6495 40.2102508,9.6495 39.3713619,9.6495 C39.2546952,9.6495 39.2546952,9.6435 39.2783064,9.5205 C39.4852508,8.304 39.694973,7.101 39.9005286,5.889 C40.1144175,4.644 40.3338619,3.396 40.5491397,2.151 C40.6644175,1.485 40.7783064,0.8205 40.8894175,0.1545 C40.8991397,0.1065 40.9144175,0.0525 40.8991397,0 C39.5533064,0 38.2088619,0 36.8644175,0 C36.8560841,0.1995 36.8060841,0.393 36.7755286,0.5865 C36.6769175,1.1805 36.5741397,1.7685 36.4727508,2.361 C36.3435841,3.117 36.2144175,3.8685 36.0852508,4.623 C35.9505286,5.418 35.8130286,6.216 35.6796952,7.0125 C35.5352508,7.8525 35.3921952,8.6865 35.2491397,9.5235 C35.2171952,9.711 35.1796952,9.8955 35.1546952,10.083 C35.1435841,10.1595 35.1116397,10.176 35.0505286,10.176 C35.0241397,10.173 34.9977508,10.176 34.9713619,10.176 C33.0380286,10.176 31.1060841,10.176 29.1727508,10.173 C29.007473,10.173 28.9880286,10.218 29.0283064,9.9795 C29.1408064,9.327 29.2477508,8.676 29.3560841,8.0235 C29.3796952,7.8855 29.3796952,7.8855 29.5185841,7.8855 C30.6421952,7.8855 31.7685841,7.8855 32.8921952,7.8855 C32.9283064,7.8855 32.9630286,7.8825 32.9977508,7.8855 C33.0560841,7.8915 33.0852508,7.8645 33.094973,7.8 C33.2310841,6.9735 33.369973,6.1485 33.507473,5.325 C33.5088619,5.322 33.507473,5.3175 33.5060841,5.31 C33.457473,5.2785 33.4046952,5.292 33.3533064,5.292 C32.2310841,5.292 31.1130286,5.292 29.9921952,5.292 C29.8269175,5.292 29.8241397,5.292 29.8533064,5.1225 C29.9671952,4.446 30.082473,3.7725 30.1963619,3.096 C30.2088619,3.0225 30.2338619,2.991 30.3088619,2.994 C30.4616397,2.9985 30.6144175,2.994 30.769973,2.994 C31.8033064,2.994 32.8352508,2.994 33.8671952,2.994 C33.8977508,2.994 33.9283064,2.991 33.9602508,2.997 C34.0310841,3.0045 34.0588619,2.9655 34.0713619,2.892 C34.1116397,2.625 34.1588619,2.361 34.2046952,2.0955 C34.3144175,1.4385 34.4255286,0.7845 34.5352508,0.1275 C34.5421952,0.0855 34.5421952,0.0435 34.5463619,0.0015 C26.5380286,0.0015 18.532473,0.0015 10.5241397,0.0015 C10.4991397,0.2565 10.4463619,0.504 10.4046952,0.7545 C10.2505286,1.6665 10.0963619,2.583 9.94219524,3.4905 C9.80608413,4.293 9.67136191,5.094 9.53663968,5.895 C9.42691746,6.5445 9.31441746,7.1955 9.20469524,7.845 C9.1977508,7.8885 9.18802857,7.929 9.18108413,7.9755 C9.13941746,7.9755 9.13941746,7.9425 9.13108413,7.92 C8.64497302,6.48 8.1602508,5.037 7.67413968,3.5955 C7.28386191,2.4375 6.89080635,1.284 6.4977508,0.126 C6.4852508,0.0885 6.47691746,0.045 6.46580635,0.0045 C5.06858413,0.0045 3.67136191,0.0045 2.27413968,0.0045 C2.21441746,0.3435 2.15330635,0.6825 2.09497302,1.0215 C1.90747302,2.118 1.72136191,3.2175 1.53386191,4.311 C1.34497302,5.4165 1.15469524,6.516 0.965806351,7.62 C0.786639685,8.6745 0.608861907,9.732 0.428306351,10.7865 C0.30469524,11.5125 0.181084129,12.237 0.057473018,12.96 C0.0421952402,13.0065 0.0310841291,13.047 0.000528573507,13.077 C0.0019174624,13.119 -0.0147492043,13.1865 0.0671952402,13.1655 C0.0838619068,13.1565 0.101917462,13.1655 0.119973018,13.1655 C1.42413968,13.1655 2.72969524,13.1655 4.0352508,13.1655 C4.01163968,13.089 4.03247302,13.0185 4.04497302,12.948 C4.17969524,12.1305 4.31163968,11.3085 4.44636191,10.488 C4.59219524,9.603 4.74080635,8.7195 4.88663968,7.8345 C5.0227508,7.0005 5.15747302,6.174 5.29219524,5.343 C5.31302857,5.223 5.33386191,5.1045 5.35191746,4.983 C5.39636191,4.98 5.39358413,5.0145 5.40052857,5.04 C5.58108413,5.598 5.7602508,6.159 5.93802857,6.72 C6.37691746,8.0925 6.81580635,9.4665 7.25469524,10.8405 C7.48247302,11.559 7.71302857,12.273 7.94080635,12.993 C7.95608413,13.0485 7.98247302,13.0965 7.97969524,13.158 C12.7588619,13.158 17.5421952,13.158 22.3241397,13.158 C22.3338619,12.9495 22.382473,12.7515 22.4158064,12.5565 C22.5588619,11.706 22.7060841,10.8495 22.8505286,9.999 C22.994973,9.156 23.1394175,8.3145 23.2838619,7.473 C23.4116397,6.7275 23.5380286,5.9805 23.6644175,5.238 C23.7852508,4.5285 23.9088619,3.8235 24.0296952,3.1155 C24.0491397,2.9985 24.0408064,2.994 24.1616397,2.994 C24.8213619,2.994 25.4796952,2.994 26.1394175,2.994 C26.157473,2.994 26.1741397,2.997 26.1921952,2.997 C26.244973,2.991 26.2630286,3.0225 26.2560841,3.0735 C26.2338619,3.21 26.2144175,3.3465 26.1908064,3.4815 C26.0005286,4.596 25.8088619,5.7135 25.6171952,6.8295 C25.4283064,7.926 25.2394175,9.027 25.0519175,10.1235 C24.9227508,10.8735 24.7963619,11.6205 24.669973,12.3705 C24.6255286,12.6345 24.582473,12.8955 24.5394175,13.155 C37.0908064,13.155 49.6421952,13.155 62.1921952,13.155 C62.2005286,12.9525 62.2491397,12.759 62.2796952,12.561 C62.3880286,11.9055 62.4991397,11.2485 62.6102508,10.593 C62.7630286,9.69 62.919973,8.7885 63.0741397,7.8855 C63.1338619,7.5375 63.1908064,7.185 63.2505286,6.837 C63.294973,6.8415 63.2894175,6.882 63.2963619,6.912 C63.5685841,7.893 63.8421952,8.88 64.1116397,9.867 C64.4088619,10.944 64.7046952,12.0165 64.9977508,13.0905 C65.0033064,13.11 65.0060841,13.128 65.0088619,13.149 C66.3477508,13.149 67.6838619,13.149 69.019973,13.149 C68.8769175,12.741 68.7408064,12.3285 68.594973,11.9235 C68.1505286,10.6365 67.7005286,9.351 67.2546952,8.07 C67.1977508,7.914 67.2005286,7.914 67.3505286,7.8795 C67.7241397,7.7955 68.094973,7.701 68.444973,7.536 C69.4116397,7.0725 70.0408064,6.2955 70.3380286,5.199 C70.4394175,4.8105 70.4852508,4.4145 70.4991397,4.0095 C70.5158064,3.6195 70.4935841,3.2355 70.4130286,2.853 C70.3144175,2.361 70.1046952,1.914 69.782473,1.5285 Z M19.9171952,3.762 C19.8060841,4.419 19.6921952,5.0835 19.5783064,5.7435 C19.4519175,6.492 19.3213619,7.2405 19.1921952,7.9905 C19.0769175,8.676 18.9602508,9.3585 18.844973,10.044 C18.8241397,10.17 18.8241397,10.173 18.7019175,10.173 C16.7491397,10.173 14.7977508,10.173 12.8477508,10.173 C12.8130286,10.173 12.7769175,10.179 12.732473,10.152 C12.8213619,9.6225 12.9102508,9.1035 12.9977508,8.5845 C13.0310841,8.397 13.0630286,8.2095 13.094973,8.025 C13.1185841,7.884 13.1171952,7.884 13.2505286,7.884 C14.4241397,7.884 15.5977508,7.884 16.769973,7.884 C16.9463619,7.884 16.9491397,7.884 16.982473,7.689 C17.1019175,6.972 17.2213619,6.258 17.3421952,5.5365 C17.3519175,5.4765 17.3630286,5.4195 17.3713619,5.3565 C17.3838619,5.265 17.382473,5.265 17.2963619,5.2605 C17.2602508,5.2605 17.2255286,5.2605 17.1908064,5.2605 C16.0477508,5.2605 14.9060841,5.2605 13.7630286,5.2605 C13.594973,5.2605 13.594973,5.2605 13.6227508,5.088 C13.7269175,4.4415 13.8296952,3.7935 13.9352508,3.144 C13.9588619,2.9955 13.9588619,2.9925 14.0977508,2.9925 C15.3935841,2.9925 16.6908064,2.9925 17.9866397,2.9925 C18.6019175,2.9925 19.2171952,2.9925 19.832473,2.9925 C19.8644175,2.9925 19.894973,2.9925 19.9255286,2.9925 C20.0338619,2.9955 20.0408064,3.003 20.0213619,3.114 C19.9921952,3.3315 19.9519175,3.5475 19.9171952,3.762 Z M66.4505286,5.0145 C66.2977508,5.4315 66.019973,5.721 65.6477508,5.9115 C65.3741397,6.0495 65.0783064,6.117 64.7741397,6.156 C64.5296952,6.192 64.2838619,6.186 64.0421952,6.1875 C63.8616397,6.1875 63.6810841,6.1875 63.4991397,6.1875 C63.3630286,6.186 63.3630286,6.186 63.3880286,6.048 C63.4366397,5.7645 63.4852508,5.478 63.5338619,5.1945 C63.6671952,4.428 63.794973,3.663 63.9283064,2.895 C63.9630286,2.676 63.9630286,2.676 64.169973,2.676 C64.4505286,2.676 64.7310841,2.6715 65.0088619,2.703 C65.2769175,2.733 65.5366397,2.787 65.7880286,2.898 C66.2755286,3.12 66.5685841,3.597 66.5713619,4.1655 C66.5796952,4.455 66.5546952,4.74 66.4505286,5.0145 Z M72.6366397,9.318 C71.7005286,9.495 71.044973,10.455 71.1796952,11.478 C71.2838619,12.267 71.7005286,12.7905 72.3866397,13.071 C72.4685841,13.1025 72.557473,13.1085 72.6338619,13.1595 C72.844973,13.1595 73.0546952,13.1595 73.2658064,13.1595 C73.4102508,13.101 73.5616397,13.074 73.6991397,13.0035 C74.219973,12.7365 74.5546952,12.303 74.7046952,11.7015 C74.7227508,11.6265 74.7046952,11.547 74.7421952,11.4825 C74.7421952,11.313 74.7421952,11.139 74.7421952,10.9695 C74.7005286,10.887 74.7130286,10.794 74.6908064,10.7055 C74.4394175,9.75 73.5713619,9.1395 72.6366397,9.318 Z M72.9546952,12.828 C72.2296952,12.825 71.4810841,12.1875 71.4796952,11.232 C71.4769175,10.347 72.1366397,9.639 72.9616397,9.639 C73.8102508,9.639 74.4533064,10.4205 74.4310841,11.232 C74.4630286,12.051 73.7783064,12.834 72.9546952,12.828 Z M73.4366397,11.2755 C73.794973,11.127 73.8894175,10.6335 73.6185841,10.341 C73.5158064,10.23 73.3880286,10.194 73.2477508,10.194 C72.957473,10.1835 72.6685841,10.218 72.3810841,10.227 C72.1977508,10.233 72.1977508,10.233 72.207473,10.4355 C72.207473,10.455 72.2102508,10.4715 72.2116397,10.491 C72.2269175,10.8045 72.2408064,11.112 72.257473,11.4225 C72.2685841,11.6655 72.2755286,11.907 72.2866397,12.147 C72.2921952,12.3165 72.294973,12.3105 72.4491397,12.3045 C72.5588619,12.3015 72.557473,12.2865 72.5546952,12.1815 C72.5463619,11.982 72.5352508,11.7855 72.5283064,11.5875 C72.5255286,11.529 72.4977508,11.4555 72.5310841,11.409 C72.5658064,11.358 72.6366397,11.394 72.6908064,11.379 C72.9158064,11.3265 73.0921952,11.4 73.2338619,11.6025 C73.3602508,11.7825 73.4796952,11.967 73.6046952,12.1515 C73.6296952,12.183 73.644973,12.2355 73.6894175,12.2355 C73.7838619,12.2355 73.8838619,12.267 73.9894175,12.1995 C73.7741397,11.892 73.6130286,11.55 73.3102508,11.313 C73.3602508,11.298 73.3977508,11.289 73.4366397,11.2755 Z M73.132473,11.1045 C72.9727508,11.1195 72.8102508,11.1105 72.6477508,11.1315 C72.6338619,11.1315 72.6185841,11.1315 72.6088619,11.1315 C72.5116397,11.1315 72.5171952,11.1285 72.5046952,11.0265 C72.4921952,10.8855 72.5033064,10.7445 72.482473,10.6035 C72.4630286,10.473 72.4769175,10.467 72.607473,10.461 C72.7519175,10.452 72.8963619,10.461 73.0408064,10.431 C73.1213619,10.419 73.1977508,10.431 73.2741397,10.458 C73.4019175,10.4925 73.4894175,10.6065 73.4963619,10.74 C73.4991397,10.875 73.4477508,10.977 73.3338619,11.0415 C73.2713619,11.076 73.2033064,11.094 73.132473,11.1045 Z" id="Shape"></path>
                </g>
            </g>
        </g>
    </g>
</svg>