<?xml version="1.0" encoding="UTF-8"?>
<svg width="96px" height="96px" viewBox="0 0 96 96" version="1.1" xmlns="http://www.w3.org/2000/svg" xmlns:xlink="http://www.w3.org/1999/xlink">
    <!-- Generator: Sketch 46.2 (44496) - http://www.bohemiancoding.com/sketch -->
    <title>Artboard</title>
    <desc>Created with Sketch.</desc>
    <defs></defs>
    <g id="Page-1" stroke="none" stroke-width="1" fill="none" fill-rule="evenodd">
        <g id="Artboard">
            <g id="ic-paysafe-card">
                <g id="96" fill="#D8D8D8" opacity="0">
                    <rect id="Rectangle-4" x="0" y="0" width="96" height="96"></rect>
                </g>
                <g id="paysafe-card" transform="translate(10.000000, 42.000000)" fill-rule="nonzero">
                    <path d="M13.678501,5.74871795 C13.6710059,5.48639053 13.5435897,5.35147929 13.3037475,5.34398422 L12.0145957,5.34398422 C11.7072978,5.35897436 11.5499014,5.53136095 11.5424063,5.84615385 L11.5424063,8.16213018 C11.5499014,8.48441815 11.722288,8.64930966 12.0595661,8.6642998 L13.2362919,8.6642998 C13.356213,8.6642998 13.461144,8.61932939 13.5435897,8.52938856 C13.6260355,8.46193294 13.6710059,8.37199211 13.6710059,8.25956607 L13.678501,5.74871795 L13.678501,5.74871795 Z M9.89349112,5.41893491 C9.90098619,4.8418146 10.0284024,4.39960552 10.2832347,4.09980276 C10.4106509,3.97238659 10.5755424,3.86745562 10.7779093,3.77751479 C10.9877712,3.68757396 11.182643,3.64260355 11.3775148,3.64260355 L13.7384615,3.64260355 C14.7802761,3.65009862 15.312426,4.21972387 15.3274162,5.35147929 L15.3274162,8.83668639 C15.3199211,9.24142012 15.1625247,9.58619329 14.8552268,9.87850099 C14.5554241,10.1857988 14.1956607,10.3431953 13.7759369,10.3506903 L11.5424063,10.3506903 L11.5424063,12.8615385 L9.89349112,12.8615385 L9.89349112,5.41893491 L9.89349112,5.41893491 Z M18.3179487,8.31952663 C18.3179487,8.41696252 18.3629191,8.49191321 18.45286,8.55187377 C18.5278107,8.61932939 18.6327416,8.65680473 18.7526627,8.65680473 L20.0193294,8.65680473 C20.304142,8.65680473 20.4540434,8.5443787 20.4615385,8.31952663 L20.4615385,7.84733728 C20.4615385,7.58500986 20.3116371,7.45759369 20.0043393,7.45759369 L18.7451677,7.45759369 C18.5802761,7.45759369 18.4678501,7.48757396 18.4003945,7.54003945 C18.3404339,7.6 18.3104536,7.7199211 18.3104536,7.89980276 L18.3179487,8.31952663 L18.3179487,8.31952663 Z M20.4690335,5.70374753 C20.4765286,5.44891519 20.3266272,5.32899408 20.0268245,5.33648915 L16.6990138,5.33648915 L16.6990138,3.64260355 L20.4465483,3.64260355 C21.5408284,3.65759369 22.0954635,4.18974359 22.1104536,5.23155819 L22.1104536,8.78422091 C22.1029586,9.23392505 21.9605523,9.60118343 21.6982249,9.90098619 C21.4209073,10.208284 21.061144,10.3581854 20.6189349,10.3581854 L18.3554241,10.3581854 C17.2536489,10.3506903 16.6915187,9.84852071 16.6765286,8.84418146 L16.6765286,7.47258383 C16.6840237,6.42327416 17.2161736,5.89112426 18.2804734,5.87613412 L20.4765286,5.87613412 L20.4690335,5.70374753 L20.4690335,5.70374753 Z M26.7499014,11.1676529 C26.8773176,11.1601578 26.9972387,11.1151874 27.0871795,11.0252465 C27.1771203,10.9428008 27.2220907,10.85286 27.2220907,10.7554241 L27.2220907,10.3506903 L25.1084813,10.3506903 C24.8311637,10.3506903 24.6138067,10.313215 24.4489152,10.2457594 C24.2765286,10.1857988 24.104142,10.0658777 23.9242604,9.89349112 C23.7593688,9.71360947 23.6394477,9.52623274 23.564497,9.33136095 C23.4895464,9.15147929 23.452071,8.92662722 23.452071,8.64930966 L23.452071,3.64260355 L25.1084813,3.64260355 L25.1084813,8.11715976 C25.1084813,8.47692308 25.2583826,8.65680473 25.5506903,8.65680473 L26.7199211,8.65680473 C26.8623274,8.65680473 26.9822485,8.61183432 27.0796844,8.52189349 C27.1771203,8.43944773 27.2220907,8.3495069 27.2220907,8.23708087 L27.2220907,3.64260355 L28.8635108,3.64260355 L28.8635108,11.0402367 C28.8560158,11.5873767 28.7136095,12.0295858 28.443787,12.3593688 C28.1664694,12.6891519 27.791716,12.8615385 27.3120316,12.8690335 L23.452071,12.8690335 L23.452071,11.1676529 L26.7499014,11.1676529 L26.7499014,11.1676529 Z M30.1601578,8.65680473 L33.1057199,8.65680473 C33.3755424,8.64930966 33.5179487,8.53688363 33.5254438,8.33451677 L33.5254438,8.18461538 C33.5254438,8.13964497 33.5104536,8.09467456 33.4879684,8.04220907 C33.4205128,7.9147929 33.3380671,7.84733728 33.2481262,7.84733728 L31.7790927,7.84733728 C31.3443787,7.83984221 30.9771203,7.68994083 30.6623274,7.39763314 C30.3475345,7.12781065 30.1901381,6.80552268 30.1751479,6.41577909 L30.1751479,5.14911243 C30.1901381,4.15976331 30.729783,3.65759369 31.7865878,3.64260355 L35.2043393,3.64260355 L35.2043393,5.34398422 L32.3112426,5.34398422 C31.9739645,5.34398422 31.8015779,5.44891519 31.8015779,5.65877712 L31.8015779,5.82366864 C31.8015779,6.04102564 31.9739645,6.14595661 32.3262327,6.14595661 L33.7802761,6.14595661 C34.1700197,6.15345168 34.4998028,6.30335306 34.7771203,6.59566075 C35.0544379,6.88796844 35.1968442,7.23274162 35.2118343,7.63747535 L35.2118343,8.87416174 C35.2043393,9.21893491 35.0394477,9.57120316 34.7321499,9.91597633 C34.5822485,10.0883629 34.4248521,10.200789 34.2749507,10.2682446 C34.1175542,10.3282051 33.9001972,10.3581854 33.6228797,10.3581854 L30.1676529,10.3581854 L30.1601578,8.65680473 L30.1601578,8.65680473 Z M38.0374753,8.31952663 C38.0374753,8.41696252 38.0824458,8.49191321 38.1723866,8.55187377 C38.2473373,8.61932939 38.3447732,8.65680473 38.4721893,8.65680473 L39.7463511,8.65680473 C40.0311637,8.65680473 40.1810651,8.5443787 40.1885602,8.31952663 L40.1885602,7.84733728 C40.1885602,7.58500986 40.0386588,7.45759369 39.7313609,7.45759369 L38.4721893,7.45759369 C38.3072978,7.45759369 38.1948718,7.48757396 38.1274162,7.54003945 C38.0674556,7.6 38.0374753,7.7199211 38.0374753,7.89980276 L38.0374753,8.31952663 L38.0374753,8.31952663 Z M40.1885602,5.70374753 C40.1960552,5.44891519 40.0461538,5.32899408 39.738856,5.33648915 L36.4110454,5.33648915 L36.4110454,3.64260355 L40.1585799,3.64260355 C41.25286,3.65759369 41.8074951,4.18974359 41.8224852,5.23155819 L41.8224852,8.78422091 C41.8149901,9.23392505 41.6725838,9.60118343 41.4102564,9.90098619 C41.1329389,10.208284 40.7731755,10.3581854 40.3309665,10.3581854 L38.0599606,10.3581854 C36.9581854,10.3506903 36.3960552,9.84852071 36.3810651,8.84418146 L36.3810651,7.47258383 C36.3885602,6.42327416 36.9207101,5.89112426 37.9850099,5.87613412 L40.1885602,5.87613412 L40.1885602,5.70374753 L40.1885602,5.70374753 Z M43.1715976,2.67573964 C43.1790927,2.21854043 43.3514793,1.85128205 43.6812623,1.5739645 C44.0035503,1.29664694 44.4232742,1.14674556 44.947929,1.13925049 L45.9972387,1.13925049 L45.9972387,2.78067061 L45.3601578,2.78067061 C45.0078895,2.78816568 44.835503,2.9530572 44.8280079,3.28284024 L44.8280079,3.64260355 L45.9972387,3.64260355 L45.9972387,5.34398422 L44.8280079,5.34398422 L44.8280079,10.3581854 L43.1715976,10.3581854 L43.1715976,2.67573964 L43.1715976,2.67573964 Z M50.6966469,5.67376726 L50.6966469,5.63629191 C50.6966469,5.54635108 50.6591716,5.47140039 50.591716,5.41893491 C50.5167653,5.36646943 50.4193294,5.33648915 50.3069034,5.33648915 L49.1526627,5.33648915 C49.0027613,5.33648915 48.8828402,5.38145957 48.7928994,5.46390533 C48.6804734,5.53885602 48.6205128,5.64378698 48.6205128,5.77120316 L48.6205128,6.45325444 L50.6966469,5.67376726 L50.6966469,5.67376726 Z M48.6504931,8.07968442 L48.6504931,8.18461538 C48.6504931,8.31952663 48.6879684,8.43195266 48.7554241,8.50690335 C48.8078895,8.60433925 48.8753452,8.65680473 48.9727811,8.65680473 L52.3680473,8.65680473 L52.3680473,10.3581854 L48.7554241,10.3581854 C48.425641,10.3581854 48.1708087,10.3282051 47.990927,10.2682446 C47.7960552,10.200789 47.6161736,10.095858 47.4587771,9.94595661 C47.2788955,9.76607495 47.1514793,9.58619329 47.0915187,9.3913215 C47.0240631,9.1964497 46.9865878,8.93412229 46.9865878,8.61183432 L46.9715976,5.20907298 C46.9865878,4.18224852 47.5262327,3.65759369 48.5830375,3.64260355 L50.816568,3.64260355 C51.8433925,3.65759369 52.3680473,4.20473373 52.3830375,5.26903353 L52.3830375,6.61065089 L48.6504931,8.07968442 L48.6504931,8.07968442 Z M55.8832347,10.3581854 C55.6358974,10.3581854 55.4035503,10.3357002 55.1936884,10.2907298 C54.9763314,10.2532544 54.7589744,10.1558185 54.5416174,9.98343195 C54.3167653,9.78856016 54.1593688,9.56370809 54.069428,9.31637081 C53.9794872,9.0765286 53.9345168,8.79921105 53.9345168,8.49940828 L53.9345168,5.32899408 C53.9270217,5.07416174 53.9495069,4.8418146 54.0094675,4.6469428 C54.0619329,4.45207101 54.181854,4.25719921 54.3617357,4.06982249 C54.5641026,3.87495069 54.7664694,3.74003945 54.9838264,3.67258383 C55.1936884,3.62011834 55.4260355,3.59013807 55.6883629,3.59013807 L58.2216963,3.59013807 L58.2216963,3.98737673 L55.7483235,3.98737673 C55.3136095,3.98737673 54.9688363,4.07731755 54.7140039,4.25719921 C54.4591716,4.45207101 54.3242604,4.78934911 54.3242604,5.26903353 L54.3242604,8.43944773 C54.3242604,8.6642998 54.3617357,8.8816568 54.4291913,9.09151874 C54.4966469,9.2938856 54.616568,9.48126233 54.7814596,9.63865878 C54.9613412,9.77357002 55.1412229,9.86351085 55.3136095,9.89349112 C55.4934911,9.93096647 55.6883629,9.95345168 55.8982249,9.95345168 L58.2591716,9.95345168 L58.2591716,10.3506903 L55.8832347,10.3506903 L55.8832347,10.3581854 Z M64.7424063,6.2433925 L61.4220907,6.2433925 C61.0248521,6.25088757 60.7100592,6.37830375 60.4852071,6.61065089 C60.25286,6.8504931 60.1404339,7.18027613 60.1404339,7.6 L60.1404339,8.61183432 C60.1404339,8.80670611 60.1629191,8.98658777 60.2003945,9.15147929 C60.2453649,9.32386588 60.3428008,9.47376726 60.5076923,9.60118343 C60.7925049,9.84102564 61.1147929,9.95345168 61.4595661,9.95345168 L63.4832347,9.95345168 C64.3226824,9.94595661 64.7499014,9.50374753 64.7499014,8.61932939 L64.7424063,6.2433925 L64.7424063,6.2433925 Z M65.139645,8.52938856 C65.139645,8.78422091 65.1171598,9.00907298 65.0871795,9.20394477 C65.034714,9.42130178 64.922288,9.62366864 64.7573964,9.81854043 C64.4126233,10.1857988 63.9779093,10.3656805 63.4682446,10.3506903 L61.4895464,10.3506903 C60.9723866,10.3506903 60.5601578,10.200789 60.2378698,9.89349112 C59.9080868,9.59368836 59.7431953,9.1739645 59.7431953,8.63431953 L59.7431953,7.61499014 C59.7581854,6.46074951 60.3353057,5.86863905 61.4670611,5.84615385 L64.7573964,5.84615385 L64.7573964,5.3964497 C64.7573964,5.02919132 64.6524655,4.70690335 64.4351085,4.4295858 C64.3001972,4.24970414 64.1428008,4.12978304 63.9629191,4.06982249 C63.7830375,4.02485207 63.5731755,3.99487179 63.3483235,3.99487179 L59.7581854,3.99487179 L59.7581854,3.59763314 L63.1609467,3.59763314 C63.4757396,3.59763314 63.7530572,3.62011834 64.0078895,3.66508876 C64.1353057,3.68757396 64.2552268,3.74003945 64.3676529,3.81499014 C64.487574,3.88244576 64.5925049,3.98737673 64.6899408,4.12228797 C64.9972387,4.51952663 65.14714,4.96923077 65.139645,5.47889546 L65.139645,8.52938856 L65.139645,8.52938856 Z M68.8571992,3.99487179 C67.9353057,4.00986193 67.4781065,4.51203156 67.5005917,5.50138067 L67.5005917,10.3506903 L67.1033531,10.3506903 L67.1033531,5.50887574 C67.0808679,4.234714 67.6879684,3.59763314 68.9246548,3.59763314 L69.3668639,3.59763314 L69.3668639,3.99487179 L68.8571992,3.99487179 L68.8571992,3.99487179 Z M75.5502959,3.99487179 L72.417357,3.99487179 C72.1925049,3.99487179 71.9901381,4.017357 71.8102564,4.06982249 C71.6228797,4.1147929 71.435503,4.22721893 71.2631164,4.41459566 C71.0982249,4.58698225 70.9932939,4.75936884 70.9483235,4.92426036 C70.8883629,5.09664694 70.8658777,5.29901381 70.8733728,5.53885602 L70.8733728,8.63431953 C70.8733728,9.15147929 71.0232742,9.49625247 71.3230769,9.68362919 C71.4729783,9.77357002 71.6378698,9.83353057 71.8177515,9.87850099 C71.9976331,9.9234714 72.2074951,9.95345168 72.4248521,9.95345168 L73.7964497,9.95345168 C74.3061144,9.95345168 74.7258383,9.83353057 75.0481262,9.60118343 C75.3704142,9.37633136 75.5353057,8.99408284 75.5502959,8.4469428 L75.5502959,3.99487179 L75.5502959,3.99487179 Z M75.9475345,8.47692308 C75.9100592,9.75857988 75.235503,10.3881657 73.9163708,10.3581854 L72.4473373,10.3581854 C72.1400394,10.3581854 71.8627219,10.3282051 71.6153846,10.2832347 C71.3605523,10.2157791 71.1207101,10.0658777 70.8883629,9.8260355 C70.7159763,9.6086785 70.6035503,9.3913215 70.5585799,9.16646943 C70.4986193,8.94161736 70.4686391,8.69428008 70.4836292,8.42445759 L70.4836292,5.53885602 C70.4986193,4.24220907 71.1581854,3.59013807 72.4473373,3.60512821 L75.5577909,3.60512821 L75.5577909,1.40907298 L75.9550296,1.40907298 L75.9550296,8.47692308 L75.9475345,8.47692308 Z" id="Shape" fill="#008AC9"></path>
                    <path d="M0.712031558,3.3877712 C0.839447732,3.32781065 0.974358974,3.28284024 1.10177515,3.26035503 C1.34161736,2.12110454 2.35345168,1.26666667 3.56015779,1.26666667 C4.77435897,1.26666667 5.77869822,2.12110454 6.01854043,3.26035503 C6.39329389,3.32781065 6.70059172,3.47771203 6.93293886,3.7025641 C6.94043393,3.4852071 6.93293886,3.27534517 6.91045365,3.0729783 C6.76055227,1.34911243 5.31400394,0 3.55266272,0 C1.73885602,0 0.262327416,1.43905325 0.187376726,3.23037475 C0.179881657,3.3877712 0.172386588,3.54516765 0.179881657,3.71755424 C0.329783037,3.59013807 0.502169625,3.47771203 0.712031558,3.3877712" id="Shape" fill="#E3001B"></path>
                    <path d="M5.52386588,3.64260355 L1.48402367,3.64260355 C1.28915187,3.64260355 1.08678501,3.68757396 0.884418146,3.77751479 C0.682051282,3.86745562 0.517159763,3.97238659 0.38974359,4.09980276 C0.142406312,4.39960552 0.00749506903,4.8418146 0,5.41893491 L0,8.57435897 C0.00749506903,9.15147929 0.134911243,9.59368836 0.38974359,9.89349112 C0.524654832,10.0209073 0.682051282,10.1258383 0.884418146,10.2157791 C1.09428008,10.3057199 1.29664694,10.3506903 1.48402367,10.3506903 L5.52386588,10.3506903 C6.56568047,10.3431953 7.09783037,9.76607495 7.11282051,8.63431953 L7.11282051,5.35147929 C7.09783037,4.21972387 6.56568047,3.65009862 5.52386588,3.64260355" id="Shape" fill="#E3001B"></path>
                </g>
            </g>
        </g>
    </g>
</svg>