<?xml version="1.0" encoding="UTF-8"?>
<svg width="96px" height="96px" viewBox="0 0 96 96" version="1.1" xmlns="http://www.w3.org/2000/svg" xmlns:xlink="http://www.w3.org/1999/xlink">
    <!-- Generator: Sketch 46.2 (44496) - http://www.bohemiancoding.com/sketch -->
    <title>Artboard</title>
    <desc>Created with Sketch.</desc>
    <defs></defs>
    <g id="Page-1" stroke="none" stroke-width="1" fill="none" fill-rule="evenodd">
        <g id="Artboard">
            <g id="ic-qiwi">
                <g id="96" fill="#D8D8D8" opacity="0">
                    <rect id="Rectangle-4" x="0" y="0" width="96" height="96"></rect>
                </g>
                <g id="Asset-1" transform="translate(25.000000, 11.000000)">
                    <path d="M38.4678717,32.4593341 C38.150829,30.8124524 37.296537,29.3162809 36.0379902,28.2037402 C35.6011838,27.7800044 35.1045493,27.4222566 34.5638621,27.1418605 C33.5579663,26.5743146 32.4143517,26.2948638 31.2592232,26.3343474 C31.9073377,26.1026426 32.5986161,26.0158047 33.2841245,26.0799808 C33.8704124,26.1614632 34.4479246,26.2966198 35.0093404,26.4837373 C35.4710179,26.7340664 35.9286456,26.9870872 36.3822234,27.2427996 C37.4959191,23.9239209 37.0706899,19.3816598 35.8233507,16.4544249 C34.7161854,13.5343512 32.9151969,10.925544 30.5748066,8.85168922 C28.203184,6.63684665 25.2572668,5.12778005 22.0702213,4.49515615 C20.2226979,4.13809677 18.3219422,4.15594834 16.4814937,4.5476445 C14.9274723,4.95758749 13.4672284,5.66219898 12.1806034,6.62295312 C11.0426089,7.63234447 9.93296303,8.67403634 9.18374956,10.0669964 C8.95217444,10.387381 8.74763415,10.7263511 8.57222938,11.0804253 C8.41833688,11.4841819 8.24014557,11.8314125 8.06600406,12.1947934 C7.76087416,13.0017245 7.5224902,13.8321969 7.35323881,14.6778961 C6.94258506,16.5588546 6.87400033,18.4980402 7.15074868,20.4031638 C7.37437544,22.129809 7.83637727,23.8173383 8.52363175,25.4178201 C8.89216378,26.1284316 9.22829739,26.8753812 9.64137725,27.545617 C10.0476266,28.1940883 10.4897378,28.819531 10.9656627,29.4190474 C11.9761661,30.54654 13.1182096,31.549586 14.3674968,32.4068458 C17.2266756,34.3423301 20.5695217,35.4467213 24.0222261,35.5965225 C24.1032221,35.4309823 23.9128814,35.0999019 23.8683336,34.8859109 C23.8237858,34.67192 23.7832877,34.3610274 23.7144411,34.1268487 C23.6476959,33.5540948 23.6476959,32.9755621 23.7144411,32.4028082 C23.8764332,32.4431839 23.8723834,32.6531373 23.9695786,32.758114 C24.0667739,32.8630907 24.0870229,33.0124806 24.2247162,33.0609314 C24.3644313,33.310674 24.5228219,33.5495665 24.6985431,33.7755805 C25.0354703,34.2130024 25.4290232,34.6040084 25.868936,34.9383993 C26.2935852,35.3031604 26.7534621,35.6250482 27.2418191,35.8993399 C27.7166685,36.2041049 28.2214556,36.4597943 28.7483456,36.6624397 C29.7567465,37.1913608 31.1093805,37.3770888 32.4579648,37.5749295 C33.806549,37.7727702 35.1227348,37.978686 36.370074,38.285541 C37.4998487,38.6125219 38.5872324,39.0705533 39.6099161,39.6502381 C40.1029023,39.9236585 40.5777121,40.2284527 41.0313968,40.5627279 C41.2693973,40.7062244 41.4907779,40.8754818 41.6915146,41.0674236 C41.9588015,41.1724003 42.0964948,41.4267669 42.3516324,41.5236685 C43.157638,42.258718 43.9050572,43.055176 44.5871234,43.9058321 C44.9126548,44.372551 45.2010704,44.863941 45.4497313,45.3755059 C45.6360222,45.5773841 45.6886697,45.9125021 45.8547116,46.1345682 C45.8547116,46.4212353 46.1462974,46.7684659 45.9033092,46.9945696 C45.5266776,47.0510955 45.6036238,46.6513765 45.4456815,46.4898739 C45.3039152,46.3023354 45.1843299,46.0991129 45.0892989,45.8842391 C44.4939779,45.262454 43.9634538,44.5760679 43.3114356,44.0108088 C42.6860925,43.4266046 42.0082818,42.9008613 41.2865343,42.4401958 C39.7770445,41.3876415 38.0896639,40.614886 36.3052772,40.1589714 C34.2081818,39.590833 32.0278267,39.3913547 29.8620413,39.5694868 C28.8425457,39.6825176 27.8379656,39.9031281 26.8651875,40.22761 C25.8427412,40.4533363 24.808424,40.6218317 23.7670885,40.7323057 C19.6823006,40.9426931 15.6060956,40.1786378 11.8768683,38.5035695 C10.2676673,37.7888832 8.76789799,36.8509615 7.42208545,35.7176494 C6.73407868,35.1777021 6.0981944,34.5748291 5.52272806,33.9168952 C4.93897301,33.2816038 4.42697758,32.584307 3.9959525,31.8375491 C3.45732876,31.1753883 3.13334456,30.2830864 2.67976668,29.5199865 C2.38413109,28.6196094 1.96295163,27.8403593 1.7645113,26.8350055 C1.44540016,25.848245 1.24156194,24.8280692 1.15704092,23.7947188 C1.15704092,23.4919014 1.00314842,22.9024168 1.00314842,22.4259841 C1.00314842,22.3856085 1.05984566,22.3452328 1.05579586,22.2725566 C0.981401381,21.7854727 0.981401381,21.2899668 1.05579586,20.8028828 C1.06237163,19.7288232 1.18181805,18.658407 1.41217848,17.6091686 C1.59110709,16.6485938 1.84568271,15.7035701 2.17354136,14.7828728 C2.47727655,13.870383 2.8741572,13.0547948 3.23863943,12.1988309 C3.48162758,11.8354501 3.6679185,11.4115057 3.89875724,11.0360121 C4.12959599,10.6605185 4.38473355,10.3375133 4.55887506,9.92164405 C4.75326558,9.81262979 4.7897138,9.54211291 4.96385531,9.41694838 C5.04485136,9.19084471 5.25544109,9.09798071 5.32023793,8.85976435 C5.48626909,8.7172295 5.62368914,8.54460343 5.72521819,8.35103111 C5.8939316,8.21269303 6.03186006,8.04080342 6.13019844,7.84633544 C6.73766882,7.25281332 7.27629256,6.59065259 7.90806176,6.02135587 C8.53983096,5.45205915 9.2404468,4.91910052 9.892465,4.3498038 C10.2974453,4.15196309 10.6011804,3.84107055 11.0102105,3.63919228 C11.3179955,3.35656271 11.7715734,3.21524792 12.0753086,2.92858077 C12.9217173,2.55712476 13.6425822,2.06050421 14.5659371,1.76172437 C15.4236276,1.3818915 16.3073719,1.06346357 17.2104582,0.808858936 C19.2767997,0.237840431 21.4171367,-0.0220888409 23.5605486,0.0376839438 C23.6496442,0.0376839438 23.6941921,-0.0471049297 23.7144411,0.0376839438 C27.5748721,0.102818214 31.3335873,1.28228218 34.5355135,3.43327645 C37.3699844,5.3196672 39.6497648,7.92422541 41.1407414,10.9794862 C42.8946496,14.6506271 43.479718,18.7689544 42.8173597,22.7812899 C42.4763374,24.6474089 41.9134971,26.4663687 41.1407414,28.1997026 C40.7582284,28.9823097 40.3337349,29.7438197 39.8691034,30.4809271 C39.6656607,30.8565199 39.4270074,31.2120661 39.1563382,31.5428068 C39.0626313,31.7273248 38.9425887,31.8973246 38.7999556,32.0475025 C38.7380157,32.1365445 38.6703786,32.2215098 38.5974654,32.3018691 C38.5731666,32.3462823 38.5529176,32.3906955 38.4962204,32.4028082 C38.5164694,32.4997098 38.4678717,32.5118225 38.4678717,32.4593341 Z" id="Shape" fill="#F78F20"></path>
                    <path d="M36.7981392,33 C36.3323412,32.7978789 36.2531238,32.1706063 36.0408213,31.6896974 C35.9863929,31.4896345 35.9863929,31.2764272 36.0408213,31.0763643 C36.0725082,31.0763643 36.0788456,31.0310613 36.1200386,31.0310613 C36.2372803,30.9474249 36.3481846,31.0519704 36.5161254,31.1181825 C36.7491624,31.4381968 36.9127989,31.8124249 36.9945983,32.2124245 C37.0041044,32.5574244 37.0262852,32.9198485 36.7981392,33 Z" id="Shape" fill="#F78F20"></path>
                    <path d="M32.2678708,33.0369561 C32.2678708,32.9729463 32.3318415,33.0049512 32.3318415,33.0369561 C33.4242639,33.1649756 33.9311085,33.8462224 34,34.9298164 C33.9395909,35.4624687 33.512556,35.8963253 32.9469442,35.999694 C31.4706978,36.0225547 30.6341581,34.7606477 31.1557652,33.4758802 C31.4510145,33.2564181 31.6626098,32.9683742 32.2678708,33.0369561 Z" id="Shape" fill="#F78F20"></path>
                    <path d="M8.67943241,66.3798906 C8.82652069,66.9242695 9.1153692,67.4245973 9.51930101,67.8346655 C9.88564547,68.2479284 10.3336415,68.5887533 10.8378947,68.8378208 C11.3441418,69.1466183 11.8942388,69.3848371 12.4714391,69.5452251 C12.7753678,69.6669072 13.0942497,69.7515081 13.4204907,69.797013 C13.6724512,69.928902 13.9832026,69.9968448 14,70.3485486 C14,70.7681952 13.6892486,70.9240639 13.3155071,71 C12.9234574,70.9679892 12.5354218,70.9010862 12.1564884,70.8001683 C10.1319004,70.491315 8.25569684,69.5984968 6.78132937,68.2423223 C6.59655828,67.9505679 6.36139507,67.7227598 6.15142792,67.4429954 C5.94146077,67.163231 5.82387916,66.8195204 5.6223107,66.539756 C4.27626094,66.3570853 3.02386024,65.7785795 2.04027111,64.8851493 C1.08813055,63.8854695 0.449469384,62.6518059 0.196759535,61.3241481 C-0.11150355,59.7946425 -0.0569851061,58.2189236 0.356334569,56.712032 C1.21719989,54.022297 3.03971475,52.2437947 6.47057799,52 C7.32751136,52.0039921 8.17821074,52.1389312 8.99018379,52.3996634 C9.75558641,52.6842773 10.4547349,53.1093182 11.0478619,53.65061 C11.0881939,53.6784153 11.1236299,53.7121407 11.1528454,53.7505259 C11.270427,53.9223812 11.5727797,54.1501893 11.7323548,54.350021 C11.7659495,54.3899874 11.7323548,54.4579302 11.7827469,54.5018931 C11.833139,54.5458561 11.9423219,54.6257888 11.992714,54.7017249 C12.0431062,54.7776609 12.0137108,54.8056374 12.0473055,54.8496003 L12.2068805,55.1013883 C12.2320766,55.1413546 12.2950667,55.1733277 12.3118641,55.2013042 C12.4042497,55.3651662 12.4420437,55.5689945 12.5218313,55.7528397 C12.6016188,55.9366849 12.7192004,56.1165334 12.7863899,56.3043753 C12.9946814,56.9408235 13.1353638,57.5955528 13.2063242,58.2587295 C13.425537,60.0364117 13.077273,61.8357268 12.2068805,63.4223812 C11.8452326,64.0960405 11.3438057,64.6929083 10.7329111,65.1769037 C10.1182957,65.6770664 9.42547729,66.0829394 8.67943241,66.3798906 Z M6.15982661,53.7425326 C5.77589883,53.8088699 5.40396371,53.9273123 5.05539939,54.0942364 C4.7757825,54.2835569 4.52311839,54.5065604 4.303717,54.7576777 C4.0013643,54.9215398 3.91737744,55.2892301 3.67381554,55.509045 C3.44082573,56.0399686 3.26359038,56.5915252 3.14469833,57.1556584 C3.01343452,57.8146376 2.94317606,58.4833074 2.93473118,59.1539756 C2.93473118,60.8805217 3.3084727,62.5950778 4.03915839,63.6182162 C4.46729688,64.1243114 5.007982,64.5337959 5.6223107,64.8172066 C5.98765354,64.8531763 6.27740821,64.9610854 6.6763458,64.9690787 C6.89471163,64.8931426 7.2726525,64.9690787 7.41543016,64.8172066 C7.73877958,64.8411864 7.83536447,64.6333614 8.09992307,64.6173748 C8.25075072,64.4686919 8.43043923,64.349253 8.62904029,64.265671 C8.81801073,64.0618427 9.00278182,63.8660076 9.20854963,63.6661759 C9.3135332,63.5183004 9.37232401,63.3184687 9.52350035,63.2145562 C10.4389571,61.5479596 10.5439407,58.4865377 9.94343465,56.5441733 C9.75058173,55.9158019 9.44822397,55.322714 9.04897459,54.7896508 C8.65220315,54.4003907 8.1894074,54.0774798 7.67998877,53.8344552 C7.23478274,53.7164037 6.77268299,53.6664885 6.31100295,53.6865797 C6.27740821,53.6865797 6.24801281,53.6865797 6.25641149,53.7345393 L6.15982661,53.7425326 Z" id="Shape" fill="#0769B3"></path>
                    <path d="M17.2434596,53.0113594 C18.117245,52.9858865 18.9918908,53.0032622 19.8636529,53.0634122 C19.9824641,53.3153728 20.0203404,53.5932006 19.9728276,53.8642239 C20.0339655,57.5519619 19.9728276,61.4999638 19.9728276,65.267783 C19.9728276,65.5720915 19.9728276,65.8763999 19.9728276,66.1727003 C20.0183383,66.4280004 19.9803486,66.6899405 19.8636529,66.9254633 C19.3922509,66.9871427 18.9150865,67.0032473 18.4400146,66.973512 C17.9803758,67.030013 17.5128776,66.9958852 17.0687801,66.8734105 C16.9770733,62.4208973 16.9770733,57.6120228 17.0687801,53.1595096 C17.0994995,53.0883987 17.1637482,53.0339077 17.2434596,53.0113594 Z" id="Shape" fill="#0769B3"></path>
                    <path d="M23.1788326,53.0065319 L25.621483,53.0065319 C25.827712,53.3627575 25.9519913,53.7579282 25.9858106,54.1649834 C26.7186057,56.8747175 27.4472607,59.5884602 28.1138145,62.3623301 C28.2711378,62.3623301 28.2214567,62.1979823 28.2711378,62.1097957 C28.3208188,62.0216091 28.3042584,61.8732952 28.3746399,61.8091595 C28.4036205,61.5846845 28.5443834,61.4684385 28.5319631,61.2078871 C28.718267,60.8671661 28.7720881,60.4061906 28.9459717,60.0494357 C29.1612561,59.2477392 29.4345018,58.4741021 29.6746267,57.684431 C29.9147517,56.89476 30.2169779,56.1291398 30.4032818,55.2793415 C30.7469089,54.5898825 30.8172903,53.6478891 31.2312989,53.0145489 L32.2704604,53.0145489 C32.6430681,53.6919824 32.7796909,54.6179419 33.0984775,55.3274433 C33.3054817,56.1291398 33.6035679,56.8827345 33.8229924,57.692448 C34.336363,59.2557561 34.866294,60.8070389 35.3299835,62.4184488 C35.5369878,62.1178126 35.5369878,61.6167523 35.6943111,61.2599974 C35.7677207,60.8668666 35.8715146,60.4796276 36.0048175,60.1015459 C36.418826,58.4981529 36.7831536,56.89476 37.2468431,55.3755451 C37.3941362,54.5906968 37.6017169,53.8175852 37.867856,53.0626507 C38.5759523,52.9791164 39.2919037,52.9791164 40,53.0626507 C39.9803427,53.6695676 39.8397638,54.2670915 39.5859914,54.8223745 C39.4907695,55.4677402 39.2423644,55.964792 39.1181618,56.5820983 C38.7496942,57.7164989 38.4598882,58.9310691 38.0790003,60.0534442 C37.7850543,61.2559889 37.3917461,62.3743555 37.09366,63.5728918 C36.8949359,64.1340793 36.7458928,64.7433687 36.5761493,65.3326156 C36.4064058,65.9218625 36.3070437,66.5351603 36.0048175,66.9921273 L34.5557876,66.9921273 C34.1873199,66.3627956 34.0548372,65.5009719 33.7277705,64.8315553 C33.0032555,62.6068475 32.2124992,60.4743348 31.4921243,58.2376016 C31.2437191,58.4861275 31.2519993,58.9751624 31.0781157,59.2918325 C30.9766144,59.6664927 30.8550068,60.0357744 30.7137882,60.3981737 C30.5192042,61.1637938 30.2128379,61.8251934 30.0389543,62.610856 C29.757737,63.3370304 29.5159023,64.076936 29.3144393,64.8275468 C29.008073,65.4849379 28.9004307,66.3347362 28.5361032,66.9400171 C28.0541463,66.9977589 27.5678379,67.0138564 27.0829332,66.9881189 C26.7186057,66.5872706 26.6689247,65.8657438 26.4577803,65.3286071 C26.2466359,64.7914705 26.1596941,64.1260624 25.9402696,63.6169851 C25.6628839,62.3943979 25.2405952,61.3121077 24.9507892,60.0975375 C24.5740414,58.9711539 24.2552548,57.7886515 23.9116277,56.6261916 C23.7253239,56.0690126 23.5762808,55.4757572 23.394117,54.9185781 C23.3113153,54.3132972 22.8848865,53.7681436 23.0297895,53.106744 C23.070296,53.062082 23.121461,53.0276802 23.1788326,53.0065319 L23.1788326,53.0065319 Z" id="Shape" fill="#0769B3"></path>
                    <path d="M42.2968513,53.0113502 C43.1536145,52.9858886 44.0112201,53.0032723 44.8660005,53.0634268 C44.995088,53.6074806 45.0312185,54.1672333 44.9730484,54.721866 L44.9730484,65.2773904 C45.031002,65.8320269 44.9948735,66.3917476 44.8660005,66.9358296 C44.1545129,67.0000102 43.4390023,67.0160755 42.7250428,66.9839003 C42.5195109,66.9839003 42.2711598,67.031971 42.1341385,66.883753 C42.0048356,66.3397275 41.9687029,65.7799427 42.0270906,65.2253138 L42.0270906,54.7699367 C41.9703451,54.2152798 42.0064622,53.6557357 42.1341385,53.1114975 C42.1786793,53.0660297 42.2345891,53.031618 42.2968513,53.0113502 Z" id="Shape" fill="#0769B3"></path>
                    <path d="M28.0114436,72.2761201 C28.3061675,72.4082462 28.575752,72.5995177 28.8063183,72.8400876 C29.0000178,73.2328198 29.0506866,73.691323 28.9481269,74.1233181 C28.5338964,75.0714374 27.0822238,75.1449984 26,74.8384943 L26,70.1714587 C26.4224723,70.0228787 26.8681434,69.9700406 27.309864,70.0161633 C27.6127923,70.0504898 27.9116765,70.1189646 28.2017657,70.2204993 C28.6308064,70.5088649 28.8236309,71.0815394 28.6682415,71.6058978 C28.5003102,71.8878816 28.3473061,72.1698653 28.0114436,72.2761201 Z M28.0114436,71.5568572 C28.1308614,70.5760441 27.4031591,70.4084885 26.6530661,70.5310901 L26.6530661,72.1657786 C27.347182,72.2352529 27.809926,72.0350035 28.0114436,71.5568572 Z M28.2465473,73.9680227 C28.4853829,72.9136486 27.6270675,72.4068952 26.7015796,72.6357516 C26.6463552,73.2495206 26.6313896,73.8668362 26.6567979,74.4829495 C27.3434502,74.5360769 27.9741255,74.491123 28.2465473,73.9680227 L28.2465473,73.9680227 Z" id="Shape" fill="#0769B3"></path>
                    <path d="M17.6566564,70.0105077 C17.7098092,70.6727082 17.7245329,71.3381712 17.7007318,72.0025729 C17.7301154,72.0986264 17.8953983,71.9106957 17.8843794,71.793761 C17.9651844,71.7269412 18.068027,71.6851789 18.068027,71.5306581 C18.2274157,71.3931515 18.3537407,71.2121719 18.4353223,71.0044522 C18.7438503,70.7288205 18.8981143,70.2777869 19.2176611,70.0105077 C19.3866169,70.0105077 19.6253589,69.9645691 19.7245286,70.0647988 C19.5329164,70.4613933 19.2998285,70.8301871 19.0303406,71.1631492 C18.8173093,71.5306581 18.5271461,71.8146422 18.3398255,72.2113848 C18.5785674,72.7041808 18.920152,73.0883946 19.1699128,73.5728382 C19.4971028,73.9840408 19.7761156,74.4416589 20,74.9342915 C19.8347171,75.0428737 19.5004785,74.9635252 19.2654095,74.9885826 C18.9862651,74.608545 18.7548691,74.1533352 18.4830707,73.7858263 C18.2112722,73.4183174 17.9431466,73.0048699 17.7484802,72.5329551 C17.6937094,73.3345812 17.6777692,74.1390265 17.7007318,74.942644 C17.5648325,75.0470499 17.2673234,74.9718777 17.0579651,74.9969351 C16.9806783,73.3387402 16.9806783,71.677055 17.0579651,70.0188602 L17.6566564,70.0105077 Z" id="Shape" fill="#0769B3"></path>
                    <path d="M24.3687248,71.4389792 C24.4447561,71.4055816 24.3687248,71.3763587 24.3687248,71.4389792 C23.4521254,72.5870223 22.6326771,73.8394329 21.6991819,75 L21.0655878,75 C20.9781374,73.3423776 20.9781374,71.6813776 21.0655878,70.0237553 L21.6484944,70.0237553 L21.6484944,73.780987 C21.6949579,73.9229269 21.7752132,73.6724448 21.8090048,73.6223484 C21.8860059,73.5400619 21.9566062,73.452143 22.0202029,73.3593421 C22.1300258,73.1714805 22.2820884,73.025366 22.3919114,72.8375044 C22.6619747,72.5041744 22.910283,72.1541825 23.1353284,71.7896542 C23.4479014,71.5057745 23.6084119,71.0716055 23.9294329,70.7919004 C24.0082561,70.5905093 24.1358936,70.4113203 24.3011414,70.2700627 C24.3011414,69.9653094 24.660178,69.9945324 24.9896469,70.0070565 C24.9558553,71.6477143 25.0614543,73.4303121 24.9389594,74.9833012 L24.4236363,74.9833012 C24.3011414,73.9145775 24.4025165,72.6120705 24.3687248,71.4389792 Z" id="Shape" fill="#0769B3"></path>
                    <path d="M31.6477524,70.0668698 L31.6477524,73.5273798 C31.6983819,73.669478 31.7785454,73.4187164 31.8080793,73.3685641 C31.9177766,73.3685641 31.9135574,73.2264659 31.9684061,73.1595961 C32.1160756,73.042574 32.1667051,72.8294267 32.3396893,72.7416601 C32.5298576,72.4126683 32.7427264,72.097073 32.9767776,71.7971248 C33.4324434,71.2203731 33.8416988,70.5934691 34.2973645,70.0125381 L34.9344528,70.0125381 C35.0218491,71.6720088 35.0218491,73.3348644 34.9344528,74.9943351 L34.4028427,74.9943351 C34.280488,73.8408318 34.4028427,72.461643 34.3479941,71.2329112 C34.3015837,71.1326065 34.3184602,71.2914222 34.2425159,71.2830635 C34.1665716,71.2747048 34.1961055,71.3750094 34.1370377,71.3875475 C34.1370377,71.521287 34.0399977,71.5714393 33.9767108,71.6508472 C33.8585753,71.8305596 33.7362206,72.0102721 33.6054276,72.1774465 C33.3691565,72.5368715 33.0822558,72.8461441 32.8670803,73.2264659 C32.5888716,73.5433934 32.3403265,73.8847195 32.1245138,74.2462297 C31.7574497,74.4760945 31.8038601,75.1155365 31.0655128,74.981797 C30.9781624,73.3223252 30.9781624,71.6594719 31.0655128,70 C31.2595927,70.0292555 31.533836,69.9665651 31.6477524,70.0668698 Z" id="Shape" fill="#0769B3"></path>
                </g>
            </g>
        </g>
    </g>
</svg>