<?xml version="1.0" encoding="UTF-8"?>
<svg width="96px" height="96px" viewBox="0 0 96 96" version="1.1" xmlns="http://www.w3.org/2000/svg" xmlns:xlink="http://www.w3.org/1999/xlink">
    <!-- Generator: Sketch 46.2 (44496) - http://www.bohemiancoding.com/sketch -->
    <title>Artboard</title>
    <desc>Created with Sketch.</desc>
    <defs></defs>
    <g id="Page-1" stroke="none" stroke-width="1" fill="none" fill-rule="evenodd">
        <g id="Artboard">
            <g id="ic-skrill">
                <g id="96" fill="#D8D8D8" opacity="0">
                    <rect id="Rectangle-4" x="0" y="0" width="96" height="96"></rect>
                </g>
                <g id="Group" transform="translate(10.000000, 29.000000)">
                    <path d="M60.436329,2.55408624 L66.7632671,1.4201232 L66.7632671,25.7437372 L60.436329,25.7437372 L60.436329,2.55408624 Z M76,25.7416016 L69.6687984,25.7416016 L69.6687984,2.55408624 L76,1.4201232 L76,25.7416016 Z M45.4269045,25.7416016 L39.0509368,25.7416016 L39.0509368,15.7302669 C39.0509368,10.5046407 42.0204196,7.87794661 47.8655896,7.68788501 C47.8655896,7.68788501 48.9186581,7.64731006 49.5432514,7.77971253 L49.5432514,12.9797125 C45.838326,13.1078439 45.4269045,14.4489528 45.4269045,17.5753593 L45.4269045,25.7416016 Z M27.0962639,25.7416016 L20.5668125,25.7416016 L20.5668125,2.71211499 L27.0962639,1.4201232 L27.0962639,14.1243532 C29.5477393,11.1538398 30.5603052,8.28583162 30.7009985,7.9313347 L38.166274,7.9313347 C37.9531022,8.61256674 36.6207786,12.7234497 33.5830809,16.5802053 C33.5830809,16.5802053 36.9682486,22.5233676 37.7420622,25.7437372 L29.9229216,25.7437372 C29.9229216,25.7437372 28.9870975,21.4641478 27.0962639,18.626037 L27.0962639,25.7416016 L27.0962639,25.7416016 Z M51.4767194,3.12427105 C51.4767194,1.39876797 52.8687311,0 54.591159,0 C56.3157186,0 57.709862,1.39876797 57.709862,3.12427105 C57.709862,4.84977413 56.3157186,6.24640657 54.591159,6.24640657 C52.8708628,6.24640657 51.4767194,4.8476386 51.4767194,3.12427105 Z M57.7567598,25.7416016 L51.4319533,25.7416016 L51.4319533,7.95055441 L57.7567598,7.95055441 L57.7567598,25.7416016 Z M18.9765511,18.1626283 C18.9765511,22.06423 15.8535847,26 8.880736,26 C5.64905195,26 2.89274094,25.6839425 0.445529003,25.0368789 L0.445529003,19.356386 C2.07842477,20.0248049 4.77078425,20.7359343 7.544149,20.7359343 C10.0723662,20.7359343 11.5794906,19.894538 11.5794906,18.4701437 C11.5794906,16.7446407 9.73981824,16.64 9.04700999,16.5972895 C0.878267699,16.0399179 0,11.2008214 0,9.14644764 C0,5.58225873 2.52821721,1.4201232 9.65881297,1.4201232 C13.7922136,1.4201232 16.0241221,2.06718686 17.9447997,2.7398768 L18.0449905,2.76977413 L18.0449905,8.21322382 L18.0449905,8.28583162 L17.9746438,8.26661191 C17.2008302,7.93774127 16.2927185,7.61741273 16.2927185,7.61741273 C14.6683496,7.12837782 12.3916751,6.60944559 10.6351397,6.60944559 C9.63536407,6.60944559 6.97071693,6.60944559 6.97071693,8.62324435 C6.97071693,10.2932238 8.81891619,10.4128131 9.61831033,10.4662012 C15.4826658,10.8612731 18.9765511,13.7378234 18.9765511,18.1626283 Z" id="Shape" fill="#852265" fill-rule="nonzero"></path>
                    <text id="moneybookers" font-family="Verdana-Bold, Verdana" font-size="9" font-weight="bold" fill="#000000">
                        <tspan x="1" y="36">moneybookers</tspan>
                    </text>
                </g>
            </g>
        </g>
    </g>
</svg>