<?xml version="1.0" encoding="UTF-8"?>
<svg width="96px" height="96px" viewBox="0 0 96 96" version="1.1" xmlns="http://www.w3.org/2000/svg" xmlns:xlink="http://www.w3.org/1999/xlink">
    <!-- Generator: Sketch 46.2 (44496) - http://www.bohemiancoding.com/sketch -->
    <title>Artboard</title>
    <desc>Created with Sketch.</desc>
    <defs></defs>
    <g id="Page-1" stroke="none" stroke-width="1" fill="none" fill-rule="evenodd">
        <g id="Artboard">
            <g id="ic-union-pay">
                <g id="96" fill="#D8D8D8" opacity="0">
                    <rect id="Rectangle-4" x="0" y="0" width="96" height="96"></rect>
                </g>
                <g id="union-pay" transform="translate(11.000000, 24.000000)" fill-rule="nonzero">
                    <path d="M71.2631757,0.121114865 L52.8263514,0.116300676 L52.8212838,0.116300676 C52.8068412,0.116300676 52.7931588,0.118834459 52.779223,0.118834459 C50.2464527,0.196368243 47.0916385,2.22795608 46.5172297,4.73285473 L37.7982264,43.3130068 C37.2235642,45.8414696 38.786402,47.8986486 41.3009291,47.936402 L60.6699324,47.936402 C63.1456926,47.8140203 65.5522804,45.8057432 66.1168074,43.329223 L74.8363176,4.74881757 C75.4201014,2.19501689 73.8197635,0.121114865 71.2631757,0.121114865" id="Shape" fill="#01798A"></path>
                    <path d="M37.7984797,43.3127534 L46.5174831,4.73260135 C47.0918919,2.2277027 50.2467061,0.196114865 52.7794764,0.118581081 L45.4487331,0.11402027 L32.2413851,0.111486486 C29.7015203,0.163429054 26.5059122,2.20920608 25.9315034,4.73285473 L17.2099662,43.3127534 C16.633277,45.8412162 18.1986486,47.8983953 20.711402,47.9361486 L41.3011824,47.9361486 C38.7866554,47.8983953 37.2238176,45.8412162 37.7984797,43.3127534" id="Shape" fill="#024381"></path>
                    <path d="M17.2099662,43.3127534 L25.9315034,4.73260135 C26.5059122,2.2089527 29.7015203,0.163175676 32.2413851,0.111233108 L15.3220439,0.106925676 C12.7679899,0.106925676 9.4933277,2.17626689 8.90954392,4.73260135 L0.188006757,43.3127534 C0.135050676,43.5481419 0.105405405,43.7789696 0.0879222973,44.0044764 L0.0879222973,44.7200169 C0.258699324,46.5630912 1.66621622,47.9052365 3.68944257,47.9358953 L20.711402,47.9358953 C18.1986486,47.8983953 16.633277,45.8412162 17.2099662,43.3127534" id="Shape" fill="#DD0228"></path>
                    <path d="M32.5981419,28.2235642 L32.9184122,28.2235642 C33.2125845,28.2235642 33.410473,28.1244932 33.5034628,27.9291385 L34.3355574,26.6840372 L36.5635135,26.6840372 L36.0990709,27.5029561 L38.7704392,27.5029561 L38.4314189,28.7579392 L35.2525338,28.7579392 C34.886402,29.3087838 34.4356419,29.5674831 33.8939189,29.5368243 L32.2380912,29.5368243 L32.5981419,28.2235642 L32.5981419,28.2235642 Z M32.2322635,30.0217905 L38.0855574,30.0217905 L37.7123311,31.3849662 L35.3581926,31.3849662 L34.9991554,32.7005068 L37.2896959,32.7005068 L36.916723,34.0636824 L34.6261824,34.0636824 L34.0940878,36.0078547 C33.9623311,36.3329392 34.1356419,36.4788851 34.6109797,36.4459459 L36.4776182,36.4459459 L36.1317568,37.7128378 L32.5477196,37.7128378 C31.8684122,37.7128378 31.6353041,37.3241554 31.8483953,36.5450169 L32.5287162,34.0639358 L31.0646959,34.0639358 L31.4366554,32.7007601 L32.9009291,32.7007601 L33.2599662,31.3852196 L31.8603041,31.3852196 L32.2322635,30.0217905 L32.2322635,30.0217905 Z M41.5743243,26.6744088 L41.482348,27.4725507 C41.482348,27.4725507 42.5863176,26.64375 43.5889358,26.64375 L47.2940878,26.64375 L45.8771959,31.7731419 C45.7596284,32.3594595 45.2556588,32.651098 44.3657939,32.651098 L40.1660473,32.651098 L39.1824324,36.2528716 C39.1254223,36.4459459 39.2057432,36.5447635 39.4175676,36.5447635 L40.2440878,36.5447635 L39.9402872,37.6629223 L37.839527,37.6629223 C37.033277,37.6629223 36.6978041,37.4204392 36.8308277,36.9331926 L39.6106419,26.6744088 L41.5743243,26.6744088 L41.5743243,26.6744088 Z M44.7121622,28.1244932 L41.4048142,28.1244932 L41.0090372,29.5086993 C41.0090372,29.5086993 41.5598818,29.1111486 42.4804054,29.0969595 C43.3983953,29.0825169 44.4461149,29.0969595 44.4461149,29.0969595 L44.7121622,28.1244932 Z M43.5136824,31.3353041 C43.7581926,31.3684966 43.8952703,31.2719595 43.9114865,31.0434122 L44.1139358,30.3139358 L40.8017736,30.3139358 L40.5240709,31.3353041 L43.5136824,31.3353041 Z M41.2798986,32.992652 L43.1891047,32.992652 L43.1533784,33.8189189 L43.6616554,33.8189189 C43.9185811,33.8189189 44.0460304,33.7365709 44.0460304,33.5741554 L44.1965372,33.0397804 L45.7834459,33.0397804 L45.5716216,33.8189189 C45.3922297,34.4685811 44.9171453,34.8076014 44.144848,34.8407939 L43.1277872,34.8407939 L43.122973,36.2528716 C43.1044764,36.4791385 43.3086993,36.5944257 43.7300676,36.5944257 L44.6858108,36.5944257 L44.3774493,37.7128378 L42.0846284,37.7128378 C41.4418074,37.7432432 41.1266047,37.4371622 41.1334459,36.7875 L41.2798986,32.992652 L41.2798986,32.992652 Z M18.1444257,19.8407939 C17.885473,21.1097128 17.2852196,22.0842061 16.3540541,22.7761824 C15.43125,23.4565034 14.2413851,23.7978041 12.7842061,23.7978041 C11.4129223,23.7978041 10.4077703,23.4494088 9.76621622,22.7503378 C9.32128378,22.2537162 9.10008446,21.6228041 9.10008446,20.8601351 C9.10008446,20.5446791 9.13783784,20.2056588 9.21309122,19.8410473 L10.7655405,12.3554899 L13.1100507,12.3554899 L11.5791385,19.7559122 C11.5353468,19.9417919 11.5140791,20.1322655 11.5157939,20.3232264 C11.5132601,20.7022804 11.6075169,21.0129223 11.7980574,21.2554054 C12.0757601,21.6157095 12.5265203,21.7943412 13.1541385,21.7943412 C13.8755068,21.7943412 14.4699324,21.6179899 14.9313345,21.2622466 C15.3927365,20.9090372 15.6940034,20.4078547 15.8293074,19.7556588 L17.3652872,12.3547297 L19.6981419,12.3547297 L18.1444257,19.8407939 L18.1444257,19.8407939 Z M27.9912162,16.895777 L29.8274493,16.895777 L28.3890203,23.5766047 L26.5563345,23.5766047 L27.9912162,16.895777 L27.9912162,16.895777 Z M28.5691723,14.4618243 L30.421875,14.4618243 L30.0757601,16.0834459 L28.2233108,16.0834459 L28.5691723,14.4618243 L28.5691723,14.4618243 Z M31.4528716,23.0680743 C30.9724662,22.6089527 30.7299831,21.9899493 30.7277027,21.2037162 C30.7277027,21.0694257 30.7358108,20.9166385 30.7538007,20.7494088 C30.7715372,20.5798986 30.7938345,20.4152027 30.8255068,20.2621622 C31.0431588,19.1769426 31.5070946,18.3154561 32.2213682,17.6797297 C32.9346284,17.041723 33.7951014,16.7217061 34.8027872,16.7217061 C35.6277872,16.7217061 36.2822635,16.9525338 36.761402,17.4136824 C37.2402872,17.8776182 37.4802365,18.5034628 37.4802365,19.2993243 C37.4802365,19.4356419 37.469848,19.5934966 37.4521115,19.7630068 C37.4315216,19.9301085 37.4060037,20.0965662 37.3755912,20.2621622 C37.1627534,21.3309122 36.7003378,22.1830236 35.9858108,22.8068412 C35.2712838,23.4352196 34.4130912,23.7481419 33.4127534,23.7481419 C32.5842061,23.7483953 31.9320101,23.5223818 31.4528716,23.0680743 L31.4528716,23.0680743 Z M34.9522804,21.7451858 C35.276098,21.3945101 35.5076858,20.8624155 35.6490709,20.1539696 C35.6703547,20.0432432 35.6891047,19.9279561 35.7007601,19.8126689 C35.7124155,19.6996622 35.7172297,19.59375 35.7172297,19.4972128 C35.7172297,19.0852196 35.6123311,18.7652027 35.4017736,18.5391892 C35.1924831,18.3108953 34.8947635,18.1978885 34.5098818,18.1978885 C34.0013514,18.1978885 33.5868243,18.3765203 33.2622466,18.7345439 C32.9348818,19.0925676 32.7027872,19.6337838 32.5568412,20.3541385 C32.5368243,20.4648649 32.5203547,20.5755912 32.505152,20.6837838 C32.4934966,20.7945101 32.4899493,20.8978885 32.4922297,20.9921453 C32.4922297,21.4018581 32.5971284,21.7173142 32.8076858,21.9407939 C33.0172297,22.164527 33.3136824,22.275 33.7033784,22.275 C34.2144426,22.2747466 34.6284628,22.0981419 34.9522804,21.7451858 L34.9522804,21.7451858 Z" id="Shape" fill="#FFFFFF"></path>
                    <path d="M52.8215372,0.11852027 L45.4487331,0.11402027 L52.7794764,0.12352027 C52.7931588,0.12352027 52.8070946,0.11852027 52.8215372,0.11852027" id="Shape" fill="#E02F41"></path>
                    <path d="M45.4487331,0.120925676 L32.3427365,0.106925676 C32.3097973,0.106925676 32.2755912,0.111425676 32.2413851,0.115925676 L45.4487331,0.120925676" id="Shape" fill="#2E4F7D"></path>
                    <path d="M49.3940878,28.2798142 L49.8367399,26.7215372 L52.0755912,26.7215372 L51.9790541,27.2936655 C51.9790541,27.2936655 53.1228041,26.7215372 53.9467905,26.7215372 L56.7149493,26.7215372 L56.2750845,28.2798142 L55.839527,28.2798142 L53.7514358,35.6293074 L54.1869932,35.6293074 L53.7727196,37.0887669 L53.3371622,37.0887669 L53.1559966,37.7219595 L50.9878378,37.7219595 L51.16875,37.0887669 L46.891723,37.0887669 L47.3085304,35.6293074 L47.7369932,35.6293074 L49.8271115,28.2798142 L49.3940878,28.2798142 L49.3940878,28.2798142 Z M51.8095439,28.2798142 L51.2399493,30.2688345 C51.2399493,30.2688345 52.2149493,29.8945946 53.055152,29.7886824 C53.240625,29.0944257 53.4831081,28.2798142 53.4831081,28.2798142 L51.8095439,28.2798142 Z M50.9761824,31.2012669 L50.4043074,33.2847973 C50.4043074,33.2847973 51.4847128,32.7527027 52.226098,32.7081081 C52.4402027,31.9028716 52.6545608,31.2015203 52.6545608,31.2015203 L50.9761824,31.2015203 L50.9761824,31.2012669 Z M51.3950169,35.6293074 L51.8232264,34.1179054 L50.1524493,34.1179054 L49.7214527,35.6293074 L51.3950169,35.6293074 Z M56.8092061,26.625 L58.9140203,26.625 L59.0034628,27.4016047 C58.9892736,27.5992399 59.1070946,27.69375 59.3566723,27.69375 L59.7286318,27.69375 L59.3523649,29.0092905 L57.8054899,29.0092905 C57.2151182,29.0396959 56.9113176,28.8139358 56.8829392,28.3266892 L56.8092061,26.625 Z M56.1924831,29.4476351 L63.0096284,29.4476351 L62.6095439,30.8602196 L60.4391047,30.8602196 L60.0668919,32.1734797 L62.2355574,32.1734797 L61.8326858,33.5835304 L59.4177365,33.5835304 L58.8714527,34.4100507 L60.0537162,34.4100507 L60.3266047,36.0648649 C60.3590372,36.2295608 60.5049831,36.3096284 60.7548142,36.3096284 L61.1217061,36.3096284 L60.7360642,37.6722973 L59.4364865,37.6722973 C58.7630068,37.7054899 58.4151182,37.4794764 58.3864865,36.9922297 L58.0733108,35.4808277 L56.9977196,37.0887669 C56.7433277,37.5430743 56.3523649,37.7548986 55.8253378,37.7219595 L53.8408784,37.7219595 L54.2267736,36.3587838 L54.8460304,36.3587838 C55.1004223,36.3587838 55.3119932,36.2460304 55.5025338,36.0174831 L57.1862331,33.5835304 L55.0157939,33.5835304 L55.4181588,32.1734797 L57.7722973,32.1734797 L58.1465372,30.8602196 L55.7903716,30.8602196 L56.1924831,29.4476351 L56.1924831,29.4476351 Z M20.304223,16.8934966 L21.9603041,16.8934966 L21.770777,17.8586149 L22.0084459,17.5831926 C22.5453547,17.0087838 23.1972973,16.7239865 23.9670608,16.7239865 C24.6638514,16.7239865 25.1663007,16.9264358 25.4820101,17.3336149 C25.792652,17.7407939 25.8775338,18.3035473 25.7303209,19.0261824 L24.8179054,23.5788851 L23.1159628,23.5788851 L23.9396959,19.4523649 C24.0245777,19.0261824 24.0010135,18.7084459 23.8702703,18.5034628 C23.7410473,18.2987331 23.49375,18.1976351 23.1369932,18.1976351 C22.6991554,18.1976351 22.3307432,18.3339527 22.0304899,18.6048142 C21.729223,18.8779561 21.5303209,19.2570101 21.4325169,19.7394426 L20.6733953,23.5788851 L18.9679054,23.5788851 L20.304223,16.8934966 L20.304223,16.8934966 Z M39.2951858,16.8934966 L40.9527872,16.8934966 L40.764527,17.8586149 L40.9994088,17.5831926 C41.5368243,17.0087838 42.1910473,16.7239865 42.9585304,16.7239865 C43.6553209,16.7239865 44.1585304,16.9264358 44.4719595,17.3336149 C44.7808277,17.7407939 44.8697635,18.3035473 44.7192568,19.0261824 L43.8103885,23.5788851 L42.1061655,23.5788851 L42.9304054,19.4523649 C43.0150338,19.0261824 42.9912162,18.7084459 42.8617399,18.5034628 C42.7274493,18.2987331 42.4849662,18.1976351 42.1297297,18.1976351 C41.6916385,18.1976351 41.3247466,18.3339527 41.0209459,18.6048142 C40.7196791,18.8779561 40.5195101,19.2570101 40.4255068,19.7394426 L39.6625845,23.5788851 L37.959375,23.5788851 L39.2951858,16.8934966 L39.2951858,16.8934966 Z M47.4876689,12.7502534 L52.2993243,12.7502534 C53.2241554,12.7502534 53.9399493,12.9597973 54.4317568,13.3715372 C54.9212838,13.788598 55.1663007,14.3863176 55.1663007,15.1654561 L55.1663007,15.1890203 C55.1663007,15.3372466 55.1566723,15.5044764 55.1424831,15.6856419 C55.1179904,15.8696034 55.0866341,16.0525857 55.0484797,16.2342061 C54.836402,17.2652027 54.3445946,18.0940034 53.5844595,18.7223818 C52.8212838,19.3484797 51.9177365,19.6639358 50.8773649,19.6639358 L48.2969595,19.6639358 L47.4990709,23.5786318 L45.2650338,23.5786318 L47.4876689,12.7502534 L47.4876689,12.7502534 Z M48.6902027,17.7810811 L50.8299831,17.7810811 C51.3876689,17.7810811 51.8303209,17.6513514 52.1533784,17.3949324 C52.4736486,17.1359797 52.685473,16.7404561 52.8025338,16.2038007 C52.8212838,16.1047297 52.8331926,16.0152872 52.8473818,15.9329392 C52.8544764,15.8554054 52.8638514,15.7773649 52.8638514,15.7023649 C52.8638514,15.3184966 52.7275338,15.0407939 52.4541385,14.8664696 C52.18125,14.6896115 51.7527872,14.6052365 51.1596284,14.6052365 L49.3423986,14.6052365 L48.6902027,17.7810811 L48.6902027,17.7810811 Z M65.1661318,24.8713682 C64.4597128,26.3731419 63.7867399,27.2485642 63.3914696,27.6557432 C62.9956926,28.0586149 62.2117399,28.9953547 60.3238176,28.9246622 L60.4867399,27.7786318 C62.0754223,27.2888514 62.934375,25.0829392 63.4244088,24.1061655 L62.8403716,16.9122466 L64.0692568,16.895777 L65.1002534,16.895777 L65.2112331,21.4084459 L67.1434966,16.895777 L69.1000845,16.895777 L65.1661318,24.8713682 L65.1661318,24.8713682 Z M59.6956926,17.439527 L58.9185811,17.973902 C58.1065034,17.3384291 57.3651182,16.9451858 55.9340372,17.6090372 C53.9847973,18.5128378 52.3558277,25.445777 57.7231419,23.1623311 L58.0289696,23.5249155 L60.140625,23.5791385 L61.5273649,17.2796453 L59.6956926,17.439527 L59.6956926,17.439527 Z M58.4946791,20.8834459 C58.1556588,21.8840372 57.3980574,22.5453547 56.8046453,22.3570946 C56.2114865,22.1733953 55.9994088,21.208277 56.3434966,20.2054054 C56.6825169,19.2025338 57.4451858,18.5434966 58.0335304,18.7317568 C58.6266892,18.9154561 58.8407939,19.8805743 58.4946791,20.8834459 L58.4946791,20.8834459 Z" id="Shape" fill="#FFFFFF"></path>
                </g>
            </g>
        </g>
    </g>
</svg>