<?xml version="1.0" encoding="UTF-8"?>
<svg width="96px" height="96px" viewBox="0 0 96 96" version="1.1" xmlns="http://www.w3.org/2000/svg" xmlns:xlink="http://www.w3.org/1999/xlink">
    <!-- Generator: Sketch 46.2 (44496) - http://www.bohemiancoding.com/sketch -->
    <title>Artboard</title>
    <desc>Created with Sketch.</desc>
    <defs></defs>
    <g id="Page-1" stroke="none" stroke-width="1" fill="none" fill-rule="evenodd">
        <g id="Artboard">
            <g id="ic-ukash">
                <g id="96" fill="#D8D8D8" opacity="0">
                    <rect id="Rectangle-4" x="0" y="0" width="96" height="96"></rect>
                </g>
                <g id="Group" transform="translate(10.000000, 33.000000)">
                    <g id="registered" transform="translate(72.000000, 6.000000)" stroke="#000000" stroke-width="0.1" fill="#000000" fill-rule="nonzero">
                        <path d="M1.59588975,0 C0.714530948,0 0,0.714530948 0,1.59574468 C0,2.47695841 0.714530948,3.19148936 1.59588975,3.19148936 C2.47717602,3.19148936 3.19148936,2.47695841 3.19148936,1.59574468 C3.19148936,0.714530948 2.47717602,0 1.59588975,0 Z M1.59588975,3.0462766 C0.794535783,3.0462766 0.144850097,2.39702611 0.144850097,1.59574468 C0.144850097,0.79446325 0.794535783,0.145212766 1.59588975,0.145212766 C2.39688104,0.145212766 3.04656673,0.79446325 3.04656673,1.59574468 C3.04656673,2.39702611 2.39688104,3.0462766 1.59588975,3.0462766 Z M2.21039652,2.23737911 L2.21039652,2.06264507 C2.21039652,1.95050774 2.18500967,1.85722921 2.13452611,1.78295455 C2.08375242,1.70860735 2.00113636,1.65696325 1.88631528,1.62794971 C1.99018375,1.59226306 2.07047872,1.53561412 2.12741779,1.45764023 C2.18435687,1.38002901 2.2127176,1.29182785 2.2127176,1.19318182 C2.2127176,1.02584623 2.15955029,0.898331721 2.05336074,0.811291103 C1.94709865,0.724250484 1.79455996,0.680512573 1.59552708,0.680512573 L0.967166344,0.680512573 L0.967166344,2.5356383 L1.11890716,2.5356383 L1.11890716,1.6967118 L1.63897485,1.6967118 C1.77084139,1.6967118 1.87362186,1.72978723 1.94709865,1.79557544 C2.02064797,1.86165377 2.0571325,1.95137814 2.0571325,2.06532882 L2.0571325,2.23505803 C2.0571325,2.29431818 2.06366054,2.35183752 2.07635397,2.40710832 C2.08904739,2.46230658 2.11117021,2.50510155 2.14279497,2.53571083 L2.29838008,2.53571083 L2.29838008,2.50502901 C2.26675532,2.47616054 2.24434236,2.43895068 2.230706,2.39289168 C2.21714217,2.34712282 2.21039652,2.29526112 2.21039652,2.23737911 Z M1.57666828,1.56687621 L1.11883462,1.56687621 L1.11883462,0.810710832 L1.59545455,0.810710832 C1.75132979,0.810710832 1.86731141,0.843786267 1.94441489,0.909574468 C2.02137331,0.975362669 2.05981625,1.06951161 2.05981625,1.19202128 C2.05981625,1.30684236 2.02115571,1.39772727 1.94376209,1.46532882 C1.86651354,1.53293037 1.74400387,1.56687621 1.57666828,1.56687621 Z" id="Shape"></path>
                    </g>
                    <g id="ukash-logo" fill-rule="nonzero" fill="#A71514">
                        <path d="M26.717149,12.4285057 C27.0220673,17.6628736 25.2766731,22.124023 21.7280553,25.8725287 C19.7162957,27.9962069 17.2944736,29.4624713 14.4555793,30.1448276 C13.7300841,30.3194253 12.9765505,30.3746552 12.2370361,30.4833333 C12.2002356,30.4868966 12.1634351,30.5011494 12.1266346,30.5171839 C11.7323438,30.5171839 11.3380529,30.5171839 10.9420096,30.5171839 C10.6861587,30.4833333 10.4285553,30.4548276 10.1727043,30.420977 C8.14517308,30.1804598 6.30339663,29.4535632 4.6929375,28.1761494 C2.02753125,26.0595977 0.643132212,23.2036782 0.147201923,19.8560345 C0.0858677885,19.4462644 0.0473149038,19.032931 0,18.6213793 C0,18.0263218 0,17.4312644 0,16.8397701 C0.0122668269,16.8023563 0.0297908654,16.7667241 0.0350480769,16.7275287 C0.0946298077,16.1948276 0.119163462,15.655 0.212040865,15.1276437 C0.97959375,10.6878736 3.04392548,7.00350575 6.49616106,4.15649425 C8.45184375,2.54235632 10.6686346,1.46626437 13.1675625,1.03511494 C13.6074159,0.960287356 14.0542788,0.910402299 14.497637,0.849827586 C14.9865577,0.849827586 15.4772308,0.849827586 15.9661514,0.849827586 C16.4025,0.912183908 16.8423534,0.956724138 17.2734447,1.03867816 C20.8465962,1.72281609 23.4699447,3.73603448 25.1960625,6.96609195 C26.1055601,8.66752874 26.6032428,10.5008046 26.717149,12.4285057 Z M21.6404351,8.14908046 C21.4984904,8.10632184 21.3460313,8.08672414 21.1988293,8.08672414 C20.2753125,8.08850575 19.3517957,8.10275862 18.4282788,8.10097701 C18.2214952,8.10097701 18.1356274,8.1758046 18.0935697,8.37712644 C17.5573341,11.0121264 17.022851,13.648908 16.4725962,16.2821264 C16.2623077,17.2833908 16.055524,18.2917816 15.6296899,19.228908 C15.300238,19.9504598 14.8235841,20.5312644 14.0718029,20.8252299 C13.3463077,21.1067241 12.5945264,21.153046 11.837488,20.9927011 C10.8806755,20.7967241 10.1621899,20.1161494 10.2831058,18.9046552 C10.2953726,18.7799425 10.2936202,18.6463218 10.3181538,18.5216092 C10.488137,17.6664368 10.6563678,16.8094828 10.8386178,15.9578736 C11.3205288,13.7023563 11.8112019,11.4504023 12.2913606,9.19488506 C12.4368101,8.50896552 12.1056058,8.10632184 11.4151587,8.10275862 C10.9560288,8.0991954 10.5004038,8.10275862 10.041274,8.10097701 C9.55936298,8.10097701 9.07745192,8.10632184 8.59729327,8.0991954 C8.40102404,8.09563218 8.32216587,8.17402299 8.28186058,8.36643678 C7.78593029,10.7092529 7.27598077,13.0467241 6.78530769,15.3895402 C6.48214183,16.8362069 6.105375,18.2739655 6.10187019,19.7740805 C6.10011779,20.5116667 6.22804327,21.2118391 6.58728606,21.8532184 C7.18836058,22.9328736 8.12589663,23.600977 9.2474351,24.016092 C11.2469279,24.7465517 13.286726,24.7216092 15.3335337,24.2637356 C16.9229639,23.910977 18.1864471,23.0558046 19.0328582,21.6162644 C19.5060072,20.810977 19.8354591,19.9433333 20.0439952,19.032931 C20.4225144,17.3795977 20.767738,15.7173563 21.1164663,14.0568966 C21.4704519,12.3714943 21.8139231,10.6843103 22.1538894,8.99712644 C22.2327476,8.57310345 22.0469928,8.27022989 21.6404351,8.14908046 Z M23.5645745,5.55149425 C22.1205938,3.23183908 19.674238,2.12367816 18.1846947,1.79586207 C17.6677356,1.63908046 17.0421274,1.55 16.4638341,1.50189655 C14.9304808,1.37362069 13.4251659,1.55 11.9601563,2.04172414 C8.92674519,3.05902299 6.52945673,4.95643678 4.65087981,7.55224138 C4.25133173,8.10454023 3.90435577,8.69425287 3.53284615,9.26793103 C3.553875,9.28396552 3.57665625,9.3 3.5976851,9.31425287 C3.6467524,9.2412069 3.69757212,9.16994253 3.74488702,9.09689655 C5.27999279,6.71844828 7.27948558,4.85844828 9.80645192,3.61844828 C12.3912476,2.34994253 15.0952067,1.9187931 17.9270913,2.55482759 C18.4458029,2.67063218 21.1287332,3.61132184 23.5645745,5.55149425 Z" id="Shape"></path>
                    </g>
                    <text id="kash" font-family="Roboto-BoldItalic, Roboto" font-size="20" font-style="italic" font-weight="bold" fill="#000000">
                        <tspan x="30" y="22">kash</tspan>
                    </text>
                </g>
            </g>
        </g>
    </g>
</svg>