<?xml version="1.0" encoding="UTF-8"?>
<svg width="96px" height="96px" viewBox="0 0 96 96" version="1.1" xmlns="http://www.w3.org/2000/svg" xmlns:xlink="http://www.w3.org/1999/xlink">
    <!-- Generator: Sketch 46.2 (44496) - http://www.bohemiancoding.com/sketch -->
    <title>Artboard</title>
    <desc>Created with Sketch.</desc>
    <defs></defs>
    <g id="Page-1" stroke="none" stroke-width="1" fill="none" fill-rule="evenodd">
        <g id="Artboard">
            <g id="ic-visa">
                <g id="96" fill="#D8D8D8" opacity="0">
                    <rect id="Rectangle-4" x="0" y="0" width="96" height="96"></rect>
                </g>
                <g id="visa" transform="translate(10.000000, 36.000000)" fill-rule="nonzero">
                    <polygon id="Shape" fill="#3C58BF" points="27.5047619 22.2359926 31.3149454 0.803710575 37.268357 0.803710575 33.5772418 22.2359926"></polygon>
                    <polygon id="Shape" fill="#293688" points="27.5047619 22.2359926 32.3865595 0.803710575 37.268357 0.803710575 33.5772418 22.2359926"></polygon>
                    <path d="M55.128592,1.04184704 C53.9379097,0.565574108 52.032818,0.089301175 49.6514533,0.089301175 C43.6980416,0.089301175 39.4115852,3.06600701 39.4115852,7.35246341 C39.4115852,10.5673057 42.3882911,12.234261 44.7696557,13.3058751 C47.1510204,14.3774892 47.8654298,15.0918986 47.8654298,16.0444444 C47.8654298,17.4732632 45.9603381,18.1876726 44.2933828,18.1876726 C41.9120181,18.1876726 40.6022676,17.8304679 38.5781076,16.9969903 L37.74463,16.6397856 L36.9111523,21.5215832 C38.3399711,22.1169243 40.9594723,22.7122655 43.6980416,22.7122655 C50.008658,22.7122655 54.1760462,19.7355597 54.1760462,15.2109668 C54.1760462,12.7105339 52.6281591,10.8054422 49.0561121,9.25755514 C46.9128839,8.18594104 45.6031334,7.59059988 45.6031334,6.51898578 C45.6031334,5.56643991 46.6747475,4.61389404 49.0561121,4.61389404 C51.0802721,4.61389404 52.5090909,4.97109874 53.580705,5.44737168 L54.1760462,5.68550814 L55.128592,1.04184704 L55.128592,1.04184704 Z" id="Shape" fill="#3C58BF"></path>
                    <path d="M55.128592,1.04184704 C53.9379097,0.565574108 52.032818,0.089301175 49.6514533,0.089301175 C43.6980416,0.089301175 40.4831993,3.06600701 40.4831993,7.35246341 C40.4831993,10.5673057 42.3882911,12.234261 44.7696557,13.3058751 C47.1510204,14.3774892 47.8654298,15.0918986 47.8654298,16.0444444 C47.8654298,17.4732632 45.9603381,18.1876726 44.2933828,18.1876726 C41.9120181,18.1876726 40.6022676,17.8304679 38.5781076,16.9969903 L37.74463,16.6397856 L36.9111523,21.5215832 C38.3399711,22.1169243 40.9594723,22.7122655 43.6980416,22.7122655 C50.008658,22.7122655 54.1760462,19.7355597 54.1760462,15.2109668 C54.1760462,12.7105339 52.6281591,10.8054422 49.0561121,9.25755514 C46.9128839,8.18594104 45.6031334,7.59059988 45.6031334,6.51898578 C45.6031334,5.56643991 46.6747475,4.61389404 49.0561121,4.61389404 C51.0802721,4.61389404 52.5090909,4.97109874 53.580705,5.44737168 L54.1760462,5.68550814 L55.128592,1.04184704 L55.128592,1.04184704 Z" id="Shape" fill="#293688"></path>
                    <path d="M65.3684601,0.803710575 C63.9396413,0.803710575 62.8680272,0.922778808 62.272686,2.35159761 L53.3425685,22.2359926 L59.7722531,22.2359926 L60.9629355,18.6639456 L68.5833024,18.6639456 L69.2977118,22.2359926 L75.012987,22.2359926 L70.0121212,0.803710575 L65.3684601,0.803710575 Z M62.6298907,15.0918986 C62.9870954,14.0202845 65.0112554,8.78128221 65.0112554,8.78128221 C65.0112554,8.78128221 65.4875283,7.47153164 65.844733,6.63805401 L66.2019377,8.66221398 C66.2019377,8.66221398 67.3926201,14.0202845 67.6307565,15.2109668 L62.6298907,15.2109668 L62.6298907,15.0918986 Z" id="Shape" fill="#3C58BF"></path>
                    <path d="M66.7972789,0.803710575 C65.3684601,0.803710575 64.296846,0.922778808 63.7015048,2.35159761 L53.3425685,22.2359926 L59.7722531,22.2359926 L60.9629355,18.6639456 L68.5833024,18.6639456 L69.2977118,22.2359926 L75.012987,22.2359926 L70.0121212,0.803710575 L66.7972789,0.803710575 Z M62.6298907,15.0918986 C63.1061637,13.9012162 65.0112554,8.78128221 65.0112554,8.78128221 C65.0112554,8.78128221 65.4875283,7.47153164 65.844733,6.63805401 L66.2019377,8.66221398 C66.2019377,8.66221398 67.3926201,14.0202845 67.6307565,15.2109668 L62.6298907,15.2109668 L62.6298907,15.0918986 Z" id="Shape" fill="#293688"></path>
                    <path d="M16.5504844,15.806308 L15.9551433,12.7105339 C14.8835292,9.13848691 11.4305504,5.20923521 7.62036693,3.30414348 L12.9784374,22.3550608 L19.408122,22.3550608 L29.0526489,0.922778808 L22.6229643,0.922778808 L16.5504844,15.806308 Z" id="Shape" fill="#3C58BF"></path>
                    <path d="M16.5504844,15.806308 L15.9551433,12.7105339 C14.8835292,9.13848691 11.4305504,5.20923521 7.62036693,3.30414348 L12.9784374,22.3550608 L19.408122,22.3550608 L29.0526489,0.922778808 L23.8136467,0.922778808 L16.5504844,15.806308 Z" id="Shape" fill="#293688"></path>
                    <path d="M0,0.803710575 L1.0716141,1.04184704 C8.69198103,2.82787054 13.9309833,7.35246341 15.9551433,12.7105339 L13.8119151,2.58973408 C13.4547104,1.16091528 12.3830963,0.803710575 11.0733457,0.803710575 L0,0.803710575 L0,0.803710575 Z" id="Shape" fill="#FFBC00"></path>
                    <path d="M0,0.803710575 L0,0.803710575 C7.62036693,2.58973408 13.9309833,7.23339518 15.9551433,12.5914657 L13.9309833,4.13762111 C13.5737786,2.70880231 12.3830963,1.87532468 11.0733457,1.87532468 L0,0.803710575 Z" id="Shape" fill="#F7981D"></path>
                    <path d="M0,0.803710575 L0,0.803710575 C7.62036693,2.58973408 13.9309833,7.23339518 15.9551433,12.5914657 L14.5263245,7.94780458 C14.1691198,6.51898578 13.6928468,5.09016698 12.0258916,4.49482581 L0,0.803710575 Z" id="Shape" fill="#ED7C00"></path>
                </g>
            </g>
        </g>
    </g>
</svg>