<?xml version="1.0" encoding="UTF-8"?>
<svg width="96px" height="96px" viewBox="0 0 96 96" version="1.1" xmlns="http://www.w3.org/2000/svg" xmlns:xlink="http://www.w3.org/1999/xlink">
    <!-- Generator: Sketch 46.2 (44496) - http://www.bohemiancoding.com/sketch -->
    <title>Artboard</title>
    <desc>Created with Sketch.</desc>
    <defs>
        <polygon id="path-1" points="0.0217391304 25.4515897 0.0217391304 0.122384615 37.3298571 0.122384615 74.637975 0.122384615 74.637975 25.4515897 0.0217391304 25.4515897"></polygon>
    </defs>
    <g id="Page-1" stroke="none" stroke-width="1" fill="none" fill-rule="evenodd">
        <g id="Artboard">
            <g id="ic-verified-visa">
                <g id="96" fill="#D8D8D8" opacity="0">
                    <rect id="Rectangle-4" x="0" y="0" width="96" height="96"></rect>
                </g>
                <g id="verified-by-visa" transform="translate(11.000000, 27.000000)">
                    <path d="M63.9028986,28.6449829 C63.7992754,29.4884444 63.6626812,30.2984615 63.4938406,31.0750342 C62.7833333,30.840188 61.9630435,30.4631111 60.8054348,30.5417607 C60.1144928,30.5888034 59.2971014,30.8578291 59.2858696,31.4899658 C59.2735507,32.190094 60.407971,32.6064957 61.0391304,32.912641 C62.1771739,33.4650256 63.3985507,34.2011709 63.4938406,35.6988205 C63.5666667,36.850265 63.0398551,37.8521282 62.4416667,38.4258291 C60.848913,39.9528803 57.3148551,40.1142222 54.9028986,39.1373504 C55.0532609,38.321453 55.1898551,37.4915897 55.3123188,36.6473932 C56.2460145,37.0501966 57.5286232,37.5941282 58.9355072,37.4180855 C59.576087,37.3375983 60.3605072,36.9586838 60.3380435,36.292 C60.3101449,35.4783077 58.8130435,34.9942821 58.0586957,34.572735 C57.1822464,34.0828291 56.1847826,33.2676667 56.1300725,32.0236068 C56.0938406,31.1948462 56.4119565,30.418641 56.8315217,29.8897778 C58.0768116,28.3197265 61.2771739,27.7618291 63.9028986,28.6449829" id="Fill-1" fill="#344E90"></path>
                    <polyline id="Fill-2" fill="#344E90" points="35.2608696 12.7691624 38.482971 12.7691624 36.4992754 25.4515897 33.2768116 25.4515897 35.2608696 12.7691624"></polyline>
                    <path d="M26.9242754,15.290359 L26.4264493,18.4727265 L27.3583333,18.4727265 C28.2637681,18.4727265 29.1206522,17.7571624 29.2630435,16.881359 C29.4050725,16.0066581 28.7804348,15.290359 27.8746377,15.290359 L26.9242754,15.290359 Z M24.0963768,12.7684274 L29.0300725,12.7684274 C32.1688406,12.7684274 32.984058,14.6019915 32.6413043,16.7916838 C32.3554348,18.6208376 31.0597826,19.8413761 29.3775362,20.2754188 L32.5025362,25.4515897 L28.4572464,25.4515897 L26.1137681,20.4713077 L25.3347826,25.4515897 L22.1123188,25.4515897 L24.0963768,12.7684274 L24.0963768,12.7684274 Z" id="Fill-3" fill="#344E90"></path>
                    <polyline id="Fill-4" fill="#344E90" points="49.976087 12.7691624 53.1981884 12.7691624 51.2144928 25.4515897 47.992029 25.4515897 49.976087 12.7691624"></polyline>
                    <polyline id="Fill-5" fill="#344E90" points="55.6460145 12.7684274 62.7206522 12.7684274 62.2891304 15.5263077 58.4373188 15.5263077 58.0981884 17.6939487 61.7601449 17.6939487 61.3289855 20.451094 57.6666667 20.451094 57.315942 22.6940769 61.1681159 22.6940769 60.7365942 25.4515897 53.6623188 25.4515897 55.6460145 12.7684274"></polyline>
                    <polyline id="Fill-6" fill="#344E90" points="15.1061594 12.7684274 22.1804348 12.7684274 21.748913 15.5263077 17.8971014 15.5263077 17.557971 17.6939487 21.2199275 17.6939487 20.7887681 20.451094 17.1268116 20.451094 16.7757246 22.6940769 20.6278986 22.6940769 20.1967391 25.4515897 13.1221014 25.4515897 15.1061594 12.7684274"></polyline>
                    <g id="Group-11">
                        <mask id="mask-2" fill="white">
                            <use xlink:href="#path-1"></use>
                        </mask>
                        <g id="Clip-8"></g>
                        <polyline id="Fill-7" fill="#344E90" mask="url(#mask-2)" points="40.9231884 12.7684274 48.0768116 12.7684274 47.6456522 15.5263077 43.7137681 15.5263077 43.3695652 17.6939487 46.9471014 17.6939487 46.5141304 20.451094 42.9380435 20.451094 42.1557971 25.4515897 38.9387681 25.4515897 40.9231884 12.7684274"></polyline>
                        <path d="M67.4076087,15.5263077 C67.640942,15.5263077 67.8619565,15.5263077 68.0731884,15.5263077 C70.5362319,15.5263077 71.498913,17.2882051 71.2336957,18.988359 C70.8764493,21.2691966 69.2601449,22.6940769 67.1478261,22.6940769 C66.865942,22.6940769 66.5945652,22.6940769 66.2862319,22.6940769 L67.4076087,15.5263077 Z M64.6166667,12.7684274 L68.815942,12.7684274 C73.8188406,12.7684274 74.959058,16.6068205 74.567029,19.1133162 C74.0065217,22.6940769 70.8594203,25.4515897 66.8322464,25.4515897 L62.632971,25.4515897 L64.6166667,12.7684274 L64.6166667,12.7684274 Z" id="Fill-9" fill="#344E90" mask="url(#mask-2)"></path>
                        <path d="M0,11.0407094 L5.96086957,11.0407094 L6.66884058,20.2548376 C10.6126812,13.3303675 14.6213768,6.66720513 18.659058,0.122384615 L20.6028986,0.122384615 C16.3282609,8.48423077 12.107971,16.9001026 8.02028986,25.4515897 L3.6442029,25.4515897 L2.57753623,15.290359 C2.31268116,12.7684274 1.81050725,11.6978376 0,11.4266068 L0,11.0407094" id="Fill-10" fill="#344E90" mask="url(#mask-2)"></path>
                    </g>
                    <polyline id="Fill-12" fill="#EB902D" points="2.25688406 5.80095726 7.33913043 7.98623932 7.7807971 13.7272906 8.15652174 13.7272906 12.7699275 5.80463248 12.7699275 5.40697436 2.25615942 5.40697436 2.25688406 5.80095726"></polyline>
                    <path d="M23.1503623,28.4340256 L25.2358696,28.4340256 L24.532971,33.4326838 C25.1286232,32.8494274 25.8572464,32.4888889 26.6713768,32.4888889 C28.3445652,32.4888889 29.4416667,34.124359 29.1460145,36.1427863 C28.8503623,38.1612137 27.2728261,39.7985214 25.5996377,39.7985214 C24.7746377,39.7985214 24.1833333,39.4214444 23.7804348,38.7874701 L23.6692029,39.5802137 L21.5833333,39.5802137 L23.1503623,28.4340256 Z M25.7532609,34.5359829 C26.523913,34.5359829 27.0474638,35.2522821 26.9224638,36.1354359 C26.7978261,37.0178547 26.0721014,37.7337863 25.3018116,37.7337863 C24.5311594,37.7337863 24.0072464,37.0178547 24.1322464,36.1354359 C24.2568841,35.2522821 24.982971,34.5359829 25.7532609,34.5359829 L25.7532609,34.5359829 Z" id="Fill-13" fill="#344E90"></path>
                    <polyline id="Fill-14" fill="#344E90" points="29.325 32.6590513 31.8275362 32.6590513 32.9467391 36.2019573 35.1210145 32.6590513 37.5394928 32.6590513 31.1923913 43 28.7742754 43 31.4503623 38.639359 29.325 32.6590513"></polyline>
                    <polyline id="Fill-15" fill="#344E90" points="49.975 39.5765385 51.807971 28.4307179 54.8068841 28.4307179 52.973913 39.5765385 49.975 39.5765385"></polyline>
                    <path d="M47.4681159,28.4075641 C46.4344203,30.8762051 45.5525362,33.4992051 44.4880435,35.9362393 L44.1753623,34.4738718 C44.1742754,34.4687265 44.1717391,34.4617436 44.1706522,34.4562308 L44.2231884,34.7164359 C43.992029,33.9472137 43.598913,33.221359 43.0960145,32.5557778 C43.0826087,32.5388718 43.0695652,32.5215983 43.0557971,32.5043248 C42.9677536,32.3896581 42.8742754,32.2786667 42.7800725,32.1676752 C42.7228261,32.0996838 42.6641304,32.0324274 42.6043478,31.9651709 C41.8782609,31.1599316 40.9981884,30.4645812 40.0688406,29.9132991 L42.7347826,39.5522821 L45.948913,39.5522821 C47.4619565,35.7910684 49.0945652,32.1522393 50.623913,28.4075641 C49.5721014,28.4075641 48.5202899,28.4075641 47.4681159,28.4075641" id="Fill-16" fill="#344E90"></path>
                    <path d="M41.807971,28.4094017 L36.9054348,28.4094017 L36.9054348,28.6519658 C39.7275362,29.2102308 43.2905797,31.6116154 44.2231884,34.7164359 L43.1710145,29.5251966 C43.0271739,28.7251026 42.4778986,28.4094017 41.807971,28.4094017" id="Fill-17" fill="#EB902D"></path>
                    <path d="M69.4619565,31.4954786 L67.9347826,35.6396496 L70.4043478,35.6396496 L69.4619565,31.4954786 Z M74.0126812,39.611453 C73.0971014,39.611453 72.1815217,39.611453 71.265942,39.611453 C71.0884058,39.0800171 71.0387681,38.4192137 70.8568841,37.892188 C69.6105072,37.892188 68.3634058,37.892188 67.117029,37.892188 L66.4155797,39.611453 C65.3637681,39.611453 64.3115942,39.611453 63.2597826,39.611453 L67.3503623,30.0676581 C67.5311594,29.6486838 67.8561594,29.077188 67.9934783,28.8224957 C68.2014493,28.4365983 69.0054348,28.4075641 69.3471014,28.4075641 L71.6166667,28.4075641 L74.0126812,39.611453 L74.0126812,39.611453 Z" id="Fill-18" fill="#344E90"></path>
                </g>
            </g>
        </g>
    </g>
</svg>