<?xml version="1.0" encoding="UTF-8"?>
<svg width="96px" height="96px" viewBox="0 0 96 96" version="1.1" xmlns="http://www.w3.org/2000/svg" xmlns:xlink="http://www.w3.org/1999/xlink">
    <!-- Generator: Sketch 46.2 (44496) - http://www.bohemiancoding.com/sketch -->
    <title>Artboard</title>
    <desc>Created with Sketch.</desc>
    <defs></defs>
    <g id="Page-1" stroke="none" stroke-width="1" fill="none" fill-rule="evenodd">
        <g id="Artboard">
            <g id="ic-webmoney">
                <g id="96" fill="#D8D8D8" opacity="0">
                    <rect id="Rectangle-4" x="0" y="0" width="96" height="96"></rect>
                </g>
                <g id="webmoney-paying-logo" transform="translate(10.000000, 37.000000)" fill-rule="nonzero" fill="#125395">
                    <path d="M12.20408,8.6868 C10.4956,8.6868 9.61856,9.93776 9.61856,11.67056 C9.61856,13.47176 10.40592,14.65584 12.31808,14.65584 C13.13736,14.65584 13.82136,14.42784 14.3336,14.1284 L14.3336,13.26656 C13.70736,13.63896 13.13736,13.85784 12.52328,13.85784 C11.35136,13.85784 10.792,13.25592 10.792,11.8864 L14.50384,11.8864 L14.50384,11.4684 C14.50536,9.60792 13.62832,8.6868 12.20408,8.6868 Z M10.8148,11.12184 C10.93944,9.98488 11.476,9.44832 12.17064,9.44832 C12.78624,9.44832 13.36688,9.92408 13.42312,11.12184 L10.8148,11.12184 Z M18.26432,8.6868 C17.64872,8.6868 17.06808,8.92544 16.72456,9.10784 L16.72456,5.86112 L15.54048,6.14536 L15.54048,14.09648 C16.22448,14.45976 17.15776,14.65432 17.76272,14.65432 C19.41496,14.65432 20.43944,13.61616 20.43944,11.48512 C20.43944,9.66568 19.6764,8.6868 18.26432,8.6868 Z M17.76272,13.85632 C17.47696,13.85632 17.08024,13.83504 16.71544,13.67544 L16.71544,9.94992 C17.17144,9.69912 17.5028,9.57448 17.95576,9.57448 C18.7188,9.57448 19.24472,10.04264 19.24472,11.48664 C19.24472,13.33344 18.60632,13.85632 17.76272,13.85632 Z M41.84408,10.39528 L41.84408,14.51752 L40.66,14.51752 L40.66,10.6552 C40.66,9.75536 40.21768,9.59576 39.63248,9.59576 C39.178,9.59576 38.59584,9.80096 38.2432,10.00616 L38.2432,14.516 L37.06064,14.516 L37.06064,9.52736 C37.57288,9.22032 38.65512,8.68528 39.96536,8.68528 C41.33032,8.6868 41.84408,9.22184 41.84408,10.39528 Z M28.11848,6.44176 L29.53056,6.44176 L29.53056,14.51752 L28.30088,14.51752 L28.30088,8.66096 L28.19904,8.66096 L25.87496,14.51752 L25.14688,14.51752 L22.8228,8.79928 L22.72096,8.79928 L22.72096,14.51752 L21.69648,14.51752 L21.69648,6.44176 L23.0736,6.44176 L25.62568,12.80752 L25.68344,12.80752 L28.11848,6.44176 Z M33.38072,8.6868 C31.87744,8.6868 30.78304,9.67784 30.78304,11.67056 C30.78304,13.61768 31.8212,14.65584 33.38072,14.65584 C34.94176,14.65584 35.9784,13.61768 35.9784,11.67056 C35.9784,9.67632 34.884,8.6868 33.38072,8.6868 Z M33.38072,13.85632 C32.57208,13.85632 31.97928,13.23312 31.97928,11.67056 C31.97928,10.13232 32.62984,9.48328 33.38072,9.48328 C34.15592,9.48328 34.78216,10.13232 34.78216,11.67056 C34.78216,13.23312 34.18936,13.85632 33.38072,13.85632 Z M69.996,16.06792 L72.00392,18.36312 C71.60568,18.67168 71.16944,18.96504 70.69064,19.2356 C69.23904,20.064 67.5564,20.53672 65.7704,20.53672 C60.27256,20.53672 55.78704,16.05272 55.78704,10.55488 C55.78704,5.05552 60.27256,0.57152 65.7704,0.57152 C67.336,0.57152 68.82256,0.93632 70.14648,1.58384 C70.35472,1.68264 70.55992,1.79208 70.76512,1.91064 L69.84704,2.73296 L68.46992,1.30568 L66.13976,3.38504 L64.7596,1.87416 L60.41392,5.78664 L63.19856,8.85552 L62.10264,9.81616 L64.84624,12.88808 L63.7564,13.8472 L67.67496,18.20808 L69.996,16.06792 Z M74.76272,9.8724 L75.82976,11.05952 L74.64416,12.12808 L73.5756,10.94096 L74.76272,9.8724 Z M52.2196,8.87832 L53.44016,8.87832 L51.38056,14.57528 C50.81056,16.14848 50.11592,16.96776 48.8072,16.96776 L48.8072,16.036 C49.5824,16.036 50.05968,15.42192 50.33328,14.57832 L48.14752,8.87984 L49.4,8.87984 L50.85768,13.07352 L50.92608,13.07352 L52.2196,8.87832 Z M45.48904,8.6868 C43.77904,8.6868 42.90352,9.93776 42.90352,11.67056 C42.90352,13.47176 43.68936,14.65584 45.60152,14.65584 C46.4208,14.65584 47.10176,14.42784 47.61552,14.1284 L47.61552,13.26656 C46.9908,13.63896 46.4208,13.85784 45.80672,13.85784 C44.6348,13.85784 44.07392,13.25592 44.07392,11.8864 L47.78728,11.8864 L47.78728,11.4684 C47.79032,9.60792 46.91176,8.6868 45.48904,8.6868 Z M44.09672,11.12184 C44.2244,9.98488 44.76096,9.44832 45.4556,9.44832 C46.06816,9.44832 46.65184,9.92408 46.70808,11.12184 L44.09672,11.12184 Z M73.1196,14.05544 L74.7232,15.83688 L72.94176,17.44048 L71.33664,15.65904 L73.1196,14.05544 Z M68.39088,3.116 L69.99448,4.89744 L68.21304,6.50104 L66.60944,4.7196 L68.39088,3.116 Z M64.62584,3.7316 L66.76296,6.10584 L64.38872,8.24296 L62.2516,5.86872 L64.62584,3.7316 Z M69.85464,10.08064 L68.25104,8.30072 L70.02944,6.69712 L71.63608,8.47704 L69.85464,10.08064 Z M72.05712,7.41608 L73.2412,6.34752 L74.30824,7.53464 L73.12568,8.6032 L72.05712,7.41608 Z M7.95416,6.44176 L9.2872,6.44176 L7.4404,14.51752 L6.2092,14.51752 L4.66032,8.83272 L4.57976,8.83272 L3.07648,14.51752 L1.84528,14.51752 L0,6.44176 L1.2768,6.44176 L2.55208,12.46704 L2.63264,12.46704 L4.11312,6.44176 L5.12696,6.44176 L6.7108,12.46704 L6.79136,12.46704 L7.95416,6.44176 Z M71.37768,13.84112 L69.77104,12.06272 L71.55248,10.4576 L73.15912,12.236 L71.37768,13.84112 Z M70.54016,3.88816 L71.72728,2.8196 L72.79432,4.00672 L71.60872,5.07528 L70.54016,3.88816 Z M66.0896,12.2968 L63.95248,9.92256 L66.32672,7.7824 L68.46384,10.15664 L66.0896,12.2968 Z M67.77832,16.4008 L65.64272,14.02656 L68.01544,11.88944 L70.15256,14.26368 L67.77832,16.4008 Z" id="Shape"></path>
                </g>
            </g>
        </g>
    </g>
</svg>