<?xml version="1.0" encoding="UTF-8"?>
<svg width="96px" height="96px" viewBox="0 0 96 96" version="1.1" xmlns="http://www.w3.org/2000/svg" xmlns:xlink="http://www.w3.org/1999/xlink">
    <!-- Generator: Sketch 46.2 (44496) - http://www.bohemiancoding.com/sketch -->
    <title>Artboard</title>
    <desc>Created with Sketch.</desc>
    <defs></defs>
    <g id="Page-1" stroke="none" stroke-width="1" fill="none" fill-rule="evenodd">
        <g id="Artboard">
            <g id="ic-western-union">
                <g id="96" fill="#D8D8D8" opacity="0">
                    <rect id="Rectangle-4" x="0" y="0" width="96" height="96"></rect>
                </g>
                <g id="Group-10" transform="translate(10.000000, 36.000000)" fill="#000000">
                    <g id="Group-9">
                        <polyline id="Fill-4" points="0.112923077 0.4871875 3.33507692 0.4871875 4.10307692 6.2971875 4.128 6.2971875 4.97415385 0.4871875 8.7 0.4871875 9.54276923 6.2971875 9.56769231 6.2971875 10.3381538 0.4871875 13.5596923 0.4871875 11.5981538 9.7209375 7.69323077 9.7209375 6.85046154 3.739375 6.82553846 3.739375 5.98215385 9.7209375 2.07784615 9.7209375 0.112923077 0.4871875"></polyline>
                        <polyline id="Fill-5" points="15.6633846 0.4871875 22.5784615 0.4871875 22.5784615 2.895 19.1147692 2.895 19.1147692 3.87625 22.3141538 3.87625 22.3141538 6.283125 19.1147692 6.283125 19.1147692 7.3190625 22.692 7.3190625 22.692 9.7209375 15.6633846 9.7209375 15.6633846 0.4871875"></polyline>
                        <path d="M29.9581538,3.1103125 C29.9452308,2.5340625 29.6301538,2.341875 29.1636923,2.341875 C28.5852308,2.341875 28.3323077,2.598125 28.3323077,2.8803125 C28.3323077,3.210625 28.5455385,3.3525 28.9233846,3.4678125 C29.6163077,3.6753125 30.8886154,3.9275 31.8067692,4.3253125 C32.9541538,4.810625 33.4578462,5.64375 33.4578462,6.7546875 C33.4578462,9.01875 31.6452308,9.9665625 29.0732308,9.9665625 C26.8827692,9.9665625 24.8686154,9.2759375 24.8686154,6.8709375 L28.3203077,6.8709375 C28.3203077,7.128125 28.3710769,7.3825 28.5095385,7.575625 C28.6473846,7.7521875 28.8735385,7.8675 29.2135385,7.8675 C29.7421538,7.8675 30.084,7.5221875 30.084,7.1140625 C30.084,6.7696875 29.8196923,6.59125 29.4778462,6.4871875 L26.9206154,5.720625 C25.5246154,5.2984375 25.0341538,4.4390625 25.0341538,3.251875 C25.0341538,1.333125 26.5584615,0.2446875 29.2135385,0.2446875 C31.4796923,0.2446875 33.1824615,0.9634375 33.1824615,3.1103125 L29.9581538,3.1103125" id="Fill-6"></path>
                        <polyline id="Fill-7" points="37.6498462 2.9715625 35.4095385 2.9715625 35.4095385 0.486875 43.4932308 0.486875 43.4932308 2.9715625 41.252 2.9715625 41.252 9.720625 37.6498462 9.720625 37.6498462 2.9715625"></polyline>
                        <polyline id="Fill-8" points="45.8344615 0.4871875 52.7486154 0.4871875 52.7486154 2.895 49.2876923 2.895 49.2876923 3.87625 52.4852308 3.87625 52.4852308 6.283125 49.2876923 6.283125 49.2876923 7.3190625 52.864 7.3190625 52.864 9.7209375 45.8344615 9.7209375 45.8344615 0.4871875"></polyline>
                        <path d="M55.432,0.4871875 L60.8098462,0.4871875 C62.7621538,0.4871875 63.9076923,1.090625 63.9076923,2.83 C63.9076923,3.8921875 63.4658462,4.695625 62.1043077,5.029375 L62.1043077,5.0546875 C62.9873846,5.131875 63.4658462,5.5259375 63.6415385,6.2325 C63.8427692,7.024375 63.8196923,8.3284375 64.2338462,9.7209375 L60.7092308,9.7209375 C60.4956923,9.0303125 60.3821538,7.8678125 60.2547692,7.076875 C60.1815385,6.614375 59.9526154,6.4378125 59.3741538,6.4378125 L58.9575385,6.4378125 L58.9575385,9.7209375 L55.432,9.7209375 L55.432,0.4871875 Z M59.2596923,4.3371875 C59.9526154,4.3371875 60.4569231,4.0940625 60.4569231,3.4053125 C60.4569231,2.72875 59.9895385,2.58625 59.2827692,2.58625 L58.9575385,2.58625 L58.9575385,4.3371875 L59.2596923,4.3371875 L59.2596923,4.3371875 Z" id="Fill-9"></path>
                        <polyline id="Fill-10" points="66.6424615 0.4871875 70.9596923 0.4871875 72.884 6.0775 72.9107692 6.0775 72.9107692 0.4871875 75.8329231 0.4871875 75.8329231 9.7209375 71.5156923 9.7209375 69.5876923 4.0940625 69.5618462 4.0940625 69.5618462 9.7209375 66.6424615 9.7209375 66.6424615 0.4871875"></polyline>
                    </g>
                    <g id="Group-8" transform="translate(12.000000, 14.000000)">
                        <path d="M8.76584615,6.39959459 C8.76584615,8.61412162 7.19169231,9.72278378 4.44769231,9.72278378 C1.70184615,9.72278378 0.128615385,8.61412162 0.128615385,6.39959459 L0.128615385,0.296202703 L3.72984615,0.296202703 L3.72984615,6.24760811 C3.72984615,6.97272973 4.06984615,7.25525676 4.44769231,7.25525676 C4.82461538,7.25525676 5.16553846,6.97272973 5.16553846,6.24760811 L5.16553846,0.296202703 L8.76584615,0.296202703 L8.76584615,6.39959459" id="Fill-11"></path>
                        <polyline id="Fill-12" points="11.6513846 0.296202703 15.9704615 0.296202703 17.896 5.85536486 17.9218462 5.85536486 17.9218462 0.296202703 20.8430769 0.296202703 20.8430769 9.48190541 16.5230769 9.48190541 14.5993846 3.88233784 14.5707692 3.88233784 14.5707692 9.48190541 11.6513846 9.48190541 11.6513846 0.296202703"></polyline>
                        <polygon id="Fill-13" points="23.7926154 9.48190541 27.3910769 9.48190541 27.3910769 0.296202703 23.7926154 0.296202703"></polygon>
                        <path d="M34.7058462,0.0553243243 C37.8433846,0.0553243243 39.4036923,2.02524324 39.4036923,4.88843243 C39.4036923,7.74975676 37.8433846,9.72247297 34.7058462,9.72247297 C31.5713846,9.72247297 30.0107692,7.74975676 30.0107692,4.88843243 C30.0107692,2.02524324 31.5713846,0.0553243243 34.7058462,0.0553243243 M34.7058462,7.33047297 C35.2630769,7.33047297 35.676,7.01251351 35.676,4.88843243 C35.676,2.81377027 35.2870769,2.44514865 34.7058462,2.44514865 C34.1286154,2.44514865 33.7378462,2.81377027 33.7378462,4.88843243 C33.7378462,7.01251351 34.1563077,7.33047297 34.7058462,7.33047297" id="Fill-14"></path>
                        <polyline id="Fill-15" points="42.0270769 0.296202703 46.3443077 0.296202703 48.2686154 5.85536486 48.2953846 5.85536486 48.2953846 0.296202703 51.2175385 0.296202703 51.2175385 9.48190541 46.9003077 9.48190541 44.9723077 3.88233784 44.9464615 3.88233784 44.9464615 9.48190541 42.0270769 9.48190541 42.0270769 0.296202703"></polyline>
                    </g>
                </g>
            </g>
        </g>
    </g>
</svg>