<?xml version="1.0" encoding="UTF-8"?>
<svg width="96px" height="96px" viewBox="0 0 96 96" version="1.1" xmlns="http://www.w3.org/2000/svg" xmlns:xlink="http://www.w3.org/1999/xlink">
    <!-- Generator: Sketch 46.2 (44496) - http://www.bohemiancoding.com/sketch -->
    <title>Artboard</title>
    <desc>Created with Sketch.</desc>
    <defs></defs>
    <g id="Page-1" stroke="none" stroke-width="1" fill="none" fill-rule="evenodd">
        <g id="Artboard">
            <g id="ic-yandex">
                <g id="96" fill="#D8D8D8" opacity="0">
                    <rect id="Rectangle-4" x="0" y="0" width="96" height="96"></rect>
                </g>
                <g id="Group-2" transform="translate(11.000000, 34.000000)">
                    <g id="Group">
                        <g id="yandex-pay-logo" transform="translate(0.000000, 3.169014)" fill-rule="nonzero" fill="#000000">
                            <path d="M8.24735915,11.2711268 C6.2778169,11.2711268 4.37007042,11.2711268 2.50985915,11.2711268 C2.4306338,12.9015845 2.39260563,14.5051056 2.26267606,16.1054577 C2.14700704,17.5251761 1.83327465,18.9179577 1.20580986,20.2584507 C0.998239437,20.7005282 0.749471831,20.9920775 0.115669014,20.8859155 C0.0823943662,20.8795775 0.0411971831,20.9049296 0,20.9207746 C0,22.0996479 0,23.2721831 0,24.4447183 C0.57834507,24.4447183 1.12341549,24.4447183 1.71285211,24.4447183 C1.71285211,23.6477113 1.71285211,22.8823944 1.71285211,22.118662 C3.79330986,22.118662 5.83257042,22.118662 7.91619718,22.118662 C7.91619718,22.9077465 7.91619718,23.6714789 7.91619718,24.4510563 C8.49612676,24.4510563 9.02852113,24.4510563 9.57992958,24.4510563 C9.57992958,23.259507 9.57992958,22.0838028 9.57992958,20.8748239 C9.12200704,20.8748239 8.69894366,20.8748239 8.24735915,20.8748239 C8.24735915,17.6582746 8.24735915,14.478169 8.24735915,11.2711268 Z M6.38873239,20.8621479 C5.10211268,20.8621479 3.82975352,20.8621479 2.6334507,20.8621479 C2.95352113,20.0603873 3.34489437,19.2713028 3.58257042,18.4521127 C4.05950704,16.8058099 4.05633803,15.1167254 4.06901408,13.4323944 C4.0721831,13.1725352 4.06901408,12.909507 4.06901408,12.6242958 C4.84700704,12.6242958 5.60123239,12.6242958 6.3903169,12.6242958 C6.38873239,15.3496479 6.38873239,18.0829225 6.38873239,20.8621479 Z M18.7494718,0.656514085 C17.6609155,0.656514085 16.6167254,0.656514085 15.5123239,0.656514085 C15.5123239,1.05897887 15.5265845,1.42024648 15.5107394,1.78309859 C15.4568662,3.0443662 15.4109155,4.30721831 14.8848592,5.51461268 C14.7549296,5.8125 14.6582746,6.13098592 14.1559859,6.06443662 C14.1559859,6.73626761 14.1559859,7.37640845 14.1559859,8.01338028 C14.4728873,8.01338028 14.7565141,8.01338028 15.0892606,8.01338028 C15.0892606,7.57764085 15.0892606,7.1625 15.0892606,6.74735915 C16.2744718,6.74735915 17.4089789,6.74735915 18.5957746,6.74735915 C18.5957746,7.18626761 18.5957746,7.60140845 18.5957746,8.00704225 C18.9285211,8.00704225 19.2089789,8.00704225 19.4783451,8.00704225 C19.4783451,7.33521127 19.4783451,6.69507042 19.4783451,6.05492958 C19.2248239,6.04542254 19.009331,6.03591549 18.7494718,6.02640845 C18.7494718,4.22640845 18.7494718,2.44859155 18.7494718,0.656514085 Z M17.7274648,6.02640845 C16.9890845,6.02640845 16.2950704,6.02640845 15.5471831,6.02640845 C16.4931338,4.56232394 16.3647887,2.98890845 16.4329225,1.41866197 C16.865493,1.41866197 17.2838028,1.41866197 17.7274648,1.41866197 C17.7274648,2.95246479 17.7274648,4.47200704 17.7274648,6.02640845 Z M16.3774648,21.102993 C14.6994718,21.446831 13.602993,20.9825704 13.1244718,19.765669 C12.7552817,18.8308099 12.7695423,17.8658451 12.7536972,16.847007 C14.5917254,16.847007 16.3742958,16.847007 18.2297535,16.847007 C18.1536972,15.9992958 18.1457746,15.1721831 17.9920775,14.372007 C17.7971831,13.3690141 17.4105634,12.4072183 16.6103873,11.5991197 C15.9021127,10.884507 15.0496479,10.6769366 13.9864437,10.9653169 C12.8820423,11.2647887 12.2086268,11.9588028 11.7554577,12.781162 C10.4276408,15.1943662 10.3135563,17.6804577 11.3308099,20.1871479 C11.6366197,20.9445423 12.1547535,21.6036972 13.0167254,22.0251761 C14.4617958,22.7366197 16.7989437,22.4894366 18.2646127,21.4642606 C18.1489437,21.1790493 18.0316901,20.890669 17.9271127,20.6371479 C17.3836268,20.8051056 16.8940141,20.996831 16.3774648,21.102993 Z M13.5808099,12.8825704 C13.8390845,12.5197183 14.1829225,12.2234155 14.7596831,12.2503521 C15.3237676,12.2804577 15.6580986,12.5751761 15.8846831,12.9586268 C16.3853873,13.8190141 16.4693662,14.7411972 16.4646127,15.6982394 C15.2033451,15.6982394 13.9848592,15.6982394 12.7014085,15.6982394 C12.7964789,14.6841549 12.9739437,13.7366197 13.5808099,12.8825704 Z M22.8723592,7.03732394 C23.3271127,6.98978873 23.7818662,6.86144366 24.2096831,6.7125 C24.6866197,6.54771127 24.6992958,6.39559859 24.3697183,6.04383803 C24.0797535,6.1278169 23.8008803,6.22922535 23.509331,6.28785211 C22.6964789,6.45264085 22.1165493,6.27200704 21.8075704,5.76021127 C21.4447183,5.16126761 21.4621479,4.51795775 21.484331,3.84454225 C22.5269366,3.84454225 23.5283451,3.84454225 24.5503521,3.84454225 C24.6169014,2.83679577 24.4933099,1.89242958 23.8547535,1.03362676 C23.293838,0.279401408 22.3225352,0.158978873 21.5508803,0.778521127 C21.2609155,1.00985915 21.0169014,1.30616197 20.8457746,1.60721831 C20.3672535,2.44542254 20.1850352,3.34859155 20.2975352,4.26443662 C20.368838,4.83327465 20.5257042,5.41161972 20.7681338,5.9471831 C21.1198944,6.7346831 21.9327465,7.13714789 22.8723592,7.03732394 Z M21.9929577,1.50264085 C22.3383803,1.07323944 22.9088028,1.08591549 23.2146127,1.53591549 C23.5568662,2.03503521 23.5980634,2.58644366 23.5838028,3.16478873 C22.840669,3.16478873 22.1609155,3.16478873 21.4478873,3.16478873 C21.481162,2.55950704 21.596831,1.99859155 21.9929577,1.50264085 Z M30.1896127,6.71883803 C29.8330986,6.71883803 29.5367958,6.74260563 29.2484155,6.70616197 C29.140669,6.69190141 29.0265845,6.55721831 28.9600352,6.45739437 C28.4498239,5.70316901 27.9507042,4.94419014 27.4452465,4.18521127 C27.3739437,4.07746479 27.2931338,3.97447183 27.1045775,3.85880282 C27.0411972,4.09964789 26.9302817,4.34049296 26.9207746,4.58133803 C26.8954225,5.28169014 26.9112676,5.98521127 26.9112676,6.70299296 C26.5610915,6.70299296 26.2616197,6.70299296 25.9288732,6.70299296 C25.9288732,4.70017606 25.9288732,2.69577465 25.9288732,0.658098592 C26.2552817,0.658098592 26.5547535,0.658098592 26.897007,0.658098592 C26.897007,1.52165493 26.897007,2.36778169 26.897007,3.32007042 C27.0491197,3.17271127 27.1283451,3.10774648 27.1917254,3.03327465 C27.7494718,2.3693662 28.3278169,1.7165493 28.8491197,1.03204225 C29.0852113,0.721478873 29.3498239,0.580457746 29.7839789,0.639084507 C29.8901408,0.65334507 30.0026408,0.640669014 30.1943662,0.640669014 C30.0929577,0.773767606 30.0295775,0.865669014 29.9566901,0.952816901 C29.3625,1.66426056 28.7778169,2.38204225 28.1661972,3.08556338 C28.0014085,3.27411972 28.0109155,3.41197183 28.1392606,3.60211268 C28.8158451,4.61778169 29.478169,5.63820423 30.1896127,6.71883803 Z M12.0660211,4.07588028 C11.4369718,4.07588028 10.8507042,4.07588028 10.2169014,4.07588028 C10.2169014,4.99806338 10.2169014,5.91073944 10.2169014,6.84876761 C9.85880282,6.84876761 9.54982394,6.84876761 9.20757042,6.84876761 C9.20757042,4.79366197 9.20757042,2.74330986 9.20757042,0.656514085 C9.53873239,0.656514085 9.83978873,0.656514085 10.1867958,0.656514085 C10.1867958,1.48996479 10.1867958,2.31549296 10.1867958,3.16637324 C10.8269366,3.16637324 11.4211268,3.16637324 12.0596831,3.16637324 C12.0596831,2.33292254 12.0596831,1.50739437 12.0596831,0.66443662 C12.4146127,0.66443662 12.7235915,0.66443662 13.0626761,0.66443662 C13.0626761,2.72588028 13.0626761,4.77940141 13.0626761,6.85193662 C12.7315141,6.85193662 12.4225352,6.85193662 12.0660211,6.85193662 C12.0660211,5.925 12.0660211,5.01073944 12.0660211,4.07588028 Z M27.1885563,11.4723592 C27.215493,11.5024648 27.1933099,11.559507 27.1933099,11.6054577 C27.1933099,15.027993 27.1933099,18.4536972 27.1933099,21.8794014 C27.1933099,21.9776408 27.1806338,22.0806338 27.1727113,22.2010563 C26.5816901,22.2010563 26.0112676,22.2010563 25.3948944,22.2010563 C25.3948944,20.5579225 25.3948944,18.9274648 25.3948944,17.2463028 C24.5551056,17.2463028 23.7596831,17.2463028 22.9642606,17.2463028 C22.1244718,17.2463028 22.1244718,17.2463028 22.1244718,17.9482394 C22.1228873,19.2237676 22.1244718,20.4929577 22.1244718,21.7700704 C22.1244718,21.903169 22.1244718,22.0394366 22.1244718,22.1978873 C21.5160211,22.1978873 20.9471831,22.1978873 20.352993,22.1978873 C20.352993,18.5487676 20.352993,14.915493 20.352993,11.2632042 C20.9297535,11.2632042 21.4890845,11.2632042 22.1022887,11.2632042 C22.1022887,12.7558099 22.1022887,14.2294014 22.1022887,15.7330986 C23.2367958,15.7330986 24.2825704,15.7330986 25.3822183,15.7330986 C25.3822183,14.2420775 25.3822183,12.7589789 25.3822183,11.2552817 C25.9415493,11.2552817 26.4485915,11.2473592 26.9540493,11.2679577 C27.0380282,11.2711268 27.122007,11.3931338 27.1885563,11.4723592 Z M51.4378521,11.2330986 C51.9860915,11.2568662 52.534331,11.2410211 53.109507,11.2410211 C53.109507,14.9123239 53.109507,18.5455986 53.109507,22.2042254 C52.4471831,22.2042254 51.8038732,22.2042254 51.1098592,22.2042254 C51.1098592,19.8116197 51.1098592,17.4174296 51.1098592,15.0121479 C49.9959507,17.4285211 48.8915493,19.8242958 47.7871479,22.2105634 C47.1850352,22.2105634 46.6336268,22.2105634 46.0489437,22.2105634 C46.0489437,18.5646127 46.0489437,14.918662 46.0489437,11.2600352 C46.6336268,11.2600352 47.2040493,11.2600352 47.818838,11.2600352 C47.818838,13.5211268 47.818838,15.7647887 47.818838,18.0084507 C47.8489437,18.0116197 47.8727113,18.0179577 47.9028169,18.0211268 C48.2117958,17.3619718 48.5286972,16.7028169 48.834507,16.043662 C49.5332746,14.5367958 50.2367958,13.0330986 50.9228873,11.5214789 C51.0242958,11.3044014 51.1526408,11.2235915 51.4378521,11.2330986 Z M31.284507,5.94401408 C30.6823944,5.14383803 30.5698944,4.2596831 30.6538732,3.34859155 C30.7283451,2.55475352 30.9580986,1.79894366 31.5459507,1.14612676 C32.3065141,0.3 33.7056338,0.139964789 34.7260563,0.810211268 C34.5882042,0.982922535 34.4614437,1.14454225 34.3378521,1.29823944 C34.2950704,1.30457746 34.2665493,1.31566901 34.2427817,1.30933099 C33.0068662,0.975 32.2637324,1.27605634 31.8897887,2.28697183 C31.6125,3.02693662 31.5554577,3.79066901 31.715493,4.54964789 C32.0197183,6.01373239 33.1795775,6.52077465 34.8607394,5.95985915 C35.0160211,6.64119718 34.9272887,6.72359155 34.1334507,6.91056338 C33.0084507,7.17359155 31.9151408,6.7806338 31.284507,5.94401408 Z M33.7690141,15.1943662 C33.065493,15.140493 32.3492958,15.1848592 31.5903169,15.1848592 C31.5903169,13.8871479 31.5903169,12.5751761 31.5903169,11.2663732 C31.0515845,11.2663732 30.5635563,11.2663732 30.0628521,11.2663732 C30.0628521,14.8727113 30.0628521,18.4536972 30.0628521,22.1598592 C31.1926056,22.1598592 32.284331,22.2248239 33.3617958,22.1424296 C34.9764085,22.022007 36.2075704,21.3802817 36.784331,20.0635563 C37.1202465,19.2998239 37.1265845,18.5044014 36.9681338,17.7058099 C36.6734155,16.2353873 35.5547535,15.3417254 33.7690141,15.1943662 Z M34.6056338,19.3584507 C34.322007,20.5626761 33.0892606,21.1299296 31.602993,20.778169 C31.602993,19.4408451 31.5966549,18.1257042 31.615669,16.8073944 C31.615669,16.7202465 31.7677817,16.5776408 31.8771127,16.5570423 C33.3633803,16.2417254 34.3568662,16.7360915 34.6151408,17.9767606 C34.7070423,18.422007 34.7102113,18.9116197 34.6056338,19.3584507 Z M38.6065141,11.2552817 C40.8105634,11.2552817 42.971831,11.2552817 45.1616197,11.2552817 C45.1616197,11.6181338 45.1616197,11.9651408 45.1616197,12.3565141 C43.531162,12.3565141 41.8959507,12.3565141 40.2290493,12.3565141 C40.2290493,15.6602113 40.2290493,18.9195423 40.2290493,22.2026408 C39.6744718,22.2026408 39.156338,22.2026408 38.6112676,22.2026408 C38.6065141,18.5614437 38.6065141,14.921831 38.6065141,11.2552817 Z" id="Shape"></path>
                        </g>
                        <path d="M6.00785684,1.00835907 L5.26962657,1.00835907 C4.15327105,1.00835907 3.07310622,1.62355095 3.07310622,3.4091842 C3.07310622,5.13462474 4.06316971,5.68987421 5.26962657,5.68987421 L6.00785684,5.68987421 L6.00785684,1.00835907 Z M4.85546077,6.65020426 L2.65894042,10.761453 L1.05633803,10.761453 L3.46925175,6.36500851 C2.33457562,5.88484349 1.57832509,5.01461477 1.57832509,3.4091842 C1.57832509,1.15840282 3.28889891,0.0330121276 5.32368737,0.0330121276 L7.3943662,0.0330121276 L7.3943662,10.761453 L6.00785684,10.761453 L6.00785684,6.65020426 L4.85546077,6.65020426 L4.85546077,6.65020426 Z" id="Fill-1" fill="#FF0000"></path>
                    </g>
                    <path d="M74.9726745,15.2385974 C74.8774733,14.6563346 74.4146488,14.306977 73.7453108,14.2992135 C73.5387973,14.2961081 73.3337485,14.3178459 73.1330935,14.2945554 C72.7376422,14.2510798 72.6336532,14.3908228 72.6365824,14.7231008 C72.6556227,16.3534364 72.6497641,17.9822193 72.6439056,19.6078968 C72.6395117,20.4603295 71.8544676,21.3360526 70.9112429,21.5580888 C67.9819739,22.2397243 65.055634,22.9322288 62.1249003,23.6076536 C61.7953576,23.6837359 61.4482392,23.7225534 61.1128379,23.719448 C60.9663744,23.719448 60.7642548,23.6014428 60.7012755,23.4865429 C60.6602658,23.4104606 60.7891536,23.2256892 60.8902134,23.1309745 C61.0234951,23.0160746 61.1933928,22.9244653 61.3676843,22.8608046 C61.9052051,22.6574008 62.4515138,22.4726294 62.9948932,22.2816473 C65.1698755,21.5146132 67.3492517,20.7568953 69.5213048,19.9852031 C70.5011453,19.6342927 71.0298783,18.9417883 71.0459893,18.0676178 C71.0957869,15.235492 71.0708881,12.4033661 71.059171,9.56813479 C71.059171,9.11940432 70.8394758,8.74520348 70.3356416,8.5511159 C69.7556463,8.33063242 69.2459535,8.50608758 68.7421192,8.76073048 C65.6634574,10.3180892 62.5862602,11.8723425 59.5061338,13.4265958 C58.599525,13.8846424 58.0942261,14.5476456 58.09862,15.4916876 C58.1088724,18.1700961 58.1015492,20.8438465 58.1044785,23.5191496 C58.1044785,23.6526819 58.1176602,23.7893195 58.1572053,23.916641 C58.4603847,24.8265235 59.2468934,25.3482309 60.3336523,25.3482309 C62.4998468,25.3544417 64.6733644,25.3513363 66.8410235,25.3513363 C69.0013595,25.3513363 71.1543723,25.3544417 73.3147082,25.3482309 C73.7833913,25.3482309 74.2154585,25.2457527 74.5669708,24.938318 C75.0224721,24.5501428 74.9990379,24.056384 74.9990379,23.5641779 C75.0005026,20.9540882 75.0005026,18.3486566 74.9975733,15.7370142 C75.0019672,15.5739807 74.9990379,15.4031836 74.9726745,15.2385974 Z M65.9651721,14.4016917 C66.1834026,13.8007966 66.6594089,13.4250431 67.3858676,13.3287756 C67.8662677,13.2635622 68.2851532,13.5787604 68.353991,14.0383598 C68.4579801,14.7463913 67.6231384,15.5693226 66.7985491,15.5662172 C66.1116355,15.5662172 65.7279013,15.0553787 65.9651721,14.4016917 Z" id="Shape" fill="#F18127" fill-rule="nonzero"></path>
                </g>
            </g>
        </g>
    </g>
</svg>