<?xml version="1.0" encoding="UTF-8"?>
<svg width="202px" height="55px" viewBox="0 0 202 55" version="1.1" xmlns="http://www.w3.org/2000/svg" xmlns:xlink="http://www.w3.org/1999/xlink">
    <!-- Generator: Sketch 46.2 (44496) - http://www.bohemiancoding.com/sketch -->
    <title>Artboard</title>
    <desc>Created with Sketch.</desc>
    <defs>
        <polygon id="path-1" points="0 36 132 36 132 0 0 0"></polygon>
    </defs>
    <g id="Page-1" stroke="none" stroke-width="1" fill="none" fill-rule="evenodd">
        <g id="Artboard">
            <g id="logo">
                <path d="M46.2569367,8.6405 C35.6888765,-1.93924359 18.4969247,-1.93924359 7.92604518,8.63697436 C-2.64201506,19.2110769 -2.64201506,36.4204359 7.92604518,46.9945385 C18.4969247,57.5742821 35.6945151,57.5721667 46.2569367,46.9931282 C56.8383886,36.4204359 56.8383886,19.2110769 46.2569367,8.6405" id="Fill-44" fill="#FEFEFE"></path>
                <path d="M19.5385066,34.9299359 C19.5385066,34.9299359 19.8493319,37.2554487 21.8073199,38.3335897 L21.2857536,37.3619231 C21.2864584,37.3619231 22.2830729,34.7444872 19.5385066,34.9299359" id="Fill-45" fill="#293052"></path>
                <path d="M28.1959428,18.7526026 C30.3005331,19.502859 30.9778645,21.7472821 30.9778645,21.7472821 C28.2995512,22.3579231 28.8641114,19.6227308 28.8641114,19.6227308 L28.1959428,18.7526026 Z M42.2845753,43.0195897 C42.0104006,43.2882436 41.7404548,43.5498462 41.462756,43.8022821 C35.4168163,48.7318333 30.7614849,46.2793974 30.7072139,46.2793974 C27.5510331,45.6483077 25.9849247,45.639141 25.0989669,45.0468333 C24.876244,44.8973462 24.162262,44.5137564 23.9980392,44.6068333 C23.3538343,44.9904231 22.4671717,45.187859 21.5558404,44.4615769 C21.4747861,44.396 21.3979608,44.3219615 21.3288886,44.2549744 C20.3238163,43.2529872 20.6649488,42.2199744 20.9983283,41.860359 C21.2302139,41.6255513 20.8221235,40.964141 20.8221235,40.964141 C20.8221235,40.964141 19.6373223,39.2034359 18.8281898,38.1436282 C17.9358886,36.9801667 17.8146596,34.6715769 17.8040873,34.6405513 L17.7921054,34.6081154 C16.8913464,33.5377308 16.7976054,33.2084359 16.4867801,32.686641 C16.3049367,32.3777949 16.0258283,32.0893974 15.789009,31.8404872 C15.6261958,31.6776026 15.4753645,31.5231795 15.3689367,31.3786282 C15.3456777,31.3483077 15.3393343,31.3031795 15.348497,31.2319615 C15.4316657,30.7320256 16.5051054,29.6299103 16.736991,29.4761923 C17.021738,29.2921538 18.246009,28.5482436 18.246009,28.5482436 C18.246009,28.5482436 18.9339127,27.4651667 20.1053223,27.4651667 C21.1625512,27.4715128 21.8074608,27.406641 23.6301235,28.0010641 L24.3878042,28.2415128 C25.6578886,28.6490769 26.7778464,29.1292692 27.6680331,29.5135641 C28.4228946,29.8393333 29.0276295,30.1023462 29.4914006,30.2243333 C31.0631476,30.6375385 33.8359066,29.3647821 34.4209066,28.8281795 C35.3801657,27.9545256 35.7945994,27.3692692 35.800238,26.8897821 C35.807991,26.6204231 35.6888765,26.3849103 35.4168163,26.1000385 C35.2751476,25.9702949 35.0933042,25.7270256 34.8649428,25.4957436 C34.8282922,25.4597821 34.7895271,25.4167692 34.7437139,25.3843333 C32.0830211,22.5567692 32.5432681,20.7833718 32.5460873,20.7551667 C32.6602681,19.4831154 31.9314849,18.6665769 31.1484307,17.8204231 L31.0201536,17.6617692 C30.9792741,17.6243974 30.9292319,17.5588205 30.9292319,17.5588205 C32.0618765,17.7442692 32.8336536,18.2004872 35.047491,18.4472821 C36.3041837,18.5826667 35.9073705,18.5706795 36.911738,18.5467051 C38.2952982,18.5022821 39.3912922,18.381 39.466003,18.0665128 C39.3320873,17.9522821 38.7203042,18.0996538 35.7819127,16.9770897 C34.4216114,16.4552949 34.2059367,16.3784359 33.3418283,16.0914487 C32.2303283,15.7163205 31.0250873,15.1973462 31.0250873,15.1973462 C35.8178584,16.4552949 37.3860813,16.9481795 39.5787741,16.9785 C40.4273765,16.9940128 40.9313223,16.8917692 41.2280512,16.8311282 C41.5395813,16.7747179 42.5072982,16.5554231 42.61725,16.2204872 C42.6503765,16.1619615 41.689003,16.3784359 39.9100392,15.7910641 C34.3151837,13.9415128 33.8394307,13.0163846 30.7382259,11.8092051 C29.6556235,11.3889487 29.3039187,11.1583718 26.0370813,10.3143333 C24.5400452,9.92933333 22.2761657,10.1507436 21.9681596,10.3439487 C17.727262,9.34619231 16.7637741,9.45478205 15.5190633,9.7234359 C23.8169006,4.39971795 35.0242319,5.35869231 42.2845753,12.6215128 C43.268503,13.6086923 44.1403645,14.6699103 44.9036837,15.7945897 L45.0058825,15.9490128 C47.3346054,19.4372821 48.5786114,23.5319615 48.5786114,27.819141 C48.5786114,33.5602949 46.3422199,38.9545256 42.2845753,43.0195897 L42.2845753,43.0195897 Z M44.8860633,10.0125385 C35.07075,0.190102564 19.1122319,0.190102564 9.29903313,10.0104231 C-0.512756024,19.8286282 -0.512756024,35.8061282 9.29903313,45.6264487 C19.1122319,55.4467692 35.0763886,55.4432436 44.8860633,45.6243333 C54.7105392,35.8061282 54.7105392,19.8286282 44.8860633,10.0125385 L44.8860633,10.0125385 Z" id="Fill-46" fill="#293052"></path>
                <g id="text" transform="translate(70.000000, 10.000000)">
                    <path d="M30.1966307,5 C31.7175573,5 32.9126086,5.49485896 33.7465122,6.46719435 C34.5772572,7.42975207 35,8.73507159 35,10.3424126 L35,18.9994568 L31.4953935,18.9994568 L31.4953935,11.2582548 C31.4953935,10.3076475 31.2790208,9.57269235 30.8578573,9.07620378 C30.441432,8.58080161 29.8565412,8.3417918 29.0705449,8.3417918 C28.2992893,8.3417918 27.6896552,8.5916657 27.2147934,9.10879603 C26.7420374,9.62321034 26.5019742,10.3625112 26.5019742,11.3082295 L26.5019742,19 L23,19 L23,5.27431808 L26.5019742,5.27431808 L26.5019742,6.77084546 C26.5693604,6.69153766 26.637273,6.61222985 26.7062385,6.5394405 C26.9663069,6.24773988 27.2784943,5.98211306 27.6233219,5.7501649 C27.9739405,5.51821674 28.3624638,5.33515695 28.7746775,5.20315834 C29.1921558,5.06790052 29.6738615,5 30.1966307,5 Z" id="Fill-1" fill="#FEFEFE"></path>
                    <path d="M42.5821712,16.1989286 C41.9539945,16.1989286 41.4212173,16.0489382 41.0005213,15.7559212 C40.6116252,15.4821886 40.4208263,15.0932849 40.4208263,14.5683183 L40.4208263,14.5179644 C40.4208263,13.9892481 40.6314349,13.584274 41.0630783,13.2778649 C41.5244363,12.9532428 42.1870194,12.7893247 43.0341457,12.7893247 C43.5710934,12.7893247 44.0913593,12.8364645 44.5704418,12.9291372 C44.9760198,13.0105606 45.3398931,13.106983 45.6479864,13.2173331 L45.6479864,13.7578343 C45.6479864,14.1204898 45.5755246,14.4531471 45.432686,14.7434857 C45.2835918,15.0391812 45.069334,15.2979147 44.8060732,15.5089726 C44.5266519,15.7237804 44.1992702,15.8946623 43.8228854,16.0178688 C43.4454581,16.1373254 43.0273687,16.1989286 42.5821712,16.1989286 M43.1801121,5 C42.1218559,5 41.2059169,5.10070786 40.4567966,5.30158791 C39.712368,5.50300363 38.9715887,5.77245074 38.2626091,6.10350105 L38.0332334,6.21331548 L38.9955689,9.12634398 L39.2702984,9.00903004 C39.8275772,8.77065238 40.3879838,8.57780754 40.9270168,8.43210254 C41.4624006,8.29121867 42.0806725,8.21997322 42.7719275,8.21997322 C43.6982927,8.21997322 44.4140493,8.43531663 44.895217,8.8643964 C45.3435423,9.26133537 45.5755246,9.81951406 45.5984621,10.573216 C45.2038316,10.4569734 44.797211,10.3594796 44.3817281,10.2828774 C43.8359182,10.1827052 43.1660368,10.1318156 42.3872019,10.1318156 C41.6359964,10.1318156 40.9233677,10.2202028 40.2759025,10.3985843 C39.6138407,10.5775014 39.0357096,10.8598049 38.5545419,11.2326382 C38.0681611,11.6102927 37.6823928,12.0902621 37.4102698,12.6591544 C37.1376254,13.2301894 37,13.9035393 37,14.6631337 L37,14.7134877 C37,15.4088005 37.1339763,16.0366176 37.3993223,16.5728334 C37.65737,17.1063708 38.0155089,17.5606275 38.4523654,17.9189975 C38.8814023,18.2741534 39.3933273,18.5484217 39.9652027,18.7300172 C40.5292584,18.907863 41.1360615,19 41.7699726,19 C42.7656718,19 43.6268735,18.8082265 44.3327251,18.4284293 C44.8013815,18.1739813 45.2194709,17.8820356 45.5765672,17.5493782 L45.5765672,18.7289459 L49,18.7289459 L49,10.7617754 C49,8.95653338 48.5157044,7.52948154 47.5570181,6.52240291 C46.5998957,5.51050316 45.1287632,5 43.1801121,5" id="Fill-3" fill="#FEFEFE"></path>
                    <path d="M68.1884299,14.3238043 L64.7473971,5 L61,5 L66.4642032,18.5948323 C66.2532465,19.0731171 66.0375194,19.4046179 65.818082,19.5761407 C65.5901639,19.7575591 65.3055314,19.8455195 64.9429826,19.8455195 C64.6663007,19.8455195 64.3975694,19.8004398 64.141029,19.7196262 C63.8717677,19.633315 63.6099269,19.5156679 63.3496763,19.3743815 L63.0862454,19.2286971 L61.8586681,22.0313359 L62.0902964,22.1588785 C62.5530231,22.4211105 63.043842,22.6256185 63.5415515,22.7762507 C64.0440313,22.9235844 64.6228372,23 65.2599478,23 C65.8011207,23 66.29671,22.9279824 66.7292242,22.786696 C67.167569,22.6393623 67.5741112,22.4051677 67.9440806,22.0896097 C68.3039791,21.7746014 68.6373755,21.3672347 68.9273085,20.8697086 C69.2087608,20.3870258 69.4854428,19.786696 69.7499337,19.0841121 L75,5.00109951 L71.3289289,5.00109951 L68.1884299,14.3238043 Z" id="Fill-5" fill="#FEFEFE"></path>
                    <path d="M91.5570911,14.3446796 C91.0937052,14.7978194 90.5908823,15.1727767 90.0727227,15.4583824 C89.5792113,15.7328192 88.9882026,15.8742924 88.3199629,15.8742924 C87.7804416,15.8742924 87.2820005,15.7721764 86.8350468,15.5711355 C86.388093,15.3669035 85.995913,15.0908711 85.6722002,14.7467614 C85.345201,14.401588 85.0910508,13.9899328 84.9113929,13.5224329 C84.733926,13.0517418 84.6435493,12.543821 84.6435493,12.0114349 L84.6435493,11.9614406 C84.6435493,11.4471375 84.7317351,10.9482582 84.9113929,10.4759716 C85.0910508,10.0063443 85.3402713,9.59841204 85.6502907,9.26121643 C85.9586669,8.92614824 86.3327716,8.65277514 86.7654841,8.4485431 C87.1905284,8.25069331 87.6637735,8.14910914 88.1687874,8.14910914 C88.8846802,8.14910914 89.4888346,8.28739125 89.9692003,8.5602325 C90.4731187,8.84637009 90.9496503,9.22239106 91.4020814,9.67233978 L91.6173422,9.8861452 L93.8910003,7.50396991 L93.7113424,7.31250237 C93.0710373,6.62215553 92.3085868,6.05998556 91.4535687,5.64035254 C90.5875959,5.21593283 89.4899301,5 88.196722,5 C87.1702621,5 86.2111738,5.18987198 85.3287689,5.55897884 C84.4518412,5.93021312 83.6817224,6.44026137 83.0436083,7.07157239 C82.4049465,7.70447897 81.8988371,8.45971204 81.5400691,9.31014702 C81.1845875,10.1589864 81,11.069521 81,12.0119667 L81,12.0614292 C81,13.0044068 81.1845875,13.9090909 81.5400691,14.7547392 C81.8988371,15.5977282 82.4049465,16.3412605 83.0436083,16.9667211 C83.6866521,17.5916499 84.4507458,18.0894655 85.3183618,18.4521901 C86.1876211,18.8154466 87.1478048,19 88.1709783,19 C89.5041712,19 90.6253897,18.7611974 91.5023174,18.2947612 C92.3622651,17.8341754 93.1444341,17.2257341 93.8132215,16.4901797 L94,16.2907343 L91.7586585,14.1505527 L91.5570911,14.3446796 Z" id="Fill-7" fill="#E37F26"></path>
                    <path d="M102.01016,15.8765385 C101.500093,15.8765385 101.024413,15.7749582 100.595103,15.5728613 C100.168918,15.3697007 99.7901455,15.0894241 99.4723308,14.7362863 C99.1607681,14.3820848 98.9086003,13.9688497 98.7319787,13.5066859 C98.5569201,13.0461176 98.4662647,12.5440663 98.4662647,12.012764 L98.4662647,11.9622398 C98.4662647,11.4452971 98.548063,10.9448412 98.7106174,10.4725726 C98.8721298,10.0072177 99.1107514,9.60249202 99.4134569,9.26690473 C99.7198095,8.92972193 100.091809,8.65529555 100.524766,8.4531986 C100.951993,8.25163349 101.43653,8.15005318 101.962227,8.15005318 C102.492613,8.15005318 102.97715,8.25163349 103.404897,8.4531986 C103.84046,8.65529555 104.215065,8.93291293 104.531316,9.27913691 C104.8434,9.62429722 105.094526,10.0370005 105.268542,10.5039508 C105.444643,10.9762194 105.534777,11.4809299 105.534777,12.0117003 L105.534777,12.0616928 C105.534777,12.57704 105.454021,13.0748367 105.291467,13.5380641 C105.125786,13.9949096 104.892896,14.4022945 104.586543,14.7495821 C104.279149,15.0920833 103.906628,15.3659778 103.479402,15.5712658 C103.045402,15.7749582 102.555134,15.8765385 102.01016,15.8765385 M107.021212,7.04756116 C106.402255,6.41308312 105.655651,5.90730892 104.804324,5.54778909 C103.95925,5.18454642 103.015184,5 102.01016,5 C101.005657,5 100.067843,5.18986476 99.217558,5.55948944 C98.3651892,5.93070962 97.6237952,6.43754749 97.0048379,7.07096186 C96.3832757,7.70331257 95.8924863,8.45053943 95.536638,9.29190093 C95.1807897,10.1369853 95,11.051208 95,12.0117003 L95,12.0616928 C95,13.0046346 95.1771426,13.9098161 95.5204868,14.7538368 C95.869041,15.5973256 96.3598303,16.3434888 96.9834766,16.9662665 C97.6024339,17.5917034 98.346433,18.0900319 99.1972387,18.4554019 C100.045439,18.8149217 100.977522,19 101.962227,19 C102.964646,19 103.912359,18.8106671 104.772022,18.4389151 C105.631685,18.070354 106.375163,17.5613888 106.996725,16.9306336 C107.61464,16.2977511 108.111682,15.5510561 108.464925,14.7070354 C108.822857,13.8635466 109,12.9562377 109,12.0117003 L109,11.9622398 C109,11.0022793 108.822857,10.0912475 108.478471,9.25467254 C108.130438,8.42288406 107.643296,7.67831637 107.021212,7.04756116" id="Fill-9" fill="#E37F26"></path>
                    <path d="M129.734705,6.39755577 C128.89557,5.4714646 127.71308,5 126.232068,5 C125.218354,5 124.330169,5.22867119 123.583333,5.68058196 C122.968354,6.05373424 122.418776,6.53443259 121.936181,7.11181377 C121.592827,6.53932105 121.147152,6.06188167 120.584916,5.68927255 C119.912975,5.23247333 119.075949,5.00108632 118.109177,5.00108632 C117.603903,5.00108632 117.132911,5.06843841 116.714135,5.20368574 C116.296414,5.33621726 115.911392,5.52306499 115.580696,5.75608147 C115.25211,5.98529583 114.952532,6.24329777 114.699895,6.52519884 C114.631857,6.59798254 114.57173,6.67130941 114.510549,6.74517944 L114.510549,5.2742968 L111,5.2742968 L111,19 L114.510549,19 L114.510549,11.3300097 C114.510549,10.3832784 114.736287,9.63643065 115.186709,9.1128225 C115.633966,8.59355965 116.21097,8.34153249 116.950422,8.34153249 C117.687236,8.34153249 118.242089,8.57726479 118.636603,9.05796314 C119.042722,9.54735209 119.246835,10.2800776 119.246835,11.2316974 L119.246835,18.9983705 L122.757384,18.9983705 L122.757384,11.3077401 C122.757384,10.328419 122.984705,9.57831232 123.438291,9.08294859 C123.892932,8.58215325 124.4673,8.34153249 125.198312,8.34153249 C125.934599,8.34153249 126.490506,8.57726479 126.884494,9.05796314 C127.286392,9.54735209 127.494198,10.2898545 127.494198,11.2577692 L127.494198,18.9983705 L131,18.9983705 L131,10.3170126 C130.998945,8.63809893 130.576477,7.32201746 129.734705,6.39755577" id="Fill-11" fill="#E37F26"></path>
                    <mask id="mask-2" fill="white">
                        <use xlink:href="#path-1"></use>
                    </mask>
                    <g id="Clip-14"></g>
                    <polygon id="Fill-13" fill="#FEFEFE" mask="url(#mask-2)" points="18 19 21 19 21 5 18 5"></polygon>
                    <path d="M19.4983718,0 C18.3917232,0 17.5,0.896663954 17.5,2.00054245 C17.5,3.10442094 18.3917232,4 19.4983718,4 C20.6050204,4 21.5,3.10442094 21.5,2.00054245 C21.5,0.896663954 20.6050204,0 19.4983718,0 Z" id="Fill-15" fill="#FEFEFE" mask="url(#mask-2)"></path>
                    <path d="M79.5,17.0013559 C79.5,15.8949153 78.6060483,15 77.5027122,15 C76.3977488,15 75.5,15.8949153 75.5,17.0013559 C75.5,18.1012881 76.3977488,19 77.5027122,19 C78.6060483,18.9983729 79.5,18.1012881 79.5,17.0013559" id="Fill-16" fill="#E37F26" mask="url(#mask-2)"></path>
                    <path d="M12.3414282,13.3575956 C12.3414282,14.1455161 12.050699,14.720382 11.4593481,15.1121627 C10.8542575,15.5137515 9.99525985,15.7180877 8.92082575,15.7180877 L3.77618246,15.7180877 L3.65857177,15.7180877 L3.65857177,15.6047492 L3.65857177,11.1126215 L3.65857177,10.9949239 L3.77618246,10.9949239 L8.68065813,10.9949239 C9.93205784,10.9949239 10.8734929,11.2047091 11.4714389,11.6155611 C12.0528973,12.0122458 12.3414282,12.5664057 12.3414282,13.3041957 L12.3414282,13.3575956 Z M3.65857177,7.72990335 L3.65857177,3.40015487 L3.65857177,3.28572658 L3.77618246,3.28572658 L8.20087246,3.28572658 C9.21595164,3.28572658 10.0013053,3.47970977 10.5267063,3.87040064 C11.0416652,4.25182827 11.2906262,4.77111474 11.2906262,5.45986406 L11.2906262,5.51162924 C11.2906262,6.30227423 11.0070415,6.8700565 10.4173393,7.25148413 C9.81279841,7.64980355 8.98457734,7.84705612 7.95465943,7.84705612 L3.77618246,7.84705612 L3.65857177,7.84705612 L3.65857177,7.72990335 Z M14.9184213,10.5944248 C14.5793288,10.2277094 14.1649435,9.90731022 13.7016453,9.63813129 C13.4092673,9.47411741 13.0921581,9.31991167 12.7591111,9.17823855 L12.5530176,9.09377957 L12.7387765,8.97390232 C12.8970563,8.87364134 13.0553361,8.76248243 13.2103184,8.64260518 C13.5527084,8.38486908 13.852231,8.07972698 14.1033902,7.7380768 C14.3539999,7.39806132 14.560643,6.99483782 14.7172741,6.54584301 C14.8744547,6.09303393 14.9541442,5.56993318 14.9541442,4.98035504 L14.9541442,4.92858986 C14.9541442,3.65734607 14.5095318,2.57245691 13.6334971,1.70716109 C12.4980593,0.57432103 10.8042455,0 8.60426614,0 L0,0 L0,19 L8.8686154,19 C9.91941744,19 10.8883317,18.8861166 11.7544739,18.6599845 C12.6321575,18.4333075 13.3922303,18.0992859 14.0149074,17.6622788 C14.64363,17.218733 15.1360561,16.659669 15.4828427,15.9970748 C15.8219352,15.3350254 16,14.5607273 16,13.6997906 L16,13.6480255 C16,12.9908802 15.9060214,12.4056612 15.7180641,11.9087155 C15.5334043,11.4085004 15.265208,10.9649545 14.9184213,10.5944248 L14.9184213,10.5944248 Z" id="Fill-17" fill="#FEFEFE" mask="url(#mask-2)"></path>
                    <path d="M59.7478947,5.00587509 C58.5594737,4.95365617 57.5557895,5.24956335 56.7663158,5.89250872 C56.2752632,6.28687031 55.8526316,6.76880737 55.5047368,7.33396832 L55.5047368,5.25554677 L52,5.25554677 L52,19 L55.5047368,19 L55.5047368,13.7003242 C55.5047368,12.8680853 55.6036842,12.1332129 55.8047368,11.505498 C56.0010526,10.8935576 56.2794737,10.3795277 56.6342105,9.97863872 C56.9926316,9.5804695 57.4205263,9.27803496 57.9121053,9.07786246 C58.4047368,8.87660206 58.9631579,8.77434002 59.5694737,8.77434002 L60,8.77434002 L60,5.01729797 L59.7478947,5.00587509 Z" id="Fill-18" fill="#FEFEFE" mask="url(#mask-2)"></path>
                </g>
                <g id="slogan" transform="translate(69.000000, 35.000000)" fill="#FFFFFF">
                    <path d="M6.15722656,1.66210938 L3.9453125,1.66210938 L2.84667969,8 L1.93359375,8 L3.03222656,1.66210938 L0.8203125,1.66210938 L0.95703125,0.890625 L6.29394531,0.890625 L6.15722656,1.66210938 Z M9.00625,3.52246094 L8.59121094,3.47851562 C8.02480186,3.47851562 7.57884277,3.73404692 7.25332031,4.24511719 L6.60390625,8 L5.72011719,8 L6.63808594,2.71679688 L7.49257813,2.71191406 L7.36074219,3.32714844 C7.73509302,2.83560952 8.17616934,2.5963541 8.68398438,2.609375 C8.79140679,2.609375 8.93137935,2.63378882 9.10390625,2.68261719 L9.00625,3.52246094 Z M12.5046875,7.47753906 C12.091274,7.90397349 11.5655631,8.11067715 10.9275391,8.09765625 C10.4229793,8.08463535 10.0494478,7.9039731 9.8069336,7.55566406 C9.56441936,7.20735503 9.47408824,6.73209937 9.5359375,6.12988281 L10.1023438,2.71679688 L10.9861328,2.71679688 L10.4148438,6.14453125 C10.3985676,6.28776113 10.3953125,6.42773369 10.4050781,6.56445312 C10.4213543,6.7988293 10.4913405,6.98274673 10.6150391,7.11621094 C10.7387376,7.24967515 10.9112619,7.32128901 11.1326172,7.33105469 C11.7641308,7.35058604 12.2524071,7.09505474 12.5974609,6.56445312 L13.2615234,2.71679688 L14.1453125,2.71679688 L13.2273438,8 L12.3923828,8 L12.5046875,7.47753906 Z M17.9171875,6.56933594 C17.9660159,6.20475078 17.7658226,5.94759189 17.3166016,5.79785156 L16.3986328,5.52929688 C15.6238894,5.26236846 15.2495441,4.81966455 15.2755859,4.20117188 C15.2983725,3.73567476 15.5107727,3.3540054 15.912793,3.05615234 C16.3148132,2.75829929 16.7876275,2.61263018 17.33125,2.61914062 C17.8651068,2.62565107 18.298859,2.78108572 18.6325195,3.08544922 C18.9661801,3.38981272 19.1264975,3.78613037 19.1134766,4.27441406 L18.2345703,4.26953125 C18.2410808,4.00585806 18.1580738,3.79101646 17.9855469,3.625 C17.81302,3.45898354 17.5835301,3.37272139 17.2970703,3.36621094 C16.9910792,3.35970049 16.72741,3.43456953 16.5060547,3.59082031 C16.3009755,3.73730542 16.1821616,3.92936079 16.1496094,4.16699219 C16.1072915,4.4729833 16.2944641,4.69596284 16.7111328,4.8359375 L17.1554688,4.95800781 C17.7609405,5.11425859 18.1906237,5.31770708 18.4445313,5.56835938 C18.6984388,5.81901167 18.8156251,6.12988096 18.7960938,6.50097656 C18.7765624,6.82975425 18.6691416,7.11620972 18.4738281,7.36035156 C18.2785147,7.60449341 18.0181006,7.79085222 17.6925781,7.91943359 C17.3670557,8.04801497 17.0203794,8.10742192 16.6525391,8.09765625 C16.0926404,8.0911458 15.6304055,7.92757322 15.2658203,7.60693359 C14.9012352,7.28629397 14.7254557,6.87370044 14.7384766,6.36914062 L15.6222656,6.37402344 C15.6222656,6.67024888 15.7166657,6.90787671 15.9054688,7.08691406 C16.0942718,7.26595142 16.3530583,7.35546875 16.6818359,7.35546875 C17.0041032,7.3619792 17.2824207,7.2944343 17.5167969,7.15283203 C17.7511731,7.01122976 17.8846353,6.81673301 17.9171875,6.56933594 Z M22.1285156,1.4375 L21.9039063,2.71679688 L22.8658203,2.71679688 L22.74375,3.41503906 L21.7867188,3.41503906 L21.2349609,6.70117188 C21.2251953,6.78580771 21.2235677,6.86393193 21.2300781,6.93554688 C21.2528647,7.18945439 21.3912097,7.31640625 21.6451172,7.31640625 C21.7525396,7.31640625 21.8957673,7.30013037 22.0748047,7.26757812 L22.0064453,8.00488281 C21.7948557,8.06347686 21.5800141,8.09277344 21.3619141,8.09277344 C21.0103498,8.08626299 20.7466806,7.95686975 20.5708984,7.70458984 C20.3951163,7.45230994 20.3267576,7.11295786 20.3658203,6.68652344 L20.9029297,3.41503906 L19.9703125,3.41503906 L20.0923828,2.71679688 L21.025,2.71679688 L21.2496094,1.4375 L22.1285156,1.4375 Z M25.3974609,8.09765625 C24.7399056,8.08463535 24.2255878,7.84212476 23.8544922,7.37011719 C23.4833966,6.89810962 23.3271482,6.29427451 23.3857422,5.55859375 L23.4101563,5.34863281 C23.4654951,4.82454165 23.6209297,4.34603081 23.8764649,3.91308594 C24.132,3.48014106 24.4436831,3.15380969 24.8115234,2.93408203 C25.1793638,2.71435437 25.5764953,2.60937495 26.0029297,2.61914062 C26.5465522,2.63216152 26.9729802,2.81282378 27.2822266,3.16113281 C27.5914729,3.50944185 27.760742,3.98144233 27.7900391,4.57714844 C27.7998047,4.78873804 27.7932944,5.00032446 27.7705078,5.21191406 L27.7167969,5.6171875 L24.2646484,5.6171875 C24.2060544,6.09570552 24.2849924,6.50260249 24.5014649,6.83789062 C24.7179373,7.17317876 25.0410135,7.34733066 25.4707031,7.36035156 C25.9915391,7.37337246 26.4733051,7.1389998 26.9160156,6.65722656 L27.4238281,7.08691406 C27.2024729,7.40592607 26.9168312,7.65576082 26.5668945,7.83642578 C26.2169579,8.01709075 25.8271506,8.1041667 25.3974609,8.09765625 Z M25.9589844,3.35644531 C25.5943992,3.34667964 25.2762058,3.47037632 25.0043945,3.72753906 C24.7325833,3.98470181 24.5169279,4.36718496 24.3574219,4.875 L26.9257813,4.87988281 L26.9453125,4.80175781 C26.9973961,4.39159951 26.9314788,4.05061985 26.7475586,3.77880859 C26.5636384,3.50699734 26.300783,3.36621099 25.9589844,3.35644531 Z M28.6517578,5.34863281 C28.7168623,4.81152075 28.8649728,4.32649956 29.0960938,3.89355469 C29.3272147,3.46060981 29.6120426,3.13671982 29.9505859,2.921875 C30.2891293,2.70703018 30.6618469,2.60449214 31.06875,2.61425781 C31.6579457,2.62727871 32.1104151,2.84212031 32.4261719,3.25878906 L32.9339844,0.5 L33.8177734,0.5 L32.5189453,8 L31.7132813,8 L31.8060547,7.43359375 C31.3893859,7.8893252 30.8750682,8.11067715 30.2630859,8.09765625 C29.7748023,8.08463535 29.3858087,7.89339377 29.0960938,7.52392578 C28.8063788,7.15445779 28.6501303,6.65885728 28.6273438,6.03710938 C28.6175781,5.84505112 28.625716,5.61556123 28.6517578,5.34863281 Z M29.5013672,5.85644531 C29.4916015,6.32194243 29.5746085,6.68326694 29.7503906,6.94042969 C29.9261728,7.19759243 30.1833316,7.32942705 30.521875,7.3359375 C31.0329453,7.35872407 31.4870423,7.10156519 31.8841797,6.56445312 L32.3041016,4.12304688 C32.1087881,3.64127363 31.7539739,3.39388027 31.2396484,3.38085938 C30.8913394,3.3710937 30.5845391,3.47607312 30.3192383,3.69580078 C30.0539375,3.91552844 29.8521166,4.22314255 29.7137695,4.61865234 C29.5754225,5.01416213 29.5046224,5.42675566 29.5013672,5.85644531 Z M41.3615234,5.3828125 C41.296419,5.92317979 41.1483085,6.40982856 40.9171875,6.84277344 C40.6860666,7.27571831 40.4061214,7.59635313 40.0773438,7.8046875 C39.7485661,8.01302187 39.3839864,8.11230474 38.9835938,8.10253906 C38.3455697,8.08951816 37.8719417,7.85026274 37.5626953,7.38476562 L37.3820313,8 L36.5666016,8 L37.8703125,0.5 L38.7541016,0.5 L38.221875,3.30273438 C38.6450542,2.83398203 39.159372,2.60611973 39.7648438,2.61914062 C40.2726588,2.63216152 40.6681627,2.81933413 40.9513672,3.18066406 C41.2345717,3.54199399 41.3843098,4.04003589 41.4005859,4.67480469 C41.4038412,4.88313906 41.3940756,5.08495996 41.3712891,5.28027344 L41.3615234,5.3828125 Z M40.5216797,4.87011719 C40.5314454,4.39485439 40.4516936,4.0310885 40.2824219,3.77880859 C40.1131502,3.52652869 39.8543637,3.39388027 39.5060547,3.38085938 C38.9559217,3.36783848 38.4904316,3.64452842 38.1095703,4.2109375 L37.7140625,6.51074219 C37.909376,7.04785425 38.2755833,7.3229166 38.8126953,7.3359375 C39.1577491,7.3489584 39.4596667,7.24642036 39.718457,7.02832031 C39.9772474,6.81022026 40.1733717,6.50504753 40.3068359,6.11279297 C40.4403002,5.7205384 40.511914,5.30631729 40.5216797,4.87011719 Z M44.000586,6.66699219 L45.8804688,2.71679688 L46.8570313,2.71679688 L43.7222656,8.87890625 C43.2860655,9.73503032 42.7261753,10.1582032 42.0425781,10.1484375 C41.9221348,10.1451823 41.7447277,10.1158857 41.5103516,10.0605469 L41.5884766,9.328125 L41.8179688,9.35253906 C42.0979181,9.36555996 42.3396149,9.30289783 42.5430664,9.16455078 C42.746518,9.02620374 42.9263664,8.8024104 43.0826172,8.49316406 L43.4,7.88769531 L42.4869141,2.71679688 L43.4097656,2.71679688 L44.000586,6.66699219 Z M51.7298828,1.4375 L51.5052735,2.71679688 L52.4671875,2.71679688 L52.3451172,3.41503906 L51.388086,3.41503906 L50.8363281,6.70117188 C50.8265625,6.78580771 50.8249349,6.86393193 50.8314453,6.93554688 C50.8542319,7.18945439 50.9925769,7.31640625 51.2464844,7.31640625 C51.3539068,7.31640625 51.4971345,7.30013037 51.6761719,7.26757812 L51.6078125,8.00488281 C51.3962229,8.06347686 51.1813813,8.09277344 50.9632813,8.09277344 C50.611717,8.08626299 50.3480478,7.95686975 50.1722656,7.70458984 C49.9964835,7.45230994 49.9281248,7.11295786 49.9671875,6.68652344 L50.5042969,3.41503906 L49.5716797,3.41503906 L49.69375,2.71679688 L50.6263672,2.71679688 L50.8509766,1.4375 L51.7298828,1.4375 Z M55.9998047,3.52246094 L55.5847656,3.47851562 C55.0183566,3.47851562 54.5723975,3.73404692 54.246875,4.24511719 L53.597461,8 L52.7136719,8 L53.6316406,2.71679688 L54.4861328,2.71191406 L54.3542969,3.32714844 C54.7286477,2.83560952 55.169724,2.5963541 55.6775391,2.609375 C55.7849615,2.609375 55.9249341,2.63378882 56.097461,2.68261719 L55.9998047,3.52246094 Z M59.1808594,8 C59.1580728,7.90559849 59.1466797,7.81282598 59.1466797,7.72167969 L59.1613281,7.44335938 C58.6762997,7.89258037 58.1619819,8.11067715 57.6183594,8.09765625 C57.1528623,8.0911458 56.7744481,7.9438491 56.4831055,7.65576172 C56.1917629,7.36767434 56.0591145,7.00716362 56.0851563,6.57421875 C56.1177085,6.01432012 56.3626605,5.57731277 56.8200196,5.26318359 C57.2773786,4.94905442 57.8787723,4.79199219 58.6242188,4.79199219 L59.5470703,4.796875 L59.6056641,4.37695312 C59.6382163,4.06119634 59.5771818,3.8113616 59.4225586,3.62744141 C59.2679354,3.44352122 59.0360042,3.34830732 58.7267578,3.34179687 C58.4240219,3.33528643 58.1562837,3.40934167 57.9235352,3.56396484 C57.6907866,3.71858801 57.5483727,3.92285029 57.4962891,4.17675781 L56.6076172,4.18164062 C56.6369142,3.87239429 56.7573557,3.59814573 56.9689453,3.35888672 C57.1805349,3.11962771 57.4523421,2.93408269 57.784375,2.80224609 C58.1164079,2.6704095 58.459829,2.60774736 58.8146485,2.61425781 C59.3647814,2.62727871 59.792837,2.79410647 60.0988281,3.11474609 C60.4048193,3.43538572 60.5333987,3.86099995 60.4845703,4.39160156 L60.0548828,7.00878906 L60.0304688,7.38476562 C60.0239583,7.56380298 60.0434894,7.74121006 60.0890625,7.91699219 L60.0792969,8 L59.1808594,8 Z M57.7941406,7.31640625 C58.0773452,7.3229167 58.3450834,7.2553718 58.5973633,7.11376953 C58.8496432,6.97216726 59.0669262,6.77604292 59.2492188,6.52539062 L59.4396485,5.43652344 L58.7707031,5.43164062 C58.2140597,5.43164062 57.7876317,5.51953037 57.4914063,5.6953125 C57.1951808,5.87109463 57.0275393,6.12011558 56.9884766,6.44238281 C56.9591796,6.68977988 57.0169589,6.89566975 57.1618164,7.06005859 C57.3066739,7.22444744 57.5174466,7.3098958 57.7941406,7.31640625 Z M61.6294922,5.34863281 C61.6945967,4.81152075 61.8427072,4.32649956 62.0738281,3.89355469 C62.3049491,3.46060981 62.589777,3.13671982 62.9283203,2.921875 C63.2668637,2.70703018 63.6395813,2.60449214 64.0464844,2.61425781 C64.6356801,2.62727871 65.0881495,2.84212031 65.4039063,3.25878906 L65.9117188,0.5 L66.7955078,0.5 L65.4966797,8 L64.6910156,8 L64.7837891,7.43359375 C64.3671203,7.8893252 63.8528026,8.11067715 63.2408203,8.09765625 C62.7525366,8.08463535 62.3635431,7.89339377 62.0738281,7.52392578 C61.7841132,7.15445779 61.6278647,6.65885728 61.6050781,6.03710938 C61.5953125,5.84505112 61.6034504,5.61556123 61.6294922,5.34863281 Z M62.4791016,5.85644531 C62.4693359,6.32194243 62.5523429,6.68326694 62.728125,6.94042969 C62.9039071,7.19759243 63.161066,7.32942705 63.4996094,7.3359375 C64.0106797,7.35872407 64.4647767,7.10156519 64.8619141,6.56445312 L65.281836,4.12304688 C65.0865225,3.64127363 64.7317083,3.39388027 64.2173828,3.38085938 C63.8690738,3.3710937 63.5622735,3.47607312 63.2969727,3.69580078 C63.0316719,3.91552844 62.829851,4.22314255 62.6915039,4.61865234 C62.5531569,5.01416213 62.4823568,5.42675566 62.4791016,5.85644531 Z M69.2783203,8.09765625 C68.620765,8.08463535 68.1064472,7.84212476 67.7353516,7.37011719 C67.364256,6.89810962 67.2080075,6.29427451 67.2666016,5.55859375 L67.2910156,5.34863281 C67.3463545,4.82454165 67.5017891,4.34603081 67.7573242,3.91308594 C68.0128594,3.48014106 68.3245425,3.15380969 68.6923828,2.93408203 C69.0602232,2.71435437 69.4573547,2.60937495 69.8837891,2.61914062 C70.4274116,2.63216152 70.8538396,2.81282378 71.163086,3.16113281 C71.4723323,3.50944185 71.6416014,3.98144233 71.6708985,4.57714844 C71.6806641,4.78873804 71.6741538,5.00032446 71.6513672,5.21191406 L71.5976563,5.6171875 L68.1455078,5.6171875 C68.0869138,6.09570552 68.1658518,6.50260249 68.3823242,6.83789062 C68.5987967,7.17317876 68.9218729,7.34733066 69.3515625,7.36035156 C69.8723985,7.37337246 70.3541645,7.1389998 70.796875,6.65722656 L71.3046875,7.08691406 C71.0833322,7.40592607 70.7976906,7.65576082 70.4477539,7.83642578 C70.0978173,8.01709075 69.70801,8.1041667 69.2783203,8.09765625 Z M69.8398438,3.35644531 C69.4752586,3.34667964 69.1570652,3.47037632 68.8852539,3.72753906 C68.6134427,3.98470181 68.3977873,4.36718496 68.2382813,4.875 L70.8066406,4.87988281 L70.8261719,4.80175781 C70.8782555,4.39159951 70.8123382,4.05061985 70.628418,3.77880859 C70.4444978,3.50699734 70.1816424,3.36621099 69.8398438,3.35644531 Z M75.5648438,3.52246094 L75.1498047,3.47851562 C74.5833956,3.47851562 74.1374365,3.73404692 73.8119141,4.24511719 L73.1625,8 L72.278711,8 L73.1966797,2.71679688 L74.0511719,2.71191406 L73.919336,3.32714844 C74.2936868,2.83560952 74.7347631,2.5963541 75.2425781,2.609375 C75.3500006,2.609375 75.4899731,2.63378882 75.6625,2.68261719 L75.5648438,3.52246094 Z M78.9802735,6.56933594 C79.0291018,6.20475078 78.8289085,5.94759189 78.3796875,5.79785156 L77.4617188,5.52929688 C76.6869753,5.26236846 76.3126301,4.81966455 76.3386719,4.20117188 C76.3614585,3.73567476 76.5738587,3.3540054 76.9758789,3.05615234 C77.3778992,2.75829929 77.8507135,2.61263018 78.394336,2.61914062 C78.9281928,2.62565107 79.361945,2.78108572 79.6956055,3.08544922 C80.029266,3.38981272 80.1895834,3.78613037 80.1765625,4.27441406 L79.2976563,4.26953125 C79.3041667,4.00585806 79.2211597,3.79101646 79.0486328,3.625 C78.8761059,3.45898354 78.646616,3.37272139 78.3601563,3.36621094 C78.0541652,3.35970049 77.7904959,3.43456953 77.5691407,3.59082031 C77.3640615,3.73730542 77.2452476,3.92936079 77.2126953,4.16699219 C77.1703774,4.4729833 77.35755,4.69596284 77.7742188,4.8359375 L78.2185547,4.95800781 C78.8240265,5.11425859 79.2537097,5.31770708 79.5076172,5.56835938 C79.7615247,5.81901167 79.8787111,6.12988096 79.8591797,6.50097656 C79.8396484,6.82975425 79.7322276,7.11620972 79.5369141,7.36035156 C79.3416006,7.60449341 79.0811865,7.79085222 78.7556641,7.91943359 C78.4301416,8.04801497 78.0834654,8.10742192 77.715625,8.09765625 C77.1557264,8.0911458 76.6934914,7.92757322 76.3289063,7.60693359 C75.9643211,7.28629397 75.7885416,6.87370044 75.8015625,6.36914062 L76.6853516,6.37402344 C76.6853516,6.67024888 76.7797517,6.90787671 76.9685547,7.08691406 C77.1573577,7.26595142 77.4161442,7.35546875 77.7449219,7.35546875 C78.0671891,7.3619792 78.3455067,7.2944343 78.5798828,7.15283203 C78.814259,7.01122976 78.9477212,6.81673301 78.9802735,6.56933594 Z M86.6802735,6.56933594 C86.7291018,6.20475078 86.5289085,5.94759189 86.0796875,5.79785156 L85.1617188,5.52929688 C84.3869753,5.26236846 84.0126301,4.81966455 84.0386719,4.20117188 C84.0614585,3.73567476 84.2738587,3.3540054 84.6758789,3.05615234 C85.0778992,2.75829929 85.5507135,2.61263018 86.094336,2.61914062 C86.6281928,2.62565107 87.061945,2.78108572 87.3956055,3.08544922 C87.729266,3.38981272 87.8895834,3.78613037 87.8765625,4.27441406 L86.9976563,4.26953125 C87.0041667,4.00585806 86.9211597,3.79101646 86.7486328,3.625 C86.5761059,3.45898354 86.346616,3.37272139 86.0601563,3.36621094 C85.7541652,3.35970049 85.4904959,3.43456953 85.2691407,3.59082031 C85.0640615,3.73730542 84.9452476,3.92936079 84.9126953,4.16699219 C84.8703774,4.4729833 85.05755,4.69596284 85.4742188,4.8359375 L85.9185547,4.95800781 C86.5240265,5.11425859 86.9537097,5.31770708 87.2076172,5.56835938 C87.4615247,5.81901167 87.5787111,6.12988096 87.5591797,6.50097656 C87.5396484,6.82975425 87.4322276,7.11620972 87.2369141,7.36035156 C87.0416006,7.60449341 86.7811866,7.79085222 86.4556641,7.91943359 C86.1301416,8.04801497 85.7834654,8.10742192 85.415625,8.09765625 C84.8557264,8.0911458 84.3934914,7.92757322 84.0289063,7.60693359 C83.6643211,7.28629397 83.4885416,6.87370044 83.5015625,6.36914062 L84.3853516,6.37402344 C84.3853516,6.67024888 84.4797517,6.90787671 84.6685547,7.08691406 C84.8573577,7.26595142 85.1161442,7.35546875 85.4449219,7.35546875 C85.7671891,7.3619792 86.0455067,7.2944343 86.2798828,7.15283203 C86.514259,7.01122976 86.6477212,6.81673301 86.6802735,6.56933594 Z M89.5146485,8 L88.6357422,8 L89.553711,2.71679688 L90.4326172,2.71679688 L89.5146485,8 Z M90.2421875,0.788085937 C90.3919279,0.781575488 90.5164383,0.826334155 90.6157227,0.922363281 C90.715007,1.01839241 90.7646485,1.14453047 90.7646485,1.30078125 C90.7613932,1.45377681 90.7117518,1.57910107 90.6157227,1.67675781 C90.5196936,1.77441455 90.3951831,1.82649736 90.2421875,1.83300781 C90.089192,1.83951826 89.9638677,1.79557339 89.866211,1.70117188 C89.7685542,1.60677036 89.7213542,1.48307368 89.7246094,1.33007812 C89.7278646,1.17708257 89.7766923,1.05013071 89.8710938,0.94921875 C89.9654953,0.848306787 90.089192,0.794596387 90.2421875,0.788085937 Z M92.8128907,2.71191406 L92.6859375,3.38085937 C93.1612003,2.86002344 93.7015595,2.60611973 94.3070313,2.61914062 C94.8050806,2.63216152 95.1729155,2.80468584 95.4105469,3.13671875 C95.6481783,3.46875166 95.736068,3.93586938 95.6742188,4.53808594 L95.0980469,8 L94.2142578,8 L94.7953125,4.5234375 C94.8148439,4.36393149 94.8164715,4.215821 94.8001953,4.07910156 C94.7448565,3.62337012 94.4763045,3.39062505 93.9945313,3.38085937 C93.4639297,3.3710937 92.9984395,3.65429399 92.5980469,4.23046875 L91.94375,8 L91.059961,8 L91.9779297,2.71679687 L92.8128907,2.71191406 Z M98.7917969,7.36523438 C99.1075537,7.37174482 99.3923816,7.27978611 99.6462891,7.08935547 C99.9001966,6.89892483 100.066211,6.64909009 100.144336,6.33984375 L100.979297,6.33496094 C100.930469,6.66699385 100.79782,6.9697252 100.581348,7.24316406 C100.364875,7.51660293 100.092254,7.72981694 99.7634766,7.8828125 C99.4346989,8.03580806 99.0977882,8.10742192 98.7527344,8.09765625 C98.3132791,8.0911458 97.9413753,7.97640085 97.6370118,7.75341797 C97.3326483,7.53043508 97.1088549,7.2195658 96.965625,6.82080078 C96.8223951,6.42203577 96.7735675,5.9736353 96.8191407,5.47558594 L96.8435547,5.23144531 C96.905404,4.72363027 97.0535145,4.26953325 97.2878907,3.86914062 C97.5222668,3.468748 97.8282534,3.15706492 98.2058594,2.93408203 C98.5834655,2.71109915 99.000128,2.60611973 99.4558594,2.61914062 C100.009248,2.63216152 100.451951,2.81770654 100.783984,3.17578125 C101.116017,3.53385596 101.282031,3.98795298 101.282031,4.53808594 L100.456836,4.53320312 C100.450326,4.18814932 100.354298,3.90901799 100.16875,3.69580078 C99.9832022,3.48258357 99.7325537,3.36946621 99.4167969,3.35644531 C98.9578102,3.34667964 98.5761409,3.51757637 98.2717774,3.86914062 C97.9674139,4.22070488 97.7777999,4.71223643 97.7029297,5.34375 L97.6882813,5.47070312 C97.6687499,5.6790375 97.6654948,5.8938791 97.6785157,6.11523438 C97.7013022,6.49609565 97.808723,6.79719941 98.0007813,7.01855469 C98.1928395,7.23990996 98.4565088,7.3554687 98.7917969,7.36523438 Z M104.072461,8.09765625 C103.414906,8.08463535 102.900588,7.84212476 102.529492,7.37011719 C102.158397,6.89810962 102.002148,6.29427451 102.060742,5.55859375 L102.085156,5.34863281 C102.140495,4.82454165 102.29593,4.34603081 102.551465,3.91308594 C102.807,3.48014106 103.118683,3.15380969 103.486523,2.93408203 C103.854364,2.71435437 104.251495,2.60937495 104.67793,2.61914062 C105.221552,2.63216152 105.64798,2.81282378 105.957227,3.16113281 C106.266473,3.50944185 106.435742,3.98144233 106.465039,4.57714844 C106.474805,4.78873804 106.468294,5.00032446 106.445508,5.21191406 L106.391797,5.6171875 L102.939648,5.6171875 C102.881054,6.09570552 102.959992,6.50260249 103.176465,6.83789062 C103.392937,7.17317876 103.716014,7.34733066 104.145703,7.36035156 C104.666539,7.37337246 105.148305,7.1389998 105.591016,6.65722656 L106.098828,7.08691406 C105.877473,7.40592607 105.591831,7.65576082 105.241895,7.83642578 C104.891958,8.01709075 104.502151,8.1041667 104.072461,8.09765625 Z M104.633984,3.35644531 C104.269399,3.34667964 103.951206,3.47037632 103.679395,3.72753906 C103.407583,3.98470181 103.191928,4.36718496 103.032422,4.875 L105.600781,4.87988281 L105.620313,4.80175781 C105.672396,4.39159951 105.606479,4.05061985 105.422559,3.77880859 C105.238638,3.50699734 104.975783,3.36621099 104.633984,3.35644531 Z M114.111328,8 L109.584961,8 L109.692383,7.31152344 L112.314453,4.76269531 L112.792969,4.2890625 C113.343102,3.73892954 113.647461,3.23112212 113.706055,2.765625 C113.748373,2.40755029 113.678386,2.11539827 113.496094,1.88916016 C113.313801,1.66292205 113.056642,1.54329434 112.724609,1.53027344 C112.298175,1.51725254 111.941733,1.64176301 111.655273,1.90380859 C111.368814,2.16585417 111.194662,2.5247373 111.132813,2.98046875 L110.258789,2.98535156 C110.301107,2.54915146 110.435383,2.16259934 110.661621,1.82568359 C110.887859,1.48876785 111.185708,1.22998137 111.555176,1.04931641 C111.924644,0.86865144 112.325844,0.783203076 112.758789,0.79296875 C113.347985,0.805989648 113.815916,0.984210522 114.162598,1.32763672 C114.509279,1.67106292 114.658203,2.1162082 114.609375,2.66308594 C114.554036,3.28808906 114.194339,3.94563457 113.530273,4.63574219 L113.081055,5.08984375 L110.795898,7.26269531 L114.228516,7.26269531 L114.111328,8 Z M117.375391,8.09765625 C116.776429,8.08463535 116.327215,7.87223513 116.027734,7.46044922 C115.728254,7.04866331 115.591536,6.45540752 115.617578,5.68066406 C115.624089,5.43977744 115.641992,5.20214961 115.671289,4.96777344 L115.84707,3.78125 C116.003321,2.76887515 116.30117,2.01367437 116.740625,1.515625 C117.18008,1.01757563 117.759502,0.776692627 118.478906,0.79296875 C119.084378,0.805989648 119.536034,1.0135071 119.833887,1.41552734 C120.13174,1.81754758 120.269271,2.40103784 120.246484,3.16601562 C120.236719,3.41015747 120.217188,3.64941289 120.187891,3.88378906 L120.016992,5.03125 C119.844465,6.1022189 119.540106,6.88508867 119.103906,7.37988281 C118.667706,7.87467695 118.09154,8.11393237 117.375391,8.09765625 Z M119.333398,3.72265625 C119.378972,3.32877407 119.40013,3.02278755 119.396875,2.8046875 C119.380599,1.97786045 119.059964,1.55306001 118.434961,1.53027344 C117.97923,1.51399731 117.610581,1.68245266 117.329004,2.03564453 C117.047427,2.3888364 116.851303,2.94303008 116.740625,3.69824219 L116.530664,5.11425781 C116.485091,5.49186387 116.463932,5.79947798 116.467188,6.03710937 C116.483464,6.8997439 116.802471,7.3424478 117.424219,7.36523437 C117.857164,7.38476572 118.214419,7.22526211 118.495996,6.88671875 C118.777573,6.54817539 118.97858,6.01107139 119.099023,5.27539062 L119.333398,3.72265625 Z M122.973438,8.09765625 C122.374476,8.08463535 121.925262,7.87223513 121.625781,7.46044922 C121.326301,7.04866331 121.189583,6.45540752 121.215625,5.68066406 C121.222135,5.43977744 121.240039,5.20214961 121.269336,4.96777344 L121.445117,3.78125 C121.601368,2.76887515 121.899217,2.01367437 122.338672,1.515625 C122.778127,1.01757563 123.357549,0.776692627 124.076953,0.79296875 C124.682425,0.805989648 125.134081,1.0135071 125.431934,1.41552734 C125.729787,1.81754758 125.867318,2.40103784 125.844531,3.16601562 C125.834766,3.41015747 125.815235,3.64941289 125.785938,3.88378906 L125.615039,5.03125 C125.442512,6.1022189 125.138153,6.88508867 124.701953,7.37988281 C124.265753,7.87467695 123.689587,8.11393237 122.973438,8.09765625 Z M124.931445,3.72265625 C124.977018,3.32877407 124.998177,3.02278755 124.994922,2.8046875 C124.978646,1.97786045 124.658011,1.55306001 124.033008,1.53027344 C123.577276,1.51399731 123.208628,1.68245266 122.927051,2.03564453 C122.645474,2.3888364 122.44935,2.94303008 122.338672,3.69824219 L122.128711,5.11425781 C122.083138,5.49186387 122.061979,5.79947798 122.065234,6.03710937 C122.081511,6.8997439 122.400518,7.3424478 123.022266,7.36523437 C123.455211,7.38476572 123.812466,7.22526211 124.094043,6.88671875 C124.37562,6.54817539 124.576627,6.01107139 124.69707,5.27539062 L124.931445,3.72265625 Z M128.571484,8.09765625 C127.972523,8.08463535 127.523309,7.87223513 127.223828,7.46044922 C126.924348,7.04866331 126.78763,6.45540752 126.813672,5.68066406 C126.820182,5.43977744 126.838086,5.20214961 126.867383,4.96777344 L127.043164,3.78125 C127.199415,2.76887515 127.497263,2.01367437 127.936719,1.515625 C128.376174,1.01757563 128.955595,0.776692627 129.675,0.79296875 C130.280472,0.805989648 130.732127,1.0135071 131.029981,1.41552734 C131.327834,1.81754758 131.465365,2.40103784 131.442578,3.16601562 C131.432812,3.41015747 131.413281,3.64941289 131.383984,3.88378906 L131.213086,5.03125 C131.040559,6.1022189 130.7362,6.88508867 130.3,7.37988281 C129.8638,7.87467695 129.287634,8.11393237 128.571484,8.09765625 Z M130.529492,3.72265625 C130.575065,3.32877407 130.596224,3.02278755 130.592969,2.8046875 C130.576693,1.97786045 130.256058,1.55306001 129.631055,1.53027344 C129.175323,1.51399731 128.806675,1.68245266 128.525098,2.03564453 C128.243521,2.3888364 128.047396,2.94303008 127.936719,3.69824219 L127.726758,5.11425781 C127.681185,5.49186387 127.660026,5.79947798 127.663281,6.03710937 C127.679557,6.8997439 127.998565,7.3424478 128.620313,7.36523437 C129.053257,7.38476572 129.410513,7.22526211 129.69209,6.88671875 C129.973667,6.54817539 130.174674,6.01107139 130.295117,5.27539062 L130.529492,3.72265625 Z" id="Trusted-by-traders-s"></path>
                </g>
            </g>
        </g>
    </g>
</svg>