<?xml version="1.0" encoding="UTF-8"?>
<svg width="60px" height="95px" viewBox="0 0 60 95" version="1.1" xmlns="http://www.w3.org/2000/svg" xmlns:xlink="http://www.w3.org/1999/xlink">
    <!-- Generator: Sketch 46.2 (44496) - http://www.bohemiancoding.com/sketch -->
    <title>Group</title>
    <desc>Created with Sketch.</desc>
    <defs>
        <circle id="path-1" cx="12" cy="12" r="12"></circle>
        <path d="M6,15 L18,15 L18,33.5857864 C18,34.1380712 17.5522847,34.5857864 17,34.5857864 C16.7347835,34.5857864 16.4804296,34.4804296 16.2928932,34.2928932 L12,30 L7.70710678,34.2928932 C7.31658249,34.6834175 6.68341751,34.6834175 6.29289322,34.2928932 C6.10535684,34.1053568 6,33.8510029 6,33.5857864 L6,15 Z" id="path-2"></path>
    </defs>
    <g id="Page-1" stroke="none" stroke-width="1" fill="none" fill-rule="evenodd">
        <g id="Artboard-2" transform="translate(-922.000000, -43.000000)">
            <g id="Group-18" transform="translate(158.000000, 43.000000)">
                <g id="Licensed-and-Regulated" transform="translate(640.000000, 0.000000)">
                    <g id="Group" transform="translate(106.000000, 0.000000)">
                        <g id="Group-3" transform="translate(18.000000, 0.000000)">
                            <path d="M3,0 L40.7536422,0 C41.5491789,-4.93040839e-15 42.3121419,0.315981133 42.8747323,0.878449424 L59.1210901,17.1212809 C59.6838401,17.6839087 60,18.4470691 60,19.2428314 L60,78 C60,79.6568542 58.6568542,81 57,81 L3,81 C1.34314575,81 8.29660816e-15,79.6568542 0,78 L0,3 C2.41183085e-16,1.34314575 1.34314575,3.04359188e-16 3,0 Z" id="Rectangle" fill="#293055" fill-rule="nonzero"></path>
                            <polygon id="Path" fill="#FFFFFF" points="3 3 3 78 57 78 57 19.2428314 40.7536422 3"></polygon>
                            <path d="M10.5,24 L49.5,24 C50.3284271,24 51,24.6715729 51,25.5 C51,26.3284271 50.3284271,27 49.5,27 L10.5,27 C9.67157288,27 9,26.3284271 9,25.5 C9,24.6715729 9.67157288,24 10.5,24 Z" id="Rectangle-3" fill="#C2C2C2"></path>
                            <path d="M10.5,15 L34.5,15 C35.3284271,15 36,15.6715729 36,16.5 C36,17.3284271 35.3284271,18 34.5,18 L10.5,18 C9.67157288,18 9,17.3284271 9,16.5 C9,15.6715729 9.67157288,15 10.5,15 Z" id="Rectangle-3-Copy-2" fill="#C2C2C2"></path>
                            <path d="M10.5,33 L49.5,33 C50.3284271,33 51,33.6715729 51,34.5 C51,35.3284271 50.3284271,36 49.5,36 L10.5,36 C9.67157288,36 9,35.3284271 9,34.5 C9,33.6715729 9.67157288,33 10.5,33 Z" id="Rectangle-3-Copy" fill="#C2C2C2"></path>
                            <path d="M10.5,42 L49.5,42 C50.3284271,42 51,42.6715729 51,43.5 C51,44.3284271 50.3284271,45 49.5,45 L10.5,45 C9.67157288,45 9,44.3284271 9,43.5 C9,42.6715729 9.67157288,42 10.5,42 Z" id="Rectangle-3-Copy-3" fill="#C2C2C2"></path>
                            <path d="M10.5,51 L49.5,51 C50.3284271,51 51,51.6715729 51,52.5 C51,53.3284271 50.3284271,54 49.5,54 L10.5,54 C9.67157288,54 9,53.3284271 9,52.5 C9,51.6715729 9.67157288,51 10.5,51 Z" id="Rectangle-3-Copy-4" fill="#C2C2C2"></path>
                            <path d="M39,1.5 L39,16.5 C39,18.9852814 41.0147186,21 43.5,21 L58.5,21 L58.5,18 L43.5,18 C42.6715729,18 42,17.3284271 42,16.5 L42,1.5 L39,1.5 Z" id="Path-3" fill="#293055" fill-rule="nonzero"></path>
                        </g>
                        <g id="Group-2" transform="translate(36.000000, 60.000000)">
                            <g id="Oval">
                                <use fill="#E98024" fill-rule="evenodd" xlink:href="#path-1"></use>
                                <circle stroke="#E98024" stroke-width="3" cx="12" cy="12" r="10.5"></circle>
                            </g>
                            <g id="Rectangle-2">
                                <use fill="#E98024" fill-rule="evenodd" xlink:href="#path-2"></use>
                                <path stroke="#E98024" stroke-width="3" d="M7.5,16.5 L7.5,32.3786797 L12,27.8786797 L16.5,32.3786797 L16.5,16.5 L7.5,16.5 Z"></path>
                            </g>
                            <circle id="Oval-Copy-2" fill="#FFFFFF" cx="12" cy="12" r="6"></circle>
                        </g>
                        <rect id="Rectangle-5" fill="#D8D8D8" opacity="0" x="0" y="0" width="96" height="96"></rect>
                    </g>
                </g>
            </g>
        </g>
    </g>
</svg>