<?xml version="1.0" encoding="UTF-8"?>
<svg width="93px" height="84px" viewBox="0 0 93 84" version="1.1" xmlns="http://www.w3.org/2000/svg" xmlns:xlink="http://www.w3.org/1999/xlink">
    <!-- Generator: Sketch 46.2 (44496) - http://www.bohemiancoding.com/sketch -->
    <title>Group 2</title>
    <desc>Created with Sketch.</desc>
    <defs></defs>
    <g id="Page-1" stroke="none" stroke-width="1" fill="none" fill-rule="evenodd">
        <g id="Artboard-2" transform="translate(-263.000000, -49.000000)">
            <g id="Group-18" transform="translate(158.000000, 43.000000)">
                <g id="Unique-Trade-Types">
                    <g id="Group-2" transform="translate(102.000000, 0.000000)">
                        <rect id="Rectangle-2" fill="#D8D8D8" opacity="0" x="0" y="0" width="96" height="96"></rect>
                        <path d="M66.4393398,89.5606602 C67.0251263,90.1464466 67.9748737,90.1464466 68.5606602,89.5606602 C69.1464466,88.9748737 69.1464466,88.0251263 68.5606602,87.4393398 L50.5606602,69.4393398 C49.9750261,68.8537058 49.0255796,68.8535311 48.4397301,69.4389497 L30.42648,87.4389497 C29.8404781,88.0245205 29.8401287,88.9742679 30.4256995,89.5602699 C31.0112704,90.1462718 31.9610178,90.1466212 32.5470197,89.5610503 L49.4996098,72.6209302 L66.4393398,89.5606602 Z" id="Path-4" fill="#293055" fill-rule="nonzero"></path>
                        <path d="M9,15 L9,69 L87,69 L87,15 L9,15 Z M9,12 L87,12 C88.6568542,12 90,13.3431458 90,15 L90,69 C90,70.6568542 88.6568542,72 87,72 L9,72 C7.34314575,72 6,70.6568542 6,69 L6,15 C6,13.3431458 7.34314575,12 9,12 Z" id="Rectangle-7" fill="#293055" fill-rule="nonzero"></path>
                        <rect id="Rectangle-6" fill="#293055" x="6" y="18" width="3" height="49"></rect>
                        <rect id="Rectangle-6-Copy-2" fill="#FFFFFF" x="9" y="18" width="78" height="49"></rect>
                        <rect id="Rectangle-6-Copy" fill="#293055" x="87" y="18" width="3" height="49"></rect>
                        <path d="M6,12 L90,12 C91.6568542,12 93,13.3431458 93,15 C93,16.6568542 91.6568542,18 90,18 L6,18 C4.34314575,18 3,16.6568542 3,15 C3,13.3431458 4.34314575,12 6,12 Z" id="Rectangle" fill="#293055"></path>
                        <path d="M6,66 L90,66 C91.6568542,66 93,67.3431458 93,69 C93,70.6568542 91.6568542,72 90,72 L6,72 C4.34314575,72 3,70.6568542 3,69 C3,67.3431458 4.34314575,66 6,66 Z" id="Rectangle-Copy" fill="#293055"></path>
                        <g id="Group" transform="translate(25.000000, 28.000000)" fill-rule="nonzero" fill="#C2C2C2">
                            <path d="M15.5,14.6213203 L23.4393398,22.5606602 C24.0251263,23.1464466 24.9748737,23.1464466 25.5606602,22.5606602 L46.5606602,1.56066017 C47.1464466,0.974873734 47.1464466,0.0251262658 46.5606602,-0.560660172 C45.9748737,-1.14644661 45.0251263,-1.14644661 44.4393398,-0.560660172 L24.5,19.3786797 L16.5606602,11.4393398 C15.9748737,10.8535534 15.0251263,10.8535534 14.4393398,11.4393398 L-0.560660172,26.4393398 C-1.14644661,27.0251263 -1.14644661,27.9748737 -0.560660172,28.5606602 C0.0251262658,29.1464466 0.974873734,29.1464466 1.56066017,28.5606602 L15.5,14.6213203 Z" id="Path-5"></path>
                            <path d="M44,9.5 C44,10.3284271 44.6715729,11 45.5,11 C46.3284271,11 47,10.3284271 47,9.5 L47,0.5 C47,-0.328427125 46.3284271,-1 45.5,-1 L36.5,-1 C35.6715729,-1 35,-0.328427125 35,0.5 C35,1.32842712 35.6715729,2 36.5,2 L44,2 L44,9.5 Z" id="Path-6"></path>
                        </g>
                        <circle id="Oval" fill="#E98024" cx="84" cy="18" r="12"></circle>
                        <path d="M83.5346589,22.7446443 L80.5034049,24.3382688 C80.0145603,24.5952696 79.4099331,24.4073231 79.1529323,23.9184785 C79.0505933,23.7238181 79.0152786,23.50085 79.0524554,23.2840924 L79.6313734,19.9087414 C79.6870114,19.5843474 79.5794629,19.2533472 79.3437768,19.02361 L76.8914408,16.6331732 C76.4959572,16.247672 76.4878649,15.6145587 76.8733661,15.2190752 C77.0268747,15.0615915 77.2280171,14.9591043 77.4456542,14.9274798 L80.8346992,14.4350228 C81.1604093,14.3876943 81.4419749,14.1831249 81.5876369,13.8879815 L83.1032639,10.8169858 C83.3476862,10.3217321 83.9473121,10.1183931 84.4425657,10.3628154 C84.6397783,10.4601456 84.7994058,10.6197731 84.8967361,10.8169858 L86.4123631,13.8879815 C86.5580251,14.1831249 86.8395907,14.3876943 87.1653008,14.4350228 L90.5543458,14.9274798 C91.1008907,15.0068975 91.4795721,15.5143403 91.4001545,16.0608852 C91.36853,16.2785222 91.2660428,16.4796646 91.1085592,16.6331732 L88.6562232,19.02361 C88.4205371,19.2533472 88.3129886,19.5843474 88.3686266,19.9087414 L88.9475446,23.2840924 C89.0409056,23.8284288 88.6753178,24.3453847 88.1309813,24.4387457 C87.9142237,24.4759226 87.6912556,24.4406079 87.4965951,24.3382688 L84.4653411,22.7446443 C84.1740171,22.5914862 83.8259829,22.5914862 83.5346589,22.7446443 Z" id="Star" fill="#FFFFFF"></path>
                    </g>
                </g>
            </g>
        </g>
    </g>
</svg>